%TF.GenerationSoftware,KiCad,Pcbnew,10.0.6*%
%TF.CreationDate,2026-09-14T01:04:56+08:00*%
%TF.ProjectId,Microduck_Entry_5V_R22,4d696372-6f64-4756-936b-5f456e747279,rev?*%
%TF.SameCoordinates,Original*%
%TF.FileFunction,Copper,L2,Inr*%
%TF.FilePolarity,Positive*%
%FSLAX46Y46*%
G04 Gerber Fmt 4.6, Leading zero omitted, Abs format (unit mm)*
G04 Created by KiCad (PCBNEW 10.0.6) date 2026-09-14 01:04:56*
%MOMM*%
%LPD*%
G01*
G04 APERTURE LIST*
G04 Aperture macros list*
%AMRoundRect*
0 Rectangle with rounded corners*
0 $1 Rounding radius*
0 $2 $3 $4 $5 $6 $7 $8 $9 X,Y pos of 4 corners*
0 Add a 4 corners polygon primitive as box body*
4,1,4,$2,$3,$4,$5,$6,$7,$8,$9,$2,$3,0*
0 Add four circle primitives for the rounded corners*
1,1,$1+$1,$2,$3*
1,1,$1+$1,$4,$5*
1,1,$1+$1,$6,$7*
1,1,$1+$1,$8,$9*
0 Add four rect primitives between the rounded corners*
20,1,$1+$1,$2,$3,$4,$5,0*
20,1,$1+$1,$4,$5,$6,$7,0*
20,1,$1+$1,$6,$7,$8,$9,0*
20,1,$1+$1,$8,$9,$2,$3,0*%
G04 Aperture macros list end*
%TA.AperFunction,ComponentPad*%
%ADD10C,6.000000*%
%TD*%
%TA.AperFunction,ComponentPad*%
%ADD11RoundRect,0.250000X-0.550000X-0.550000X0.550000X-0.550000X0.550000X0.550000X-0.550000X0.550000X0*%
%TD*%
%TA.AperFunction,ComponentPad*%
%ADD12C,1.600000*%
%TD*%
%TA.AperFunction,ViaPad*%
%ADD13C,0.450000*%
%TD*%
G04 APERTURE END LIST*
D10*
%TO.N,BENCH_5V*%
%TO.C,W5*%
X32000000Y-13000000D03*
%TD*%
%TO.N,GND*%
%TO.C,W4*%
X24000000Y-17000000D03*
%TD*%
%TO.N,GND*%
%TO.C,W2*%
X5000000Y-16000000D03*
%TD*%
%TO.N,GND*%
%TO.C,W8*%
X40000000Y-20000000D03*
%TD*%
D11*
%TO.N,SYSTEM_5V*%
%TO.C,C18*%
X39000000Y-31000000D03*
D12*
%TO.N,GND*%
X41500000Y-31000000D03*
%TD*%
D10*
%TO.N,BAT_MON*%
%TO.C,W3*%
X24000000Y-9000000D03*
%TD*%
%TO.N,SYSTEM_5V*%
%TO.C,W7*%
X40000000Y-13000000D03*
%TD*%
D11*
%TO.N,LOGIC_VIN*%
%TO.C,C11*%
X4000000Y-32000000D03*
D12*
%TO.N,GND*%
X7500000Y-32000000D03*
%TD*%
D10*
%TO.N,BAT_FUSED*%
%TO.C,W1*%
X5000000Y-9000000D03*
%TD*%
%TO.N,GND*%
%TO.C,W6*%
X32000000Y-20000000D03*
%TD*%
D13*
%TO.N,BENCH_5V*%
X29800000Y-27400000D03*
X28600000Y-27400000D03*
X35400000Y-28400000D03*
X30400000Y-27400000D03*
X30400000Y-31800000D03*
X36600000Y-23400000D03*
X29200000Y-27400000D03*
X31000000Y-29200000D03*
%TO.N,GND*%
X15000000Y-3000000D03*
X6000000Y-36000000D03*
X30000000Y-9000000D03*
X46000000Y-10500000D03*
X46000000Y-9500000D03*
X15000000Y-15000000D03*
X15200000Y-24400000D03*
X15000000Y-39000000D03*
X45000000Y-39000000D03*
X48000000Y-36000000D03*
X48000000Y-15000000D03*
X3000000Y-36000000D03*
X16000000Y-24400000D03*
X46100000Y-4300000D03*
X42000000Y-39000000D03*
X12000000Y-39000000D03*
X48000000Y-21000000D03*
X6000000Y-30000000D03*
X16000000Y-23000000D03*
X15200000Y-25100000D03*
X39000000Y-39000000D03*
X17300000Y-15500000D03*
X39000000Y-36000000D03*
X48000000Y-12000000D03*
X3000000Y-27000000D03*
X46000000Y-24000000D03*
X30000000Y-33000000D03*
X21000000Y-30000000D03*
X48000000Y-33000000D03*
X9000000Y-30000000D03*
X10700000Y-17000000D03*
X21000000Y-27000000D03*
X33000000Y-6000000D03*
X24000000Y-24000000D03*
X48000000Y-27000000D03*
X36900000Y-2675000D03*
X48000000Y-3000000D03*
X3000000Y-24000000D03*
X33000000Y-24000000D03*
X16000000Y-23700000D03*
X9000000Y-39000000D03*
X27000000Y-3000000D03*
X18000000Y-39000000D03*
X33000000Y-33000000D03*
X45000000Y-21000000D03*
X12000000Y-18000000D03*
X44000000Y-39325000D03*
X21000000Y-3000000D03*
X36000000Y-9000000D03*
X45000000Y-33000000D03*
X9000000Y-33000000D03*
X37100000Y-7500000D03*
X9000000Y-15000000D03*
X39000000Y-9000000D03*
X38000000Y-9000000D03*
X24000000Y-30000000D03*
X9000000Y-12000000D03*
X40775000Y-24500000D03*
X9000000Y-6000000D03*
X26500000Y-39325000D03*
X33775000Y-30000000D03*
X6000000Y-3000000D03*
X18000000Y-3000000D03*
X18000000Y-27000000D03*
X9000000Y-36000000D03*
X46000000Y-18500000D03*
X39000000Y-33000000D03*
X27000000Y-30000000D03*
X21000000Y-24000000D03*
X6000000Y-33000000D03*
X24000000Y-39000000D03*
X3000000Y-21000000D03*
X30000000Y-6000000D03*
X12000000Y-3000000D03*
X10100000Y-16500000D03*
X16000000Y-25800000D03*
X42000000Y-27000000D03*
X36000000Y-36000000D03*
X21000000Y-39000000D03*
X18000000Y-36000000D03*
X18000000Y-30000000D03*
X15200000Y-25800000D03*
X15200000Y-23700000D03*
X15200000Y-23000000D03*
X27000000Y-24000000D03*
X3000000Y-30000000D03*
X16000000Y-25100000D03*
X48000000Y-18000000D03*
X29900000Y-2675000D03*
X46000000Y-31000000D03*
X9000000Y-18000000D03*
X30600000Y-25600000D03*
X48000000Y-30000000D03*
X34500000Y-39325000D03*
X6000000Y-39000000D03*
X9000000Y-3000000D03*
X48000000Y-24000000D03*
X24000000Y-33000000D03*
%TO.N,BAT_MON*%
X17900000Y-16000000D03*
%TO.N,LOGIC_VIN*%
X10600000Y-24700000D03*
X10600000Y-23700000D03*
X7200000Y-25400000D03*
X20400000Y-24600000D03*
%TO.N,SYSTEM_5V*%
X35400000Y-24800000D03*
X30400000Y-26600000D03*
X35400000Y-24200000D03*
X31800000Y-28400000D03*
X35400000Y-25400000D03*
X29200000Y-26600000D03*
X28600000Y-26600000D03*
X29800000Y-26600000D03*
X35400000Y-26000000D03*
%TO.N,BENCH_VALID*%
X32000000Y-32200000D03*
X30600000Y-28400000D03*
%TO.N,MOBILE_5V*%
X15200000Y-30800000D03*
X15200000Y-28700000D03*
X15200000Y-29400000D03*
X15200000Y-28000000D03*
X16000000Y-28000000D03*
X16000000Y-30800000D03*
X16000000Y-30100000D03*
X36200000Y-27250000D03*
X15200000Y-30100000D03*
X36800000Y-27250000D03*
X15605000Y-32700000D03*
X35600000Y-27250000D03*
X37400000Y-27250000D03*
X16000000Y-29400000D03*
X22400000Y-35000000D03*
X16000000Y-28700000D03*
%TO.N,+3V3*%
X45300000Y-4500000D03*
X35900000Y-2675000D03*
X46000000Y-17500000D03*
X35500000Y-39325000D03*
X27500000Y-39325000D03*
X47400000Y-7000000D03*
X25800000Y-32200000D03*
X44200000Y-9000000D03*
%TO.N,RUN_OK*%
X28500000Y-39325000D03*
X31900000Y-2675000D03*
X36500000Y-39325000D03*
X46000000Y-13500000D03*
%TO.N,NTC_BRAKE*%
X42400000Y-34800000D03*
X42000000Y-33600000D03*
X43000000Y-39325000D03*
%TO.N,BAT_SENSE_P*%
X9600000Y-19000000D03*
%TO.N,BAT_SENSE_N*%
X13200000Y-19200000D03*
%TO.N,FB_5V*%
X17000000Y-24800000D03*
%TO.N,I2C_SDA*%
X45300000Y-7500000D03*
X34900000Y-2675000D03*
X43200000Y-5400000D03*
X10100000Y-15500000D03*
X41200000Y-6600000D03*
X46000000Y-16500000D03*
%TO.N,I2C_SCL*%
X33900000Y-2675000D03*
X45000000Y-8800000D03*
X45400000Y-5800000D03*
X43100000Y-4500000D03*
%TO.N,RUN_REQ*%
X46000000Y-14500000D03*
X32900000Y-2675000D03*
X47200000Y-11000000D03*
%TO.N,TDK_IMON*%
X30900000Y-2675000D03*
%TO.N,AGND_5V*%
X11400000Y-23100000D03*
%TO.N,RT_5V*%
X9800000Y-24200000D03*
%TO.N,NTC_BAT*%
X46000000Y-25000000D03*
X38000000Y-24800000D03*
X34800000Y-23600000D03*
%TO.N,NTC_TDK*%
X34400000Y-9000000D03*
X44200000Y-17000000D03*
X46000000Y-32000000D03*
X44200000Y-29000000D03*
%TO.N,BRAKE_ACTIVE_N*%
X42000000Y-4500000D03*
X46000000Y-11500000D03*
%TO.N,INA_P*%
X17900000Y-17000000D03*
X7600000Y-23800000D03*
X11600000Y-19200000D03*
%TO.N,ADC_BRAKE*%
X43600000Y-34000000D03*
X44750000Y-5300000D03*
%TD*%
%TA.AperFunction,Conductor*%
%TO.N,GND*%
G36*
X51727826Y-272174D02*
G01*
X51749500Y-324500D01*
X51749500Y-41675500D01*
X51727826Y-41727826D01*
X51675500Y-41749500D01*
X324500Y-41749500D01*
X272174Y-41727826D01*
X250500Y-41675500D01*
X250500Y-38901582D01*
X1749500Y-38901582D01*
X1749500Y-39098417D01*
X1780290Y-39292823D01*
X1780293Y-39292836D01*
X1841113Y-39480019D01*
X1930475Y-39655404D01*
X2003199Y-39755500D01*
X2046172Y-39814646D01*
X2185354Y-39953828D01*
X2344595Y-40069524D01*
X2519975Y-40158884D01*
X2519977Y-40158884D01*
X2519980Y-40158886D01*
X2707163Y-40219706D01*
X2707169Y-40219707D01*
X2707174Y-40219709D01*
X2836780Y-40240236D01*
X2901582Y-40250500D01*
X2901583Y-40250500D01*
X3098418Y-40250500D01*
X3147019Y-40242802D01*
X3292826Y-40219709D01*
X3292833Y-40219706D01*
X3292836Y-40219706D01*
X3480019Y-40158886D01*
X3480019Y-40158885D01*
X3480025Y-40158884D01*
X3655405Y-40069524D01*
X3814646Y-39953828D01*
X3953828Y-39814646D01*
X4069524Y-39655405D01*
X4158884Y-39480025D01*
X4158886Y-39480019D01*
X4219706Y-39292836D01*
X4219706Y-39292833D01*
X4219709Y-39292826D01*
X4223590Y-39268321D01*
X27069500Y-39268321D01*
X27069500Y-39381678D01*
X27098836Y-39491163D01*
X27098838Y-39491168D01*
X27155514Y-39589333D01*
X27235667Y-39669486D01*
X27333833Y-39726162D01*
X27333834Y-39726162D01*
X27333836Y-39726163D01*
X27388578Y-39740831D01*
X27443321Y-39755499D01*
X27443322Y-39755500D01*
X27443324Y-39755500D01*
X27556678Y-39755500D01*
X27556678Y-39755499D01*
X27666167Y-39726162D01*
X27764333Y-39669486D01*
X27844486Y-39589333D01*
X27901162Y-39491167D01*
X27904399Y-39479085D01*
X27928522Y-39389060D01*
X27963000Y-39344127D01*
X28019153Y-39336735D01*
X28064086Y-39371213D01*
X28071478Y-39389060D01*
X28098836Y-39491163D01*
X28098838Y-39491168D01*
X28155514Y-39589333D01*
X28235667Y-39669486D01*
X28333833Y-39726162D01*
X28333834Y-39726162D01*
X28333836Y-39726163D01*
X28388578Y-39740831D01*
X28443321Y-39755499D01*
X28443322Y-39755500D01*
X28443324Y-39755500D01*
X28556678Y-39755500D01*
X28556678Y-39755499D01*
X28666167Y-39726162D01*
X28764333Y-39669486D01*
X28844486Y-39589333D01*
X28901162Y-39491167D01*
X28930499Y-39381678D01*
X28930500Y-39381678D01*
X28930500Y-39268322D01*
X28930499Y-39268321D01*
X35069500Y-39268321D01*
X35069500Y-39381678D01*
X35098836Y-39491163D01*
X35098838Y-39491168D01*
X35155514Y-39589333D01*
X35235667Y-39669486D01*
X35333833Y-39726162D01*
X35333834Y-39726162D01*
X35333836Y-39726163D01*
X35388578Y-39740831D01*
X35443321Y-39755499D01*
X35443322Y-39755500D01*
X35443324Y-39755500D01*
X35556678Y-39755500D01*
X35556678Y-39755499D01*
X35666167Y-39726162D01*
X35764333Y-39669486D01*
X35844486Y-39589333D01*
X35901162Y-39491167D01*
X35904399Y-39479085D01*
X35928522Y-39389060D01*
X35963000Y-39344127D01*
X36019153Y-39336735D01*
X36064086Y-39371213D01*
X36071478Y-39389060D01*
X36098836Y-39491163D01*
X36098838Y-39491168D01*
X36155514Y-39589333D01*
X36235667Y-39669486D01*
X36333833Y-39726162D01*
X36333834Y-39726162D01*
X36333836Y-39726163D01*
X36388578Y-39740831D01*
X36443321Y-39755499D01*
X36443322Y-39755500D01*
X36443324Y-39755500D01*
X36556678Y-39755500D01*
X36556678Y-39755499D01*
X36666167Y-39726162D01*
X36764333Y-39669486D01*
X36844486Y-39589333D01*
X36901162Y-39491167D01*
X36930499Y-39381678D01*
X36930500Y-39381678D01*
X36930500Y-39268322D01*
X36930499Y-39268321D01*
X42569500Y-39268321D01*
X42569500Y-39381678D01*
X42598836Y-39491163D01*
X42598838Y-39491168D01*
X42655514Y-39589333D01*
X42735667Y-39669486D01*
X42833833Y-39726162D01*
X42833834Y-39726162D01*
X42833836Y-39726163D01*
X42888578Y-39740831D01*
X42943321Y-39755499D01*
X42943322Y-39755500D01*
X42943324Y-39755500D01*
X43056678Y-39755500D01*
X43056678Y-39755499D01*
X43166167Y-39726162D01*
X43264333Y-39669486D01*
X43344486Y-39589333D01*
X43401162Y-39491167D01*
X43430499Y-39381678D01*
X43430500Y-39381678D01*
X43430500Y-39268322D01*
X43430499Y-39268321D01*
X43401163Y-39158836D01*
X43401161Y-39158831D01*
X43344485Y-39060666D01*
X43264333Y-38980514D01*
X43209839Y-38949052D01*
X43166168Y-38923838D01*
X43166163Y-38923836D01*
X43083109Y-38901582D01*
X47749500Y-38901582D01*
X47749500Y-39098417D01*
X47780290Y-39292823D01*
X47780293Y-39292836D01*
X47841113Y-39480019D01*
X47930475Y-39655404D01*
X48003199Y-39755500D01*
X48046172Y-39814646D01*
X48185354Y-39953828D01*
X48344595Y-40069524D01*
X48519975Y-40158884D01*
X48519977Y-40158884D01*
X48519980Y-40158886D01*
X48707163Y-40219706D01*
X48707169Y-40219707D01*
X48707174Y-40219709D01*
X48836780Y-40240236D01*
X48901582Y-40250500D01*
X48901583Y-40250500D01*
X49098418Y-40250500D01*
X49147019Y-40242802D01*
X49292826Y-40219709D01*
X49292833Y-40219706D01*
X49292836Y-40219706D01*
X49480019Y-40158886D01*
X49480019Y-40158885D01*
X49480025Y-40158884D01*
X49655405Y-40069524D01*
X49814646Y-39953828D01*
X49953828Y-39814646D01*
X50069524Y-39655405D01*
X50158884Y-39480025D01*
X50158886Y-39480019D01*
X50219706Y-39292836D01*
X50219706Y-39292833D01*
X50219709Y-39292826D01*
X50250500Y-39098417D01*
X50250500Y-38901583D01*
X50219709Y-38707174D01*
X50219707Y-38707169D01*
X50219706Y-38707163D01*
X50158886Y-38519980D01*
X50158884Y-38519977D01*
X50158884Y-38519975D01*
X50069524Y-38344595D01*
X49953828Y-38185354D01*
X49814646Y-38046172D01*
X49814643Y-38046169D01*
X49814641Y-38046168D01*
X49655404Y-37930475D01*
X49480019Y-37841113D01*
X49292836Y-37780293D01*
X49292823Y-37780290D01*
X49098418Y-37749500D01*
X49098417Y-37749500D01*
X48901583Y-37749500D01*
X48901582Y-37749500D01*
X48707176Y-37780290D01*
X48707163Y-37780293D01*
X48519980Y-37841113D01*
X48344595Y-37930475D01*
X48185358Y-38046168D01*
X48046168Y-38185358D01*
X47930475Y-38344595D01*
X47841113Y-38519980D01*
X47780293Y-38707163D01*
X47780290Y-38707176D01*
X47749500Y-38901582D01*
X43083109Y-38901582D01*
X43056678Y-38894500D01*
X43056676Y-38894500D01*
X42943324Y-38894500D01*
X42943322Y-38894500D01*
X42833836Y-38923836D01*
X42833831Y-38923838D01*
X42735666Y-38980514D01*
X42655514Y-39060666D01*
X42598838Y-39158831D01*
X42598836Y-39158836D01*
X42569500Y-39268321D01*
X36930499Y-39268321D01*
X36901163Y-39158836D01*
X36901161Y-39158831D01*
X36844485Y-39060666D01*
X36764333Y-38980514D01*
X36666168Y-38923838D01*
X36666163Y-38923836D01*
X36556678Y-38894500D01*
X36556676Y-38894500D01*
X36443324Y-38894500D01*
X36443322Y-38894500D01*
X36333836Y-38923836D01*
X36333831Y-38923838D01*
X36235666Y-38980514D01*
X36155514Y-39060666D01*
X36098838Y-39158831D01*
X36098836Y-39158836D01*
X36071478Y-39260939D01*
X36037000Y-39305872D01*
X35980847Y-39313264D01*
X35935914Y-39278786D01*
X35928522Y-39260939D01*
X35901163Y-39158836D01*
X35901161Y-39158831D01*
X35844485Y-39060666D01*
X35764333Y-38980514D01*
X35666168Y-38923838D01*
X35666163Y-38923836D01*
X35556678Y-38894500D01*
X35556676Y-38894500D01*
X35443324Y-38894500D01*
X35443322Y-38894500D01*
X35333836Y-38923836D01*
X35333831Y-38923838D01*
X35235666Y-38980514D01*
X35155514Y-39060666D01*
X35098838Y-39158831D01*
X35098836Y-39158836D01*
X35069500Y-39268321D01*
X28930499Y-39268321D01*
X28901163Y-39158836D01*
X28901161Y-39158831D01*
X28844485Y-39060666D01*
X28764333Y-38980514D01*
X28666168Y-38923838D01*
X28666163Y-38923836D01*
X28556678Y-38894500D01*
X28556676Y-38894500D01*
X28443324Y-38894500D01*
X28443322Y-38894500D01*
X28333836Y-38923836D01*
X28333831Y-38923838D01*
X28235666Y-38980514D01*
X28155514Y-39060666D01*
X28098838Y-39158831D01*
X28098836Y-39158836D01*
X28071478Y-39260939D01*
X28037000Y-39305872D01*
X27980847Y-39313264D01*
X27935914Y-39278786D01*
X27928522Y-39260939D01*
X27901163Y-39158836D01*
X27901161Y-39158831D01*
X27844485Y-39060666D01*
X27764333Y-38980514D01*
X27666168Y-38923838D01*
X27666163Y-38923836D01*
X27556678Y-38894500D01*
X27556676Y-38894500D01*
X27443324Y-38894500D01*
X27443322Y-38894500D01*
X27333836Y-38923836D01*
X27333831Y-38923838D01*
X27235666Y-38980514D01*
X27155514Y-39060666D01*
X27098838Y-39158831D01*
X27098836Y-39158836D01*
X27069500Y-39268321D01*
X4223590Y-39268321D01*
X4250500Y-39098417D01*
X4250500Y-38901583D01*
X4219709Y-38707174D01*
X4219707Y-38707169D01*
X4219706Y-38707163D01*
X4158886Y-38519980D01*
X4158884Y-38519977D01*
X4158884Y-38519975D01*
X4069524Y-38344595D01*
X3953828Y-38185354D01*
X3814646Y-38046172D01*
X3814643Y-38046169D01*
X3814641Y-38046168D01*
X3655404Y-37930475D01*
X3480019Y-37841113D01*
X3292836Y-37780293D01*
X3292823Y-37780290D01*
X3098418Y-37749500D01*
X3098417Y-37749500D01*
X2901583Y-37749500D01*
X2901582Y-37749500D01*
X2707176Y-37780290D01*
X2707163Y-37780293D01*
X2519980Y-37841113D01*
X2344595Y-37930475D01*
X2185358Y-38046168D01*
X2046168Y-38185358D01*
X1930475Y-38344595D01*
X1841113Y-38519980D01*
X1780293Y-38707163D01*
X1780290Y-38707176D01*
X1749500Y-38901582D01*
X250500Y-38901582D01*
X250500Y-34943321D01*
X21969500Y-34943321D01*
X21969500Y-35056678D01*
X21998836Y-35166163D01*
X21998838Y-35166168D01*
X22055514Y-35264333D01*
X22135667Y-35344486D01*
X22233833Y-35401162D01*
X22233834Y-35401162D01*
X22233836Y-35401163D01*
X22288578Y-35415831D01*
X22343321Y-35430499D01*
X22343322Y-35430500D01*
X22343324Y-35430500D01*
X22456678Y-35430500D01*
X22456678Y-35430499D01*
X22566167Y-35401162D01*
X22664333Y-35344486D01*
X22744486Y-35264333D01*
X22801162Y-35166167D01*
X22830499Y-35056678D01*
X22830500Y-35056678D01*
X22830500Y-34943322D01*
X22830499Y-34943321D01*
X22801163Y-34833836D01*
X22801161Y-34833831D01*
X22793373Y-34820343D01*
X22748905Y-34743321D01*
X41969500Y-34743321D01*
X41969500Y-34856678D01*
X41998836Y-34966163D01*
X41998838Y-34966168D01*
X42051093Y-35056676D01*
X42055514Y-35064333D01*
X42135667Y-35144486D01*
X42233833Y-35201162D01*
X42233834Y-35201162D01*
X42233836Y-35201163D01*
X42288578Y-35215831D01*
X42343321Y-35230499D01*
X42343322Y-35230500D01*
X42343324Y-35230500D01*
X42456678Y-35230500D01*
X42456678Y-35230499D01*
X42566167Y-35201162D01*
X42664333Y-35144486D01*
X42744486Y-35064333D01*
X42801162Y-34966167D01*
X42830499Y-34856678D01*
X42830500Y-34856678D01*
X42830500Y-34743322D01*
X42830499Y-34743321D01*
X42801163Y-34633836D01*
X42801161Y-34633831D01*
X42780958Y-34598838D01*
X42744486Y-34535667D01*
X42664333Y-34455514D01*
X42566168Y-34398838D01*
X42566163Y-34398836D01*
X42456678Y-34369500D01*
X42456676Y-34369500D01*
X42343324Y-34369500D01*
X42343322Y-34369500D01*
X42233836Y-34398836D01*
X42233831Y-34398838D01*
X42135666Y-34455514D01*
X42055514Y-34535666D01*
X41998838Y-34633831D01*
X41998836Y-34633836D01*
X41969500Y-34743321D01*
X22748905Y-34743321D01*
X22744486Y-34735667D01*
X22664333Y-34655514D01*
X22566168Y-34598838D01*
X22566163Y-34598836D01*
X22456678Y-34569500D01*
X22456676Y-34569500D01*
X22343324Y-34569500D01*
X22343322Y-34569500D01*
X22233836Y-34598836D01*
X22233831Y-34598838D01*
X22135666Y-34655514D01*
X22055514Y-34735666D01*
X21998838Y-34833831D01*
X21998836Y-34833836D01*
X21969500Y-34943321D01*
X250500Y-34943321D01*
X250500Y-33543321D01*
X41569500Y-33543321D01*
X41569500Y-33656678D01*
X41598836Y-33766163D01*
X41598838Y-33766168D01*
X41655514Y-33864333D01*
X41735667Y-33944486D01*
X41833833Y-34001162D01*
X41833834Y-34001162D01*
X41833836Y-34001163D01*
X41888578Y-34015831D01*
X41943321Y-34030499D01*
X41943322Y-34030500D01*
X41943324Y-34030500D01*
X42056678Y-34030500D01*
X42056678Y-34030499D01*
X42166167Y-34001162D01*
X42264333Y-33944486D01*
X42265498Y-33943321D01*
X43169500Y-33943321D01*
X43169500Y-34056678D01*
X43198836Y-34166163D01*
X43198838Y-34166168D01*
X43255514Y-34264333D01*
X43335667Y-34344486D01*
X43378993Y-34369500D01*
X43429807Y-34398838D01*
X43433833Y-34401162D01*
X43433834Y-34401162D01*
X43433836Y-34401163D01*
X43488578Y-34415831D01*
X43543321Y-34430499D01*
X43543322Y-34430500D01*
X43543324Y-34430500D01*
X43656678Y-34430500D01*
X43656678Y-34430499D01*
X43766167Y-34401162D01*
X43864333Y-34344486D01*
X43944486Y-34264333D01*
X44001162Y-34166167D01*
X44030499Y-34056678D01*
X44030500Y-34056678D01*
X44030500Y-33943322D01*
X44030499Y-33943321D01*
X44001163Y-33833836D01*
X44001161Y-33833831D01*
X43985975Y-33807528D01*
X43944486Y-33735667D01*
X43864333Y-33655514D01*
X43766168Y-33598838D01*
X43766163Y-33598836D01*
X43656678Y-33569500D01*
X43656676Y-33569500D01*
X43543324Y-33569500D01*
X43543322Y-33569500D01*
X43433836Y-33598836D01*
X43433831Y-33598838D01*
X43335666Y-33655514D01*
X43255514Y-33735666D01*
X43198838Y-33833831D01*
X43198836Y-33833836D01*
X43169500Y-33943321D01*
X42265498Y-33943321D01*
X42344486Y-33864333D01*
X42401162Y-33766167D01*
X42430499Y-33656678D01*
X42430500Y-33656678D01*
X42430500Y-33543322D01*
X42430499Y-33543321D01*
X42401163Y-33433836D01*
X42401161Y-33433831D01*
X42344485Y-33335666D01*
X42264333Y-33255514D01*
X42166168Y-33198838D01*
X42166163Y-33198836D01*
X42056678Y-33169500D01*
X42056676Y-33169500D01*
X41943324Y-33169500D01*
X41943322Y-33169500D01*
X41833836Y-33198836D01*
X41833831Y-33198838D01*
X41735666Y-33255514D01*
X41655514Y-33335666D01*
X41598838Y-33433831D01*
X41598836Y-33433836D01*
X41569500Y-33543321D01*
X250500Y-33543321D01*
X250500Y-31395140D01*
X2994500Y-31395140D01*
X2994500Y-32604859D01*
X2997386Y-32635640D01*
X2997387Y-32635645D01*
X3042736Y-32765243D01*
X3117221Y-32866168D01*
X3124275Y-32875725D01*
X3234755Y-32957263D01*
X3291489Y-32977115D01*
X3364354Y-33002612D01*
X3364356Y-33002612D01*
X3364361Y-33002614D01*
X3395136Y-33005500D01*
X3395142Y-33005500D01*
X4604858Y-33005500D01*
X4604864Y-33005500D01*
X4635639Y-33002614D01*
X4765245Y-32957263D01*
X4875725Y-32875725D01*
X4957263Y-32765245D01*
X4999926Y-32643321D01*
X15174500Y-32643321D01*
X15174500Y-32756678D01*
X15203836Y-32866163D01*
X15203838Y-32866168D01*
X15209356Y-32875725D01*
X15260514Y-32964333D01*
X15340667Y-33044486D01*
X15438833Y-33101162D01*
X15438834Y-33101162D01*
X15438836Y-33101163D01*
X15493578Y-33115831D01*
X15548321Y-33130499D01*
X15548322Y-33130500D01*
X15548324Y-33130500D01*
X15661678Y-33130500D01*
X15661678Y-33130499D01*
X15771167Y-33101162D01*
X15869333Y-33044486D01*
X15949486Y-32964333D01*
X16006162Y-32866167D01*
X16035499Y-32756678D01*
X16035500Y-32756678D01*
X16035500Y-32643322D01*
X16035499Y-32643321D01*
X16032348Y-32631563D01*
X16020831Y-32588578D01*
X16006163Y-32533836D01*
X16006161Y-32533831D01*
X15949485Y-32435666D01*
X15869333Y-32355514D01*
X15771168Y-32298838D01*
X15771163Y-32298836D01*
X15661678Y-32269500D01*
X15661676Y-32269500D01*
X15548324Y-32269500D01*
X15548322Y-32269500D01*
X15438836Y-32298836D01*
X15438831Y-32298838D01*
X15340666Y-32355514D01*
X15260514Y-32435666D01*
X15203838Y-32533831D01*
X15203836Y-32533836D01*
X15174500Y-32643321D01*
X4999926Y-32643321D01*
X5002614Y-32635639D01*
X5005500Y-32604864D01*
X5005500Y-32143321D01*
X25369500Y-32143321D01*
X25369500Y-32256678D01*
X25398836Y-32366163D01*
X25398838Y-32366168D01*
X25438963Y-32435666D01*
X25455514Y-32464333D01*
X25535667Y-32544486D01*
X25633833Y-32601162D01*
X25633834Y-32601162D01*
X25633836Y-32601163D01*
X25647619Y-32604856D01*
X25743321Y-32630499D01*
X25743322Y-32630500D01*
X25743324Y-32630500D01*
X25856678Y-32630500D01*
X25856678Y-32630499D01*
X25966167Y-32601162D01*
X26064333Y-32544486D01*
X26144486Y-32464333D01*
X26201162Y-32366167D01*
X26230499Y-32256678D01*
X26230500Y-32256678D01*
X26230500Y-32143322D01*
X26230499Y-32143321D01*
X26201163Y-32033836D01*
X26201161Y-32033831D01*
X26183137Y-32002612D01*
X26144486Y-31935667D01*
X26064333Y-31855514D01*
X25972614Y-31802560D01*
X25966168Y-31798838D01*
X25966163Y-31798836D01*
X25856678Y-31769500D01*
X25856676Y-31769500D01*
X25743324Y-31769500D01*
X25743322Y-31769500D01*
X25633836Y-31798836D01*
X25633831Y-31798838D01*
X25535666Y-31855514D01*
X25455514Y-31935666D01*
X25398838Y-32033831D01*
X25398836Y-32033836D01*
X25369500Y-32143321D01*
X5005500Y-32143321D01*
X5005500Y-31743321D01*
X29969500Y-31743321D01*
X29969500Y-31856678D01*
X29998836Y-31966163D01*
X29998838Y-31966168D01*
X30051093Y-32056676D01*
X30055514Y-32064333D01*
X30135667Y-32144486D01*
X30233833Y-32201162D01*
X30233834Y-32201162D01*
X30233836Y-32201163D01*
X30288578Y-32215831D01*
X30343321Y-32230499D01*
X30343322Y-32230500D01*
X30343324Y-32230500D01*
X30456678Y-32230500D01*
X30456678Y-32230499D01*
X30566167Y-32201162D01*
X30664333Y-32144486D01*
X30665498Y-32143321D01*
X31569500Y-32143321D01*
X31569500Y-32256678D01*
X31598836Y-32366163D01*
X31598838Y-32366168D01*
X31638963Y-32435666D01*
X31655514Y-32464333D01*
X31735667Y-32544486D01*
X31833833Y-32601162D01*
X31833834Y-32601162D01*
X31833836Y-32601163D01*
X31847619Y-32604856D01*
X31943321Y-32630499D01*
X31943322Y-32630500D01*
X31943324Y-32630500D01*
X32056678Y-32630500D01*
X32056678Y-32630499D01*
X32166167Y-32601162D01*
X32264333Y-32544486D01*
X32344486Y-32464333D01*
X32401162Y-32366167D01*
X32430499Y-32256678D01*
X32430500Y-32256678D01*
X32430500Y-32143322D01*
X32430499Y-32143321D01*
X32401163Y-32033836D01*
X32401161Y-32033831D01*
X32383137Y-32002612D01*
X32344486Y-31935667D01*
X32264333Y-31855514D01*
X32166168Y-31798838D01*
X32166163Y-31798836D01*
X32056678Y-31769500D01*
X32056676Y-31769500D01*
X31943324Y-31769500D01*
X31943322Y-31769500D01*
X31833836Y-31798836D01*
X31833831Y-31798838D01*
X31735666Y-31855514D01*
X31655514Y-31935666D01*
X31598838Y-32033831D01*
X31598836Y-32033836D01*
X31569500Y-32143321D01*
X30665498Y-32143321D01*
X30744486Y-32064333D01*
X30801162Y-31966167D01*
X30830499Y-31856678D01*
X30830500Y-31856678D01*
X30830500Y-31743322D01*
X30830499Y-31743321D01*
X30801163Y-31633836D01*
X30801161Y-31633831D01*
X30780958Y-31598838D01*
X30744486Y-31535667D01*
X30664333Y-31455514D01*
X30566168Y-31398838D01*
X30566163Y-31398836D01*
X30456678Y-31369500D01*
X30456676Y-31369500D01*
X30343324Y-31369500D01*
X30343322Y-31369500D01*
X30233836Y-31398836D01*
X30233831Y-31398838D01*
X30135666Y-31455514D01*
X30055514Y-31535666D01*
X29998838Y-31633831D01*
X29998836Y-31633836D01*
X29969500Y-31743321D01*
X5005500Y-31743321D01*
X5005500Y-31395136D01*
X5002614Y-31364361D01*
X4957263Y-31234755D01*
X4875725Y-31124275D01*
X4765245Y-31042737D01*
X4765243Y-31042736D01*
X4635645Y-30997387D01*
X4635640Y-30997386D01*
X4630509Y-30996905D01*
X4604864Y-30994500D01*
X3395136Y-30994500D01*
X3373153Y-30996561D01*
X3364359Y-30997386D01*
X3364354Y-30997387D01*
X3234756Y-31042736D01*
X3124275Y-31124274D01*
X3124274Y-31124275D01*
X3042736Y-31234756D01*
X2997387Y-31364354D01*
X2997386Y-31364359D01*
X2994500Y-31395140D01*
X250500Y-31395140D01*
X250500Y-27943321D01*
X14769500Y-27943321D01*
X14769500Y-28056678D01*
X14798836Y-28166163D01*
X14798838Y-28166168D01*
X14855514Y-28264333D01*
X14888855Y-28297674D01*
X14910529Y-28350000D01*
X14888855Y-28402326D01*
X14855514Y-28435666D01*
X14798838Y-28533831D01*
X14798836Y-28533836D01*
X14769500Y-28643321D01*
X14769500Y-28756678D01*
X14798836Y-28866163D01*
X14798838Y-28866168D01*
X14855514Y-28964333D01*
X14888855Y-28997674D01*
X14910529Y-29050000D01*
X14888855Y-29102326D01*
X14855514Y-29135666D01*
X14798838Y-29233831D01*
X14798836Y-29233836D01*
X14769500Y-29343321D01*
X14769500Y-29456678D01*
X14798836Y-29566163D01*
X14798838Y-29566168D01*
X14855514Y-29664333D01*
X14888855Y-29697674D01*
X14910529Y-29750000D01*
X14888855Y-29802326D01*
X14855514Y-29835666D01*
X14798838Y-29933831D01*
X14798836Y-29933836D01*
X14769500Y-30043321D01*
X14769500Y-30156678D01*
X14798836Y-30266163D01*
X14798838Y-30266168D01*
X14855514Y-30364333D01*
X14888855Y-30397674D01*
X14910529Y-30450000D01*
X14888855Y-30502326D01*
X14855514Y-30535666D01*
X14798838Y-30633831D01*
X14798836Y-30633836D01*
X14769500Y-30743321D01*
X14769500Y-30856678D01*
X14798836Y-30966163D01*
X14798838Y-30966168D01*
X14853673Y-31061145D01*
X14855514Y-31064333D01*
X14935667Y-31144486D01*
X15033833Y-31201162D01*
X15033834Y-31201162D01*
X15033836Y-31201163D01*
X15088578Y-31215831D01*
X15143321Y-31230499D01*
X15143322Y-31230500D01*
X15143324Y-31230500D01*
X15256678Y-31230500D01*
X15256678Y-31230499D01*
X15366167Y-31201162D01*
X15464333Y-31144486D01*
X15544486Y-31064333D01*
X15544486Y-31064332D01*
X15547674Y-31061145D01*
X15600000Y-31039471D01*
X15652326Y-31061145D01*
X15655514Y-31064333D01*
X15735667Y-31144486D01*
X15833833Y-31201162D01*
X15833834Y-31201162D01*
X15833836Y-31201163D01*
X15888578Y-31215831D01*
X15943321Y-31230499D01*
X15943322Y-31230500D01*
X15943324Y-31230500D01*
X16056678Y-31230500D01*
X16056678Y-31230499D01*
X16166167Y-31201162D01*
X16264333Y-31144486D01*
X16344486Y-31064333D01*
X16401162Y-30966167D01*
X16430499Y-30856678D01*
X16430500Y-30856678D01*
X16430500Y-30743322D01*
X16430499Y-30743321D01*
X16401163Y-30633836D01*
X16401161Y-30633831D01*
X16344485Y-30535666D01*
X16311145Y-30502326D01*
X16301158Y-30478217D01*
X16289627Y-30454806D01*
X16290500Y-30452486D01*
X16289471Y-30450000D01*
X16307857Y-30401183D01*
X16309444Y-30399374D01*
X16313678Y-30395140D01*
X37994500Y-30395140D01*
X37994500Y-31604859D01*
X37997386Y-31635640D01*
X37997387Y-31635645D01*
X38042736Y-31765243D01*
X38042737Y-31765245D01*
X38095332Y-31836508D01*
X38109358Y-31855514D01*
X38124275Y-31875725D01*
X38234755Y-31957263D01*
X38291489Y-31977115D01*
X38364354Y-32002612D01*
X38364356Y-32002612D01*
X38364361Y-32002614D01*
X38395136Y-32005500D01*
X38395142Y-32005500D01*
X39604858Y-32005500D01*
X39604864Y-32005500D01*
X39635639Y-32002614D01*
X39765245Y-31957263D01*
X39784136Y-31943321D01*
X45569500Y-31943321D01*
X45569500Y-32056678D01*
X45598836Y-32166163D01*
X45598838Y-32166168D01*
X45651093Y-32256676D01*
X45655514Y-32264333D01*
X45735667Y-32344486D01*
X45833833Y-32401162D01*
X45833834Y-32401162D01*
X45833836Y-32401163D01*
X45888578Y-32415831D01*
X45943321Y-32430499D01*
X45943322Y-32430500D01*
X45943324Y-32430500D01*
X46056678Y-32430500D01*
X46056678Y-32430499D01*
X46166167Y-32401162D01*
X46264333Y-32344486D01*
X46344486Y-32264333D01*
X46401162Y-32166167D01*
X46430499Y-32056678D01*
X46430500Y-32056678D01*
X46430500Y-31943322D01*
X46430499Y-31943321D01*
X46401163Y-31833836D01*
X46401161Y-31833831D01*
X46380958Y-31798838D01*
X46344486Y-31735667D01*
X46264333Y-31655514D01*
X46229910Y-31635640D01*
X46166168Y-31598838D01*
X46166163Y-31598836D01*
X46056678Y-31569500D01*
X46056676Y-31569500D01*
X45943324Y-31569500D01*
X45943322Y-31569500D01*
X45833836Y-31598836D01*
X45833831Y-31598838D01*
X45735666Y-31655514D01*
X45655514Y-31735666D01*
X45598838Y-31833831D01*
X45598836Y-31833836D01*
X45569500Y-31943321D01*
X39784136Y-31943321D01*
X39875725Y-31875725D01*
X39957263Y-31765245D01*
X40002614Y-31635639D01*
X40005500Y-31604864D01*
X40005500Y-30395136D01*
X40002614Y-30364361D01*
X40002604Y-30364333D01*
X39977115Y-30291489D01*
X39957263Y-30234755D01*
X39875725Y-30124275D01*
X39765245Y-30042737D01*
X39765243Y-30042736D01*
X39635645Y-29997387D01*
X39635640Y-29997386D01*
X39630509Y-29996905D01*
X39604864Y-29994500D01*
X38395136Y-29994500D01*
X38373153Y-29996561D01*
X38364359Y-29997386D01*
X38364354Y-29997387D01*
X38234756Y-30042736D01*
X38124275Y-30124274D01*
X38124274Y-30124275D01*
X38042736Y-30234756D01*
X37997387Y-30364354D01*
X37997386Y-30364359D01*
X37994500Y-30395140D01*
X16313678Y-30395140D01*
X16344486Y-30364333D01*
X16401162Y-30266167D01*
X16430499Y-30156678D01*
X16430500Y-30156678D01*
X16430500Y-30043322D01*
X16430499Y-30043321D01*
X16401163Y-29933836D01*
X16401161Y-29933831D01*
X16344485Y-29835666D01*
X16311145Y-29802326D01*
X16289471Y-29750000D01*
X16311145Y-29697674D01*
X16344486Y-29664333D01*
X16401162Y-29566167D01*
X16430499Y-29456678D01*
X16430500Y-29456678D01*
X16430500Y-29343322D01*
X16430499Y-29343321D01*
X16401163Y-29233836D01*
X16401161Y-29233831D01*
X16385975Y-29207528D01*
X16344486Y-29135667D01*
X16311145Y-29102326D01*
X16289471Y-29050000D01*
X16311145Y-28997674D01*
X16344486Y-28964333D01*
X16401162Y-28866167D01*
X16430499Y-28756678D01*
X16430500Y-28756678D01*
X16430500Y-28643322D01*
X16430499Y-28643321D01*
X16401163Y-28533836D01*
X16401161Y-28533831D01*
X16385975Y-28507528D01*
X16344486Y-28435667D01*
X16311145Y-28402326D01*
X16289471Y-28350000D01*
X16292238Y-28343321D01*
X30169500Y-28343321D01*
X30169500Y-28456678D01*
X30198836Y-28566163D01*
X30198838Y-28566168D01*
X30243383Y-28643321D01*
X30255514Y-28664333D01*
X30335667Y-28744486D01*
X30378993Y-28769500D01*
X30429807Y-28798838D01*
X30433833Y-28801162D01*
X30433834Y-28801162D01*
X30433836Y-28801163D01*
X30488578Y-28815831D01*
X30543321Y-28830499D01*
X30543322Y-28830500D01*
X30588060Y-28830500D01*
X30640386Y-28852174D01*
X30662060Y-28904500D01*
X30652146Y-28941500D01*
X30598838Y-29033831D01*
X30598836Y-29033836D01*
X30569500Y-29143321D01*
X30569500Y-29256678D01*
X30598836Y-29366163D01*
X30598838Y-29366168D01*
X30651093Y-29456676D01*
X30655514Y-29464333D01*
X30735667Y-29544486D01*
X30833833Y-29601162D01*
X30833834Y-29601162D01*
X30833836Y-29601163D01*
X30888578Y-29615831D01*
X30943321Y-29630499D01*
X30943322Y-29630500D01*
X30943324Y-29630500D01*
X31056678Y-29630500D01*
X31056678Y-29630499D01*
X31166167Y-29601162D01*
X31264333Y-29544486D01*
X31344486Y-29464333D01*
X31401162Y-29366167D01*
X31430499Y-29256678D01*
X31430500Y-29256678D01*
X31430500Y-29143322D01*
X31430499Y-29143321D01*
X31401163Y-29033836D01*
X31401161Y-29033831D01*
X31393373Y-29020343D01*
X31348905Y-28943321D01*
X43769500Y-28943321D01*
X43769500Y-29056678D01*
X43798836Y-29166163D01*
X43798838Y-29166168D01*
X43851093Y-29256676D01*
X43855514Y-29264333D01*
X43935667Y-29344486D01*
X44033833Y-29401162D01*
X44033834Y-29401162D01*
X44033836Y-29401163D01*
X44088578Y-29415831D01*
X44143321Y-29430499D01*
X44143322Y-29430500D01*
X44143324Y-29430500D01*
X44256678Y-29430500D01*
X44256678Y-29430499D01*
X44366167Y-29401162D01*
X44464333Y-29344486D01*
X44544486Y-29264333D01*
X44601162Y-29166167D01*
X44630499Y-29056678D01*
X44630500Y-29056678D01*
X44630500Y-28943322D01*
X44630499Y-28943321D01*
X44601163Y-28833836D01*
X44601161Y-28833831D01*
X44580958Y-28798838D01*
X44544486Y-28735667D01*
X44464333Y-28655514D01*
X44443214Y-28643321D01*
X44366168Y-28598838D01*
X44366163Y-28598836D01*
X44256678Y-28569500D01*
X44256676Y-28569500D01*
X44143324Y-28569500D01*
X44143322Y-28569500D01*
X44033836Y-28598836D01*
X44033831Y-28598838D01*
X43935666Y-28655514D01*
X43855514Y-28735666D01*
X43798838Y-28833831D01*
X43798836Y-28833836D01*
X43769500Y-28943321D01*
X31348905Y-28943321D01*
X31344486Y-28935667D01*
X31264333Y-28855514D01*
X31258548Y-28852174D01*
X31166168Y-28798838D01*
X31166163Y-28798836D01*
X31056678Y-28769500D01*
X31056676Y-28769500D01*
X31011940Y-28769500D01*
X30959614Y-28747826D01*
X30937940Y-28695500D01*
X30947854Y-28658500D01*
X30982299Y-28598838D01*
X31001162Y-28566167D01*
X31030499Y-28456678D01*
X31030500Y-28456678D01*
X31030500Y-28343322D01*
X31030499Y-28343321D01*
X31369500Y-28343321D01*
X31369500Y-28456678D01*
X31398836Y-28566163D01*
X31398838Y-28566168D01*
X31443383Y-28643321D01*
X31455514Y-28664333D01*
X31535667Y-28744486D01*
X31578993Y-28769500D01*
X31629807Y-28798838D01*
X31633833Y-28801162D01*
X31633834Y-28801162D01*
X31633836Y-28801163D01*
X31688578Y-28815831D01*
X31743321Y-28830499D01*
X31743322Y-28830500D01*
X31743324Y-28830500D01*
X31856678Y-28830500D01*
X31856678Y-28830499D01*
X31966167Y-28801162D01*
X32064333Y-28744486D01*
X32144486Y-28664333D01*
X32201162Y-28566167D01*
X32230499Y-28456678D01*
X32230500Y-28456678D01*
X32230500Y-28343322D01*
X32230499Y-28343321D01*
X34969500Y-28343321D01*
X34969500Y-28456678D01*
X34998836Y-28566163D01*
X34998838Y-28566168D01*
X35043383Y-28643321D01*
X35055514Y-28664333D01*
X35135667Y-28744486D01*
X35178993Y-28769500D01*
X35229807Y-28798838D01*
X35233833Y-28801162D01*
X35233834Y-28801162D01*
X35233836Y-28801163D01*
X35288578Y-28815831D01*
X35343321Y-28830499D01*
X35343322Y-28830500D01*
X35343324Y-28830500D01*
X35456678Y-28830500D01*
X35456678Y-28830499D01*
X35566167Y-28801162D01*
X35664333Y-28744486D01*
X35744486Y-28664333D01*
X35801162Y-28566167D01*
X35830499Y-28456678D01*
X35830500Y-28456678D01*
X35830500Y-28343322D01*
X35830499Y-28343321D01*
X35801163Y-28233836D01*
X35801161Y-28233831D01*
X35763257Y-28168179D01*
X35744486Y-28135667D01*
X35664333Y-28055514D01*
X35566168Y-27998838D01*
X35566163Y-27998836D01*
X35456678Y-27969500D01*
X35456676Y-27969500D01*
X35343324Y-27969500D01*
X35343322Y-27969500D01*
X35233836Y-27998836D01*
X35233831Y-27998838D01*
X35135666Y-28055514D01*
X35055514Y-28135666D01*
X34998838Y-28233831D01*
X34998836Y-28233836D01*
X34969500Y-28343321D01*
X32230499Y-28343321D01*
X32201163Y-28233836D01*
X32201161Y-28233831D01*
X32163257Y-28168179D01*
X32144486Y-28135667D01*
X32064333Y-28055514D01*
X31966168Y-27998838D01*
X31966163Y-27998836D01*
X31856678Y-27969500D01*
X31856676Y-27969500D01*
X31743324Y-27969500D01*
X31743322Y-27969500D01*
X31633836Y-27998836D01*
X31633831Y-27998838D01*
X31535666Y-28055514D01*
X31455514Y-28135666D01*
X31398838Y-28233831D01*
X31398836Y-28233836D01*
X31369500Y-28343321D01*
X31030499Y-28343321D01*
X31001163Y-28233836D01*
X31001161Y-28233831D01*
X30963257Y-28168179D01*
X30944486Y-28135667D01*
X30864333Y-28055514D01*
X30766168Y-27998838D01*
X30766163Y-27998836D01*
X30656678Y-27969500D01*
X30656676Y-27969500D01*
X30543324Y-27969500D01*
X30543322Y-27969500D01*
X30433836Y-27998836D01*
X30433831Y-27998838D01*
X30335666Y-28055514D01*
X30255514Y-28135666D01*
X30198838Y-28233831D01*
X30198836Y-28233836D01*
X30169500Y-28343321D01*
X16292238Y-28343321D01*
X16311145Y-28297674D01*
X16322671Y-28286148D01*
X16344486Y-28264333D01*
X16401162Y-28166167D01*
X16430499Y-28056678D01*
X16430500Y-28056678D01*
X16430500Y-27943322D01*
X16430499Y-27943321D01*
X16401163Y-27833836D01*
X16401161Y-27833831D01*
X16358840Y-27760529D01*
X16344486Y-27735667D01*
X16264333Y-27655514D01*
X16256793Y-27651161D01*
X16166168Y-27598838D01*
X16166163Y-27598836D01*
X16056678Y-27569500D01*
X16056676Y-27569500D01*
X15943324Y-27569500D01*
X15943322Y-27569500D01*
X15833836Y-27598836D01*
X15833831Y-27598838D01*
X15735666Y-27655514D01*
X15652326Y-27738855D01*
X15600000Y-27760529D01*
X15547674Y-27738855D01*
X15464333Y-27655514D01*
X15366168Y-27598838D01*
X15366163Y-27598836D01*
X15256678Y-27569500D01*
X15256676Y-27569500D01*
X15143324Y-27569500D01*
X15143322Y-27569500D01*
X15033836Y-27598836D01*
X15033831Y-27598838D01*
X14935666Y-27655514D01*
X14855514Y-27735666D01*
X14798838Y-27833831D01*
X14798836Y-27833836D01*
X14769500Y-27943321D01*
X250500Y-27943321D01*
X250500Y-26543321D01*
X28169500Y-26543321D01*
X28169500Y-26656678D01*
X28198836Y-26766163D01*
X28198838Y-26766168D01*
X28255514Y-26864333D01*
X28338855Y-26947674D01*
X28360529Y-27000000D01*
X28338855Y-27052326D01*
X28255514Y-27135666D01*
X28198838Y-27233831D01*
X28198836Y-27233836D01*
X28169500Y-27343321D01*
X28169500Y-27456678D01*
X28198836Y-27566163D01*
X28198838Y-27566168D01*
X28247909Y-27651161D01*
X28255514Y-27664333D01*
X28335667Y-27744486D01*
X28433833Y-27801162D01*
X28433834Y-27801162D01*
X28433836Y-27801163D01*
X28488578Y-27815831D01*
X28543321Y-27830499D01*
X28543322Y-27830500D01*
X28543324Y-27830500D01*
X28656678Y-27830500D01*
X28656678Y-27830499D01*
X28766167Y-27801162D01*
X28863001Y-27745254D01*
X28919152Y-27737862D01*
X28936996Y-27745253D01*
X29033833Y-27801162D01*
X29033834Y-27801162D01*
X29033836Y-27801163D01*
X29088578Y-27815831D01*
X29143321Y-27830499D01*
X29143322Y-27830500D01*
X29143324Y-27830500D01*
X29256678Y-27830500D01*
X29256678Y-27830499D01*
X29366167Y-27801162D01*
X29463001Y-27745254D01*
X29519152Y-27737862D01*
X29536996Y-27745253D01*
X29633833Y-27801162D01*
X29633834Y-27801162D01*
X29633836Y-27801163D01*
X29688578Y-27815831D01*
X29743321Y-27830499D01*
X29743322Y-27830500D01*
X29743324Y-27830500D01*
X29856678Y-27830500D01*
X29856678Y-27830499D01*
X29966167Y-27801162D01*
X30063001Y-27745254D01*
X30119152Y-27737862D01*
X30136996Y-27745253D01*
X30233833Y-27801162D01*
X30233834Y-27801162D01*
X30233836Y-27801163D01*
X30288578Y-27815831D01*
X30343321Y-27830499D01*
X30343322Y-27830500D01*
X30343324Y-27830500D01*
X30456678Y-27830500D01*
X30456678Y-27830499D01*
X30566167Y-27801162D01*
X30664333Y-27744486D01*
X30744486Y-27664333D01*
X30801162Y-27566167D01*
X30830499Y-27456678D01*
X30830500Y-27456678D01*
X30830500Y-27343322D01*
X30830499Y-27343321D01*
X30801163Y-27233836D01*
X30801161Y-27233831D01*
X30796336Y-27225474D01*
X30777772Y-27193321D01*
X35169500Y-27193321D01*
X35169500Y-27306678D01*
X35198836Y-27416163D01*
X35198838Y-27416168D01*
X35222227Y-27456678D01*
X35255514Y-27514333D01*
X35335667Y-27594486D01*
X35433833Y-27651162D01*
X35433834Y-27651162D01*
X35433836Y-27651163D01*
X35482988Y-27664333D01*
X35543321Y-27680499D01*
X35543322Y-27680500D01*
X35543324Y-27680500D01*
X35656678Y-27680500D01*
X35656678Y-27680499D01*
X35766167Y-27651162D01*
X35863001Y-27595254D01*
X35919152Y-27587862D01*
X35936996Y-27595253D01*
X36033833Y-27651162D01*
X36033834Y-27651162D01*
X36033836Y-27651163D01*
X36082988Y-27664333D01*
X36143321Y-27680499D01*
X36143322Y-27680500D01*
X36143324Y-27680500D01*
X36256678Y-27680500D01*
X36256678Y-27680499D01*
X36366167Y-27651162D01*
X36463001Y-27595254D01*
X36519152Y-27587862D01*
X36536996Y-27595253D01*
X36633833Y-27651162D01*
X36633834Y-27651162D01*
X36633836Y-27651163D01*
X36682988Y-27664333D01*
X36743321Y-27680499D01*
X36743322Y-27680500D01*
X36743324Y-27680500D01*
X36856678Y-27680500D01*
X36856678Y-27680499D01*
X36966167Y-27651162D01*
X37063001Y-27595254D01*
X37119152Y-27587862D01*
X37136996Y-27595253D01*
X37233833Y-27651162D01*
X37233834Y-27651162D01*
X37233836Y-27651163D01*
X37282988Y-27664333D01*
X37343321Y-27680499D01*
X37343322Y-27680500D01*
X37343324Y-27680500D01*
X37456678Y-27680500D01*
X37456678Y-27680499D01*
X37566167Y-27651162D01*
X37664333Y-27594486D01*
X37744486Y-27514333D01*
X37801162Y-27416167D01*
X37830499Y-27306678D01*
X37830500Y-27306678D01*
X37830500Y-27193322D01*
X37830499Y-27193321D01*
X37801163Y-27083836D01*
X37801161Y-27083831D01*
X37744485Y-26985666D01*
X37664333Y-26905514D01*
X37566168Y-26848838D01*
X37566163Y-26848836D01*
X37456678Y-26819500D01*
X37456676Y-26819500D01*
X37343324Y-26819500D01*
X37343322Y-26819500D01*
X37233836Y-26848836D01*
X37233831Y-26848838D01*
X37137000Y-26904744D01*
X37080847Y-26912136D01*
X37063000Y-26904744D01*
X36966168Y-26848838D01*
X36966163Y-26848836D01*
X36856678Y-26819500D01*
X36856676Y-26819500D01*
X36743324Y-26819500D01*
X36743322Y-26819500D01*
X36633836Y-26848836D01*
X36633831Y-26848838D01*
X36537000Y-26904744D01*
X36480847Y-26912136D01*
X36463000Y-26904744D01*
X36366168Y-26848838D01*
X36366163Y-26848836D01*
X36256678Y-26819500D01*
X36256676Y-26819500D01*
X36143324Y-26819500D01*
X36143322Y-26819500D01*
X36033836Y-26848836D01*
X36033831Y-26848838D01*
X35937000Y-26904744D01*
X35880847Y-26912136D01*
X35863000Y-26904744D01*
X35766168Y-26848838D01*
X35766163Y-26848836D01*
X35656678Y-26819500D01*
X35656676Y-26819500D01*
X35543324Y-26819500D01*
X35543322Y-26819500D01*
X35433836Y-26848836D01*
X35433831Y-26848838D01*
X35335666Y-26905514D01*
X35255514Y-26985666D01*
X35198838Y-27083831D01*
X35198836Y-27083836D01*
X35169500Y-27193321D01*
X30777772Y-27193321D01*
X30744485Y-27135666D01*
X30661145Y-27052326D01*
X30639471Y-27000000D01*
X30661145Y-26947674D01*
X30700000Y-26908819D01*
X30744486Y-26864333D01*
X30801162Y-26766167D01*
X30830499Y-26656678D01*
X30830500Y-26656678D01*
X30830500Y-26543322D01*
X30830499Y-26543321D01*
X30801163Y-26433836D01*
X30801161Y-26433831D01*
X30782299Y-26401161D01*
X30744486Y-26335667D01*
X30664333Y-26255514D01*
X30662999Y-26254744D01*
X30566168Y-26198838D01*
X30566163Y-26198836D01*
X30456678Y-26169500D01*
X30456676Y-26169500D01*
X30343324Y-26169500D01*
X30343322Y-26169500D01*
X30233836Y-26198836D01*
X30233831Y-26198838D01*
X30137000Y-26254744D01*
X30080847Y-26262136D01*
X30063000Y-26254744D01*
X29966168Y-26198838D01*
X29966163Y-26198836D01*
X29856678Y-26169500D01*
X29856676Y-26169500D01*
X29743324Y-26169500D01*
X29743322Y-26169500D01*
X29633836Y-26198836D01*
X29633831Y-26198838D01*
X29537000Y-26254744D01*
X29480847Y-26262136D01*
X29463000Y-26254744D01*
X29366168Y-26198838D01*
X29366163Y-26198836D01*
X29256678Y-26169500D01*
X29256676Y-26169500D01*
X29143324Y-26169500D01*
X29143322Y-26169500D01*
X29033836Y-26198836D01*
X29033831Y-26198838D01*
X28937000Y-26254744D01*
X28880847Y-26262136D01*
X28863000Y-26254744D01*
X28766168Y-26198838D01*
X28766163Y-26198836D01*
X28656678Y-26169500D01*
X28656676Y-26169500D01*
X28543324Y-26169500D01*
X28543322Y-26169500D01*
X28433836Y-26198836D01*
X28433831Y-26198838D01*
X28335666Y-26255514D01*
X28255514Y-26335666D01*
X28198838Y-26433831D01*
X28198836Y-26433836D01*
X28169500Y-26543321D01*
X250500Y-26543321D01*
X250500Y-25343321D01*
X6769500Y-25343321D01*
X6769500Y-25456678D01*
X6798836Y-25566163D01*
X6798838Y-25566168D01*
X6854744Y-25663000D01*
X6855514Y-25664333D01*
X6935667Y-25744486D01*
X7033833Y-25801162D01*
X7033834Y-25801162D01*
X7033836Y-25801163D01*
X7088578Y-25815831D01*
X7143321Y-25830499D01*
X7143322Y-25830500D01*
X7143324Y-25830500D01*
X7256678Y-25830500D01*
X7256678Y-25830499D01*
X7366167Y-25801162D01*
X7464333Y-25744486D01*
X7544486Y-25664333D01*
X7601162Y-25566167D01*
X7630499Y-25456678D01*
X7630500Y-25456678D01*
X7630500Y-25343322D01*
X7630499Y-25343321D01*
X7601163Y-25233836D01*
X7601161Y-25233831D01*
X7582299Y-25201161D01*
X7544486Y-25135667D01*
X7464333Y-25055514D01*
X7445230Y-25044485D01*
X7366168Y-24998838D01*
X7366163Y-24998836D01*
X7256678Y-24969500D01*
X7256676Y-24969500D01*
X7143324Y-24969500D01*
X7143322Y-24969500D01*
X7033836Y-24998836D01*
X7033831Y-24998838D01*
X6935666Y-25055514D01*
X6855514Y-25135666D01*
X6798838Y-25233831D01*
X6798836Y-25233836D01*
X6769500Y-25343321D01*
X250500Y-25343321D01*
X250500Y-23743321D01*
X7169500Y-23743321D01*
X7169500Y-23856678D01*
X7198836Y-23966163D01*
X7198838Y-23966168D01*
X7243712Y-24043891D01*
X7255514Y-24064333D01*
X7335667Y-24144486D01*
X7378993Y-24169500D01*
X7429807Y-24198838D01*
X7433833Y-24201162D01*
X7433834Y-24201162D01*
X7433836Y-24201163D01*
X7488578Y-24215831D01*
X7543321Y-24230499D01*
X7543322Y-24230500D01*
X7543324Y-24230500D01*
X7656678Y-24230500D01*
X7656678Y-24230499D01*
X7766167Y-24201162D01*
X7864333Y-24144486D01*
X7865498Y-24143321D01*
X9369500Y-24143321D01*
X9369500Y-24256678D01*
X9398836Y-24366163D01*
X9398838Y-24366168D01*
X9438963Y-24435666D01*
X9455514Y-24464333D01*
X9535667Y-24544486D01*
X9578993Y-24569500D01*
X9629807Y-24598838D01*
X9633833Y-24601162D01*
X9633834Y-24601162D01*
X9633836Y-24601163D01*
X9688578Y-24615831D01*
X9743321Y-24630499D01*
X9743322Y-24630500D01*
X9743324Y-24630500D01*
X9856678Y-24630500D01*
X9856678Y-24630499D01*
X9966167Y-24601162D01*
X10064333Y-24544486D01*
X10064335Y-24544483D01*
X10065360Y-24543892D01*
X10121512Y-24536499D01*
X10166446Y-24570978D01*
X10173839Y-24627130D01*
X10169500Y-24643324D01*
X10169500Y-24756678D01*
X10198836Y-24866163D01*
X10198838Y-24866168D01*
X10229526Y-24919321D01*
X10255514Y-24964333D01*
X10335667Y-25044486D01*
X10433833Y-25101162D01*
X10433834Y-25101162D01*
X10433836Y-25101163D01*
X10488578Y-25115831D01*
X10543321Y-25130499D01*
X10543322Y-25130500D01*
X10543324Y-25130500D01*
X10656678Y-25130500D01*
X10656678Y-25130499D01*
X10766167Y-25101162D01*
X10864333Y-25044486D01*
X10944486Y-24964333D01*
X11001162Y-24866167D01*
X11030499Y-24756678D01*
X11030500Y-24756678D01*
X11030500Y-24743321D01*
X16569500Y-24743321D01*
X16569500Y-24856678D01*
X16598836Y-24966163D01*
X16598838Y-24966168D01*
X16644055Y-25044485D01*
X16655514Y-25064333D01*
X16735667Y-25144486D01*
X16833833Y-25201162D01*
X16833834Y-25201162D01*
X16833836Y-25201163D01*
X16888578Y-25215831D01*
X16943321Y-25230499D01*
X16943322Y-25230500D01*
X16943324Y-25230500D01*
X17056678Y-25230500D01*
X17056678Y-25230499D01*
X17166167Y-25201162D01*
X17264333Y-25144486D01*
X17344486Y-25064333D01*
X17401162Y-24966167D01*
X17430499Y-24856678D01*
X17430500Y-24856678D01*
X17430500Y-24743322D01*
X17430499Y-24743321D01*
X17401163Y-24633836D01*
X17401161Y-24633831D01*
X17382299Y-24601161D01*
X17348905Y-24543321D01*
X19969500Y-24543321D01*
X19969500Y-24656678D01*
X19998836Y-24766163D01*
X19998838Y-24766168D01*
X20051092Y-24856674D01*
X20055514Y-24864333D01*
X20135667Y-24944486D01*
X20178993Y-24969500D01*
X20229807Y-24998838D01*
X20233833Y-25001162D01*
X20233834Y-25001162D01*
X20233836Y-25001163D01*
X20288578Y-25015831D01*
X20343321Y-25030499D01*
X20343322Y-25030500D01*
X20343324Y-25030500D01*
X20456678Y-25030500D01*
X20456678Y-25030499D01*
X20566167Y-25001162D01*
X20664333Y-24944486D01*
X20744486Y-24864333D01*
X20801162Y-24766167D01*
X20830499Y-24656678D01*
X20830500Y-24656678D01*
X20830500Y-24543322D01*
X20830499Y-24543321D01*
X20801163Y-24433836D01*
X20801161Y-24433831D01*
X20780958Y-24398838D01*
X20744486Y-24335667D01*
X20664333Y-24255514D01*
X20632266Y-24237000D01*
X20566168Y-24198838D01*
X20566163Y-24198836D01*
X20456678Y-24169500D01*
X20456676Y-24169500D01*
X20343324Y-24169500D01*
X20343322Y-24169500D01*
X20233836Y-24198836D01*
X20233831Y-24198838D01*
X20135666Y-24255514D01*
X20055514Y-24335666D01*
X19998838Y-24433831D01*
X19998836Y-24433836D01*
X19969500Y-24543321D01*
X17348905Y-24543321D01*
X17344486Y-24535667D01*
X17264333Y-24455514D01*
X17229957Y-24435667D01*
X17166168Y-24398838D01*
X17166163Y-24398836D01*
X17056678Y-24369500D01*
X17056676Y-24369500D01*
X16943324Y-24369500D01*
X16943322Y-24369500D01*
X16833836Y-24398836D01*
X16833831Y-24398838D01*
X16735666Y-24455514D01*
X16655514Y-24535666D01*
X16598838Y-24633831D01*
X16598836Y-24633836D01*
X16569500Y-24743321D01*
X11030500Y-24743321D01*
X11030500Y-24643322D01*
X11030499Y-24643321D01*
X11027063Y-24630499D01*
X11010719Y-24569500D01*
X11001163Y-24533836D01*
X11001161Y-24533831D01*
X10961036Y-24464333D01*
X10944486Y-24435667D01*
X10864333Y-24355514D01*
X10829957Y-24335667D01*
X10766168Y-24298838D01*
X10766163Y-24298836D01*
X10664060Y-24271478D01*
X10619127Y-24237000D01*
X10611735Y-24180847D01*
X10646213Y-24135914D01*
X10664060Y-24128522D01*
X10766163Y-24101163D01*
X10766162Y-24101163D01*
X10766167Y-24101162D01*
X10864333Y-24044486D01*
X10944486Y-23964333D01*
X11001162Y-23866167D01*
X11030499Y-23756678D01*
X11030500Y-23756678D01*
X11030500Y-23643322D01*
X11030499Y-23643321D01*
X11003704Y-23543321D01*
X34369500Y-23543321D01*
X34369500Y-23656678D01*
X34398836Y-23766163D01*
X34398838Y-23766168D01*
X34443467Y-23843467D01*
X34455514Y-23864333D01*
X34535667Y-23944486D01*
X34633833Y-24001162D01*
X34633834Y-24001162D01*
X34633836Y-24001163D01*
X34688578Y-24015831D01*
X34743321Y-24030499D01*
X34743322Y-24030500D01*
X34743324Y-24030500D01*
X34856677Y-24030500D01*
X34868926Y-24027217D01*
X34886990Y-24022377D01*
X34943143Y-24029768D01*
X34977622Y-24074701D01*
X34977623Y-24113007D01*
X34969500Y-24143324D01*
X34969500Y-24256678D01*
X34998836Y-24366163D01*
X34998838Y-24366168D01*
X35054744Y-24463000D01*
X35062136Y-24519153D01*
X35054744Y-24537000D01*
X34998838Y-24633831D01*
X34998836Y-24633836D01*
X34969500Y-24743321D01*
X34969500Y-24856678D01*
X34998836Y-24966163D01*
X34998838Y-24966168D01*
X35054744Y-25063000D01*
X35062136Y-25119153D01*
X35054744Y-25137000D01*
X34998838Y-25233831D01*
X34998836Y-25233836D01*
X34969500Y-25343321D01*
X34969500Y-25456678D01*
X34998836Y-25566163D01*
X34998838Y-25566168D01*
X35054744Y-25663000D01*
X35062136Y-25719153D01*
X35054744Y-25737000D01*
X34998838Y-25833831D01*
X34998836Y-25833836D01*
X34969500Y-25943321D01*
X34969500Y-26056678D01*
X34998836Y-26166163D01*
X34998838Y-26166168D01*
X35049978Y-26254744D01*
X35055514Y-26264333D01*
X35135667Y-26344486D01*
X35233833Y-26401162D01*
X35233834Y-26401162D01*
X35233836Y-26401163D01*
X35288578Y-26415831D01*
X35343321Y-26430499D01*
X35343322Y-26430500D01*
X35343324Y-26430500D01*
X35456678Y-26430500D01*
X35456678Y-26430499D01*
X35566167Y-26401162D01*
X35664333Y-26344486D01*
X35744486Y-26264333D01*
X35801162Y-26166167D01*
X35830499Y-26056678D01*
X35830500Y-26056678D01*
X35830500Y-25943322D01*
X35830499Y-25943321D01*
X35801163Y-25833836D01*
X35801161Y-25833831D01*
X35782299Y-25801161D01*
X35745254Y-25736998D01*
X35737862Y-25680848D01*
X35745253Y-25663003D01*
X35801162Y-25566167D01*
X35830499Y-25456678D01*
X35830500Y-25456678D01*
X35830500Y-25343322D01*
X35830499Y-25343321D01*
X35801163Y-25233836D01*
X35801161Y-25233831D01*
X35782299Y-25201161D01*
X35745254Y-25136998D01*
X35737862Y-25080848D01*
X35745253Y-25063003D01*
X35801162Y-24966167D01*
X35830499Y-24856678D01*
X35830500Y-24856678D01*
X35830500Y-24743322D01*
X35830499Y-24743321D01*
X37569500Y-24743321D01*
X37569500Y-24856678D01*
X37598836Y-24966163D01*
X37598838Y-24966168D01*
X37644055Y-25044485D01*
X37655514Y-25064333D01*
X37735667Y-25144486D01*
X37833833Y-25201162D01*
X37833834Y-25201162D01*
X37833836Y-25201163D01*
X37888578Y-25215831D01*
X37943321Y-25230499D01*
X37943322Y-25230500D01*
X37943324Y-25230500D01*
X38056678Y-25230500D01*
X38056678Y-25230499D01*
X38166167Y-25201162D01*
X38264333Y-25144486D01*
X38344486Y-25064333D01*
X38401162Y-24966167D01*
X38402639Y-24960653D01*
X38407284Y-24943321D01*
X45569500Y-24943321D01*
X45569500Y-25056678D01*
X45598836Y-25166163D01*
X45598838Y-25166168D01*
X45655514Y-25264333D01*
X45735667Y-25344486D01*
X45833833Y-25401162D01*
X45833834Y-25401162D01*
X45833836Y-25401163D01*
X45888578Y-25415831D01*
X45943321Y-25430499D01*
X45943322Y-25430500D01*
X45943324Y-25430500D01*
X46056678Y-25430500D01*
X46056678Y-25430499D01*
X46166167Y-25401162D01*
X46264333Y-25344486D01*
X46344486Y-25264333D01*
X46401162Y-25166167D01*
X46430499Y-25056678D01*
X46430500Y-25056678D01*
X46430500Y-24943322D01*
X46430499Y-24943321D01*
X46401163Y-24833836D01*
X46401161Y-24833831D01*
X46385975Y-24807528D01*
X46344486Y-24735667D01*
X46264333Y-24655514D01*
X46243214Y-24643321D01*
X46166168Y-24598838D01*
X46166163Y-24598836D01*
X46056678Y-24569500D01*
X46056676Y-24569500D01*
X45943324Y-24569500D01*
X45943322Y-24569500D01*
X45833836Y-24598836D01*
X45833831Y-24598838D01*
X45735666Y-24655514D01*
X45655514Y-24735666D01*
X45598838Y-24833831D01*
X45598836Y-24833836D01*
X45569500Y-24943321D01*
X38407284Y-24943321D01*
X38413713Y-24919328D01*
X38413714Y-24919321D01*
X38430500Y-24856676D01*
X38430500Y-24743324D01*
X38430500Y-24743322D01*
X38430499Y-24743321D01*
X38401163Y-24633836D01*
X38401161Y-24633831D01*
X38380958Y-24598838D01*
X38344486Y-24535667D01*
X38264333Y-24455514D01*
X38229957Y-24435667D01*
X38166168Y-24398838D01*
X38166163Y-24398836D01*
X38056678Y-24369500D01*
X38056676Y-24369500D01*
X37943324Y-24369500D01*
X37943322Y-24369500D01*
X37833836Y-24398836D01*
X37833831Y-24398838D01*
X37735666Y-24455514D01*
X37655514Y-24535666D01*
X37598838Y-24633831D01*
X37598836Y-24633836D01*
X37569500Y-24743321D01*
X35830499Y-24743321D01*
X35801163Y-24633836D01*
X35801161Y-24633831D01*
X35780958Y-24598838D01*
X35745254Y-24536998D01*
X35737862Y-24480848D01*
X35745253Y-24463003D01*
X35801162Y-24366167D01*
X35830499Y-24256678D01*
X35830500Y-24256678D01*
X35830500Y-24143322D01*
X35830499Y-24143321D01*
X35801163Y-24033836D01*
X35801161Y-24033831D01*
X35782299Y-24001161D01*
X35744486Y-23935667D01*
X35664333Y-23855514D01*
X35643467Y-23843467D01*
X35566168Y-23798838D01*
X35566163Y-23798836D01*
X35456678Y-23769500D01*
X35456676Y-23769500D01*
X35343324Y-23769500D01*
X35313007Y-23777623D01*
X35256854Y-23770229D01*
X35222376Y-23725296D01*
X35222377Y-23686990D01*
X35230500Y-23656677D01*
X35230500Y-23543322D01*
X35230499Y-23543321D01*
X35227063Y-23530499D01*
X35207283Y-23456676D01*
X35201163Y-23433836D01*
X35201161Y-23433831D01*
X35193373Y-23420343D01*
X35148905Y-23343321D01*
X36169500Y-23343321D01*
X36169500Y-23456678D01*
X36198836Y-23566163D01*
X36198838Y-23566168D01*
X36243383Y-23643321D01*
X36255514Y-23664333D01*
X36335667Y-23744486D01*
X36384826Y-23772868D01*
X36429807Y-23798838D01*
X36433833Y-23801162D01*
X36433834Y-23801162D01*
X36433836Y-23801163D01*
X36488578Y-23815831D01*
X36543321Y-23830499D01*
X36543322Y-23830500D01*
X36543324Y-23830500D01*
X36656678Y-23830500D01*
X36656678Y-23830499D01*
X36766167Y-23801162D01*
X36864333Y-23744486D01*
X36944486Y-23664333D01*
X37001162Y-23566167D01*
X37030499Y-23456678D01*
X37030500Y-23456678D01*
X37030500Y-23343322D01*
X37030499Y-23343321D01*
X37001163Y-23233836D01*
X37001161Y-23233831D01*
X36980958Y-23198838D01*
X36944486Y-23135667D01*
X36864333Y-23055514D01*
X36843214Y-23043321D01*
X36766168Y-22998838D01*
X36766163Y-22998836D01*
X36656678Y-22969500D01*
X36656676Y-22969500D01*
X36543324Y-22969500D01*
X36543322Y-22969500D01*
X36433836Y-22998836D01*
X36433831Y-22998838D01*
X36335666Y-23055514D01*
X36255514Y-23135666D01*
X36198838Y-23233831D01*
X36198836Y-23233836D01*
X36169500Y-23343321D01*
X35148905Y-23343321D01*
X35144486Y-23335667D01*
X35064333Y-23255514D01*
X34966168Y-23198838D01*
X34966163Y-23198836D01*
X34856678Y-23169500D01*
X34856676Y-23169500D01*
X34743324Y-23169500D01*
X34743322Y-23169500D01*
X34633836Y-23198836D01*
X34633831Y-23198838D01*
X34535666Y-23255514D01*
X34455514Y-23335666D01*
X34398838Y-23433831D01*
X34398836Y-23433836D01*
X34369500Y-23543321D01*
X11003704Y-23543321D01*
X11001163Y-23533836D01*
X11001161Y-23533831D01*
X10978643Y-23494829D01*
X10944486Y-23435667D01*
X10864333Y-23355514D01*
X10829957Y-23335667D01*
X10766168Y-23298838D01*
X10766163Y-23298836D01*
X10656678Y-23269500D01*
X10656676Y-23269500D01*
X10543324Y-23269500D01*
X10543322Y-23269500D01*
X10433836Y-23298836D01*
X10433831Y-23298838D01*
X10335666Y-23355514D01*
X10255514Y-23435666D01*
X10198838Y-23533831D01*
X10198836Y-23533836D01*
X10169500Y-23643321D01*
X10169500Y-23756678D01*
X10173838Y-23772868D01*
X10166446Y-23829021D01*
X10121513Y-23863499D01*
X10065360Y-23856107D01*
X9966168Y-23798838D01*
X9966163Y-23798836D01*
X9856678Y-23769500D01*
X9856676Y-23769500D01*
X9743324Y-23769500D01*
X9743322Y-23769500D01*
X9633836Y-23798836D01*
X9633831Y-23798838D01*
X9535666Y-23855514D01*
X9455514Y-23935666D01*
X9398838Y-24033831D01*
X9398836Y-24033836D01*
X9369500Y-24143321D01*
X7865498Y-24143321D01*
X7944486Y-24064333D01*
X8001162Y-23966167D01*
X8030499Y-23856678D01*
X8030500Y-23856678D01*
X8030500Y-23743322D01*
X8030499Y-23743321D01*
X8001163Y-23633836D01*
X8001161Y-23633831D01*
X7985975Y-23607528D01*
X7944486Y-23535667D01*
X7864333Y-23455514D01*
X7829957Y-23435667D01*
X7766168Y-23398838D01*
X7766163Y-23398836D01*
X7656678Y-23369500D01*
X7656676Y-23369500D01*
X7543324Y-23369500D01*
X7543322Y-23369500D01*
X7433836Y-23398836D01*
X7433831Y-23398838D01*
X7335666Y-23455514D01*
X7255514Y-23535666D01*
X7198838Y-23633831D01*
X7198836Y-23633836D01*
X7169500Y-23743321D01*
X250500Y-23743321D01*
X250500Y-23043321D01*
X10969500Y-23043321D01*
X10969500Y-23156678D01*
X10998836Y-23266163D01*
X10998839Y-23266169D01*
X11021355Y-23305169D01*
X11021358Y-23305173D01*
X11055514Y-23364333D01*
X11135667Y-23444486D01*
X11233833Y-23501162D01*
X11233834Y-23501162D01*
X11233836Y-23501163D01*
X11288578Y-23515831D01*
X11343321Y-23530499D01*
X11343322Y-23530500D01*
X11343324Y-23530500D01*
X11456678Y-23530500D01*
X11456678Y-23530499D01*
X11566167Y-23501162D01*
X11664333Y-23444486D01*
X11744486Y-23364333D01*
X11801162Y-23266167D01*
X11830499Y-23156678D01*
X11830500Y-23156678D01*
X11830500Y-23043322D01*
X11830499Y-23043321D01*
X11801163Y-22933836D01*
X11801161Y-22933831D01*
X11744485Y-22835666D01*
X11664333Y-22755514D01*
X11566168Y-22698838D01*
X11566163Y-22698836D01*
X11456678Y-22669500D01*
X11456676Y-22669500D01*
X11343324Y-22669500D01*
X11343322Y-22669500D01*
X11233836Y-22698836D01*
X11233831Y-22698838D01*
X11135666Y-22755514D01*
X11055514Y-22835666D01*
X10998838Y-22933831D01*
X10998836Y-22933836D01*
X10969500Y-23043321D01*
X250500Y-23043321D01*
X250500Y-18943321D01*
X9169500Y-18943321D01*
X9169500Y-19056678D01*
X9198836Y-19166163D01*
X9198838Y-19166168D01*
X9251093Y-19256676D01*
X9255514Y-19264333D01*
X9335667Y-19344486D01*
X9433833Y-19401162D01*
X9433834Y-19401162D01*
X9433836Y-19401163D01*
X9488578Y-19415831D01*
X9543321Y-19430499D01*
X9543322Y-19430500D01*
X9543324Y-19430500D01*
X9656678Y-19430500D01*
X9656678Y-19430499D01*
X9766167Y-19401162D01*
X9864333Y-19344486D01*
X9944486Y-19264333D01*
X10001162Y-19166167D01*
X10007283Y-19143324D01*
X10007284Y-19143321D01*
X11169500Y-19143321D01*
X11169500Y-19256678D01*
X11198836Y-19366163D01*
X11198838Y-19366168D01*
X11255514Y-19464333D01*
X11335667Y-19544486D01*
X11433833Y-19601162D01*
X11433834Y-19601162D01*
X11433836Y-19601163D01*
X11488578Y-19615831D01*
X11543321Y-19630499D01*
X11543322Y-19630500D01*
X11543324Y-19630500D01*
X11656678Y-19630500D01*
X11656678Y-19630499D01*
X11766167Y-19601162D01*
X11864333Y-19544486D01*
X11944486Y-19464333D01*
X12001162Y-19366167D01*
X12030499Y-19256678D01*
X12030500Y-19256678D01*
X12030500Y-19143322D01*
X12030499Y-19143321D01*
X12769500Y-19143321D01*
X12769500Y-19256678D01*
X12798836Y-19366163D01*
X12798838Y-19366168D01*
X12855514Y-19464333D01*
X12935667Y-19544486D01*
X13033833Y-19601162D01*
X13033834Y-19601162D01*
X13033836Y-19601163D01*
X13088578Y-19615831D01*
X13143321Y-19630499D01*
X13143322Y-19630500D01*
X13143324Y-19630500D01*
X13256678Y-19630500D01*
X13256678Y-19630499D01*
X13366167Y-19601162D01*
X13464333Y-19544486D01*
X13544486Y-19464333D01*
X13601162Y-19366167D01*
X13630499Y-19256678D01*
X13630500Y-19256678D01*
X13630500Y-19143322D01*
X13630499Y-19143321D01*
X13601163Y-19033836D01*
X13601161Y-19033831D01*
X13585975Y-19007528D01*
X13544486Y-18935667D01*
X13464333Y-18855514D01*
X13366168Y-18798838D01*
X13366163Y-18798836D01*
X13256678Y-18769500D01*
X13256676Y-18769500D01*
X13143324Y-18769500D01*
X13143322Y-18769500D01*
X13033836Y-18798836D01*
X13033831Y-18798838D01*
X12935666Y-18855514D01*
X12855514Y-18935666D01*
X12798838Y-19033831D01*
X12798836Y-19033836D01*
X12769500Y-19143321D01*
X12030499Y-19143321D01*
X12001163Y-19033836D01*
X12001161Y-19033831D01*
X11985975Y-19007528D01*
X11944486Y-18935667D01*
X11864333Y-18855514D01*
X11766168Y-18798838D01*
X11766163Y-18798836D01*
X11656678Y-18769500D01*
X11656676Y-18769500D01*
X11543324Y-18769500D01*
X11543322Y-18769500D01*
X11433836Y-18798836D01*
X11433831Y-18798838D01*
X11335666Y-18855514D01*
X11255514Y-18935666D01*
X11198838Y-19033831D01*
X11198836Y-19033836D01*
X11169500Y-19143321D01*
X10007284Y-19143321D01*
X10013713Y-19119328D01*
X10013714Y-19119321D01*
X10030499Y-19056678D01*
X10030500Y-19056676D01*
X10030500Y-18943324D01*
X10030500Y-18943322D01*
X10030499Y-18943321D01*
X10001163Y-18833836D01*
X10001161Y-18833831D01*
X9980958Y-18798838D01*
X9944486Y-18735667D01*
X9864333Y-18655514D01*
X9766168Y-18598838D01*
X9766163Y-18598836D01*
X9656678Y-18569500D01*
X9656676Y-18569500D01*
X9543324Y-18569500D01*
X9543322Y-18569500D01*
X9433836Y-18598836D01*
X9433831Y-18598838D01*
X9335666Y-18655514D01*
X9255514Y-18735666D01*
X9198838Y-18833831D01*
X9198836Y-18833836D01*
X9169500Y-18943321D01*
X250500Y-18943321D01*
X250500Y-15943321D01*
X17469500Y-15943321D01*
X17469500Y-16056678D01*
X17498836Y-16166163D01*
X17498838Y-16166168D01*
X17521547Y-16205500D01*
X17555514Y-16264333D01*
X17635667Y-16344486D01*
X17733833Y-16401162D01*
X17733834Y-16401162D01*
X17733836Y-16401163D01*
X17835939Y-16428522D01*
X17880872Y-16463000D01*
X17888264Y-16519153D01*
X17853786Y-16564086D01*
X17835939Y-16571478D01*
X17733836Y-16598836D01*
X17733831Y-16598838D01*
X17635666Y-16655514D01*
X17555514Y-16735666D01*
X17498838Y-16833831D01*
X17498836Y-16833836D01*
X17469500Y-16943321D01*
X17469500Y-17056678D01*
X17498836Y-17166163D01*
X17498838Y-17166168D01*
X17538963Y-17235666D01*
X17555514Y-17264333D01*
X17635667Y-17344486D01*
X17733833Y-17401162D01*
X17733834Y-17401162D01*
X17733836Y-17401163D01*
X17788578Y-17415831D01*
X17843321Y-17430499D01*
X17843322Y-17430500D01*
X17843324Y-17430500D01*
X17956678Y-17430500D01*
X17956678Y-17430499D01*
X18066167Y-17401162D01*
X18164333Y-17344486D01*
X18244486Y-17264333D01*
X18301162Y-17166167D01*
X18330499Y-17056678D01*
X18330500Y-17056678D01*
X18330500Y-16943322D01*
X18330499Y-16943321D01*
X43769500Y-16943321D01*
X43769500Y-17056678D01*
X43798836Y-17166163D01*
X43798838Y-17166168D01*
X43838963Y-17235666D01*
X43855514Y-17264333D01*
X43935667Y-17344486D01*
X44033833Y-17401162D01*
X44033834Y-17401162D01*
X44033836Y-17401163D01*
X44088578Y-17415831D01*
X44143321Y-17430499D01*
X44143322Y-17430500D01*
X44143324Y-17430500D01*
X44256678Y-17430500D01*
X44256678Y-17430499D01*
X44366167Y-17401162D01*
X44464333Y-17344486D01*
X44544486Y-17264333D01*
X44601162Y-17166167D01*
X44630499Y-17056678D01*
X44630500Y-17056678D01*
X44630500Y-16943322D01*
X44630499Y-16943321D01*
X44601163Y-16833836D01*
X44601161Y-16833831D01*
X44544485Y-16735666D01*
X44464333Y-16655514D01*
X44366168Y-16598838D01*
X44366163Y-16598836D01*
X44256678Y-16569500D01*
X44256676Y-16569500D01*
X44143324Y-16569500D01*
X44143322Y-16569500D01*
X44033836Y-16598836D01*
X44033831Y-16598838D01*
X43935666Y-16655514D01*
X43855514Y-16735666D01*
X43798838Y-16833831D01*
X43798836Y-16833836D01*
X43769500Y-16943321D01*
X18330499Y-16943321D01*
X18301163Y-16833836D01*
X18301161Y-16833831D01*
X18244485Y-16735666D01*
X18164333Y-16655514D01*
X18066168Y-16598838D01*
X18066163Y-16598836D01*
X17964060Y-16571478D01*
X17919127Y-16537000D01*
X17911735Y-16480847D01*
X17940529Y-16443321D01*
X45569500Y-16443321D01*
X45569500Y-16556678D01*
X45598836Y-16666163D01*
X45598838Y-16666168D01*
X45638963Y-16735666D01*
X45655514Y-16764333D01*
X45735667Y-16844486D01*
X45833833Y-16901162D01*
X45833834Y-16901162D01*
X45833836Y-16901163D01*
X45935939Y-16928522D01*
X45980872Y-16963000D01*
X45988264Y-17019153D01*
X45953786Y-17064086D01*
X45935939Y-17071478D01*
X45833836Y-17098836D01*
X45833831Y-17098838D01*
X45735666Y-17155514D01*
X45655514Y-17235666D01*
X45598838Y-17333831D01*
X45598836Y-17333836D01*
X45569500Y-17443321D01*
X45569500Y-17556678D01*
X45598836Y-17666163D01*
X45598838Y-17666168D01*
X45655514Y-17764333D01*
X45735667Y-17844486D01*
X45833833Y-17901162D01*
X45833834Y-17901162D01*
X45833836Y-17901163D01*
X45888578Y-17915831D01*
X45943321Y-17930499D01*
X45943322Y-17930500D01*
X45943324Y-17930500D01*
X46056678Y-17930500D01*
X46056678Y-17930499D01*
X46166167Y-17901162D01*
X46264333Y-17844486D01*
X46344486Y-17764333D01*
X46401162Y-17666167D01*
X46430499Y-17556678D01*
X46430500Y-17556678D01*
X46430500Y-17443322D01*
X46430499Y-17443321D01*
X46427063Y-17430499D01*
X46415831Y-17388578D01*
X46401163Y-17333836D01*
X46401161Y-17333831D01*
X46344485Y-17235666D01*
X46264333Y-17155514D01*
X46166168Y-17098838D01*
X46166163Y-17098836D01*
X46064060Y-17071478D01*
X46019127Y-17037000D01*
X46011735Y-16980847D01*
X46046213Y-16935914D01*
X46064060Y-16928522D01*
X46166163Y-16901163D01*
X46166162Y-16901163D01*
X46166167Y-16901162D01*
X46264333Y-16844486D01*
X46344486Y-16764333D01*
X46401162Y-16666167D01*
X46430499Y-16556678D01*
X46430500Y-16556678D01*
X46430500Y-16443322D01*
X46430499Y-16443321D01*
X46401163Y-16333836D01*
X46401161Y-16333831D01*
X46344485Y-16235666D01*
X46264333Y-16155514D01*
X46166168Y-16098838D01*
X46166163Y-16098836D01*
X46056678Y-16069500D01*
X46056676Y-16069500D01*
X45943324Y-16069500D01*
X45943322Y-16069500D01*
X45833836Y-16098836D01*
X45833831Y-16098838D01*
X45735666Y-16155514D01*
X45655514Y-16235666D01*
X45598838Y-16333831D01*
X45598836Y-16333836D01*
X45569500Y-16443321D01*
X17940529Y-16443321D01*
X17946213Y-16435914D01*
X17964060Y-16428522D01*
X18066163Y-16401163D01*
X18066162Y-16401163D01*
X18066167Y-16401162D01*
X18164333Y-16344486D01*
X18244486Y-16264333D01*
X18301162Y-16166167D01*
X18330499Y-16056678D01*
X18330500Y-16056678D01*
X18330500Y-15943322D01*
X18330499Y-15943321D01*
X18327063Y-15930499D01*
X18312029Y-15874388D01*
X18301163Y-15833836D01*
X18301161Y-15833831D01*
X18244485Y-15735666D01*
X18164333Y-15655514D01*
X18066168Y-15598838D01*
X18066163Y-15598836D01*
X17956678Y-15569500D01*
X17956676Y-15569500D01*
X17843324Y-15569500D01*
X17843322Y-15569500D01*
X17733836Y-15598836D01*
X17733831Y-15598838D01*
X17635666Y-15655514D01*
X17555514Y-15735666D01*
X17498838Y-15833831D01*
X17498836Y-15833836D01*
X17469500Y-15943321D01*
X250500Y-15943321D01*
X250500Y-15443321D01*
X9669500Y-15443321D01*
X9669500Y-15556678D01*
X9698836Y-15666163D01*
X9698838Y-15666168D01*
X9738963Y-15735666D01*
X9755514Y-15764333D01*
X9835667Y-15844486D01*
X9933833Y-15901162D01*
X9933834Y-15901162D01*
X9933836Y-15901163D01*
X9988578Y-15915831D01*
X10043321Y-15930499D01*
X10043322Y-15930500D01*
X10043324Y-15930500D01*
X10156678Y-15930500D01*
X10156678Y-15930499D01*
X10266167Y-15901162D01*
X10364333Y-15844486D01*
X10444486Y-15764333D01*
X10501162Y-15666167D01*
X10530499Y-15556678D01*
X10530500Y-15556678D01*
X10530500Y-15443322D01*
X10530499Y-15443321D01*
X10501163Y-15333836D01*
X10501161Y-15333831D01*
X10444485Y-15235666D01*
X10364333Y-15155514D01*
X10266168Y-15098838D01*
X10266163Y-15098836D01*
X10156678Y-15069500D01*
X10156676Y-15069500D01*
X10043324Y-15069500D01*
X10043322Y-15069500D01*
X9933836Y-15098836D01*
X9933831Y-15098838D01*
X9835666Y-15155514D01*
X9755514Y-15235666D01*
X9698838Y-15333831D01*
X9698836Y-15333836D01*
X9669500Y-15443321D01*
X250500Y-15443321D01*
X250500Y-12819983D01*
X28794500Y-12819983D01*
X28794500Y-13180017D01*
X28811831Y-13333831D01*
X28834811Y-13537790D01*
X28834811Y-13537791D01*
X28914923Y-13888786D01*
X28914928Y-13888802D01*
X29033836Y-14228621D01*
X29033838Y-14228625D01*
X29190051Y-14553004D01*
X29381600Y-14857854D01*
X29606078Y-15139340D01*
X29860660Y-15393922D01*
X30142146Y-15618400D01*
X30446996Y-15809949D01*
X30771375Y-15966162D01*
X31111205Y-16085074D01*
X31111210Y-16085075D01*
X31111213Y-16085076D01*
X31462208Y-16165188D01*
X31462209Y-16165188D01*
X31462213Y-16165189D01*
X31819983Y-16205500D01*
X31819987Y-16205500D01*
X32180013Y-16205500D01*
X32180017Y-16205500D01*
X32537787Y-16165189D01*
X32888795Y-16085074D01*
X33228625Y-15966162D01*
X33553004Y-15809949D01*
X33857854Y-15618400D01*
X34139340Y-15393922D01*
X34393922Y-15139340D01*
X34618400Y-14857854D01*
X34809949Y-14553004D01*
X34966162Y-14228625D01*
X35085074Y-13888795D01*
X35165189Y-13537787D01*
X35205500Y-13180017D01*
X35205500Y-12819983D01*
X36794500Y-12819983D01*
X36794500Y-13180017D01*
X36811831Y-13333831D01*
X36834811Y-13537790D01*
X36834811Y-13537791D01*
X36914923Y-13888786D01*
X36914928Y-13888802D01*
X37033836Y-14228621D01*
X37033838Y-14228625D01*
X37190051Y-14553004D01*
X37381600Y-14857854D01*
X37606078Y-15139340D01*
X37860660Y-15393922D01*
X38142146Y-15618400D01*
X38446996Y-15809949D01*
X38771375Y-15966162D01*
X39111205Y-16085074D01*
X39111210Y-16085075D01*
X39111213Y-16085076D01*
X39462208Y-16165188D01*
X39462209Y-16165188D01*
X39462213Y-16165189D01*
X39819983Y-16205500D01*
X39819987Y-16205500D01*
X40180013Y-16205500D01*
X40180017Y-16205500D01*
X40537787Y-16165189D01*
X40888795Y-16085074D01*
X41228625Y-15966162D01*
X41553004Y-15809949D01*
X41857854Y-15618400D01*
X42139340Y-15393922D01*
X42393922Y-15139340D01*
X42618400Y-14857854D01*
X42809949Y-14553004D01*
X42966162Y-14228625D01*
X43085074Y-13888795D01*
X43165189Y-13537787D01*
X43175833Y-13443321D01*
X45569500Y-13443321D01*
X45569500Y-13556678D01*
X45598836Y-13666163D01*
X45598838Y-13666168D01*
X45655514Y-13764333D01*
X45735667Y-13844486D01*
X45833833Y-13901162D01*
X45833834Y-13901162D01*
X45833836Y-13901163D01*
X45935939Y-13928522D01*
X45980872Y-13963000D01*
X45988264Y-14019153D01*
X45953786Y-14064086D01*
X45935939Y-14071478D01*
X45833836Y-14098836D01*
X45833831Y-14098838D01*
X45735666Y-14155514D01*
X45655514Y-14235666D01*
X45598838Y-14333831D01*
X45598836Y-14333836D01*
X45569500Y-14443321D01*
X45569500Y-14556678D01*
X45598836Y-14666163D01*
X45598838Y-14666168D01*
X45655514Y-14764333D01*
X45735667Y-14844486D01*
X45833833Y-14901162D01*
X45833834Y-14901162D01*
X45833836Y-14901163D01*
X45888578Y-14915831D01*
X45943321Y-14930499D01*
X45943322Y-14930500D01*
X45943324Y-14930500D01*
X46056678Y-14930500D01*
X46056678Y-14930499D01*
X46166167Y-14901162D01*
X46264333Y-14844486D01*
X46344486Y-14764333D01*
X46401162Y-14666167D01*
X46430499Y-14556678D01*
X46430500Y-14556678D01*
X46430500Y-14443322D01*
X46430499Y-14443321D01*
X46401163Y-14333836D01*
X46401161Y-14333831D01*
X46344485Y-14235666D01*
X46264333Y-14155514D01*
X46166168Y-14098838D01*
X46166163Y-14098836D01*
X46064060Y-14071478D01*
X46019127Y-14037000D01*
X46011735Y-13980847D01*
X46046213Y-13935914D01*
X46064060Y-13928522D01*
X46166163Y-13901163D01*
X46166162Y-13901163D01*
X46166167Y-13901162D01*
X46264333Y-13844486D01*
X46344486Y-13764333D01*
X46401162Y-13666167D01*
X46430499Y-13556678D01*
X46430500Y-13556678D01*
X46430500Y-13443322D01*
X46430499Y-13443321D01*
X46401163Y-13333836D01*
X46401161Y-13333831D01*
X46344485Y-13235666D01*
X46264333Y-13155514D01*
X46166168Y-13098838D01*
X46166163Y-13098836D01*
X46056678Y-13069500D01*
X46056676Y-13069500D01*
X45943324Y-13069500D01*
X45943322Y-13069500D01*
X45833836Y-13098836D01*
X45833831Y-13098838D01*
X45735666Y-13155514D01*
X45655514Y-13235666D01*
X45598838Y-13333831D01*
X45598836Y-13333836D01*
X45569500Y-13443321D01*
X43175833Y-13443321D01*
X43205500Y-13180017D01*
X43205500Y-12819983D01*
X43165189Y-12462213D01*
X43106596Y-12205500D01*
X43085076Y-12111213D01*
X43085071Y-12111197D01*
X43011576Y-11901162D01*
X42966162Y-11771375D01*
X42809949Y-11446996D01*
X42807640Y-11443321D01*
X45569500Y-11443321D01*
X45569500Y-11556678D01*
X45598836Y-11666163D01*
X45598838Y-11666168D01*
X45655514Y-11764333D01*
X45735667Y-11844486D01*
X45833833Y-11901162D01*
X45833834Y-11901162D01*
X45833836Y-11901163D01*
X45888578Y-11915831D01*
X45943321Y-11930499D01*
X45943322Y-11930500D01*
X45943324Y-11930500D01*
X46056678Y-11930500D01*
X46056678Y-11930499D01*
X46166167Y-11901162D01*
X46264333Y-11844486D01*
X46344486Y-11764333D01*
X46401162Y-11666167D01*
X46430499Y-11556678D01*
X46430500Y-11556678D01*
X46430500Y-11443322D01*
X46430499Y-11443321D01*
X46427063Y-11430499D01*
X46415831Y-11388578D01*
X46401163Y-11333836D01*
X46401161Y-11333831D01*
X46344485Y-11235666D01*
X46264333Y-11155514D01*
X46166168Y-11098838D01*
X46166163Y-11098836D01*
X46056678Y-11069500D01*
X46056676Y-11069500D01*
X45943324Y-11069500D01*
X45943322Y-11069500D01*
X45833836Y-11098836D01*
X45833831Y-11098838D01*
X45735666Y-11155514D01*
X45655514Y-11235666D01*
X45598838Y-11333831D01*
X45598836Y-11333836D01*
X45569500Y-11443321D01*
X42807640Y-11443321D01*
X42618400Y-11142146D01*
X42560467Y-11069500D01*
X42492771Y-10984612D01*
X42492770Y-10984610D01*
X42459843Y-10943321D01*
X46769500Y-10943321D01*
X46769500Y-11056678D01*
X46798836Y-11166163D01*
X46798838Y-11166168D01*
X46838963Y-11235666D01*
X46855514Y-11264333D01*
X46935667Y-11344486D01*
X47033833Y-11401162D01*
X47033834Y-11401162D01*
X47033836Y-11401163D01*
X47088578Y-11415831D01*
X47143321Y-11430499D01*
X47143322Y-11430500D01*
X47143324Y-11430500D01*
X47256678Y-11430500D01*
X47256678Y-11430499D01*
X47366167Y-11401162D01*
X47464333Y-11344486D01*
X47544486Y-11264333D01*
X47601162Y-11166167D01*
X47630499Y-11056678D01*
X47630500Y-11056678D01*
X47630500Y-10943322D01*
X47630499Y-10943321D01*
X47601163Y-10833836D01*
X47601161Y-10833831D01*
X47544485Y-10735666D01*
X47464333Y-10655514D01*
X47366168Y-10598838D01*
X47366163Y-10598836D01*
X47256678Y-10569500D01*
X47256676Y-10569500D01*
X47143324Y-10569500D01*
X47143322Y-10569500D01*
X47033836Y-10598836D01*
X47033831Y-10598838D01*
X46935666Y-10655514D01*
X46855514Y-10735666D01*
X46798838Y-10833831D01*
X46798836Y-10833836D01*
X46769500Y-10943321D01*
X42459843Y-10943321D01*
X42393927Y-10860665D01*
X42139339Y-10606077D01*
X41857854Y-10381600D01*
X41553002Y-10190050D01*
X41228621Y-10033836D01*
X40888802Y-9914928D01*
X40888786Y-9914923D01*
X40537791Y-9834811D01*
X40358902Y-9814655D01*
X40180017Y-9794500D01*
X39819983Y-9794500D01*
X39641098Y-9814655D01*
X39462209Y-9834811D01*
X39462208Y-9834811D01*
X39111213Y-9914923D01*
X39111197Y-9914928D01*
X38771378Y-10033836D01*
X38446997Y-10190050D01*
X38142145Y-10381600D01*
X37860660Y-10606077D01*
X37606077Y-10860660D01*
X37381600Y-11142145D01*
X37190050Y-11446997D01*
X37033836Y-11771378D01*
X36914928Y-12111197D01*
X36914923Y-12111213D01*
X36834811Y-12462208D01*
X36834811Y-12462209D01*
X36834811Y-12462213D01*
X36794500Y-12819983D01*
X35205500Y-12819983D01*
X35165189Y-12462213D01*
X35106596Y-12205500D01*
X35085076Y-12111213D01*
X35085071Y-12111197D01*
X35011576Y-11901162D01*
X34966162Y-11771375D01*
X34809949Y-11446996D01*
X34618400Y-11142146D01*
X34393922Y-10860660D01*
X34139340Y-10606078D01*
X34130261Y-10598838D01*
X33857854Y-10381600D01*
X33553002Y-10190050D01*
X33228621Y-10033836D01*
X32888802Y-9914928D01*
X32888786Y-9914923D01*
X32537791Y-9834811D01*
X32358902Y-9814655D01*
X32180017Y-9794500D01*
X31819983Y-9794500D01*
X31641098Y-9814655D01*
X31462209Y-9834811D01*
X31462208Y-9834811D01*
X31111213Y-9914923D01*
X31111197Y-9914928D01*
X30771378Y-10033836D01*
X30446997Y-10190050D01*
X30142145Y-10381600D01*
X29860660Y-10606077D01*
X29606077Y-10860660D01*
X29381600Y-11142145D01*
X29190050Y-11446997D01*
X29033836Y-11771378D01*
X28914928Y-12111197D01*
X28914923Y-12111213D01*
X28834811Y-12462208D01*
X28834811Y-12462209D01*
X28834811Y-12462213D01*
X28794500Y-12819983D01*
X250500Y-12819983D01*
X250500Y-8819983D01*
X1794500Y-8819983D01*
X1794500Y-9180017D01*
X1796883Y-9201163D01*
X1834811Y-9537790D01*
X1834811Y-9537791D01*
X1914923Y-9888786D01*
X1914928Y-9888802D01*
X2033836Y-10228621D01*
X2033838Y-10228625D01*
X2190051Y-10553004D01*
X2254462Y-10655514D01*
X2381600Y-10857854D01*
X2540155Y-11056676D01*
X2606078Y-11139340D01*
X2860660Y-11393922D01*
X3142146Y-11618400D01*
X3446996Y-11809949D01*
X3771375Y-11966162D01*
X4111205Y-12085074D01*
X4111210Y-12085075D01*
X4111213Y-12085076D01*
X4462208Y-12165188D01*
X4462209Y-12165188D01*
X4462213Y-12165189D01*
X4819983Y-12205500D01*
X4819987Y-12205500D01*
X5180013Y-12205500D01*
X5180017Y-12205500D01*
X5537787Y-12165189D01*
X5888795Y-12085074D01*
X6228625Y-11966162D01*
X6553004Y-11809949D01*
X6857854Y-11618400D01*
X7139340Y-11393922D01*
X7393922Y-11139340D01*
X7618400Y-10857854D01*
X7809949Y-10553004D01*
X7966162Y-10228625D01*
X8085074Y-9888795D01*
X8165189Y-9537787D01*
X8205500Y-9180017D01*
X8205500Y-8819983D01*
X20794500Y-8819983D01*
X20794500Y-9180017D01*
X20796883Y-9201163D01*
X20834811Y-9537790D01*
X20834811Y-9537791D01*
X20914923Y-9888786D01*
X20914928Y-9888802D01*
X21033836Y-10228621D01*
X21033838Y-10228625D01*
X21190051Y-10553004D01*
X21254462Y-10655514D01*
X21381600Y-10857854D01*
X21540155Y-11056676D01*
X21606078Y-11139340D01*
X21860660Y-11393922D01*
X22142146Y-11618400D01*
X22446996Y-11809949D01*
X22771375Y-11966162D01*
X23111205Y-12085074D01*
X23111210Y-12085075D01*
X23111213Y-12085076D01*
X23462208Y-12165188D01*
X23462209Y-12165188D01*
X23462213Y-12165189D01*
X23819983Y-12205500D01*
X23819987Y-12205500D01*
X24180013Y-12205500D01*
X24180017Y-12205500D01*
X24537787Y-12165189D01*
X24888795Y-12085074D01*
X25228625Y-11966162D01*
X25553004Y-11809949D01*
X25857854Y-11618400D01*
X26139340Y-11393922D01*
X26393922Y-11139340D01*
X26618400Y-10857854D01*
X26809949Y-10553004D01*
X26966162Y-10228625D01*
X27085074Y-9888795D01*
X27165189Y-9537787D01*
X27205500Y-9180017D01*
X27205500Y-8943321D01*
X33969500Y-8943321D01*
X33969500Y-9056678D01*
X33998836Y-9166163D01*
X33998838Y-9166168D01*
X34055514Y-9264333D01*
X34135667Y-9344486D01*
X34233833Y-9401162D01*
X34233834Y-9401162D01*
X34233836Y-9401163D01*
X34288578Y-9415831D01*
X34343321Y-9430499D01*
X34343322Y-9430500D01*
X34343324Y-9430500D01*
X34456678Y-9430500D01*
X34456678Y-9430499D01*
X34566167Y-9401162D01*
X34664333Y-9344486D01*
X34744486Y-9264333D01*
X34801162Y-9166167D01*
X34830499Y-9056678D01*
X34830500Y-9056678D01*
X34830500Y-8943322D01*
X34830499Y-8943321D01*
X43769500Y-8943321D01*
X43769500Y-9056678D01*
X43798836Y-9166163D01*
X43798838Y-9166168D01*
X43855514Y-9264333D01*
X43935667Y-9344486D01*
X44033833Y-9401162D01*
X44033834Y-9401162D01*
X44033836Y-9401163D01*
X44088578Y-9415831D01*
X44143321Y-9430499D01*
X44143322Y-9430500D01*
X44143324Y-9430500D01*
X44256678Y-9430500D01*
X44256678Y-9430499D01*
X44366167Y-9401162D01*
X44464333Y-9344486D01*
X44544486Y-9264333D01*
X44601162Y-9166167D01*
X44601163Y-9166162D01*
X44603017Y-9161688D01*
X44604454Y-9162283D01*
X44635471Y-9121859D01*
X44691623Y-9114465D01*
X44724799Y-9133618D01*
X44735667Y-9144486D01*
X44833833Y-9201162D01*
X44833834Y-9201162D01*
X44833836Y-9201163D01*
X44888578Y-9215831D01*
X44943321Y-9230499D01*
X44943322Y-9230500D01*
X44943324Y-9230500D01*
X45056678Y-9230500D01*
X45056678Y-9230499D01*
X45166167Y-9201162D01*
X45264333Y-9144486D01*
X45344486Y-9064333D01*
X45401162Y-8966167D01*
X45430499Y-8856678D01*
X45430500Y-8856678D01*
X45430500Y-8743322D01*
X45430499Y-8743321D01*
X45401163Y-8633836D01*
X45401161Y-8633831D01*
X45380958Y-8598838D01*
X45344486Y-8535667D01*
X45264333Y-8455514D01*
X45166168Y-8398838D01*
X45166163Y-8398836D01*
X45056678Y-8369500D01*
X45056676Y-8369500D01*
X44943324Y-8369500D01*
X44943322Y-8369500D01*
X44833836Y-8398836D01*
X44833831Y-8398838D01*
X44735666Y-8455514D01*
X44655514Y-8535666D01*
X44598838Y-8633831D01*
X44596983Y-8638312D01*
X44595549Y-8637718D01*
X44564513Y-8678149D01*
X44508359Y-8685531D01*
X44475200Y-8666381D01*
X44464333Y-8655514D01*
X44464332Y-8655513D01*
X44366168Y-8598838D01*
X44366163Y-8598836D01*
X44256678Y-8569500D01*
X44256676Y-8569500D01*
X44143324Y-8569500D01*
X44143322Y-8569500D01*
X44033836Y-8598836D01*
X44033831Y-8598838D01*
X43935666Y-8655514D01*
X43855514Y-8735666D01*
X43798838Y-8833831D01*
X43798836Y-8833836D01*
X43769500Y-8943321D01*
X34830499Y-8943321D01*
X34801163Y-8833836D01*
X34801161Y-8833831D01*
X34785975Y-8807528D01*
X34744486Y-8735667D01*
X34664333Y-8655514D01*
X34634538Y-8638312D01*
X34566168Y-8598838D01*
X34566163Y-8598836D01*
X34456678Y-8569500D01*
X34456676Y-8569500D01*
X34343324Y-8569500D01*
X34343322Y-8569500D01*
X34233836Y-8598836D01*
X34233831Y-8598838D01*
X34135666Y-8655514D01*
X34055514Y-8735666D01*
X33998838Y-8833831D01*
X33998836Y-8833836D01*
X33969500Y-8943321D01*
X27205500Y-8943321D01*
X27205500Y-8819983D01*
X27165189Y-8462213D01*
X27085074Y-8111205D01*
X26966162Y-7771375D01*
X26809949Y-7446996D01*
X26807640Y-7443321D01*
X44869500Y-7443321D01*
X44869500Y-7556678D01*
X44898836Y-7666163D01*
X44898838Y-7666168D01*
X44955514Y-7764333D01*
X45035667Y-7844486D01*
X45133833Y-7901162D01*
X45133834Y-7901162D01*
X45133836Y-7901163D01*
X45188578Y-7915831D01*
X45243321Y-7930499D01*
X45243322Y-7930500D01*
X45243324Y-7930500D01*
X45356678Y-7930500D01*
X45356678Y-7930499D01*
X45466167Y-7901162D01*
X45564333Y-7844486D01*
X45644486Y-7764333D01*
X45701162Y-7666167D01*
X45730499Y-7556678D01*
X45730500Y-7556678D01*
X45730500Y-7443322D01*
X45730499Y-7443321D01*
X45727063Y-7430499D01*
X45715831Y-7388578D01*
X45701163Y-7333836D01*
X45701161Y-7333831D01*
X45644485Y-7235666D01*
X45564333Y-7155514D01*
X45466168Y-7098838D01*
X45466163Y-7098836D01*
X45356678Y-7069500D01*
X45356676Y-7069500D01*
X45243324Y-7069500D01*
X45243322Y-7069500D01*
X45133836Y-7098836D01*
X45133831Y-7098838D01*
X45035666Y-7155514D01*
X44955514Y-7235666D01*
X44898838Y-7333831D01*
X44898836Y-7333836D01*
X44869500Y-7443321D01*
X26807640Y-7443321D01*
X26618400Y-7142146D01*
X26393922Y-6860660D01*
X26139340Y-6606078D01*
X26139339Y-6606077D01*
X26139338Y-6606076D01*
X26127116Y-6596329D01*
X26060646Y-6543321D01*
X40769500Y-6543321D01*
X40769500Y-6656678D01*
X40798836Y-6766163D01*
X40798838Y-6766168D01*
X40853393Y-6860660D01*
X40855514Y-6864333D01*
X40935667Y-6944486D01*
X41033833Y-7001162D01*
X41033834Y-7001162D01*
X41033836Y-7001163D01*
X41088578Y-7015831D01*
X41143321Y-7030499D01*
X41143322Y-7030500D01*
X41143324Y-7030500D01*
X41256678Y-7030500D01*
X41256678Y-7030499D01*
X41366167Y-7001162D01*
X41464333Y-6944486D01*
X41465498Y-6943321D01*
X46969500Y-6943321D01*
X46969500Y-7056678D01*
X46998836Y-7166163D01*
X46998838Y-7166168D01*
X47038963Y-7235666D01*
X47055514Y-7264333D01*
X47135667Y-7344486D01*
X47233833Y-7401162D01*
X47233834Y-7401162D01*
X47233836Y-7401163D01*
X47288578Y-7415831D01*
X47343321Y-7430499D01*
X47343322Y-7430500D01*
X47343324Y-7430500D01*
X47456678Y-7430500D01*
X47456678Y-7430499D01*
X47566167Y-7401162D01*
X47664333Y-7344486D01*
X47744486Y-7264333D01*
X47801162Y-7166167D01*
X47830499Y-7056678D01*
X47830500Y-7056678D01*
X47830500Y-6943322D01*
X47830499Y-6943321D01*
X47801163Y-6833836D01*
X47801161Y-6833831D01*
X47785975Y-6807528D01*
X47744486Y-6735667D01*
X47664333Y-6655514D01*
X47566168Y-6598838D01*
X47566163Y-6598836D01*
X47456678Y-6569500D01*
X47456676Y-6569500D01*
X47343324Y-6569500D01*
X47343322Y-6569500D01*
X47233836Y-6598836D01*
X47233831Y-6598838D01*
X47135666Y-6655514D01*
X47055514Y-6735666D01*
X46998838Y-6833831D01*
X46998836Y-6833836D01*
X46969500Y-6943321D01*
X41465498Y-6943321D01*
X41544486Y-6864333D01*
X41601162Y-6766167D01*
X41630499Y-6656678D01*
X41630500Y-6656678D01*
X41630500Y-6543322D01*
X41630499Y-6543321D01*
X41601163Y-6433836D01*
X41601161Y-6433831D01*
X41544485Y-6335666D01*
X41464333Y-6255514D01*
X41366168Y-6198838D01*
X41366163Y-6198836D01*
X41256678Y-6169500D01*
X41256676Y-6169500D01*
X41143324Y-6169500D01*
X41143322Y-6169500D01*
X41033836Y-6198836D01*
X41033831Y-6198838D01*
X40935666Y-6255514D01*
X40855514Y-6335666D01*
X40798838Y-6433831D01*
X40798836Y-6433836D01*
X40769500Y-6543321D01*
X26060646Y-6543321D01*
X25857854Y-6381600D01*
X25657188Y-6255514D01*
X25553004Y-6190051D01*
X25553002Y-6190050D01*
X25228621Y-6033836D01*
X24888802Y-5914928D01*
X24888786Y-5914923D01*
X24537791Y-5834811D01*
X24358902Y-5814655D01*
X24180017Y-5794500D01*
X23819983Y-5794500D01*
X23641098Y-5814655D01*
X23462209Y-5834811D01*
X23462208Y-5834811D01*
X23111213Y-5914923D01*
X23111197Y-5914928D01*
X22771378Y-6033836D01*
X22446997Y-6190050D01*
X22142145Y-6381600D01*
X21860660Y-6606077D01*
X21606077Y-6860660D01*
X21381600Y-7142145D01*
X21190050Y-7446997D01*
X21033836Y-7771378D01*
X20914928Y-8111197D01*
X20914923Y-8111213D01*
X20834811Y-8462208D01*
X20834811Y-8462209D01*
X20819417Y-8598836D01*
X20794500Y-8819983D01*
X8205500Y-8819983D01*
X8165189Y-8462213D01*
X8085074Y-8111205D01*
X7966162Y-7771375D01*
X7809949Y-7446996D01*
X7618400Y-7142146D01*
X7393922Y-6860660D01*
X7139340Y-6606078D01*
X7139337Y-6606076D01*
X6857854Y-6381600D01*
X6657188Y-6255514D01*
X6553004Y-6190051D01*
X6553002Y-6190050D01*
X6228621Y-6033836D01*
X5888802Y-5914928D01*
X5888786Y-5914923D01*
X5537791Y-5834811D01*
X5358902Y-5814655D01*
X5180017Y-5794500D01*
X4819983Y-5794500D01*
X4641098Y-5814655D01*
X4462209Y-5834811D01*
X4462208Y-5834811D01*
X4111213Y-5914923D01*
X4111197Y-5914928D01*
X3771378Y-6033836D01*
X3446997Y-6190050D01*
X3142145Y-6381600D01*
X2860660Y-6606077D01*
X2606077Y-6860660D01*
X2381600Y-7142145D01*
X2190050Y-7446997D01*
X2033836Y-7771378D01*
X1914928Y-8111197D01*
X1914923Y-8111213D01*
X1834811Y-8462208D01*
X1834811Y-8462209D01*
X1819417Y-8598836D01*
X1794500Y-8819983D01*
X250500Y-8819983D01*
X250500Y-4443321D01*
X41569500Y-4443321D01*
X41569500Y-4556678D01*
X41598836Y-4666163D01*
X41598838Y-4666168D01*
X41655514Y-4764333D01*
X41735667Y-4844486D01*
X41807528Y-4885975D01*
X41829807Y-4898838D01*
X41833833Y-4901162D01*
X41833834Y-4901162D01*
X41833836Y-4901163D01*
X41853695Y-4906484D01*
X41943321Y-4930499D01*
X41943322Y-4930500D01*
X41943324Y-4930500D01*
X42056678Y-4930500D01*
X42056678Y-4930499D01*
X42166167Y-4901162D01*
X42264333Y-4844486D01*
X42344486Y-4764333D01*
X42401162Y-4666167D01*
X42430499Y-4556678D01*
X42430500Y-4556678D01*
X42430500Y-4443322D01*
X42430499Y-4443321D01*
X42669500Y-4443321D01*
X42669500Y-4556678D01*
X42698836Y-4666163D01*
X42698838Y-4666168D01*
X42755514Y-4764333D01*
X42835667Y-4844486D01*
X42907528Y-4885975D01*
X42929807Y-4898838D01*
X42933833Y-4901162D01*
X42945122Y-4904186D01*
X42990054Y-4938664D01*
X42997448Y-4994817D01*
X42962970Y-5039750D01*
X42962969Y-5039751D01*
X42935666Y-5055514D01*
X42855514Y-5135666D01*
X42798838Y-5233831D01*
X42798836Y-5233836D01*
X42769500Y-5343321D01*
X42769500Y-5456678D01*
X42798836Y-5566163D01*
X42798838Y-5566168D01*
X42844055Y-5644485D01*
X42855514Y-5664333D01*
X42935667Y-5744486D01*
X43033833Y-5801162D01*
X43033834Y-5801162D01*
X43033836Y-5801163D01*
X43088578Y-5815831D01*
X43143321Y-5830499D01*
X43143322Y-5830500D01*
X43143324Y-5830500D01*
X43256678Y-5830500D01*
X43256678Y-5830499D01*
X43366167Y-5801162D01*
X43464333Y-5744486D01*
X43544486Y-5664333D01*
X43601162Y-5566167D01*
X43630499Y-5456678D01*
X43630500Y-5456678D01*
X43630500Y-5343322D01*
X43630499Y-5343321D01*
X43607538Y-5257627D01*
X43603705Y-5243321D01*
X44319500Y-5243321D01*
X44319500Y-5356678D01*
X44348836Y-5466163D01*
X44348838Y-5466168D01*
X44388963Y-5535666D01*
X44405514Y-5564333D01*
X44485667Y-5644486D01*
X44583833Y-5701162D01*
X44583834Y-5701162D01*
X44583836Y-5701163D01*
X44623654Y-5711832D01*
X44693321Y-5730499D01*
X44693322Y-5730500D01*
X44693324Y-5730500D01*
X44806678Y-5730500D01*
X44806678Y-5730499D01*
X44850587Y-5718733D01*
X44876347Y-5711832D01*
X44932500Y-5719224D01*
X44966978Y-5764157D01*
X44969500Y-5783310D01*
X44969500Y-5856678D01*
X44998836Y-5966163D01*
X44998838Y-5966168D01*
X45037908Y-6033838D01*
X45055514Y-6064333D01*
X45135667Y-6144486D01*
X45178993Y-6169500D01*
X45229807Y-6198838D01*
X45233833Y-6201162D01*
X45233834Y-6201162D01*
X45233836Y-6201163D01*
X45288578Y-6215831D01*
X45343321Y-6230499D01*
X45343322Y-6230500D01*
X45343324Y-6230500D01*
X45456678Y-6230500D01*
X45456678Y-6230499D01*
X45566167Y-6201162D01*
X45664333Y-6144486D01*
X45744486Y-6064333D01*
X45801162Y-5966167D01*
X45830499Y-5856678D01*
X45830500Y-5856678D01*
X45830500Y-5743322D01*
X45830499Y-5743321D01*
X45827063Y-5730499D01*
X45815831Y-5688578D01*
X45801163Y-5633836D01*
X45801161Y-5633831D01*
X45785975Y-5607528D01*
X45744486Y-5535667D01*
X45664333Y-5455514D01*
X45642625Y-5442981D01*
X45566168Y-5398838D01*
X45566163Y-5398836D01*
X45456678Y-5369500D01*
X45456676Y-5369500D01*
X45343324Y-5369500D01*
X45273652Y-5388168D01*
X45217499Y-5380775D01*
X45183021Y-5335841D01*
X45180500Y-5316689D01*
X45180500Y-5243322D01*
X45180499Y-5243321D01*
X45151163Y-5133836D01*
X45151161Y-5133831D01*
X45135975Y-5107528D01*
X45094486Y-5035667D01*
X45091629Y-5032810D01*
X45069955Y-4980484D01*
X45091629Y-4928158D01*
X45143955Y-4906484D01*
X45163106Y-4909005D01*
X45243321Y-4930499D01*
X45243322Y-4930500D01*
X45243324Y-4930500D01*
X45356678Y-4930500D01*
X45356678Y-4930499D01*
X45466167Y-4901162D01*
X45564333Y-4844486D01*
X45644486Y-4764333D01*
X45701162Y-4666167D01*
X45730499Y-4556678D01*
X45730500Y-4556678D01*
X45730500Y-4443322D01*
X45730499Y-4443321D01*
X45701163Y-4333836D01*
X45701161Y-4333831D01*
X45685975Y-4307528D01*
X45644486Y-4235667D01*
X45564333Y-4155514D01*
X45466168Y-4098838D01*
X45466163Y-4098836D01*
X45356678Y-4069500D01*
X45356676Y-4069500D01*
X45243324Y-4069500D01*
X45243322Y-4069500D01*
X45133836Y-4098836D01*
X45133831Y-4098838D01*
X45035666Y-4155514D01*
X44955514Y-4235666D01*
X44898838Y-4333831D01*
X44898836Y-4333836D01*
X44869500Y-4443321D01*
X44869500Y-4556678D01*
X44898836Y-4666163D01*
X44898838Y-4666168D01*
X44955514Y-4764333D01*
X44958370Y-4767189D01*
X44980044Y-4819515D01*
X44958370Y-4871841D01*
X44906044Y-4893515D01*
X44886891Y-4890993D01*
X44806678Y-4869500D01*
X44806676Y-4869500D01*
X44693324Y-4869500D01*
X44693322Y-4869500D01*
X44583836Y-4898836D01*
X44583831Y-4898838D01*
X44485666Y-4955514D01*
X44405514Y-5035666D01*
X44348838Y-5133831D01*
X44348836Y-5133836D01*
X44319500Y-5243321D01*
X43603705Y-5243321D01*
X43601163Y-5233836D01*
X43601161Y-5233831D01*
X43544485Y-5135666D01*
X43464333Y-5055514D01*
X43366168Y-4998838D01*
X43366166Y-4998837D01*
X43354875Y-4995812D01*
X43309943Y-4961332D01*
X43302552Y-4905179D01*
X43337030Y-4860249D01*
X43364333Y-4844486D01*
X43444486Y-4764333D01*
X43501162Y-4666167D01*
X43530499Y-4556678D01*
X43530500Y-4556678D01*
X43530500Y-4443322D01*
X43530499Y-4443321D01*
X43501163Y-4333836D01*
X43501161Y-4333831D01*
X43485975Y-4307528D01*
X43444486Y-4235667D01*
X43364333Y-4155514D01*
X43266168Y-4098838D01*
X43266163Y-4098836D01*
X43156678Y-4069500D01*
X43156676Y-4069500D01*
X43043324Y-4069500D01*
X43043322Y-4069500D01*
X42933836Y-4098836D01*
X42933831Y-4098838D01*
X42835666Y-4155514D01*
X42755514Y-4235666D01*
X42698838Y-4333831D01*
X42698836Y-4333836D01*
X42669500Y-4443321D01*
X42430499Y-4443321D01*
X42401163Y-4333836D01*
X42401161Y-4333831D01*
X42385975Y-4307528D01*
X42344486Y-4235667D01*
X42264333Y-4155514D01*
X42166168Y-4098838D01*
X42166163Y-4098836D01*
X42056678Y-4069500D01*
X42056676Y-4069500D01*
X41943324Y-4069500D01*
X41943322Y-4069500D01*
X41833836Y-4098836D01*
X41833831Y-4098838D01*
X41735666Y-4155514D01*
X41655514Y-4235666D01*
X41598838Y-4333831D01*
X41598836Y-4333836D01*
X41569500Y-4443321D01*
X250500Y-4443321D01*
X250500Y-2901582D01*
X1749500Y-2901582D01*
X1749500Y-3098417D01*
X1780290Y-3292823D01*
X1780293Y-3292836D01*
X1841113Y-3480019D01*
X1841115Y-3480024D01*
X1841116Y-3480025D01*
X1930476Y-3655405D01*
X2046172Y-3814646D01*
X2185354Y-3953828D01*
X2344595Y-4069524D01*
X2519975Y-4158884D01*
X2519977Y-4158884D01*
X2519980Y-4158886D01*
X2707163Y-4219706D01*
X2707169Y-4219707D01*
X2707174Y-4219709D01*
X2807924Y-4235666D01*
X2901582Y-4250500D01*
X2901583Y-4250500D01*
X3098418Y-4250500D01*
X3147019Y-4242802D01*
X3292826Y-4219709D01*
X3292833Y-4219706D01*
X3292836Y-4219706D01*
X3480019Y-4158886D01*
X3480019Y-4158885D01*
X3480025Y-4158884D01*
X3655405Y-4069524D01*
X3814646Y-3953828D01*
X3953828Y-3814646D01*
X4069524Y-3655405D01*
X4158884Y-3480025D01*
X4219709Y-3292826D01*
X4250500Y-3098417D01*
X4250500Y-2901583D01*
X4250500Y-2901582D01*
X21749500Y-2901582D01*
X21749500Y-3098417D01*
X21780290Y-3292823D01*
X21780293Y-3292836D01*
X21841113Y-3480019D01*
X21841115Y-3480024D01*
X21841116Y-3480025D01*
X21930476Y-3655405D01*
X22046172Y-3814646D01*
X22185354Y-3953828D01*
X22344595Y-4069524D01*
X22519975Y-4158884D01*
X22519977Y-4158884D01*
X22519980Y-4158886D01*
X22707163Y-4219706D01*
X22707169Y-4219707D01*
X22707174Y-4219709D01*
X22807924Y-4235666D01*
X22901582Y-4250500D01*
X22901583Y-4250500D01*
X23098418Y-4250500D01*
X23147019Y-4242802D01*
X23292826Y-4219709D01*
X23292833Y-4219706D01*
X23292836Y-4219706D01*
X23480019Y-4158886D01*
X23480019Y-4158885D01*
X23480025Y-4158884D01*
X23655405Y-4069524D01*
X23814646Y-3953828D01*
X23953828Y-3814646D01*
X24069524Y-3655405D01*
X24158884Y-3480025D01*
X24219709Y-3292826D01*
X24250500Y-3098417D01*
X24250500Y-2901583D01*
X24219709Y-2707174D01*
X24219705Y-2707163D01*
X24196694Y-2636342D01*
X24196694Y-2636341D01*
X24190839Y-2618321D01*
X30469500Y-2618321D01*
X30469500Y-2731678D01*
X30498836Y-2841163D01*
X30498838Y-2841168D01*
X30533719Y-2901583D01*
X30555514Y-2939333D01*
X30635667Y-3019486D01*
X30733833Y-3076162D01*
X30733834Y-3076162D01*
X30733836Y-3076163D01*
X30788578Y-3090831D01*
X30843321Y-3105499D01*
X30843322Y-3105500D01*
X30843324Y-3105500D01*
X30956678Y-3105500D01*
X30956678Y-3105499D01*
X31066167Y-3076162D01*
X31164333Y-3019486D01*
X31244486Y-2939333D01*
X31301162Y-2841167D01*
X31304399Y-2829085D01*
X31328522Y-2739060D01*
X31363000Y-2694127D01*
X31419153Y-2686735D01*
X31464086Y-2721213D01*
X31471478Y-2739060D01*
X31498836Y-2841163D01*
X31498838Y-2841168D01*
X31533719Y-2901583D01*
X31555514Y-2939333D01*
X31635667Y-3019486D01*
X31733833Y-3076162D01*
X31733834Y-3076162D01*
X31733836Y-3076163D01*
X31788578Y-3090831D01*
X31843321Y-3105499D01*
X31843322Y-3105500D01*
X31843324Y-3105500D01*
X31956678Y-3105500D01*
X31956678Y-3105499D01*
X32066167Y-3076162D01*
X32164333Y-3019486D01*
X32244486Y-2939333D01*
X32301162Y-2841167D01*
X32304399Y-2829085D01*
X32328522Y-2739060D01*
X32363000Y-2694127D01*
X32419153Y-2686735D01*
X32464086Y-2721213D01*
X32471478Y-2739060D01*
X32498836Y-2841163D01*
X32498838Y-2841168D01*
X32533719Y-2901583D01*
X32555514Y-2939333D01*
X32635667Y-3019486D01*
X32733833Y-3076162D01*
X32733834Y-3076162D01*
X32733836Y-3076163D01*
X32788578Y-3090831D01*
X32843321Y-3105499D01*
X32843322Y-3105500D01*
X32843324Y-3105500D01*
X32956678Y-3105500D01*
X32956678Y-3105499D01*
X33066167Y-3076162D01*
X33164333Y-3019486D01*
X33244486Y-2939333D01*
X33301162Y-2841167D01*
X33304399Y-2829085D01*
X33328522Y-2739060D01*
X33363000Y-2694127D01*
X33419153Y-2686735D01*
X33464086Y-2721213D01*
X33471478Y-2739060D01*
X33498836Y-2841163D01*
X33498838Y-2841168D01*
X33533719Y-2901583D01*
X33555514Y-2939333D01*
X33635667Y-3019486D01*
X33733833Y-3076162D01*
X33733834Y-3076162D01*
X33733836Y-3076163D01*
X33788578Y-3090831D01*
X33843321Y-3105499D01*
X33843322Y-3105500D01*
X33843324Y-3105500D01*
X33956678Y-3105500D01*
X33956678Y-3105499D01*
X34066167Y-3076162D01*
X34164333Y-3019486D01*
X34244486Y-2939333D01*
X34301162Y-2841167D01*
X34304399Y-2829085D01*
X34328522Y-2739060D01*
X34363000Y-2694127D01*
X34419153Y-2686735D01*
X34464086Y-2721213D01*
X34471478Y-2739060D01*
X34498836Y-2841163D01*
X34498838Y-2841168D01*
X34533719Y-2901583D01*
X34555514Y-2939333D01*
X34635667Y-3019486D01*
X34733833Y-3076162D01*
X34733834Y-3076162D01*
X34733836Y-3076163D01*
X34788578Y-3090831D01*
X34843321Y-3105499D01*
X34843322Y-3105500D01*
X34843324Y-3105500D01*
X34956678Y-3105500D01*
X34956678Y-3105499D01*
X35066167Y-3076162D01*
X35164333Y-3019486D01*
X35244486Y-2939333D01*
X35301162Y-2841167D01*
X35304399Y-2829085D01*
X35328522Y-2739060D01*
X35363000Y-2694127D01*
X35419153Y-2686735D01*
X35464086Y-2721213D01*
X35471478Y-2739060D01*
X35498836Y-2841163D01*
X35498838Y-2841168D01*
X35533719Y-2901583D01*
X35555514Y-2939333D01*
X35635667Y-3019486D01*
X35733833Y-3076162D01*
X35733834Y-3076162D01*
X35733836Y-3076163D01*
X35788578Y-3090831D01*
X35843321Y-3105499D01*
X35843322Y-3105500D01*
X35843324Y-3105500D01*
X35956678Y-3105500D01*
X35956678Y-3105499D01*
X36066167Y-3076162D01*
X36164333Y-3019486D01*
X36244486Y-2939333D01*
X36301162Y-2841167D01*
X36330499Y-2731678D01*
X36330500Y-2731678D01*
X36330500Y-2618322D01*
X36330499Y-2618321D01*
X36301163Y-2508836D01*
X36301161Y-2508831D01*
X36244485Y-2410666D01*
X36164333Y-2330514D01*
X36066168Y-2273838D01*
X36066163Y-2273836D01*
X35956678Y-2244500D01*
X35956676Y-2244500D01*
X35843324Y-2244500D01*
X35843322Y-2244500D01*
X35733836Y-2273836D01*
X35733831Y-2273838D01*
X35635666Y-2330514D01*
X35555514Y-2410666D01*
X35498838Y-2508831D01*
X35498836Y-2508836D01*
X35471478Y-2610939D01*
X35437000Y-2655872D01*
X35380847Y-2663264D01*
X35335914Y-2628786D01*
X35328522Y-2610939D01*
X35301163Y-2508836D01*
X35301161Y-2508831D01*
X35244485Y-2410666D01*
X35164333Y-2330514D01*
X35066168Y-2273838D01*
X35066163Y-2273836D01*
X34956678Y-2244500D01*
X34956676Y-2244500D01*
X34843324Y-2244500D01*
X34843322Y-2244500D01*
X34733836Y-2273836D01*
X34733831Y-2273838D01*
X34635666Y-2330514D01*
X34555514Y-2410666D01*
X34498838Y-2508831D01*
X34498836Y-2508836D01*
X34471478Y-2610939D01*
X34437000Y-2655872D01*
X34380847Y-2663264D01*
X34335914Y-2628786D01*
X34328522Y-2610939D01*
X34301163Y-2508836D01*
X34301161Y-2508831D01*
X34244485Y-2410666D01*
X34164333Y-2330514D01*
X34066168Y-2273838D01*
X34066163Y-2273836D01*
X33956678Y-2244500D01*
X33956676Y-2244500D01*
X33843324Y-2244500D01*
X33843322Y-2244500D01*
X33733836Y-2273836D01*
X33733831Y-2273838D01*
X33635666Y-2330514D01*
X33555514Y-2410666D01*
X33498838Y-2508831D01*
X33498836Y-2508836D01*
X33471478Y-2610939D01*
X33437000Y-2655872D01*
X33380847Y-2663264D01*
X33335914Y-2628786D01*
X33328522Y-2610939D01*
X33301163Y-2508836D01*
X33301161Y-2508831D01*
X33244485Y-2410666D01*
X33164333Y-2330514D01*
X33066168Y-2273838D01*
X33066163Y-2273836D01*
X32956678Y-2244500D01*
X32956676Y-2244500D01*
X32843324Y-2244500D01*
X32843322Y-2244500D01*
X32733836Y-2273836D01*
X32733831Y-2273838D01*
X32635666Y-2330514D01*
X32555514Y-2410666D01*
X32498838Y-2508831D01*
X32498836Y-2508836D01*
X32471478Y-2610939D01*
X32437000Y-2655872D01*
X32380847Y-2663264D01*
X32335914Y-2628786D01*
X32328522Y-2610939D01*
X32301163Y-2508836D01*
X32301161Y-2508831D01*
X32244485Y-2410666D01*
X32164333Y-2330514D01*
X32066168Y-2273838D01*
X32066163Y-2273836D01*
X31956678Y-2244500D01*
X31956676Y-2244500D01*
X31843324Y-2244500D01*
X31843322Y-2244500D01*
X31733836Y-2273836D01*
X31733831Y-2273838D01*
X31635666Y-2330514D01*
X31555514Y-2410666D01*
X31498838Y-2508831D01*
X31498836Y-2508836D01*
X31471478Y-2610939D01*
X31437000Y-2655872D01*
X31380847Y-2663264D01*
X31335914Y-2628786D01*
X31328522Y-2610939D01*
X31301163Y-2508836D01*
X31301161Y-2508831D01*
X31244485Y-2410666D01*
X31164333Y-2330514D01*
X31066168Y-2273838D01*
X31066163Y-2273836D01*
X30956678Y-2244500D01*
X30956676Y-2244500D01*
X30843324Y-2244500D01*
X30843322Y-2244500D01*
X30733836Y-2273836D01*
X30733831Y-2273838D01*
X30635666Y-2330514D01*
X30555514Y-2410666D01*
X30498838Y-2508831D01*
X30498836Y-2508836D01*
X30469500Y-2618321D01*
X24190839Y-2618321D01*
X24158886Y-2519980D01*
X24158884Y-2519977D01*
X24158884Y-2519975D01*
X24069524Y-2344595D01*
X23953831Y-2185358D01*
X23953830Y-2185357D01*
X23953828Y-2185354D01*
X23814646Y-2046172D01*
X23814643Y-2046169D01*
X23814641Y-2046168D01*
X23655404Y-1930475D01*
X23480019Y-1841113D01*
X23292836Y-1780293D01*
X23292823Y-1780290D01*
X23098418Y-1749500D01*
X23098417Y-1749500D01*
X22901583Y-1749500D01*
X22901582Y-1749500D01*
X22707176Y-1780290D01*
X22707163Y-1780293D01*
X22519980Y-1841113D01*
X22344595Y-1930475D01*
X22185358Y-2046168D01*
X22046168Y-2185358D01*
X21930475Y-2344595D01*
X21841113Y-2519980D01*
X21780293Y-2707163D01*
X21780290Y-2707176D01*
X21749500Y-2901582D01*
X4250500Y-2901582D01*
X4219709Y-2707174D01*
X4219707Y-2707167D01*
X4219706Y-2707163D01*
X4158886Y-2519980D01*
X4158884Y-2519977D01*
X4158884Y-2519975D01*
X4069524Y-2344595D01*
X3953831Y-2185358D01*
X3953830Y-2185357D01*
X3953828Y-2185354D01*
X3814646Y-2046172D01*
X3814643Y-2046169D01*
X3814641Y-2046168D01*
X3655404Y-1930475D01*
X3480019Y-1841113D01*
X3292836Y-1780293D01*
X3292823Y-1780290D01*
X3098418Y-1749500D01*
X3098417Y-1749500D01*
X2901583Y-1749500D01*
X2901582Y-1749500D01*
X2707176Y-1780290D01*
X2707163Y-1780293D01*
X2519980Y-1841113D01*
X2344595Y-1930475D01*
X2185358Y-2046168D01*
X2046168Y-2185358D01*
X1930475Y-2344595D01*
X1841113Y-2519980D01*
X1780293Y-2707163D01*
X1780290Y-2707176D01*
X1749500Y-2901582D01*
X250500Y-2901582D01*
X250500Y-324500D01*
X272174Y-272174D01*
X324500Y-250500D01*
X51675500Y-250500D01*
X51727826Y-272174D01*
G37*
%TD.AperFunction*%
%TD*%
M02*
