%TF.GenerationSoftware,KiCad,Pcbnew,10.0.6*%
%TF.CreationDate,2026-09-14T01:04:56+08:00*%
%TF.ProjectId,Microduck_Entry_5V_R22,4d696372-6f64-4756-936b-5f456e747279,rev?*%
%TF.SameCoordinates,Original*%
%TF.FileFunction,Paste,Bot*%
%TF.FilePolarity,Positive*%
%FSLAX46Y46*%
G04 Gerber Fmt 4.6, Leading zero omitted, Abs format (unit mm)*
G04 Created by KiCad (PCBNEW 10.0.6) date 2026-09-14 01:04:56*
%MOMM*%
%LPD*%
G01*
G04 APERTURE LIST*
G04 Aperture macros list*
%AMRoundRect*
0 Rectangle with rounded corners*
0 $1 Rounding radius*
0 $2 $3 $4 $5 $6 $7 $8 $9 X,Y pos of 4 corners*
0 Add a 4 corners polygon primitive as box body*
4,1,4,$2,$3,$4,$5,$6,$7,$8,$9,$2,$3,0*
0 Add four circle primitives for the rounded corners*
1,1,$1+$1,$2,$3*
1,1,$1+$1,$4,$5*
1,1,$1+$1,$6,$7*
1,1,$1+$1,$8,$9*
0 Add four rect primitives between the rounded corners*
20,1,$1+$1,$2,$3,$4,$5,0*
20,1,$1+$1,$4,$5,$6,$7,0*
20,1,$1+$1,$6,$7,$8,$9,0*
20,1,$1+$1,$8,$9,$2,$3,0*%
G04 Aperture macros list end*
%ADD10RoundRect,0.200000X-0.200000X-0.275000X0.200000X-0.275000X0.200000X0.275000X-0.200000X0.275000X0*%
%ADD11RoundRect,0.225000X-0.225000X-0.250000X0.225000X-0.250000X0.225000X0.250000X-0.225000X0.250000X0*%
%ADD12RoundRect,0.250000X0.325000X1.100000X-0.325000X1.100000X-0.325000X-1.100000X0.325000X-1.100000X0*%
%ADD13RoundRect,0.050000X-0.675000X-0.100000X0.675000X-0.100000X0.675000X0.100000X-0.675000X0.100000X0*%
G04 APERTURE END LIST*
D10*
%TO.C,R13*%
X31175000Y-31500000D03*
X32825000Y-31500000D03*
%TD*%
%TO.C,R1*%
X9175000Y-20000000D03*
X10825000Y-20000000D03*
%TD*%
D11*
%TO.C,C2*%
X17225000Y-19000000D03*
X18775000Y-19000000D03*
%TD*%
D10*
%TO.C,R5*%
X25675000Y-21500000D03*
X27325000Y-21500000D03*
%TD*%
%TO.C,R9*%
X34175000Y-5000000D03*
X35825000Y-5000000D03*
%TD*%
D11*
%TO.C,C6*%
X34225000Y-7000000D03*
X35775000Y-7000000D03*
%TD*%
D12*
%TO.C,C14*%
X23475000Y-35000000D03*
X20525000Y-35000000D03*
%TD*%
D10*
%TO.C,R11*%
X15175000Y-22000000D03*
X16825000Y-22000000D03*
%TD*%
D11*
%TO.C,C1*%
X8225000Y-28000000D03*
X9775000Y-28000000D03*
%TD*%
D10*
%TO.C,R12*%
X9175000Y-22000000D03*
X10825000Y-22000000D03*
%TD*%
D11*
%TO.C,C7*%
X44225000Y-10000000D03*
X45775000Y-10000000D03*
%TD*%
D10*
%TO.C,R14*%
X35175000Y-30000000D03*
X36825000Y-30000000D03*
%TD*%
D11*
%TO.C,C5*%
X35225000Y-33000000D03*
X36775000Y-33000000D03*
%TD*%
D10*
%TO.C,R7*%
X43175000Y-28000000D03*
X44825000Y-28000000D03*
%TD*%
D11*
%TO.C,C3*%
X39225000Y-24500000D03*
X40775000Y-24500000D03*
%TD*%
D10*
%TO.C,R2*%
X12375000Y-20000000D03*
X14025000Y-20000000D03*
%TD*%
%TO.C,R8*%
X43175000Y-35000000D03*
X44825000Y-35000000D03*
%TD*%
%TO.C,R3*%
X29175000Y-8000000D03*
X30825000Y-8000000D03*
%TD*%
%TO.C,R6*%
X43175000Y-25000000D03*
X44825000Y-25000000D03*
%TD*%
D12*
%TO.C,C15*%
X29475000Y-35000000D03*
X26525000Y-35000000D03*
%TD*%
D13*
%TO.C,U2*%
X38800000Y-8000000D03*
X38800000Y-7500000D03*
X38800000Y-7000000D03*
X38800000Y-6500000D03*
X38800000Y-6000000D03*
X43200000Y-6000000D03*
X43200000Y-6500000D03*
X43200000Y-7000000D03*
X43200000Y-7500000D03*
X43200000Y-8000000D03*
%TD*%
D10*
%TO.C,R4*%
X28675000Y-5000000D03*
X30325000Y-5000000D03*
%TD*%
D13*
%TO.C,U1*%
X11800000Y-17000000D03*
X11800000Y-16500000D03*
X11800000Y-16000000D03*
X11800000Y-15500000D03*
X11800000Y-15000000D03*
X16200000Y-15000000D03*
X16200000Y-15500000D03*
X16200000Y-16000000D03*
X16200000Y-16500000D03*
X16200000Y-17000000D03*
%TD*%
D11*
%TO.C,C4*%
X39225000Y-27000000D03*
X40775000Y-27000000D03*
%TD*%
M02*
