%TF.GenerationSoftware,KiCad,Pcbnew,10.0.6*%
%TF.CreationDate,2026-09-14T01:04:56+08:00*%
%TF.ProjectId,Microduck_Entry_5V_R22,4d696372-6f64-4756-936b-5f456e747279,rev?*%
%TF.SameCoordinates,Original*%
%TF.FileFunction,Soldermask,Top*%
%TF.FilePolarity,Negative*%
%FSLAX46Y46*%
G04 Gerber Fmt 4.6, Leading zero omitted, Abs format (unit mm)*
G04 Created by KiCad (PCBNEW 10.0.6) date 2026-09-14 01:04:56*
%MOMM*%
%LPD*%
G01*
G04 APERTURE LIST*
G04 APERTURE END LIST*
G36*
X26716970Y-38538321D02*
G01*
X26773744Y-38576256D01*
X26811679Y-38633030D01*
X26825000Y-38700000D01*
X26825000Y-39950000D01*
X26811679Y-40016970D01*
X26773744Y-40073744D01*
X26716970Y-40111679D01*
X26650000Y-40125000D01*
X26350000Y-40125000D01*
X26283030Y-40111679D01*
X26226256Y-40073744D01*
X26188321Y-40016970D01*
X26175000Y-39950000D01*
X26175000Y-38700000D01*
X26188321Y-38633030D01*
X26226256Y-38576256D01*
X26283030Y-38538321D01*
X26350000Y-38525000D01*
X26650000Y-38525000D01*
X26716970Y-38538321D01*
G37*
G36*
X27716970Y-38538321D02*
G01*
X27773744Y-38576256D01*
X27811679Y-38633030D01*
X27825000Y-38700000D01*
X27825000Y-39950000D01*
X27811679Y-40016970D01*
X27773744Y-40073744D01*
X27716970Y-40111679D01*
X27650000Y-40125000D01*
X27350000Y-40125000D01*
X27283030Y-40111679D01*
X27226256Y-40073744D01*
X27188321Y-40016970D01*
X27175000Y-39950000D01*
X27175000Y-38700000D01*
X27188321Y-38633030D01*
X27226256Y-38576256D01*
X27283030Y-38538321D01*
X27350000Y-38525000D01*
X27650000Y-38525000D01*
X27716970Y-38538321D01*
G37*
G36*
X28716970Y-38538321D02*
G01*
X28773744Y-38576256D01*
X28811679Y-38633030D01*
X28825000Y-38700000D01*
X28825000Y-39950000D01*
X28811679Y-40016970D01*
X28773744Y-40073744D01*
X28716970Y-40111679D01*
X28650000Y-40125000D01*
X28350000Y-40125000D01*
X28283030Y-40111679D01*
X28226256Y-40073744D01*
X28188321Y-40016970D01*
X28175000Y-39950000D01*
X28175000Y-38700000D01*
X28188321Y-38633030D01*
X28226256Y-38576256D01*
X28283030Y-38538321D01*
X28350000Y-38525000D01*
X28650000Y-38525000D01*
X28716970Y-38538321D01*
G37*
G36*
X34716970Y-38538321D02*
G01*
X34773744Y-38576256D01*
X34811679Y-38633030D01*
X34825000Y-38700000D01*
X34825000Y-39950000D01*
X34811679Y-40016970D01*
X34773744Y-40073744D01*
X34716970Y-40111679D01*
X34650000Y-40125000D01*
X34350000Y-40125000D01*
X34283030Y-40111679D01*
X34226256Y-40073744D01*
X34188321Y-40016970D01*
X34175000Y-39950000D01*
X34175000Y-38700000D01*
X34188321Y-38633030D01*
X34226256Y-38576256D01*
X34283030Y-38538321D01*
X34350000Y-38525000D01*
X34650000Y-38525000D01*
X34716970Y-38538321D01*
G37*
G36*
X35716970Y-38538321D02*
G01*
X35773744Y-38576256D01*
X35811679Y-38633030D01*
X35825000Y-38700000D01*
X35825000Y-39950000D01*
X35811679Y-40016970D01*
X35773744Y-40073744D01*
X35716970Y-40111679D01*
X35650000Y-40125000D01*
X35350000Y-40125000D01*
X35283030Y-40111679D01*
X35226256Y-40073744D01*
X35188321Y-40016970D01*
X35175000Y-39950000D01*
X35175000Y-38700000D01*
X35188321Y-38633030D01*
X35226256Y-38576256D01*
X35283030Y-38538321D01*
X35350000Y-38525000D01*
X35650000Y-38525000D01*
X35716970Y-38538321D01*
G37*
G36*
X36716970Y-38538321D02*
G01*
X36773744Y-38576256D01*
X36811679Y-38633030D01*
X36825000Y-38700000D01*
X36825000Y-39950000D01*
X36811679Y-40016970D01*
X36773744Y-40073744D01*
X36716970Y-40111679D01*
X36650000Y-40125000D01*
X36350000Y-40125000D01*
X36283030Y-40111679D01*
X36226256Y-40073744D01*
X36188321Y-40016970D01*
X36175000Y-39950000D01*
X36175000Y-38700000D01*
X36188321Y-38633030D01*
X36226256Y-38576256D01*
X36283030Y-38538321D01*
X36350000Y-38525000D01*
X36650000Y-38525000D01*
X36716970Y-38538321D01*
G37*
G36*
X43216970Y-38538321D02*
G01*
X43273744Y-38576256D01*
X43311679Y-38633030D01*
X43325000Y-38700000D01*
X43325000Y-39950000D01*
X43311679Y-40016970D01*
X43273744Y-40073744D01*
X43216970Y-40111679D01*
X43150000Y-40125000D01*
X42850000Y-40125000D01*
X42783030Y-40111679D01*
X42726256Y-40073744D01*
X42688321Y-40016970D01*
X42675000Y-39950000D01*
X42675000Y-38700000D01*
X42688321Y-38633030D01*
X42726256Y-38576256D01*
X42783030Y-38538321D01*
X42850000Y-38525000D01*
X43150000Y-38525000D01*
X43216970Y-38538321D01*
G37*
G36*
X44216970Y-38538321D02*
G01*
X44273744Y-38576256D01*
X44311679Y-38633030D01*
X44325000Y-38700000D01*
X44325000Y-39950000D01*
X44311679Y-40016970D01*
X44273744Y-40073744D01*
X44216970Y-40111679D01*
X44150000Y-40125000D01*
X43850000Y-40125000D01*
X43783030Y-40111679D01*
X43726256Y-40073744D01*
X43688321Y-40016970D01*
X43675000Y-39950000D01*
X43675000Y-38700000D01*
X43688321Y-38633030D01*
X43726256Y-38576256D01*
X43783030Y-38538321D01*
X43850000Y-38525000D01*
X44150000Y-38525000D01*
X44216970Y-38538321D01*
G37*
G36*
X3262626Y-37906084D02*
G01*
X3430519Y-37960636D01*
X3587811Y-38040780D01*
X3730629Y-38144543D01*
X3855457Y-38269371D01*
X3959220Y-38412189D01*
X4039364Y-38569481D01*
X4093916Y-38737374D01*
X4121532Y-38911734D01*
X4121532Y-39088266D01*
X4093916Y-39262626D01*
X4039364Y-39430519D01*
X3959220Y-39587811D01*
X3855457Y-39730629D01*
X3730629Y-39855457D01*
X3587811Y-39959220D01*
X3430519Y-40039364D01*
X3262626Y-40093916D01*
X3088266Y-40121532D01*
X2911734Y-40121532D01*
X2737374Y-40093916D01*
X2569481Y-40039364D01*
X2412189Y-39959220D01*
X2269371Y-39855457D01*
X2144543Y-39730629D01*
X2040780Y-39587811D01*
X1960636Y-39430519D01*
X1906084Y-39262626D01*
X1878468Y-39088266D01*
X1878468Y-38911734D01*
X1906084Y-38737374D01*
X1960636Y-38569481D01*
X2040780Y-38412189D01*
X2144543Y-38269371D01*
X2269371Y-38144543D01*
X2412189Y-38040780D01*
X2569481Y-37960636D01*
X2737374Y-37906084D01*
X2911734Y-37878468D01*
X3088266Y-37878468D01*
X3262626Y-37906084D01*
G37*
G36*
X49262626Y-37906084D02*
G01*
X49430519Y-37960636D01*
X49587811Y-38040780D01*
X49730629Y-38144543D01*
X49855457Y-38269371D01*
X49959220Y-38412189D01*
X50039364Y-38569481D01*
X50093916Y-38737374D01*
X50121532Y-38911734D01*
X50121532Y-39088266D01*
X50093916Y-39262626D01*
X50039364Y-39430519D01*
X49959220Y-39587811D01*
X49855457Y-39730629D01*
X49730629Y-39855457D01*
X49587811Y-39959220D01*
X49430519Y-40039364D01*
X49262626Y-40093916D01*
X49088266Y-40121532D01*
X48911734Y-40121532D01*
X48737374Y-40093916D01*
X48569481Y-40039364D01*
X48412189Y-39959220D01*
X48269371Y-39855457D01*
X48144543Y-39730629D01*
X48040780Y-39587811D01*
X47960636Y-39430519D01*
X47906084Y-39262626D01*
X47878468Y-39088266D01*
X47878468Y-38911734D01*
X47906084Y-38737374D01*
X47960636Y-38569481D01*
X48040780Y-38412189D01*
X48144543Y-38269371D01*
X48269371Y-38144543D01*
X48412189Y-38040780D01*
X48569481Y-37960636D01*
X48737374Y-37906084D01*
X48911734Y-37878468D01*
X49088266Y-37878468D01*
X49262626Y-37906084D01*
G37*
G36*
X25552017Y-35875401D02*
G01*
X25612045Y-35882365D01*
X25632554Y-35891421D01*
X25655238Y-35895933D01*
X25679522Y-35912159D01*
X25705167Y-35923483D01*
X25722682Y-35940998D01*
X25744454Y-35955546D01*
X25759001Y-35977317D01*
X25776516Y-35994832D01*
X25787838Y-36020474D01*
X25804067Y-36044762D01*
X25808579Y-36067447D01*
X25817634Y-36087954D01*
X25824596Y-36147970D01*
X25825000Y-36150000D01*
X25825000Y-37450000D01*
X25824596Y-37452029D01*
X25817634Y-37512045D01*
X25808579Y-37532550D01*
X25804067Y-37555238D01*
X25787837Y-37579527D01*
X25776516Y-37605167D01*
X25759003Y-37622679D01*
X25744454Y-37644454D01*
X25722679Y-37659003D01*
X25705167Y-37676516D01*
X25679527Y-37687837D01*
X25655238Y-37704067D01*
X25632550Y-37708579D01*
X25612045Y-37717634D01*
X25552031Y-37724595D01*
X25550000Y-37725000D01*
X24850000Y-37725000D01*
X24847971Y-37724596D01*
X24787954Y-37717634D01*
X24767447Y-37708579D01*
X24744762Y-37704067D01*
X24720474Y-37687838D01*
X24694832Y-37676516D01*
X24677317Y-37659001D01*
X24655546Y-37644454D01*
X24640998Y-37622682D01*
X24623483Y-37605167D01*
X24612159Y-37579522D01*
X24595933Y-37555238D01*
X24591421Y-37532554D01*
X24582365Y-37512045D01*
X24575401Y-37452019D01*
X24575000Y-37450000D01*
X24575000Y-36150000D01*
X24575401Y-36147983D01*
X24582365Y-36087954D01*
X24591421Y-36067443D01*
X24595933Y-36044762D01*
X24612158Y-36020479D01*
X24623483Y-35994832D01*
X24641000Y-35977314D01*
X24655546Y-35955546D01*
X24677314Y-35941000D01*
X24694832Y-35923483D01*
X24720479Y-35912158D01*
X24744762Y-35895933D01*
X24767443Y-35891421D01*
X24787954Y-35882365D01*
X24847982Y-35875401D01*
X24850000Y-35875000D01*
X25550000Y-35875000D01*
X25552017Y-35875401D01*
G37*
G36*
X30152017Y-35875401D02*
G01*
X30212045Y-35882365D01*
X30232554Y-35891421D01*
X30255238Y-35895933D01*
X30279522Y-35912159D01*
X30305167Y-35923483D01*
X30322682Y-35940998D01*
X30344454Y-35955546D01*
X30359001Y-35977317D01*
X30376516Y-35994832D01*
X30387838Y-36020474D01*
X30404067Y-36044762D01*
X30408579Y-36067447D01*
X30417634Y-36087954D01*
X30424596Y-36147970D01*
X30425000Y-36150000D01*
X30425000Y-37450000D01*
X30424596Y-37452029D01*
X30417634Y-37512045D01*
X30408579Y-37532550D01*
X30404067Y-37555238D01*
X30387837Y-37579527D01*
X30376516Y-37605167D01*
X30359003Y-37622679D01*
X30344454Y-37644454D01*
X30322679Y-37659003D01*
X30305167Y-37676516D01*
X30279527Y-37687837D01*
X30255238Y-37704067D01*
X30232550Y-37708579D01*
X30212045Y-37717634D01*
X30152031Y-37724595D01*
X30150000Y-37725000D01*
X29450000Y-37725000D01*
X29447971Y-37724596D01*
X29387954Y-37717634D01*
X29367447Y-37708579D01*
X29344762Y-37704067D01*
X29320474Y-37687838D01*
X29294832Y-37676516D01*
X29277317Y-37659001D01*
X29255546Y-37644454D01*
X29240998Y-37622682D01*
X29223483Y-37605167D01*
X29212159Y-37579522D01*
X29195933Y-37555238D01*
X29191421Y-37532554D01*
X29182365Y-37512045D01*
X29175401Y-37452019D01*
X29175000Y-37450000D01*
X29175000Y-36150000D01*
X29175401Y-36147983D01*
X29182365Y-36087954D01*
X29191421Y-36067443D01*
X29195933Y-36044762D01*
X29212158Y-36020479D01*
X29223483Y-35994832D01*
X29241000Y-35977314D01*
X29255546Y-35955546D01*
X29277314Y-35941000D01*
X29294832Y-35923483D01*
X29320479Y-35912158D01*
X29344762Y-35895933D01*
X29367443Y-35891421D01*
X29387954Y-35882365D01*
X29447982Y-35875401D01*
X29450000Y-35875000D01*
X30150000Y-35875000D01*
X30152017Y-35875401D01*
G37*
G36*
X33552017Y-35875401D02*
G01*
X33612045Y-35882365D01*
X33632554Y-35891421D01*
X33655238Y-35895933D01*
X33679522Y-35912159D01*
X33705167Y-35923483D01*
X33722682Y-35940998D01*
X33744454Y-35955546D01*
X33759001Y-35977317D01*
X33776516Y-35994832D01*
X33787838Y-36020474D01*
X33804067Y-36044762D01*
X33808579Y-36067447D01*
X33817634Y-36087954D01*
X33824596Y-36147970D01*
X33825000Y-36150000D01*
X33825000Y-37450000D01*
X33824596Y-37452029D01*
X33817634Y-37512045D01*
X33808579Y-37532550D01*
X33804067Y-37555238D01*
X33787837Y-37579527D01*
X33776516Y-37605167D01*
X33759003Y-37622679D01*
X33744454Y-37644454D01*
X33722679Y-37659003D01*
X33705167Y-37676516D01*
X33679527Y-37687837D01*
X33655238Y-37704067D01*
X33632550Y-37708579D01*
X33612045Y-37717634D01*
X33552031Y-37724595D01*
X33550000Y-37725000D01*
X32850000Y-37725000D01*
X32847971Y-37724596D01*
X32787954Y-37717634D01*
X32767447Y-37708579D01*
X32744762Y-37704067D01*
X32720474Y-37687838D01*
X32694832Y-37676516D01*
X32677317Y-37659001D01*
X32655546Y-37644454D01*
X32640998Y-37622682D01*
X32623483Y-37605167D01*
X32612159Y-37579522D01*
X32595933Y-37555238D01*
X32591421Y-37532554D01*
X32582365Y-37512045D01*
X32575401Y-37452019D01*
X32575000Y-37450000D01*
X32575000Y-36150000D01*
X32575401Y-36147983D01*
X32582365Y-36087954D01*
X32591421Y-36067443D01*
X32595933Y-36044762D01*
X32612158Y-36020479D01*
X32623483Y-35994832D01*
X32641000Y-35977314D01*
X32655546Y-35955546D01*
X32677314Y-35941000D01*
X32694832Y-35923483D01*
X32720479Y-35912158D01*
X32744762Y-35895933D01*
X32767443Y-35891421D01*
X32787954Y-35882365D01*
X32847982Y-35875401D01*
X32850000Y-35875000D01*
X33550000Y-35875000D01*
X33552017Y-35875401D01*
G37*
G36*
X38152017Y-35875401D02*
G01*
X38212045Y-35882365D01*
X38232554Y-35891421D01*
X38255238Y-35895933D01*
X38279522Y-35912159D01*
X38305167Y-35923483D01*
X38322682Y-35940998D01*
X38344454Y-35955546D01*
X38359001Y-35977317D01*
X38376516Y-35994832D01*
X38387838Y-36020474D01*
X38404067Y-36044762D01*
X38408579Y-36067447D01*
X38417634Y-36087954D01*
X38424596Y-36147970D01*
X38425000Y-36150000D01*
X38425000Y-37450000D01*
X38424596Y-37452029D01*
X38417634Y-37512045D01*
X38408579Y-37532550D01*
X38404067Y-37555238D01*
X38387837Y-37579527D01*
X38376516Y-37605167D01*
X38359003Y-37622679D01*
X38344454Y-37644454D01*
X38322679Y-37659003D01*
X38305167Y-37676516D01*
X38279527Y-37687837D01*
X38255238Y-37704067D01*
X38232550Y-37708579D01*
X38212045Y-37717634D01*
X38152031Y-37724595D01*
X38150000Y-37725000D01*
X37450000Y-37725000D01*
X37447971Y-37724596D01*
X37387954Y-37717634D01*
X37367447Y-37708579D01*
X37344762Y-37704067D01*
X37320474Y-37687838D01*
X37294832Y-37676516D01*
X37277317Y-37659001D01*
X37255546Y-37644454D01*
X37240998Y-37622682D01*
X37223483Y-37605167D01*
X37212159Y-37579522D01*
X37195933Y-37555238D01*
X37191421Y-37532554D01*
X37182365Y-37512045D01*
X37175401Y-37452019D01*
X37175000Y-37450000D01*
X37175000Y-36150000D01*
X37175401Y-36147983D01*
X37182365Y-36087954D01*
X37191421Y-36067443D01*
X37195933Y-36044762D01*
X37212158Y-36020479D01*
X37223483Y-35994832D01*
X37241000Y-35977314D01*
X37255546Y-35955546D01*
X37277314Y-35941000D01*
X37294832Y-35923483D01*
X37320479Y-35912158D01*
X37344762Y-35895933D01*
X37367443Y-35891421D01*
X37387954Y-35882365D01*
X37447982Y-35875401D01*
X37450000Y-35875000D01*
X38150000Y-35875000D01*
X38152017Y-35875401D01*
G37*
G36*
X42052017Y-35875401D02*
G01*
X42112045Y-35882365D01*
X42132554Y-35891421D01*
X42155238Y-35895933D01*
X42179522Y-35912159D01*
X42205167Y-35923483D01*
X42222682Y-35940998D01*
X42244454Y-35955546D01*
X42259001Y-35977317D01*
X42276516Y-35994832D01*
X42287838Y-36020474D01*
X42304067Y-36044762D01*
X42308579Y-36067447D01*
X42317634Y-36087954D01*
X42324596Y-36147970D01*
X42325000Y-36150000D01*
X42325000Y-37450000D01*
X42324596Y-37452029D01*
X42317634Y-37512045D01*
X42308579Y-37532550D01*
X42304067Y-37555238D01*
X42287837Y-37579527D01*
X42276516Y-37605167D01*
X42259003Y-37622679D01*
X42244454Y-37644454D01*
X42222679Y-37659003D01*
X42205167Y-37676516D01*
X42179527Y-37687837D01*
X42155238Y-37704067D01*
X42132550Y-37708579D01*
X42112045Y-37717634D01*
X42052031Y-37724595D01*
X42050000Y-37725000D01*
X41350000Y-37725000D01*
X41347971Y-37724596D01*
X41287954Y-37717634D01*
X41267447Y-37708579D01*
X41244762Y-37704067D01*
X41220474Y-37687838D01*
X41194832Y-37676516D01*
X41177317Y-37659001D01*
X41155546Y-37644454D01*
X41140998Y-37622682D01*
X41123483Y-37605167D01*
X41112159Y-37579522D01*
X41095933Y-37555238D01*
X41091421Y-37532554D01*
X41082365Y-37512045D01*
X41075401Y-37452019D01*
X41075000Y-37450000D01*
X41075000Y-36150000D01*
X41075401Y-36147983D01*
X41082365Y-36087954D01*
X41091421Y-36067443D01*
X41095933Y-36044762D01*
X41112158Y-36020479D01*
X41123483Y-35994832D01*
X41141000Y-35977314D01*
X41155546Y-35955546D01*
X41177314Y-35941000D01*
X41194832Y-35923483D01*
X41220479Y-35912158D01*
X41244762Y-35895933D01*
X41267443Y-35891421D01*
X41287954Y-35882365D01*
X41347982Y-35875401D01*
X41350000Y-35875000D01*
X42050000Y-35875000D01*
X42052017Y-35875401D01*
G37*
G36*
X45652017Y-35875401D02*
G01*
X45712045Y-35882365D01*
X45732554Y-35891421D01*
X45755238Y-35895933D01*
X45779522Y-35912159D01*
X45805167Y-35923483D01*
X45822682Y-35940998D01*
X45844454Y-35955546D01*
X45859001Y-35977317D01*
X45876516Y-35994832D01*
X45887838Y-36020474D01*
X45904067Y-36044762D01*
X45908579Y-36067447D01*
X45917634Y-36087954D01*
X45924596Y-36147970D01*
X45925000Y-36150000D01*
X45925000Y-37450000D01*
X45924596Y-37452029D01*
X45917634Y-37512045D01*
X45908579Y-37532550D01*
X45904067Y-37555238D01*
X45887837Y-37579527D01*
X45876516Y-37605167D01*
X45859003Y-37622679D01*
X45844454Y-37644454D01*
X45822679Y-37659003D01*
X45805167Y-37676516D01*
X45779527Y-37687837D01*
X45755238Y-37704067D01*
X45732550Y-37708579D01*
X45712045Y-37717634D01*
X45652031Y-37724595D01*
X45650000Y-37725000D01*
X44950000Y-37725000D01*
X44947971Y-37724596D01*
X44887954Y-37717634D01*
X44867447Y-37708579D01*
X44844762Y-37704067D01*
X44820474Y-37687838D01*
X44794832Y-37676516D01*
X44777317Y-37659001D01*
X44755546Y-37644454D01*
X44740998Y-37622682D01*
X44723483Y-37605167D01*
X44712159Y-37579522D01*
X44695933Y-37555238D01*
X44691421Y-37532554D01*
X44682365Y-37512045D01*
X44675401Y-37452019D01*
X44675000Y-37450000D01*
X44675000Y-36150000D01*
X44675401Y-36147983D01*
X44682365Y-36087954D01*
X44691421Y-36067443D01*
X44695933Y-36044762D01*
X44712158Y-36020479D01*
X44723483Y-35994832D01*
X44741000Y-35977314D01*
X44755546Y-35955546D01*
X44777314Y-35941000D01*
X44794832Y-35923483D01*
X44820479Y-35912158D01*
X44844762Y-35895933D01*
X44867443Y-35891421D01*
X44887954Y-35882365D01*
X44947982Y-35875401D01*
X44950000Y-35875000D01*
X45650000Y-35875000D01*
X45652017Y-35875401D01*
G37*
G36*
X11852017Y-33625401D02*
G01*
X11912045Y-33632365D01*
X11932554Y-33641421D01*
X11955238Y-33645933D01*
X11979522Y-33662159D01*
X12005167Y-33673483D01*
X12022682Y-33690998D01*
X12044454Y-33705546D01*
X12059001Y-33727317D01*
X12076516Y-33744832D01*
X12087838Y-33770474D01*
X12104067Y-33794762D01*
X12108579Y-33817447D01*
X12117634Y-33837954D01*
X12124596Y-33897970D01*
X12125000Y-33900000D01*
X12125000Y-36100000D01*
X12124596Y-36102029D01*
X12117634Y-36162045D01*
X12108579Y-36182550D01*
X12104067Y-36205238D01*
X12087837Y-36229527D01*
X12076516Y-36255167D01*
X12059003Y-36272679D01*
X12044454Y-36294454D01*
X12022679Y-36309003D01*
X12005167Y-36326516D01*
X11979527Y-36337837D01*
X11955238Y-36354067D01*
X11932550Y-36358579D01*
X11912045Y-36367634D01*
X11852031Y-36374595D01*
X11850000Y-36375000D01*
X11200000Y-36375000D01*
X11197971Y-36374596D01*
X11137954Y-36367634D01*
X11117447Y-36358579D01*
X11094762Y-36354067D01*
X11070474Y-36337838D01*
X11044832Y-36326516D01*
X11027317Y-36309001D01*
X11005546Y-36294454D01*
X10990998Y-36272682D01*
X10973483Y-36255167D01*
X10962159Y-36229522D01*
X10945933Y-36205238D01*
X10941421Y-36182554D01*
X10932365Y-36162045D01*
X10925401Y-36102019D01*
X10925000Y-36100000D01*
X10925000Y-33900000D01*
X10925401Y-33897983D01*
X10932365Y-33837954D01*
X10941421Y-33817443D01*
X10945933Y-33794762D01*
X10962158Y-33770479D01*
X10973483Y-33744832D01*
X10991000Y-33727314D01*
X11005546Y-33705546D01*
X11027314Y-33691000D01*
X11044832Y-33673483D01*
X11070479Y-33662158D01*
X11094762Y-33645933D01*
X11117443Y-33641421D01*
X11137954Y-33632365D01*
X11197982Y-33625401D01*
X11200000Y-33625000D01*
X11850000Y-33625000D01*
X11852017Y-33625401D01*
G37*
G36*
X14802017Y-33625401D02*
G01*
X14862045Y-33632365D01*
X14882554Y-33641421D01*
X14905238Y-33645933D01*
X14929522Y-33662159D01*
X14955167Y-33673483D01*
X14972682Y-33690998D01*
X14994454Y-33705546D01*
X15009001Y-33727317D01*
X15026516Y-33744832D01*
X15037838Y-33770474D01*
X15054067Y-33794762D01*
X15058579Y-33817447D01*
X15067634Y-33837954D01*
X15074596Y-33897970D01*
X15075000Y-33900000D01*
X15075000Y-36100000D01*
X15074596Y-36102029D01*
X15067634Y-36162045D01*
X15058579Y-36182550D01*
X15054067Y-36205238D01*
X15037837Y-36229527D01*
X15026516Y-36255167D01*
X15009003Y-36272679D01*
X14994454Y-36294454D01*
X14972679Y-36309003D01*
X14955167Y-36326516D01*
X14929527Y-36337837D01*
X14905238Y-36354067D01*
X14882550Y-36358579D01*
X14862045Y-36367634D01*
X14802031Y-36374595D01*
X14800000Y-36375000D01*
X14150000Y-36375000D01*
X14147971Y-36374596D01*
X14087954Y-36367634D01*
X14067447Y-36358579D01*
X14044762Y-36354067D01*
X14020474Y-36337838D01*
X13994832Y-36326516D01*
X13977317Y-36309001D01*
X13955546Y-36294454D01*
X13940998Y-36272682D01*
X13923483Y-36255167D01*
X13912159Y-36229522D01*
X13895933Y-36205238D01*
X13891421Y-36182554D01*
X13882365Y-36162045D01*
X13875401Y-36102019D01*
X13875000Y-36100000D01*
X13875000Y-33900000D01*
X13875401Y-33897983D01*
X13882365Y-33837954D01*
X13891421Y-33817443D01*
X13895933Y-33794762D01*
X13912158Y-33770479D01*
X13923483Y-33744832D01*
X13941000Y-33727314D01*
X13955546Y-33705546D01*
X13977314Y-33691000D01*
X13994832Y-33673483D01*
X14020479Y-33662158D01*
X14044762Y-33645933D01*
X14067443Y-33641421D01*
X14087954Y-33632365D01*
X14147982Y-33625401D01*
X14150000Y-33625000D01*
X14800000Y-33625000D01*
X14802017Y-33625401D01*
G37*
G36*
X16852017Y-33625401D02*
G01*
X16912045Y-33632365D01*
X16932554Y-33641421D01*
X16955238Y-33645933D01*
X16979522Y-33662159D01*
X17005167Y-33673483D01*
X17022682Y-33690998D01*
X17044454Y-33705546D01*
X17059001Y-33727317D01*
X17076516Y-33744832D01*
X17087838Y-33770474D01*
X17104067Y-33794762D01*
X17108579Y-33817447D01*
X17117634Y-33837954D01*
X17124596Y-33897970D01*
X17125000Y-33900000D01*
X17125000Y-36100000D01*
X17124596Y-36102029D01*
X17117634Y-36162045D01*
X17108579Y-36182550D01*
X17104067Y-36205238D01*
X17087837Y-36229527D01*
X17076516Y-36255167D01*
X17059003Y-36272679D01*
X17044454Y-36294454D01*
X17022679Y-36309003D01*
X17005167Y-36326516D01*
X16979527Y-36337837D01*
X16955238Y-36354067D01*
X16932550Y-36358579D01*
X16912045Y-36367634D01*
X16852031Y-36374595D01*
X16850000Y-36375000D01*
X16200000Y-36375000D01*
X16197971Y-36374596D01*
X16137954Y-36367634D01*
X16117447Y-36358579D01*
X16094762Y-36354067D01*
X16070474Y-36337838D01*
X16044832Y-36326516D01*
X16027317Y-36309001D01*
X16005546Y-36294454D01*
X15990998Y-36272682D01*
X15973483Y-36255167D01*
X15962159Y-36229522D01*
X15945933Y-36205238D01*
X15941421Y-36182554D01*
X15932365Y-36162045D01*
X15925401Y-36102019D01*
X15925000Y-36100000D01*
X15925000Y-33900000D01*
X15925401Y-33897983D01*
X15932365Y-33837954D01*
X15941421Y-33817443D01*
X15945933Y-33794762D01*
X15962158Y-33770479D01*
X15973483Y-33744832D01*
X15991000Y-33727314D01*
X16005546Y-33705546D01*
X16027314Y-33691000D01*
X16044832Y-33673483D01*
X16070479Y-33662158D01*
X16094762Y-33645933D01*
X16117443Y-33641421D01*
X16137954Y-33632365D01*
X16197982Y-33625401D01*
X16200000Y-33625000D01*
X16850000Y-33625000D01*
X16852017Y-33625401D01*
G37*
G36*
X19802017Y-33625401D02*
G01*
X19862045Y-33632365D01*
X19882554Y-33641421D01*
X19905238Y-33645933D01*
X19929522Y-33662159D01*
X19955167Y-33673483D01*
X19972682Y-33690998D01*
X19994454Y-33705546D01*
X20009001Y-33727317D01*
X20026516Y-33744832D01*
X20037838Y-33770474D01*
X20054067Y-33794762D01*
X20058579Y-33817447D01*
X20067634Y-33837954D01*
X20074596Y-33897970D01*
X20075000Y-33900000D01*
X20075000Y-36100000D01*
X20074596Y-36102029D01*
X20067634Y-36162045D01*
X20058579Y-36182550D01*
X20054067Y-36205238D01*
X20037837Y-36229527D01*
X20026516Y-36255167D01*
X20009003Y-36272679D01*
X19994454Y-36294454D01*
X19972679Y-36309003D01*
X19955167Y-36326516D01*
X19929527Y-36337837D01*
X19905238Y-36354067D01*
X19882550Y-36358579D01*
X19862045Y-36367634D01*
X19802031Y-36374595D01*
X19800000Y-36375000D01*
X19150000Y-36375000D01*
X19147971Y-36374596D01*
X19087954Y-36367634D01*
X19067447Y-36358579D01*
X19044762Y-36354067D01*
X19020474Y-36337838D01*
X18994832Y-36326516D01*
X18977317Y-36309001D01*
X18955546Y-36294454D01*
X18940998Y-36272682D01*
X18923483Y-36255167D01*
X18912159Y-36229522D01*
X18895933Y-36205238D01*
X18891421Y-36182554D01*
X18882365Y-36162045D01*
X18875401Y-36102019D01*
X18875000Y-36100000D01*
X18875000Y-33900000D01*
X18875401Y-33897983D01*
X18882365Y-33837954D01*
X18891421Y-33817443D01*
X18895933Y-33794762D01*
X18912158Y-33770479D01*
X18923483Y-33744832D01*
X18941000Y-33727314D01*
X18955546Y-33705546D01*
X18977314Y-33691000D01*
X18994832Y-33673483D01*
X19020479Y-33662158D01*
X19044762Y-33645933D01*
X19067443Y-33641421D01*
X19087954Y-33632365D01*
X19147982Y-33625401D01*
X19150000Y-33625000D01*
X19800000Y-33625000D01*
X19802017Y-33625401D01*
G37*
G36*
X50527017Y-32675401D02*
G01*
X50587045Y-32682365D01*
X50607554Y-32691421D01*
X50630238Y-32695933D01*
X50654522Y-32712159D01*
X50680167Y-32723483D01*
X50697682Y-32740998D01*
X50719454Y-32755546D01*
X50734001Y-32777317D01*
X50751516Y-32794832D01*
X50762838Y-32820474D01*
X50779067Y-32844762D01*
X50783579Y-32867447D01*
X50792634Y-32887954D01*
X50799596Y-32947970D01*
X50800000Y-32950000D01*
X50800000Y-33650000D01*
X50799596Y-33652029D01*
X50792634Y-33712045D01*
X50783579Y-33732550D01*
X50779067Y-33755238D01*
X50762837Y-33779527D01*
X50751516Y-33805167D01*
X50734003Y-33822679D01*
X50719454Y-33844454D01*
X50697679Y-33859003D01*
X50680167Y-33876516D01*
X50654527Y-33887837D01*
X50630238Y-33904067D01*
X50607550Y-33908579D01*
X50587045Y-33917634D01*
X50527031Y-33924595D01*
X50525000Y-33925000D01*
X49225000Y-33925000D01*
X49222971Y-33924596D01*
X49162954Y-33917634D01*
X49142447Y-33908579D01*
X49119762Y-33904067D01*
X49095474Y-33887838D01*
X49069832Y-33876516D01*
X49052317Y-33859001D01*
X49030546Y-33844454D01*
X49015998Y-33822682D01*
X48998483Y-33805167D01*
X48987159Y-33779522D01*
X48970933Y-33755238D01*
X48966421Y-33732554D01*
X48957365Y-33712045D01*
X48950401Y-33652019D01*
X48950000Y-33650000D01*
X48950000Y-32950000D01*
X48950401Y-32947983D01*
X48957365Y-32887954D01*
X48966421Y-32867443D01*
X48970933Y-32844762D01*
X48987158Y-32820479D01*
X48998483Y-32794832D01*
X49016000Y-32777314D01*
X49030546Y-32755546D01*
X49052314Y-32741000D01*
X49069832Y-32723483D01*
X49095479Y-32712158D01*
X49119762Y-32695933D01*
X49142443Y-32691421D01*
X49162954Y-32682365D01*
X49222982Y-32675401D01*
X49225000Y-32675000D01*
X50525000Y-32675000D01*
X50527017Y-32675401D01*
G37*
G36*
X4552017Y-31175401D02*
G01*
X4612045Y-31182365D01*
X4632554Y-31191421D01*
X4655238Y-31195933D01*
X4679522Y-31212159D01*
X4705167Y-31223483D01*
X4722682Y-31240998D01*
X4744454Y-31255546D01*
X4759001Y-31277317D01*
X4776516Y-31294832D01*
X4787838Y-31320474D01*
X4804067Y-31344762D01*
X4808579Y-31367447D01*
X4817634Y-31387954D01*
X4824596Y-31447970D01*
X4825000Y-31450000D01*
X4825000Y-32550000D01*
X4824596Y-32552029D01*
X4817634Y-32612045D01*
X4808579Y-32632550D01*
X4804067Y-32655238D01*
X4787837Y-32679527D01*
X4776516Y-32705167D01*
X4759003Y-32722679D01*
X4744454Y-32744454D01*
X4722679Y-32759003D01*
X4705167Y-32776516D01*
X4679527Y-32787837D01*
X4655238Y-32804067D01*
X4632550Y-32808579D01*
X4612045Y-32817634D01*
X4552031Y-32824595D01*
X4550000Y-32825000D01*
X3450000Y-32825000D01*
X3447971Y-32824596D01*
X3387954Y-32817634D01*
X3367447Y-32808579D01*
X3344762Y-32804067D01*
X3320474Y-32787838D01*
X3294832Y-32776516D01*
X3277317Y-32759001D01*
X3255546Y-32744454D01*
X3240998Y-32722682D01*
X3223483Y-32705167D01*
X3212159Y-32679522D01*
X3195933Y-32655238D01*
X3191421Y-32632554D01*
X3182365Y-32612045D01*
X3175401Y-32552019D01*
X3175000Y-32550000D01*
X3175000Y-31450000D01*
X3175401Y-31447983D01*
X3182365Y-31387954D01*
X3191421Y-31367443D01*
X3195933Y-31344762D01*
X3212158Y-31320479D01*
X3223483Y-31294832D01*
X3241000Y-31277314D01*
X3255546Y-31255546D01*
X3277314Y-31241000D01*
X3294832Y-31223483D01*
X3320479Y-31212158D01*
X3344762Y-31195933D01*
X3367443Y-31191421D01*
X3387954Y-31182365D01*
X3447982Y-31175401D01*
X3450000Y-31175000D01*
X4550000Y-31175000D01*
X4552017Y-31175401D01*
G37*
G36*
X7739485Y-31210524D02*
G01*
X7888902Y-31272415D01*
X8023374Y-31362266D01*
X8137734Y-31476626D01*
X8227585Y-31611098D01*
X8289476Y-31760515D01*
X8321027Y-31919136D01*
X8321027Y-32080864D01*
X8289476Y-32239485D01*
X8227585Y-32388902D01*
X8137734Y-32523374D01*
X8023374Y-32637734D01*
X7888902Y-32727585D01*
X7739485Y-32789476D01*
X7580864Y-32821027D01*
X7419136Y-32821027D01*
X7260515Y-32789476D01*
X7111098Y-32727585D01*
X6976626Y-32637734D01*
X6862266Y-32523374D01*
X6772415Y-32388902D01*
X6710524Y-32239485D01*
X6678973Y-32080864D01*
X6678973Y-31919136D01*
X6710524Y-31760515D01*
X6772415Y-31611098D01*
X6862266Y-31476626D01*
X6976626Y-31362266D01*
X7111098Y-31272415D01*
X7260515Y-31210524D01*
X7419136Y-31178973D01*
X7580864Y-31178973D01*
X7739485Y-31210524D01*
G37*
G36*
X46691970Y-31688321D02*
G01*
X46748744Y-31726256D01*
X46786679Y-31783030D01*
X46800000Y-31850000D01*
X46800000Y-32150000D01*
X46786679Y-32216970D01*
X46748744Y-32273744D01*
X46691970Y-32311679D01*
X46625000Y-32325000D01*
X45375000Y-32325000D01*
X45308030Y-32311679D01*
X45251256Y-32273744D01*
X45213321Y-32216970D01*
X45200000Y-32150000D01*
X45200000Y-31850000D01*
X45213321Y-31783030D01*
X45251256Y-31726256D01*
X45308030Y-31688321D01*
X45375000Y-31675000D01*
X46625000Y-31675000D01*
X46691970Y-31688321D01*
G37*
G36*
X39552017Y-30175401D02*
G01*
X39612045Y-30182365D01*
X39632554Y-30191421D01*
X39655238Y-30195933D01*
X39679522Y-30212159D01*
X39705167Y-30223483D01*
X39722682Y-30240998D01*
X39744454Y-30255546D01*
X39759001Y-30277317D01*
X39776516Y-30294832D01*
X39787838Y-30320474D01*
X39804067Y-30344762D01*
X39808579Y-30367447D01*
X39817634Y-30387954D01*
X39824596Y-30447970D01*
X39825000Y-30450000D01*
X39825000Y-31550000D01*
X39824596Y-31552029D01*
X39817634Y-31612045D01*
X39808579Y-31632550D01*
X39804067Y-31655238D01*
X39787837Y-31679527D01*
X39776516Y-31705167D01*
X39759003Y-31722679D01*
X39744454Y-31744454D01*
X39722679Y-31759003D01*
X39705167Y-31776516D01*
X39679527Y-31787837D01*
X39655238Y-31804067D01*
X39632550Y-31808579D01*
X39612045Y-31817634D01*
X39552031Y-31824595D01*
X39550000Y-31825000D01*
X38450000Y-31825000D01*
X38447971Y-31824596D01*
X38387954Y-31817634D01*
X38367447Y-31808579D01*
X38344762Y-31804067D01*
X38320474Y-31787838D01*
X38294832Y-31776516D01*
X38277317Y-31759001D01*
X38255546Y-31744454D01*
X38240998Y-31722682D01*
X38223483Y-31705167D01*
X38212159Y-31679522D01*
X38195933Y-31655238D01*
X38191421Y-31632554D01*
X38182365Y-31612045D01*
X38175401Y-31552019D01*
X38175000Y-31550000D01*
X38175000Y-30450000D01*
X38175401Y-30447983D01*
X38182365Y-30387954D01*
X38191421Y-30367443D01*
X38195933Y-30344762D01*
X38212158Y-30320479D01*
X38223483Y-30294832D01*
X38241000Y-30277314D01*
X38255546Y-30255546D01*
X38277314Y-30241000D01*
X38294832Y-30223483D01*
X38320479Y-30212158D01*
X38344762Y-30195933D01*
X38367443Y-30191421D01*
X38387954Y-30182365D01*
X38447982Y-30175401D01*
X38450000Y-30175000D01*
X39550000Y-30175000D01*
X39552017Y-30175401D01*
G37*
G36*
X41739485Y-30210524D02*
G01*
X41888902Y-30272415D01*
X42023374Y-30362266D01*
X42137734Y-30476626D01*
X42227585Y-30611098D01*
X42289476Y-30760515D01*
X42321027Y-30919136D01*
X42321027Y-31080864D01*
X42289476Y-31239485D01*
X42227585Y-31388902D01*
X42137734Y-31523374D01*
X42023374Y-31637734D01*
X41888902Y-31727585D01*
X41739485Y-31789476D01*
X41580864Y-31821027D01*
X41419136Y-31821027D01*
X41260515Y-31789476D01*
X41111098Y-31727585D01*
X40976626Y-31637734D01*
X40862266Y-31523374D01*
X40772415Y-31388902D01*
X40710524Y-31239485D01*
X40678973Y-31080864D01*
X40678973Y-30919136D01*
X40710524Y-30760515D01*
X40772415Y-30611098D01*
X40862266Y-30476626D01*
X40976626Y-30362266D01*
X41111098Y-30272415D01*
X41260515Y-30210524D01*
X41419136Y-30178973D01*
X41580864Y-30178973D01*
X41739485Y-30210524D01*
G37*
G36*
X13360067Y-30601903D02*
G01*
X13368178Y-30607322D01*
X13373597Y-30615433D01*
X13375500Y-30625000D01*
X13375500Y-31245000D01*
X13375000Y-31247513D01*
X13375000Y-31700000D01*
X13373097Y-31709567D01*
X13367678Y-31717678D01*
X13359567Y-31723097D01*
X13350000Y-31725000D01*
X13100000Y-31725000D01*
X13090433Y-31723097D01*
X13082322Y-31717678D01*
X13076903Y-31709567D01*
X13075000Y-31700000D01*
X13075000Y-31284643D01*
X13060357Y-31270000D01*
X12755500Y-31270000D01*
X12745933Y-31268097D01*
X12737822Y-31262678D01*
X12732403Y-31254567D01*
X12730500Y-31245000D01*
X12730500Y-30964643D01*
X12715857Y-30950000D01*
X12300000Y-30950000D01*
X12290433Y-30948097D01*
X12282322Y-30942678D01*
X12276903Y-30934567D01*
X12275000Y-30925000D01*
X12275000Y-30675000D01*
X12276903Y-30665433D01*
X12282322Y-30657322D01*
X12290433Y-30651903D01*
X12300000Y-30650000D01*
X12715856Y-30650000D01*
X12730500Y-30635356D01*
X12730500Y-30627463D01*
X12730500Y-30625000D01*
X12732403Y-30615433D01*
X12737822Y-30607322D01*
X12745933Y-30601903D01*
X12755500Y-30600000D01*
X13350500Y-30600000D01*
X13360067Y-30601903D01*
G37*
G36*
X16414567Y-27746903D02*
G01*
X16422678Y-27752322D01*
X16428097Y-27760433D01*
X16430000Y-27770000D01*
X16430000Y-31250000D01*
X16428097Y-31259567D01*
X16422678Y-31267678D01*
X16414567Y-31273097D01*
X16405000Y-31275000D01*
X16269642Y-31275000D01*
X16255000Y-31289642D01*
X16255000Y-31700000D01*
X16253097Y-31709567D01*
X16247678Y-31717678D01*
X16239567Y-31723097D01*
X16230000Y-31725000D01*
X15980000Y-31725000D01*
X15970433Y-31723097D01*
X15962322Y-31717678D01*
X15956903Y-31709567D01*
X15955000Y-31700000D01*
X15955000Y-31289643D01*
X15940357Y-31275000D01*
X15769642Y-31275000D01*
X15755000Y-31289642D01*
X15755000Y-31700000D01*
X15753097Y-31709567D01*
X15747678Y-31717678D01*
X15739567Y-31723097D01*
X15730000Y-31725000D01*
X15480000Y-31725000D01*
X15470433Y-31723097D01*
X15462322Y-31717678D01*
X15456903Y-31709567D01*
X15455000Y-31700000D01*
X15455000Y-31289643D01*
X15440357Y-31275000D01*
X15269642Y-31275000D01*
X15255000Y-31289642D01*
X15255000Y-31700000D01*
X15253097Y-31709567D01*
X15247678Y-31717678D01*
X15239567Y-31723097D01*
X15230000Y-31725000D01*
X14980000Y-31725000D01*
X14970433Y-31723097D01*
X14962322Y-31717678D01*
X14956903Y-31709567D01*
X14955000Y-31700000D01*
X14955000Y-31289643D01*
X14940357Y-31275000D01*
X14805000Y-31275000D01*
X14795433Y-31273097D01*
X14787322Y-31267678D01*
X14781903Y-31259567D01*
X14780000Y-31250000D01*
X14780000Y-27770000D01*
X14781903Y-27760433D01*
X14787322Y-27752322D01*
X14795433Y-27746903D01*
X14805000Y-27745000D01*
X16405000Y-27745000D01*
X16414567Y-27746903D01*
G37*
G36*
X17984567Y-30976903D02*
G01*
X17992678Y-30982322D01*
X17998097Y-30990433D01*
X18000000Y-31000000D01*
X18000000Y-31700000D01*
X17998097Y-31709567D01*
X17992678Y-31717678D01*
X17984567Y-31723097D01*
X17975000Y-31725000D01*
X17725000Y-31725000D01*
X17715433Y-31723097D01*
X17707322Y-31717678D01*
X17701903Y-31709567D01*
X17700000Y-31700000D01*
X17700000Y-31289643D01*
X17685357Y-31275000D01*
X17514642Y-31275000D01*
X17500000Y-31289642D01*
X17500000Y-31700000D01*
X17498097Y-31709567D01*
X17492678Y-31717678D01*
X17484567Y-31723097D01*
X17475000Y-31725000D01*
X17225000Y-31725000D01*
X17215433Y-31723097D01*
X17207322Y-31717678D01*
X17201903Y-31709567D01*
X17200000Y-31700000D01*
X17200000Y-31000000D01*
X17201903Y-30990433D01*
X17207322Y-30982322D01*
X17215433Y-30976903D01*
X17225000Y-30975000D01*
X17475000Y-30975000D01*
X17975000Y-30975000D01*
X17984567Y-30976903D01*
G37*
G36*
X19254067Y-30601903D02*
G01*
X19262178Y-30607322D01*
X19267597Y-30615433D01*
X19269500Y-30625000D01*
X19269500Y-30627468D01*
X19271724Y-30638650D01*
X19285553Y-30650000D01*
X19700000Y-30650000D01*
X19709567Y-30651903D01*
X19717678Y-30657322D01*
X19723097Y-30665433D01*
X19725000Y-30675000D01*
X19725000Y-30925000D01*
X19723097Y-30934567D01*
X19717678Y-30942678D01*
X19709567Y-30948097D01*
X19700000Y-30950000D01*
X19284142Y-30950000D01*
X19269500Y-30964642D01*
X19269500Y-31245000D01*
X19267597Y-31254567D01*
X19262178Y-31262678D01*
X19254067Y-31268097D01*
X19244500Y-31270000D01*
X18939642Y-31270000D01*
X18925000Y-31284642D01*
X18925000Y-31700000D01*
X18923097Y-31709567D01*
X18917678Y-31717678D01*
X18909567Y-31723097D01*
X18900000Y-31725000D01*
X18650000Y-31725000D01*
X18640433Y-31723097D01*
X18632322Y-31717678D01*
X18626903Y-31709567D01*
X18625000Y-31700000D01*
X18625000Y-31247513D01*
X18624500Y-31245000D01*
X18624500Y-30625000D01*
X18626403Y-30615433D01*
X18631822Y-30607322D01*
X18639933Y-30601903D01*
X18649500Y-30600000D01*
X19244500Y-30600000D01*
X19254067Y-30601903D01*
G37*
G36*
X46691970Y-30688321D02*
G01*
X46748744Y-30726256D01*
X46786679Y-30783030D01*
X46800000Y-30850000D01*
X46800000Y-31150000D01*
X46786679Y-31216970D01*
X46748744Y-31273744D01*
X46691970Y-31311679D01*
X46625000Y-31325000D01*
X45375000Y-31325000D01*
X45308030Y-31311679D01*
X45251256Y-31273744D01*
X45213321Y-31216970D01*
X45200000Y-31150000D01*
X45200000Y-30850000D01*
X45213321Y-30783030D01*
X45251256Y-30726256D01*
X45308030Y-30688321D01*
X45375000Y-30675000D01*
X46625000Y-30675000D01*
X46691970Y-30688321D01*
G37*
G36*
X32545671Y-29519030D02*
G01*
X32626777Y-29573223D01*
X32680970Y-29654329D01*
X32700000Y-29750000D01*
X32700000Y-30250000D01*
X32680970Y-30345671D01*
X32626777Y-30426777D01*
X32545671Y-30480970D01*
X32450000Y-30500000D01*
X32000000Y-30500000D01*
X31904329Y-30480970D01*
X31823223Y-30426777D01*
X31769030Y-30345671D01*
X31750000Y-30250000D01*
X31750000Y-29750000D01*
X31769030Y-29654329D01*
X31823223Y-29573223D01*
X31904329Y-29519030D01*
X32000000Y-29500000D01*
X32450000Y-29500000D01*
X32545671Y-29519030D01*
G37*
G36*
X34095671Y-29519030D02*
G01*
X34176777Y-29573223D01*
X34230970Y-29654329D01*
X34250000Y-29750000D01*
X34250000Y-30250000D01*
X34230970Y-30345671D01*
X34176777Y-30426777D01*
X34095671Y-30480970D01*
X34000000Y-30500000D01*
X33550000Y-30500000D01*
X33454329Y-30480970D01*
X33373223Y-30426777D01*
X33319030Y-30345671D01*
X33300000Y-30250000D01*
X33300000Y-29750000D01*
X33319030Y-29654329D01*
X33373223Y-29573223D01*
X33454329Y-29519030D01*
X33550000Y-29500000D01*
X34000000Y-29500000D01*
X34095671Y-29519030D01*
G37*
G36*
X13009567Y-27551903D02*
G01*
X13017678Y-27557322D01*
X13023097Y-27565433D01*
X13025000Y-27575000D01*
X13025000Y-30325000D01*
X13023097Y-30334567D01*
X13017678Y-30342678D01*
X13009567Y-30348097D01*
X13000000Y-30350000D01*
X12750000Y-30350000D01*
X12300000Y-30350000D01*
X12290433Y-30348097D01*
X12282322Y-30342678D01*
X12276903Y-30334567D01*
X12275000Y-30325000D01*
X12275000Y-30075000D01*
X12276903Y-30065433D01*
X12282322Y-30057322D01*
X12290433Y-30051903D01*
X12300000Y-30050000D01*
X12710356Y-30050000D01*
X12725000Y-30035356D01*
X12725000Y-29864643D01*
X12710357Y-29850000D01*
X12300000Y-29850000D01*
X12290433Y-29848097D01*
X12282322Y-29842678D01*
X12276903Y-29834567D01*
X12275000Y-29825000D01*
X12275000Y-29575000D01*
X12276903Y-29565433D01*
X12282322Y-29557322D01*
X12290433Y-29551903D01*
X12300000Y-29550000D01*
X12710356Y-29550000D01*
X12725000Y-29535356D01*
X12725000Y-29364643D01*
X12710357Y-29350000D01*
X12300000Y-29350000D01*
X12290433Y-29348097D01*
X12282322Y-29342678D01*
X12276903Y-29334567D01*
X12275000Y-29325000D01*
X12275000Y-29075000D01*
X12276903Y-29065433D01*
X12282322Y-29057322D01*
X12290433Y-29051903D01*
X12300000Y-29050000D01*
X12710356Y-29050000D01*
X12725000Y-29035356D01*
X12725000Y-28864643D01*
X12710357Y-28850000D01*
X12300000Y-28850000D01*
X12290433Y-28848097D01*
X12282322Y-28842678D01*
X12276903Y-28834567D01*
X12275000Y-28825000D01*
X12275000Y-28575000D01*
X12276903Y-28565433D01*
X12282322Y-28557322D01*
X12290433Y-28551903D01*
X12300000Y-28550000D01*
X12710356Y-28550000D01*
X12725000Y-28535356D01*
X12725000Y-28364643D01*
X12710357Y-28350000D01*
X12300000Y-28350000D01*
X12290433Y-28348097D01*
X12282322Y-28342678D01*
X12276903Y-28334567D01*
X12275000Y-28325000D01*
X12275000Y-28075000D01*
X12276903Y-28065433D01*
X12282322Y-28057322D01*
X12290433Y-28051903D01*
X12300000Y-28050000D01*
X12710356Y-28050000D01*
X12725000Y-28035356D01*
X12725000Y-27864643D01*
X12710357Y-27850000D01*
X12300000Y-27850000D01*
X12290433Y-27848097D01*
X12282322Y-27842678D01*
X12276903Y-27834567D01*
X12275000Y-27825000D01*
X12275000Y-27575000D01*
X12276903Y-27565433D01*
X12282322Y-27557322D01*
X12290433Y-27551903D01*
X12300000Y-27550000D01*
X13000000Y-27550000D01*
X13009567Y-27551903D01*
G37*
G36*
X19709567Y-26051903D02*
G01*
X19717678Y-26057322D01*
X19723097Y-26065433D01*
X19725000Y-26075000D01*
X19725000Y-26325000D01*
X19723097Y-26334567D01*
X19717678Y-26342678D01*
X19709567Y-26348097D01*
X19700000Y-26350000D01*
X19289642Y-26350000D01*
X19275000Y-26364642D01*
X19275000Y-26535357D01*
X19289643Y-26550000D01*
X19700000Y-26550000D01*
X19709567Y-26551903D01*
X19717678Y-26557322D01*
X19723097Y-26565433D01*
X19725000Y-26575000D01*
X19725000Y-26825000D01*
X19723097Y-26834567D01*
X19717678Y-26842678D01*
X19709567Y-26848097D01*
X19700000Y-26850000D01*
X19289642Y-26850000D01*
X19275000Y-26864642D01*
X19275000Y-27035357D01*
X19289643Y-27050000D01*
X19700000Y-27050000D01*
X19709567Y-27051903D01*
X19717678Y-27057322D01*
X19723097Y-27065433D01*
X19725000Y-27075000D01*
X19725000Y-27325000D01*
X19723097Y-27334567D01*
X19717678Y-27342678D01*
X19709567Y-27348097D01*
X19700000Y-27350000D01*
X19289642Y-27350000D01*
X19275000Y-27364642D01*
X19275000Y-27535357D01*
X19289643Y-27550000D01*
X19700000Y-27550000D01*
X19709567Y-27551903D01*
X19717678Y-27557322D01*
X19723097Y-27565433D01*
X19725000Y-27575000D01*
X19725000Y-27825000D01*
X19723097Y-27834567D01*
X19717678Y-27842678D01*
X19709567Y-27848097D01*
X19700000Y-27850000D01*
X19289642Y-27850000D01*
X19275000Y-27864642D01*
X19275000Y-28035357D01*
X19289643Y-28050000D01*
X19700000Y-28050000D01*
X19709567Y-28051903D01*
X19717678Y-28057322D01*
X19723097Y-28065433D01*
X19725000Y-28075000D01*
X19725000Y-28325000D01*
X19723097Y-28334567D01*
X19717678Y-28342678D01*
X19709567Y-28348097D01*
X19700000Y-28350000D01*
X19289642Y-28350000D01*
X19275000Y-28364642D01*
X19275000Y-28535357D01*
X19289643Y-28550000D01*
X19700000Y-28550000D01*
X19709567Y-28551903D01*
X19717678Y-28557322D01*
X19723097Y-28565433D01*
X19725000Y-28575000D01*
X19725000Y-28825000D01*
X19723097Y-28834567D01*
X19717678Y-28842678D01*
X19709567Y-28848097D01*
X19700000Y-28850000D01*
X19289642Y-28850000D01*
X19275000Y-28864642D01*
X19275000Y-29035357D01*
X19289643Y-29050000D01*
X19700000Y-29050000D01*
X19709567Y-29051903D01*
X19717678Y-29057322D01*
X19723097Y-29065433D01*
X19725000Y-29075000D01*
X19725000Y-29325000D01*
X19723097Y-29334567D01*
X19717678Y-29342678D01*
X19709567Y-29348097D01*
X19700000Y-29350000D01*
X19289642Y-29350000D01*
X19275000Y-29364642D01*
X19275000Y-29535357D01*
X19289643Y-29550000D01*
X19700000Y-29550000D01*
X19709567Y-29551903D01*
X19717678Y-29557322D01*
X19723097Y-29565433D01*
X19725000Y-29575000D01*
X19725000Y-29825000D01*
X19723097Y-29834567D01*
X19717678Y-29842678D01*
X19709567Y-29848097D01*
X19700000Y-29850000D01*
X19289642Y-29850000D01*
X19275000Y-29864642D01*
X19275000Y-30035357D01*
X19289643Y-30050000D01*
X19700000Y-30050000D01*
X19709567Y-30051903D01*
X19717678Y-30057322D01*
X19723097Y-30065433D01*
X19725000Y-30075000D01*
X19725000Y-30325000D01*
X19723097Y-30334567D01*
X19717678Y-30342678D01*
X19709567Y-30348097D01*
X19700000Y-30350000D01*
X19000000Y-30350000D01*
X18990433Y-30348097D01*
X18982322Y-30342678D01*
X18976903Y-30334567D01*
X18975000Y-30325000D01*
X18975000Y-30075000D01*
X18975000Y-26075000D01*
X18976903Y-26065433D01*
X18982322Y-26057322D01*
X18990433Y-26051903D01*
X19000000Y-26050000D01*
X19250000Y-26050000D01*
X19700000Y-26050000D01*
X19709567Y-26051903D01*
G37*
G36*
X50527017Y-29075401D02*
G01*
X50587045Y-29082365D01*
X50607554Y-29091421D01*
X50630238Y-29095933D01*
X50654522Y-29112159D01*
X50680167Y-29123483D01*
X50697682Y-29140998D01*
X50719454Y-29155546D01*
X50734001Y-29177317D01*
X50751516Y-29194832D01*
X50762838Y-29220474D01*
X50779067Y-29244762D01*
X50783579Y-29267447D01*
X50792634Y-29287954D01*
X50799596Y-29347970D01*
X50800000Y-29350000D01*
X50800000Y-30050000D01*
X50799596Y-30052029D01*
X50792634Y-30112045D01*
X50783579Y-30132550D01*
X50779067Y-30155238D01*
X50762837Y-30179527D01*
X50751516Y-30205167D01*
X50734003Y-30222679D01*
X50719454Y-30244454D01*
X50697679Y-30259003D01*
X50680167Y-30276516D01*
X50654527Y-30287837D01*
X50630238Y-30304067D01*
X50607550Y-30308579D01*
X50587045Y-30317634D01*
X50527031Y-30324595D01*
X50525000Y-30325000D01*
X49225000Y-30325000D01*
X49222971Y-30324596D01*
X49162954Y-30317634D01*
X49142447Y-30308579D01*
X49119762Y-30304067D01*
X49095474Y-30287838D01*
X49069832Y-30276516D01*
X49052317Y-30259001D01*
X49030546Y-30244454D01*
X49015998Y-30222682D01*
X48998483Y-30205167D01*
X48987159Y-30179522D01*
X48970933Y-30155238D01*
X48966421Y-30132554D01*
X48957365Y-30112045D01*
X48950401Y-30052019D01*
X48950000Y-30050000D01*
X48950000Y-29350000D01*
X48950401Y-29347983D01*
X48957365Y-29287954D01*
X48966421Y-29267443D01*
X48970933Y-29244762D01*
X48987158Y-29220479D01*
X48998483Y-29194832D01*
X49016000Y-29177314D01*
X49030546Y-29155546D01*
X49052314Y-29141000D01*
X49069832Y-29123483D01*
X49095479Y-29112158D01*
X49119762Y-29095933D01*
X49142443Y-29091421D01*
X49162954Y-29082365D01*
X49222982Y-29075401D01*
X49225000Y-29075000D01*
X50525000Y-29075000D01*
X50527017Y-29075401D01*
G37*
G36*
X28084567Y-26451903D02*
G01*
X28092678Y-26457322D01*
X28098097Y-26465433D01*
X28100000Y-26475000D01*
X28100000Y-28435000D01*
X28098097Y-28444567D01*
X28092678Y-28452678D01*
X28084567Y-28458097D01*
X28075000Y-28460000D01*
X24925000Y-28460000D01*
X24915433Y-28458097D01*
X24907322Y-28452678D01*
X24901903Y-28444567D01*
X24900000Y-28435000D01*
X24900000Y-26475000D01*
X24901903Y-26465433D01*
X24907322Y-26457322D01*
X24915433Y-26451903D01*
X24925000Y-26450000D01*
X28075000Y-26450000D01*
X28084567Y-26451903D01*
G37*
G36*
X32604567Y-27576903D02*
G01*
X32612678Y-27582322D01*
X32618097Y-27590433D01*
X32620000Y-27600000D01*
X32620000Y-27900000D01*
X32618097Y-27909567D01*
X32612678Y-27917678D01*
X32604567Y-27923097D01*
X32595000Y-27925000D01*
X31925000Y-27925000D01*
X31915433Y-27923097D01*
X31907322Y-27917678D01*
X31901903Y-27909567D01*
X31900000Y-27900000D01*
X31900000Y-27600000D01*
X31901903Y-27590433D01*
X31907322Y-27582322D01*
X31915433Y-27576903D01*
X31925000Y-27575000D01*
X32595000Y-27575000D01*
X32604567Y-27576903D01*
G37*
G36*
X34084567Y-27576903D02*
G01*
X34092678Y-27582322D01*
X34098097Y-27590433D01*
X34100000Y-27600000D01*
X34100000Y-27900000D01*
X34098097Y-27909567D01*
X34092678Y-27917678D01*
X34084567Y-27923097D01*
X34075000Y-27925000D01*
X33405000Y-27925000D01*
X33395433Y-27923097D01*
X33387322Y-27917678D01*
X33381903Y-27909567D01*
X33380000Y-27900000D01*
X33380000Y-27600000D01*
X33381903Y-27590433D01*
X33387322Y-27582322D01*
X33395433Y-27576903D01*
X33405000Y-27575000D01*
X34075000Y-27575000D01*
X34084567Y-27576903D01*
G37*
G36*
X32604567Y-27076903D02*
G01*
X32612678Y-27082322D01*
X32618097Y-27090433D01*
X32620000Y-27100000D01*
X32620000Y-27400000D01*
X32618097Y-27409567D01*
X32612678Y-27417678D01*
X32604567Y-27423097D01*
X32595000Y-27425000D01*
X31925000Y-27425000D01*
X31915433Y-27423097D01*
X31907322Y-27417678D01*
X31901903Y-27409567D01*
X31900000Y-27400000D01*
X31900000Y-27100000D01*
X31901903Y-27090433D01*
X31907322Y-27082322D01*
X31915433Y-27076903D01*
X31925000Y-27075000D01*
X32595000Y-27075000D01*
X32604567Y-27076903D01*
G37*
G36*
X34084567Y-27076903D02*
G01*
X34092678Y-27082322D01*
X34098097Y-27090433D01*
X34100000Y-27100000D01*
X34100000Y-27400000D01*
X34098097Y-27409567D01*
X34092678Y-27417678D01*
X34084567Y-27423097D01*
X34075000Y-27425000D01*
X33405000Y-27425000D01*
X33395433Y-27423097D01*
X33387322Y-27417678D01*
X33381903Y-27409567D01*
X33380000Y-27400000D01*
X33380000Y-27100000D01*
X33381903Y-27090433D01*
X33387322Y-27082322D01*
X33395433Y-27076903D01*
X33405000Y-27075000D01*
X34075000Y-27075000D01*
X34084567Y-27076903D01*
G37*
G36*
X13009567Y-25551903D02*
G01*
X13017678Y-25557322D01*
X13023097Y-25565433D01*
X13025000Y-25575000D01*
X13025000Y-27325000D01*
X13023097Y-27334567D01*
X13017678Y-27342678D01*
X13009567Y-27348097D01*
X13000000Y-27350000D01*
X12750000Y-27350000D01*
X12300000Y-27350000D01*
X12290433Y-27348097D01*
X12282322Y-27342678D01*
X12276903Y-27334567D01*
X12275000Y-27325000D01*
X12275000Y-27075000D01*
X12276903Y-27065433D01*
X12282322Y-27057322D01*
X12290433Y-27051903D01*
X12300000Y-27050000D01*
X12710356Y-27050000D01*
X12725000Y-27035356D01*
X12725000Y-26864643D01*
X12710357Y-26850000D01*
X12300000Y-26850000D01*
X12290433Y-26848097D01*
X12282322Y-26842678D01*
X12276903Y-26834567D01*
X12275000Y-26825000D01*
X12275000Y-26575000D01*
X12276903Y-26565433D01*
X12282322Y-26557322D01*
X12290433Y-26551903D01*
X12300000Y-26550000D01*
X12710356Y-26550000D01*
X12725000Y-26535356D01*
X12725000Y-26364643D01*
X12710357Y-26350000D01*
X12300000Y-26350000D01*
X12290433Y-26348097D01*
X12282322Y-26342678D01*
X12276903Y-26334567D01*
X12275000Y-26325000D01*
X12275000Y-26075000D01*
X12276903Y-26065433D01*
X12282322Y-26057322D01*
X12290433Y-26051903D01*
X12300000Y-26050000D01*
X12710356Y-26050000D01*
X12725000Y-26035356D01*
X12725000Y-25864643D01*
X12710357Y-25850000D01*
X12300000Y-25850000D01*
X12290433Y-25848097D01*
X12282322Y-25842678D01*
X12276903Y-25834567D01*
X12275000Y-25825000D01*
X12275000Y-25575000D01*
X12276903Y-25565433D01*
X12282322Y-25557322D01*
X12290433Y-25551903D01*
X12300000Y-25550000D01*
X13000000Y-25550000D01*
X13009567Y-25551903D01*
G37*
G36*
X32604567Y-26576903D02*
G01*
X32612678Y-26582322D01*
X32618097Y-26590433D01*
X32620000Y-26600000D01*
X32620000Y-26900000D01*
X32618097Y-26909567D01*
X32612678Y-26917678D01*
X32604567Y-26923097D01*
X32595000Y-26925000D01*
X31925000Y-26925000D01*
X31915433Y-26923097D01*
X31907322Y-26917678D01*
X31901903Y-26909567D01*
X31900000Y-26900000D01*
X31900000Y-26600000D01*
X31901903Y-26590433D01*
X31907322Y-26582322D01*
X31915433Y-26576903D01*
X31925000Y-26575000D01*
X32595000Y-26575000D01*
X32604567Y-26576903D01*
G37*
G36*
X34084567Y-26576903D02*
G01*
X34092678Y-26582322D01*
X34098097Y-26590433D01*
X34100000Y-26600000D01*
X34100000Y-26900000D01*
X34098097Y-26909567D01*
X34092678Y-26917678D01*
X34084567Y-26923097D01*
X34075000Y-26925000D01*
X33405000Y-26925000D01*
X33395433Y-26923097D01*
X33387322Y-26917678D01*
X33381903Y-26909567D01*
X33380000Y-26900000D01*
X33380000Y-26600000D01*
X33381903Y-26590433D01*
X33387322Y-26582322D01*
X33395433Y-26576903D01*
X33405000Y-26575000D01*
X34075000Y-26575000D01*
X34084567Y-26576903D01*
G37*
G36*
X50527017Y-25675401D02*
G01*
X50587045Y-25682365D01*
X50607554Y-25691421D01*
X50630238Y-25695933D01*
X50654522Y-25712159D01*
X50680167Y-25723483D01*
X50697682Y-25740998D01*
X50719454Y-25755546D01*
X50734001Y-25777317D01*
X50751516Y-25794832D01*
X50762838Y-25820474D01*
X50779067Y-25844762D01*
X50783579Y-25867447D01*
X50792634Y-25887954D01*
X50799596Y-25947970D01*
X50800000Y-25950000D01*
X50800000Y-26650000D01*
X50799596Y-26652029D01*
X50792634Y-26712045D01*
X50783579Y-26732550D01*
X50779067Y-26755238D01*
X50762837Y-26779527D01*
X50751516Y-26805167D01*
X50734003Y-26822679D01*
X50719454Y-26844454D01*
X50697679Y-26859003D01*
X50680167Y-26876516D01*
X50654527Y-26887837D01*
X50630238Y-26904067D01*
X50607550Y-26908579D01*
X50587045Y-26917634D01*
X50527031Y-26924595D01*
X50525000Y-26925000D01*
X49225000Y-26925000D01*
X49222971Y-26924596D01*
X49162954Y-26917634D01*
X49142447Y-26908579D01*
X49119762Y-26904067D01*
X49095474Y-26887838D01*
X49069832Y-26876516D01*
X49052317Y-26859001D01*
X49030546Y-26844454D01*
X49015998Y-26822682D01*
X48998483Y-26805167D01*
X48987159Y-26779522D01*
X48970933Y-26755238D01*
X48966421Y-26732554D01*
X48957365Y-26712045D01*
X48950401Y-26652019D01*
X48950000Y-26650000D01*
X48950000Y-25950000D01*
X48950401Y-25947983D01*
X48957365Y-25887954D01*
X48966421Y-25867443D01*
X48970933Y-25844762D01*
X48987158Y-25820479D01*
X48998483Y-25794832D01*
X49016000Y-25777314D01*
X49030546Y-25755546D01*
X49052314Y-25741000D01*
X49069832Y-25723483D01*
X49095479Y-25712158D01*
X49119762Y-25695933D01*
X49142443Y-25691421D01*
X49162954Y-25682365D01*
X49222982Y-25675401D01*
X49225000Y-25675000D01*
X50525000Y-25675000D01*
X50527017Y-25675401D01*
G37*
G36*
X5852017Y-24125401D02*
G01*
X5912045Y-24132365D01*
X5932554Y-24141421D01*
X5955238Y-24145933D01*
X5979522Y-24162159D01*
X6005167Y-24173483D01*
X6022682Y-24190998D01*
X6044454Y-24205546D01*
X6059001Y-24227317D01*
X6076516Y-24244832D01*
X6087838Y-24270474D01*
X6104067Y-24294762D01*
X6108579Y-24317447D01*
X6117634Y-24337954D01*
X6124596Y-24397970D01*
X6125000Y-24400000D01*
X6125000Y-26600000D01*
X6124596Y-26602029D01*
X6117634Y-26662045D01*
X6108579Y-26682550D01*
X6104067Y-26705238D01*
X6087837Y-26729527D01*
X6076516Y-26755167D01*
X6059003Y-26772679D01*
X6044454Y-26794454D01*
X6022679Y-26809003D01*
X6005167Y-26826516D01*
X5979527Y-26837837D01*
X5955238Y-26854067D01*
X5932550Y-26858579D01*
X5912045Y-26867634D01*
X5852031Y-26874595D01*
X5850000Y-26875000D01*
X5200000Y-26875000D01*
X5197971Y-26874596D01*
X5137954Y-26867634D01*
X5117447Y-26858579D01*
X5094762Y-26854067D01*
X5070474Y-26837838D01*
X5044832Y-26826516D01*
X5027317Y-26809001D01*
X5005546Y-26794454D01*
X4990998Y-26772682D01*
X4973483Y-26755167D01*
X4962159Y-26729522D01*
X4945933Y-26705238D01*
X4941421Y-26682554D01*
X4932365Y-26662045D01*
X4925401Y-26602019D01*
X4925000Y-26600000D01*
X4925000Y-24400000D01*
X4925401Y-24397983D01*
X4932365Y-24337954D01*
X4941421Y-24317443D01*
X4945933Y-24294762D01*
X4962158Y-24270479D01*
X4973483Y-24244832D01*
X4991000Y-24227314D01*
X5005546Y-24205546D01*
X5027314Y-24191000D01*
X5044832Y-24173483D01*
X5070479Y-24162158D01*
X5094762Y-24145933D01*
X5117443Y-24141421D01*
X5137954Y-24132365D01*
X5197982Y-24125401D01*
X5200000Y-24125000D01*
X5850000Y-24125000D01*
X5852017Y-24125401D01*
G37*
G36*
X8802017Y-24125401D02*
G01*
X8862045Y-24132365D01*
X8882554Y-24141421D01*
X8905238Y-24145933D01*
X8929522Y-24162159D01*
X8955167Y-24173483D01*
X8972682Y-24190998D01*
X8994454Y-24205546D01*
X9009001Y-24227317D01*
X9026516Y-24244832D01*
X9037838Y-24270474D01*
X9054067Y-24294762D01*
X9058579Y-24317447D01*
X9067634Y-24337954D01*
X9074596Y-24397970D01*
X9075000Y-24400000D01*
X9075000Y-26600000D01*
X9074596Y-26602029D01*
X9067634Y-26662045D01*
X9058579Y-26682550D01*
X9054067Y-26705238D01*
X9037837Y-26729527D01*
X9026516Y-26755167D01*
X9009003Y-26772679D01*
X8994454Y-26794454D01*
X8972679Y-26809003D01*
X8955167Y-26826516D01*
X8929527Y-26837837D01*
X8905238Y-26854067D01*
X8882550Y-26858579D01*
X8862045Y-26867634D01*
X8802031Y-26874595D01*
X8800000Y-26875000D01*
X8150000Y-26875000D01*
X8147971Y-26874596D01*
X8087954Y-26867634D01*
X8067447Y-26858579D01*
X8044762Y-26854067D01*
X8020474Y-26837838D01*
X7994832Y-26826516D01*
X7977317Y-26809001D01*
X7955546Y-26794454D01*
X7940998Y-26772682D01*
X7923483Y-26755167D01*
X7912159Y-26729522D01*
X7895933Y-26705238D01*
X7891421Y-26682554D01*
X7882365Y-26662045D01*
X7875401Y-26602019D01*
X7875000Y-26600000D01*
X7875000Y-24400000D01*
X7875401Y-24397983D01*
X7882365Y-24337954D01*
X7891421Y-24317443D01*
X7895933Y-24294762D01*
X7912158Y-24270479D01*
X7923483Y-24244832D01*
X7941000Y-24227314D01*
X7955546Y-24205546D01*
X7977314Y-24191000D01*
X7994832Y-24173483D01*
X8020479Y-24162158D01*
X8044762Y-24145933D01*
X8067443Y-24141421D01*
X8087954Y-24132365D01*
X8147982Y-24125401D01*
X8150000Y-24125000D01*
X8800000Y-24125000D01*
X8802017Y-24125401D01*
G37*
G36*
X32604567Y-26076903D02*
G01*
X32612678Y-26082322D01*
X32618097Y-26090433D01*
X32620000Y-26100000D01*
X32620000Y-26400000D01*
X32618097Y-26409567D01*
X32612678Y-26417678D01*
X32604567Y-26423097D01*
X32595000Y-26425000D01*
X31925000Y-26425000D01*
X31915433Y-26423097D01*
X31907322Y-26417678D01*
X31901903Y-26409567D01*
X31900000Y-26400000D01*
X31900000Y-26100000D01*
X31901903Y-26090433D01*
X31907322Y-26082322D01*
X31915433Y-26076903D01*
X31925000Y-26075000D01*
X32595000Y-26075000D01*
X32604567Y-26076903D01*
G37*
G36*
X34084567Y-26076903D02*
G01*
X34092678Y-26082322D01*
X34098097Y-26090433D01*
X34100000Y-26100000D01*
X34100000Y-26400000D01*
X34098097Y-26409567D01*
X34092678Y-26417678D01*
X34084567Y-26423097D01*
X34075000Y-26425000D01*
X33405000Y-26425000D01*
X33395433Y-26423097D01*
X33387322Y-26417678D01*
X33381903Y-26409567D01*
X33380000Y-26400000D01*
X33380000Y-26100000D01*
X33381903Y-26090433D01*
X33387322Y-26082322D01*
X33395433Y-26076903D01*
X33405000Y-26075000D01*
X34075000Y-26075000D01*
X34084567Y-26076903D01*
G37*
G36*
X15239567Y-22276903D02*
G01*
X15247678Y-22282322D01*
X15253097Y-22290433D01*
X15255000Y-22300000D01*
X15255000Y-22710357D01*
X15269643Y-22725000D01*
X15440356Y-22725000D01*
X15455000Y-22710356D01*
X15455000Y-22302463D01*
X15455000Y-22300000D01*
X15456903Y-22290433D01*
X15462322Y-22282322D01*
X15470433Y-22276903D01*
X15480000Y-22275000D01*
X15730000Y-22275000D01*
X15739567Y-22276903D01*
X15747678Y-22282322D01*
X15753097Y-22290433D01*
X15755000Y-22300000D01*
X15755000Y-22710357D01*
X15769643Y-22725000D01*
X15940356Y-22725000D01*
X15955000Y-22710356D01*
X15955000Y-22302463D01*
X15955000Y-22300000D01*
X15956903Y-22290433D01*
X15962322Y-22282322D01*
X15970433Y-22276903D01*
X15980000Y-22275000D01*
X16230000Y-22275000D01*
X16239567Y-22276903D01*
X16247678Y-22282322D01*
X16253097Y-22290433D01*
X16255000Y-22300000D01*
X16255000Y-22710357D01*
X16269643Y-22725000D01*
X16405000Y-22725000D01*
X16414567Y-22726903D01*
X16422678Y-22732322D01*
X16428097Y-22740433D01*
X16430000Y-22750000D01*
X16430000Y-26230000D01*
X16428097Y-26239567D01*
X16422678Y-26247678D01*
X16414567Y-26253097D01*
X16405000Y-26255000D01*
X14805000Y-26255000D01*
X14795433Y-26253097D01*
X14787322Y-26247678D01*
X14781903Y-26239567D01*
X14780000Y-26230000D01*
X14780000Y-22750000D01*
X14781903Y-22740433D01*
X14787322Y-22732322D01*
X14795433Y-22726903D01*
X14805000Y-22725000D01*
X14940356Y-22725000D01*
X14955000Y-22710356D01*
X14955000Y-22302463D01*
X14955000Y-22300000D01*
X14956903Y-22290433D01*
X14962322Y-22282322D01*
X14970433Y-22276903D01*
X14980000Y-22275000D01*
X15230000Y-22275000D01*
X15239567Y-22276903D01*
G37*
G36*
X19709567Y-25051903D02*
G01*
X19717678Y-25057322D01*
X19723097Y-25065433D01*
X19725000Y-25075000D01*
X19725000Y-25325000D01*
X19723097Y-25334567D01*
X19717678Y-25342678D01*
X19709567Y-25348097D01*
X19700000Y-25350000D01*
X19289642Y-25350000D01*
X19275000Y-25364642D01*
X19275000Y-25535357D01*
X19289643Y-25550000D01*
X19700000Y-25550000D01*
X19709567Y-25551903D01*
X19717678Y-25557322D01*
X19723097Y-25565433D01*
X19725000Y-25575000D01*
X19725000Y-25825000D01*
X19723097Y-25834567D01*
X19717678Y-25842678D01*
X19709567Y-25848097D01*
X19700000Y-25850000D01*
X19000000Y-25850000D01*
X18990433Y-25848097D01*
X18982322Y-25842678D01*
X18976903Y-25834567D01*
X18975000Y-25825000D01*
X18975000Y-25575000D01*
X18975000Y-25075000D01*
X18976903Y-25065433D01*
X18982322Y-25057322D01*
X18990433Y-25051903D01*
X19000000Y-25050000D01*
X19250000Y-25050000D01*
X19700000Y-25050000D01*
X19709567Y-25051903D01*
G37*
G36*
X37302017Y-24250401D02*
G01*
X37362045Y-24257365D01*
X37382554Y-24266421D01*
X37405238Y-24270933D01*
X37429522Y-24287159D01*
X37455167Y-24298483D01*
X37472682Y-24315998D01*
X37494454Y-24330546D01*
X37509001Y-24352317D01*
X37526516Y-24369832D01*
X37537838Y-24395474D01*
X37554067Y-24419762D01*
X37558579Y-24442447D01*
X37567634Y-24462954D01*
X37574596Y-24522970D01*
X37575000Y-24525000D01*
X37575000Y-25475000D01*
X37574596Y-25477029D01*
X37567634Y-25537045D01*
X37558579Y-25557550D01*
X37554067Y-25580238D01*
X37537837Y-25604527D01*
X37526516Y-25630167D01*
X37509003Y-25647679D01*
X37494454Y-25669454D01*
X37472679Y-25684003D01*
X37455167Y-25701516D01*
X37429527Y-25712837D01*
X37405238Y-25729067D01*
X37382550Y-25733579D01*
X37362045Y-25742634D01*
X37302031Y-25749595D01*
X37300000Y-25750000D01*
X36800000Y-25750000D01*
X36797971Y-25749596D01*
X36737954Y-25742634D01*
X36717447Y-25733579D01*
X36694762Y-25729067D01*
X36670474Y-25712838D01*
X36644832Y-25701516D01*
X36627317Y-25684001D01*
X36605546Y-25669454D01*
X36590998Y-25647682D01*
X36573483Y-25630167D01*
X36562159Y-25604522D01*
X36545933Y-25580238D01*
X36541421Y-25557554D01*
X36532365Y-25537045D01*
X36525401Y-25477019D01*
X36525000Y-25475000D01*
X36525000Y-24525000D01*
X36525401Y-24522983D01*
X36532365Y-24462954D01*
X36541421Y-24442443D01*
X36545933Y-24419762D01*
X36562158Y-24395479D01*
X36573483Y-24369832D01*
X36591000Y-24352314D01*
X36605546Y-24330546D01*
X36627314Y-24316000D01*
X36644832Y-24298483D01*
X36670479Y-24287158D01*
X36694762Y-24270933D01*
X36717443Y-24266421D01*
X36737954Y-24257365D01*
X36797982Y-24250401D01*
X36800000Y-24250000D01*
X37300000Y-24250000D01*
X37302017Y-24250401D01*
G37*
G36*
X39202017Y-24250401D02*
G01*
X39262045Y-24257365D01*
X39282554Y-24266421D01*
X39305238Y-24270933D01*
X39329522Y-24287159D01*
X39355167Y-24298483D01*
X39372682Y-24315998D01*
X39394454Y-24330546D01*
X39409001Y-24352317D01*
X39426516Y-24369832D01*
X39437838Y-24395474D01*
X39454067Y-24419762D01*
X39458579Y-24442447D01*
X39467634Y-24462954D01*
X39474596Y-24522970D01*
X39475000Y-24525000D01*
X39475000Y-25475000D01*
X39474596Y-25477029D01*
X39467634Y-25537045D01*
X39458579Y-25557550D01*
X39454067Y-25580238D01*
X39437837Y-25604527D01*
X39426516Y-25630167D01*
X39409003Y-25647679D01*
X39394454Y-25669454D01*
X39372679Y-25684003D01*
X39355167Y-25701516D01*
X39329527Y-25712837D01*
X39305238Y-25729067D01*
X39282550Y-25733579D01*
X39262045Y-25742634D01*
X39202031Y-25749595D01*
X39200000Y-25750000D01*
X38700000Y-25750000D01*
X38697971Y-25749596D01*
X38637954Y-25742634D01*
X38617447Y-25733579D01*
X38594762Y-25729067D01*
X38570474Y-25712838D01*
X38544832Y-25701516D01*
X38527317Y-25684001D01*
X38505546Y-25669454D01*
X38490998Y-25647682D01*
X38473483Y-25630167D01*
X38462159Y-25604522D01*
X38445933Y-25580238D01*
X38441421Y-25557554D01*
X38432365Y-25537045D01*
X38425401Y-25477019D01*
X38425000Y-25475000D01*
X38425000Y-24525000D01*
X38425401Y-24522983D01*
X38432365Y-24462954D01*
X38441421Y-24442443D01*
X38445933Y-24419762D01*
X38462158Y-24395479D01*
X38473483Y-24369832D01*
X38491000Y-24352314D01*
X38505546Y-24330546D01*
X38527314Y-24316000D01*
X38544832Y-24298483D01*
X38570479Y-24287158D01*
X38594762Y-24270933D01*
X38617443Y-24266421D01*
X38637954Y-24257365D01*
X38697982Y-24250401D01*
X38700000Y-24250000D01*
X39200000Y-24250000D01*
X39202017Y-24250401D01*
G37*
G36*
X13009567Y-24551903D02*
G01*
X13017678Y-24557322D01*
X13023097Y-24565433D01*
X13023097Y-24565434D01*
X13025000Y-24575001D01*
X13025000Y-25325001D01*
X13023097Y-25334568D01*
X13017678Y-25342679D01*
X13009567Y-25348098D01*
X13000000Y-25350001D01*
X12750000Y-25350001D01*
X12749995Y-25350000D01*
X12300000Y-25350000D01*
X12290433Y-25348097D01*
X12282322Y-25342678D01*
X12276903Y-25334567D01*
X12275000Y-25325000D01*
X12275000Y-25075000D01*
X12276903Y-25065433D01*
X12282322Y-25057322D01*
X12290433Y-25051903D01*
X12300000Y-25050000D01*
X12710356Y-25050000D01*
X12725000Y-25035356D01*
X12725000Y-24864643D01*
X12710357Y-24850000D01*
X12300000Y-24850000D01*
X12290433Y-24848097D01*
X12282322Y-24842678D01*
X12276903Y-24834567D01*
X12275000Y-24825000D01*
X12275000Y-24575000D01*
X12276903Y-24565433D01*
X12282322Y-24557322D01*
X12290433Y-24551903D01*
X12300000Y-24550000D01*
X13000000Y-24550000D01*
X13009567Y-24551903D01*
G37*
G36*
X46691970Y-24688321D02*
G01*
X46748744Y-24726256D01*
X46786679Y-24783030D01*
X46800000Y-24850000D01*
X46800000Y-25150000D01*
X46786679Y-25216970D01*
X46748744Y-25273744D01*
X46691970Y-25311679D01*
X46625000Y-25325000D01*
X45375000Y-25325000D01*
X45308030Y-25311679D01*
X45251256Y-25273744D01*
X45213321Y-25216970D01*
X45200000Y-25150000D01*
X45200000Y-24850000D01*
X45213321Y-24783030D01*
X45251256Y-24726256D01*
X45308030Y-24688321D01*
X45375000Y-24675000D01*
X46625000Y-24675000D01*
X46691970Y-24688321D01*
G37*
G36*
X19709567Y-24051903D02*
G01*
X19717678Y-24057322D01*
X19723097Y-24065433D01*
X19725000Y-24075000D01*
X19725000Y-24325000D01*
X19723097Y-24334567D01*
X19717678Y-24342678D01*
X19709567Y-24348097D01*
X19700000Y-24350000D01*
X19289642Y-24350000D01*
X19275000Y-24364642D01*
X19275000Y-24535357D01*
X19289643Y-24550000D01*
X19700000Y-24550000D01*
X19709567Y-24551903D01*
X19717678Y-24557322D01*
X19723097Y-24565433D01*
X19725000Y-24575000D01*
X19725000Y-24825000D01*
X19723097Y-24834567D01*
X19717678Y-24842678D01*
X19709567Y-24848097D01*
X19700000Y-24850000D01*
X19000000Y-24850000D01*
X18990433Y-24848097D01*
X18982322Y-24842678D01*
X18976903Y-24834567D01*
X18975000Y-24825000D01*
X18975000Y-24575000D01*
X18975000Y-24075000D01*
X18976903Y-24065433D01*
X18982322Y-24057322D01*
X18990433Y-24051903D01*
X19000000Y-24050000D01*
X19250000Y-24050000D01*
X19700000Y-24050000D01*
X19709567Y-24051903D01*
G37*
G36*
X13009567Y-24051903D02*
G01*
X13017678Y-24057322D01*
X13023097Y-24065433D01*
X13025000Y-24075000D01*
X13025000Y-24325000D01*
X13023097Y-24334567D01*
X13017678Y-24342678D01*
X13009567Y-24348097D01*
X13000000Y-24350000D01*
X12300000Y-24350000D01*
X12290433Y-24348097D01*
X12282322Y-24342678D01*
X12276903Y-24334567D01*
X12275000Y-24325000D01*
X12275000Y-24075000D01*
X12276903Y-24065433D01*
X12282322Y-24057322D01*
X12290433Y-24051903D01*
X12300000Y-24050000D01*
X13000000Y-24050000D01*
X13009567Y-24051903D01*
G37*
G36*
X46691970Y-23688321D02*
G01*
X46748744Y-23726256D01*
X46786679Y-23783030D01*
X46800000Y-23850000D01*
X46800000Y-24150000D01*
X46786679Y-24216970D01*
X46748744Y-24273744D01*
X46691970Y-24311679D01*
X46625000Y-24325000D01*
X45375000Y-24325000D01*
X45308030Y-24311679D01*
X45251256Y-24273744D01*
X45213321Y-24216970D01*
X45200000Y-24150000D01*
X45200000Y-23850000D01*
X45213321Y-23783030D01*
X45251256Y-23726256D01*
X45308030Y-23688321D01*
X45375000Y-23675000D01*
X46625000Y-23675000D01*
X46691970Y-23688321D01*
G37*
G36*
X13009567Y-23551903D02*
G01*
X13017678Y-23557322D01*
X13023097Y-23565433D01*
X13025000Y-23575000D01*
X13025000Y-23825000D01*
X13023097Y-23834567D01*
X13017678Y-23842678D01*
X13009567Y-23848097D01*
X13000000Y-23850000D01*
X12300000Y-23850000D01*
X12290433Y-23848097D01*
X12282322Y-23842678D01*
X12276903Y-23834567D01*
X12275000Y-23825000D01*
X12275000Y-23575000D01*
X12276903Y-23565433D01*
X12282322Y-23557322D01*
X12290433Y-23551903D01*
X12300000Y-23550000D01*
X13000000Y-23550000D01*
X13009567Y-23551903D01*
G37*
G36*
X19709567Y-23551903D02*
G01*
X19717678Y-23557322D01*
X19723097Y-23565433D01*
X19725000Y-23575000D01*
X19725000Y-23825000D01*
X19723097Y-23834567D01*
X19717678Y-23842678D01*
X19709567Y-23848097D01*
X19700000Y-23850000D01*
X19000000Y-23850000D01*
X18990433Y-23848097D01*
X18982322Y-23842678D01*
X18976903Y-23834567D01*
X18975000Y-23825000D01*
X18975000Y-23575000D01*
X18976903Y-23565433D01*
X18982322Y-23557322D01*
X18990433Y-23551903D01*
X19000000Y-23550000D01*
X19700000Y-23550000D01*
X19709567Y-23551903D01*
G37*
G36*
X28084567Y-21541903D02*
G01*
X28092678Y-21547322D01*
X28098097Y-21555433D01*
X28100000Y-21565000D01*
X28100000Y-23525000D01*
X28098097Y-23534567D01*
X28092678Y-23542678D01*
X28084567Y-23548097D01*
X28075000Y-23550000D01*
X24925000Y-23550000D01*
X24915433Y-23548097D01*
X24907322Y-23542678D01*
X24901903Y-23534567D01*
X24900000Y-23525000D01*
X24900000Y-21565000D01*
X24901903Y-21555433D01*
X24907322Y-21547322D01*
X24915433Y-21541903D01*
X24925000Y-21540000D01*
X28075000Y-21540000D01*
X28084567Y-21541903D01*
G37*
G36*
X13359567Y-22276903D02*
G01*
X13367678Y-22282322D01*
X13373097Y-22290433D01*
X13375000Y-22300000D01*
X13375000Y-22752486D01*
X13375500Y-22755000D01*
X13375500Y-23375000D01*
X13373597Y-23384567D01*
X13368178Y-23392678D01*
X13360067Y-23398097D01*
X13350500Y-23400000D01*
X12755500Y-23400000D01*
X12745933Y-23398097D01*
X12737822Y-23392678D01*
X12732403Y-23384567D01*
X12730500Y-23375000D01*
X12730500Y-23372531D01*
X12729298Y-23366486D01*
X12725801Y-23359944D01*
X12719662Y-23353805D01*
X12710476Y-23350000D01*
X12300000Y-23350000D01*
X12290433Y-23348097D01*
X12282322Y-23342678D01*
X12276903Y-23334567D01*
X12275000Y-23325000D01*
X12275000Y-23075000D01*
X12276903Y-23065433D01*
X12282322Y-23057322D01*
X12290433Y-23051903D01*
X12300000Y-23050000D01*
X12715856Y-23050000D01*
X12730500Y-23035356D01*
X12730500Y-22757463D01*
X12730500Y-22755000D01*
X12732403Y-22745433D01*
X12737822Y-22737322D01*
X12745933Y-22731903D01*
X12755500Y-22730000D01*
X13060356Y-22730000D01*
X13075000Y-22715356D01*
X13075000Y-22302463D01*
X13075000Y-22300000D01*
X13076903Y-22290433D01*
X13082322Y-22282322D01*
X13090433Y-22276903D01*
X13100000Y-22275000D01*
X13350000Y-22275000D01*
X13359567Y-22276903D01*
G37*
G36*
X18909567Y-22276903D02*
G01*
X18917678Y-22282322D01*
X18923097Y-22290433D01*
X18925000Y-22300000D01*
X18925000Y-22715357D01*
X18939643Y-22730000D01*
X19244500Y-22730000D01*
X19254067Y-22731903D01*
X19262178Y-22737322D01*
X19267597Y-22745433D01*
X19269500Y-22755000D01*
X19269500Y-23035357D01*
X19284143Y-23050000D01*
X19700000Y-23050000D01*
X19709567Y-23051903D01*
X19717678Y-23057322D01*
X19723097Y-23065433D01*
X19725000Y-23075000D01*
X19725000Y-23325000D01*
X19723097Y-23334567D01*
X19717678Y-23342678D01*
X19709567Y-23348097D01*
X19700000Y-23350000D01*
X19280559Y-23350000D01*
X19269500Y-23367894D01*
X19269500Y-23375000D01*
X19267597Y-23384567D01*
X19262178Y-23392678D01*
X19254067Y-23398097D01*
X19244500Y-23400000D01*
X18649500Y-23400000D01*
X18639933Y-23398097D01*
X18631822Y-23392678D01*
X18626403Y-23384567D01*
X18624500Y-23375000D01*
X18624500Y-22755000D01*
X18625000Y-22752486D01*
X18625000Y-22302463D01*
X18625000Y-22300000D01*
X18626903Y-22290433D01*
X18632322Y-22282322D01*
X18640433Y-22276903D01*
X18650000Y-22275000D01*
X18900000Y-22275000D01*
X18909567Y-22276903D01*
G37*
G36*
X5852017Y-20625401D02*
G01*
X5912045Y-20632365D01*
X5932554Y-20641421D01*
X5955238Y-20645933D01*
X5979522Y-20662159D01*
X6005167Y-20673483D01*
X6022682Y-20690998D01*
X6044454Y-20705546D01*
X6059001Y-20727317D01*
X6076516Y-20744832D01*
X6087838Y-20770474D01*
X6104067Y-20794762D01*
X6108579Y-20817447D01*
X6117634Y-20837954D01*
X6124596Y-20897970D01*
X6125000Y-20900000D01*
X6125000Y-23100000D01*
X6124596Y-23102029D01*
X6117634Y-23162045D01*
X6108579Y-23182550D01*
X6104067Y-23205238D01*
X6087837Y-23229527D01*
X6076516Y-23255167D01*
X6059003Y-23272679D01*
X6044454Y-23294454D01*
X6022679Y-23309003D01*
X6005167Y-23326516D01*
X5979527Y-23337837D01*
X5955238Y-23354067D01*
X5932550Y-23358579D01*
X5912045Y-23367634D01*
X5852031Y-23374595D01*
X5850000Y-23375000D01*
X5200000Y-23375000D01*
X5197971Y-23374596D01*
X5137954Y-23367634D01*
X5117447Y-23358579D01*
X5094762Y-23354067D01*
X5070474Y-23337838D01*
X5044832Y-23326516D01*
X5027317Y-23309001D01*
X5005546Y-23294454D01*
X4990998Y-23272682D01*
X4973483Y-23255167D01*
X4962159Y-23229522D01*
X4945933Y-23205238D01*
X4941421Y-23182554D01*
X4932365Y-23162045D01*
X4925401Y-23102019D01*
X4925000Y-23100000D01*
X4925000Y-20900000D01*
X4925401Y-20897983D01*
X4932365Y-20837954D01*
X4941421Y-20817443D01*
X4945933Y-20794762D01*
X4962158Y-20770479D01*
X4973483Y-20744832D01*
X4991000Y-20727314D01*
X5005546Y-20705546D01*
X5027314Y-20691000D01*
X5044832Y-20673483D01*
X5070479Y-20662158D01*
X5094762Y-20645933D01*
X5117443Y-20641421D01*
X5137954Y-20632365D01*
X5197982Y-20625401D01*
X5200000Y-20625000D01*
X5850000Y-20625000D01*
X5852017Y-20625401D01*
G37*
G36*
X8802017Y-20625401D02*
G01*
X8862045Y-20632365D01*
X8882554Y-20641421D01*
X8905238Y-20645933D01*
X8929522Y-20662159D01*
X8955167Y-20673483D01*
X8972682Y-20690998D01*
X8994454Y-20705546D01*
X9009001Y-20727317D01*
X9026516Y-20744832D01*
X9037838Y-20770474D01*
X9054067Y-20794762D01*
X9058579Y-20817447D01*
X9067634Y-20837954D01*
X9074596Y-20897970D01*
X9075000Y-20900000D01*
X9075000Y-23100000D01*
X9074596Y-23102029D01*
X9067634Y-23162045D01*
X9058579Y-23182550D01*
X9054067Y-23205238D01*
X9037837Y-23229527D01*
X9026516Y-23255167D01*
X9009003Y-23272679D01*
X8994454Y-23294454D01*
X8972679Y-23309003D01*
X8955167Y-23326516D01*
X8929527Y-23337837D01*
X8905238Y-23354067D01*
X8882550Y-23358579D01*
X8862045Y-23367634D01*
X8802031Y-23374595D01*
X8800000Y-23375000D01*
X8150000Y-23375000D01*
X8147971Y-23374596D01*
X8087954Y-23367634D01*
X8067447Y-23358579D01*
X8044762Y-23354067D01*
X8020474Y-23337838D01*
X7994832Y-23326516D01*
X7977317Y-23309001D01*
X7955546Y-23294454D01*
X7940998Y-23272682D01*
X7923483Y-23255167D01*
X7912159Y-23229522D01*
X7895933Y-23205238D01*
X7891421Y-23182554D01*
X7882365Y-23162045D01*
X7875401Y-23102019D01*
X7875000Y-23100000D01*
X7875000Y-20900000D01*
X7875401Y-20897983D01*
X7882365Y-20837954D01*
X7891421Y-20817443D01*
X7895933Y-20794762D01*
X7912158Y-20770479D01*
X7923483Y-20744832D01*
X7941000Y-20727314D01*
X7955546Y-20705546D01*
X7977314Y-20691000D01*
X7994832Y-20673483D01*
X8020479Y-20662158D01*
X8044762Y-20645933D01*
X8067443Y-20641421D01*
X8087954Y-20632365D01*
X8147982Y-20625401D01*
X8150000Y-20625000D01*
X8800000Y-20625000D01*
X8802017Y-20625401D01*
G37*
G36*
X50527017Y-22075401D02*
G01*
X50587045Y-22082365D01*
X50607554Y-22091421D01*
X50630238Y-22095933D01*
X50654522Y-22112159D01*
X50680167Y-22123483D01*
X50697682Y-22140998D01*
X50719454Y-22155546D01*
X50734001Y-22177317D01*
X50751516Y-22194832D01*
X50762838Y-22220474D01*
X50779067Y-22244762D01*
X50783579Y-22267447D01*
X50792634Y-22287954D01*
X50799596Y-22347970D01*
X50800000Y-22350000D01*
X50800000Y-23050000D01*
X50799596Y-23052029D01*
X50792634Y-23112045D01*
X50783579Y-23132550D01*
X50779067Y-23155238D01*
X50762837Y-23179527D01*
X50751516Y-23205167D01*
X50734003Y-23222679D01*
X50719454Y-23244454D01*
X50697679Y-23259003D01*
X50680167Y-23276516D01*
X50654527Y-23287837D01*
X50630238Y-23304067D01*
X50607550Y-23308579D01*
X50587045Y-23317634D01*
X50527031Y-23324595D01*
X50525000Y-23325000D01*
X49225000Y-23325000D01*
X49222971Y-23324596D01*
X49162954Y-23317634D01*
X49142447Y-23308579D01*
X49119762Y-23304067D01*
X49095474Y-23287838D01*
X49069832Y-23276516D01*
X49052317Y-23259001D01*
X49030546Y-23244454D01*
X49015998Y-23222682D01*
X48998483Y-23205167D01*
X48987159Y-23179522D01*
X48970933Y-23155238D01*
X48966421Y-23132554D01*
X48957365Y-23112045D01*
X48950401Y-23052019D01*
X48950000Y-23050000D01*
X48950000Y-22350000D01*
X48950401Y-22347983D01*
X48957365Y-22287954D01*
X48966421Y-22267443D01*
X48970933Y-22244762D01*
X48987158Y-22220479D01*
X48998483Y-22194832D01*
X49016000Y-22177314D01*
X49030546Y-22155546D01*
X49052314Y-22141000D01*
X49069832Y-22123483D01*
X49095479Y-22112158D01*
X49119762Y-22095933D01*
X49142443Y-22091421D01*
X49162954Y-22082365D01*
X49222982Y-22075401D01*
X49225000Y-22075000D01*
X50525000Y-22075000D01*
X50527017Y-22075401D01*
G37*
G36*
X17484567Y-22276903D02*
G01*
X17492678Y-22282322D01*
X17498097Y-22290433D01*
X17500000Y-22300000D01*
X17500000Y-23000000D01*
X17498097Y-23009567D01*
X17492678Y-23017678D01*
X17484567Y-23023097D01*
X17475000Y-23025000D01*
X17225000Y-23025000D01*
X17215433Y-23023097D01*
X17207322Y-23017678D01*
X17201903Y-23009567D01*
X17200000Y-23000000D01*
X17200000Y-22300000D01*
X17201903Y-22290433D01*
X17207322Y-22282322D01*
X17215433Y-22276903D01*
X17225000Y-22275000D01*
X17475000Y-22275000D01*
X17484567Y-22276903D01*
G37*
G36*
X17984567Y-22276903D02*
G01*
X17992678Y-22282322D01*
X17998097Y-22290433D01*
X18000000Y-22300000D01*
X18000000Y-23000000D01*
X17998097Y-23009567D01*
X17992678Y-23017678D01*
X17984567Y-23023097D01*
X17975000Y-23025000D01*
X17725000Y-23025000D01*
X17715433Y-23023097D01*
X17707322Y-23017678D01*
X17701903Y-23009567D01*
X17700000Y-23000000D01*
X17700000Y-22300000D01*
X17701903Y-22290433D01*
X17707322Y-22282322D01*
X17715433Y-22276903D01*
X17725000Y-22275000D01*
X17975000Y-22275000D01*
X17984567Y-22276903D01*
G37*
G36*
X32506706Y-17017740D02*
G01*
X32837427Y-17093225D01*
X33157617Y-17205264D01*
X33463250Y-17352449D01*
X33750481Y-17532928D01*
X34015698Y-17744432D01*
X34255568Y-17984302D01*
X34467072Y-18249519D01*
X34647551Y-18536750D01*
X34794736Y-18842383D01*
X34906775Y-19162573D01*
X34982260Y-19493294D01*
X35020241Y-19830387D01*
X35020241Y-20169613D01*
X34982260Y-20506706D01*
X34906775Y-20837427D01*
X34794736Y-21157617D01*
X34647551Y-21463250D01*
X34467072Y-21750481D01*
X34255568Y-22015698D01*
X34015698Y-22255568D01*
X33750481Y-22467072D01*
X33463250Y-22647551D01*
X33157617Y-22794736D01*
X32837427Y-22906775D01*
X32506706Y-22982260D01*
X32169613Y-23020241D01*
X31830387Y-23020241D01*
X31493294Y-22982260D01*
X31162573Y-22906775D01*
X30842383Y-22794736D01*
X30536750Y-22647551D01*
X30249519Y-22467072D01*
X29984302Y-22255568D01*
X29744432Y-22015698D01*
X29532928Y-21750481D01*
X29352449Y-21463250D01*
X29205264Y-21157617D01*
X29093225Y-20837427D01*
X29017740Y-20506706D01*
X28979759Y-20169613D01*
X28979759Y-19830387D01*
X29017740Y-19493294D01*
X29093225Y-19162573D01*
X29205264Y-18842383D01*
X29352449Y-18536750D01*
X29532928Y-18249519D01*
X29744432Y-17984302D01*
X29984302Y-17744432D01*
X30249519Y-17532928D01*
X30536750Y-17352449D01*
X30842383Y-17205264D01*
X31162573Y-17093225D01*
X31493294Y-17017740D01*
X31830387Y-16979759D01*
X32169613Y-16979759D01*
X32506706Y-17017740D01*
G37*
G36*
X40506706Y-17017740D02*
G01*
X40837427Y-17093225D01*
X41157617Y-17205264D01*
X41463250Y-17352449D01*
X41750481Y-17532928D01*
X42015698Y-17744432D01*
X42255568Y-17984302D01*
X42467072Y-18249519D01*
X42647551Y-18536750D01*
X42794736Y-18842383D01*
X42906775Y-19162573D01*
X42982260Y-19493294D01*
X43020241Y-19830387D01*
X43020241Y-20169613D01*
X42982260Y-20506706D01*
X42906775Y-20837427D01*
X42794736Y-21157617D01*
X42647551Y-21463250D01*
X42467072Y-21750481D01*
X42255568Y-22015698D01*
X42015698Y-22255568D01*
X41750481Y-22467072D01*
X41463250Y-22647551D01*
X41157617Y-22794736D01*
X40837427Y-22906775D01*
X40506706Y-22982260D01*
X40169613Y-23020241D01*
X39830387Y-23020241D01*
X39493294Y-22982260D01*
X39162573Y-22906775D01*
X38842383Y-22794736D01*
X38536750Y-22647551D01*
X38249519Y-22467072D01*
X37984302Y-22255568D01*
X37744432Y-22015698D01*
X37532928Y-21750481D01*
X37352449Y-21463250D01*
X37205264Y-21157617D01*
X37093225Y-20837427D01*
X37017740Y-20506706D01*
X36979759Y-20169613D01*
X36979759Y-19830387D01*
X37017740Y-19493294D01*
X37093225Y-19162573D01*
X37205264Y-18842383D01*
X37352449Y-18536750D01*
X37532928Y-18249519D01*
X37744432Y-17984302D01*
X37984302Y-17744432D01*
X38249519Y-17532928D01*
X38536750Y-17352449D01*
X38842383Y-17205264D01*
X39162573Y-17093225D01*
X39493294Y-17017740D01*
X39830387Y-16979759D01*
X40169613Y-16979759D01*
X40506706Y-17017740D01*
G37*
G36*
X17545671Y-20519030D02*
G01*
X17626777Y-20573223D01*
X17680970Y-20654329D01*
X17700000Y-20750000D01*
X17700000Y-21250000D01*
X17680970Y-21345671D01*
X17626777Y-21426777D01*
X17545671Y-21480970D01*
X17450000Y-21500000D01*
X17000000Y-21500000D01*
X16904329Y-21480970D01*
X16823223Y-21426777D01*
X16769030Y-21345671D01*
X16750000Y-21250000D01*
X16750000Y-20750000D01*
X16769030Y-20654329D01*
X16823223Y-20573223D01*
X16904329Y-20519030D01*
X17000000Y-20500000D01*
X17450000Y-20500000D01*
X17545671Y-20519030D01*
G37*
G36*
X19095671Y-20519030D02*
G01*
X19176777Y-20573223D01*
X19230970Y-20654329D01*
X19250000Y-20750000D01*
X19250000Y-21250000D01*
X19230970Y-21345671D01*
X19176777Y-21426777D01*
X19095671Y-21480970D01*
X19000000Y-21500000D01*
X18550000Y-21500000D01*
X18454329Y-21480970D01*
X18373223Y-21426777D01*
X18319030Y-21345671D01*
X18300000Y-21250000D01*
X18300000Y-20750000D01*
X18319030Y-20654329D01*
X18373223Y-20573223D01*
X18454329Y-20519030D01*
X18550000Y-20500000D01*
X19000000Y-20500000D01*
X19095671Y-20519030D01*
G37*
G36*
X50527017Y-19175401D02*
G01*
X50587045Y-19182365D01*
X50607554Y-19191421D01*
X50630238Y-19195933D01*
X50654522Y-19212159D01*
X50680167Y-19223483D01*
X50697682Y-19240998D01*
X50719454Y-19255546D01*
X50734001Y-19277317D01*
X50751516Y-19294832D01*
X50762838Y-19320474D01*
X50779067Y-19344762D01*
X50783579Y-19367447D01*
X50792634Y-19387954D01*
X50799596Y-19447970D01*
X50800000Y-19450000D01*
X50800000Y-20150000D01*
X50799596Y-20152029D01*
X50792634Y-20212045D01*
X50783579Y-20232550D01*
X50779067Y-20255238D01*
X50762837Y-20279527D01*
X50751516Y-20305167D01*
X50734003Y-20322679D01*
X50719454Y-20344454D01*
X50697679Y-20359003D01*
X50680167Y-20376516D01*
X50654527Y-20387837D01*
X50630238Y-20404067D01*
X50607550Y-20408579D01*
X50587045Y-20417634D01*
X50527031Y-20424595D01*
X50525000Y-20425000D01*
X49225000Y-20425000D01*
X49222971Y-20424596D01*
X49162954Y-20417634D01*
X49142447Y-20408579D01*
X49119762Y-20404067D01*
X49095474Y-20387838D01*
X49069832Y-20376516D01*
X49052317Y-20359001D01*
X49030546Y-20344454D01*
X49015998Y-20322682D01*
X48998483Y-20305167D01*
X48987159Y-20279522D01*
X48970933Y-20255238D01*
X48966421Y-20232554D01*
X48957365Y-20212045D01*
X48950401Y-20152019D01*
X48950000Y-20150000D01*
X48950000Y-19450000D01*
X48950401Y-19447983D01*
X48957365Y-19387954D01*
X48966421Y-19367443D01*
X48970933Y-19344762D01*
X48987158Y-19320479D01*
X48998483Y-19294832D01*
X49016000Y-19277314D01*
X49030546Y-19255546D01*
X49052314Y-19241000D01*
X49069832Y-19223483D01*
X49095479Y-19212158D01*
X49119762Y-19195933D01*
X49142443Y-19191421D01*
X49162954Y-19182365D01*
X49222982Y-19175401D01*
X49225000Y-19175000D01*
X50525000Y-19175000D01*
X50527017Y-19175401D01*
G37*
G36*
X24506706Y-14017740D02*
G01*
X24837427Y-14093225D01*
X25157617Y-14205264D01*
X25463250Y-14352449D01*
X25750481Y-14532928D01*
X26015698Y-14744432D01*
X26255568Y-14984302D01*
X26467072Y-15249519D01*
X26647551Y-15536750D01*
X26794736Y-15842383D01*
X26906775Y-16162573D01*
X26982260Y-16493294D01*
X27020241Y-16830387D01*
X27020241Y-17169613D01*
X26982260Y-17506706D01*
X26906775Y-17837427D01*
X26794736Y-18157617D01*
X26647551Y-18463250D01*
X26467072Y-18750481D01*
X26255568Y-19015698D01*
X26015698Y-19255568D01*
X25750481Y-19467072D01*
X25463250Y-19647551D01*
X25157617Y-19794736D01*
X24837427Y-19906775D01*
X24506706Y-19982260D01*
X24169613Y-20020241D01*
X23830387Y-20020241D01*
X23493294Y-19982260D01*
X23162573Y-19906775D01*
X22842383Y-19794736D01*
X22536750Y-19647551D01*
X22249519Y-19467072D01*
X21984302Y-19255568D01*
X21744432Y-19015698D01*
X21532928Y-18750481D01*
X21352449Y-18463250D01*
X21205264Y-18157617D01*
X21093225Y-17837427D01*
X21017740Y-17506706D01*
X20979759Y-17169613D01*
X20979759Y-16830387D01*
X21017740Y-16493294D01*
X21093225Y-16162573D01*
X21205264Y-15842383D01*
X21352449Y-15536750D01*
X21532928Y-15249519D01*
X21744432Y-14984302D01*
X21984302Y-14744432D01*
X22249519Y-14532928D01*
X22536750Y-14352449D01*
X22842383Y-14205264D01*
X23162573Y-14093225D01*
X23493294Y-14017740D01*
X23830387Y-13979759D01*
X24169613Y-13979759D01*
X24506706Y-14017740D01*
G37*
G36*
X17461104Y-18517127D02*
G01*
X17534099Y-18565901D01*
X17582873Y-18638896D01*
X17600000Y-18725000D01*
X17600000Y-19275000D01*
X17582873Y-19361104D01*
X17534099Y-19434099D01*
X17461104Y-19482873D01*
X17375000Y-19500000D01*
X16975000Y-19500000D01*
X16888896Y-19482873D01*
X16815901Y-19434099D01*
X16767127Y-19361104D01*
X16750000Y-19275000D01*
X16750000Y-18725000D01*
X16767127Y-18638896D01*
X16815901Y-18565901D01*
X16888896Y-18517127D01*
X16975000Y-18500000D01*
X17375000Y-18500000D01*
X17461104Y-18517127D01*
G37*
G36*
X19111104Y-18517127D02*
G01*
X19184099Y-18565901D01*
X19232873Y-18638896D01*
X19250000Y-18725000D01*
X19250000Y-19275000D01*
X19232873Y-19361104D01*
X19184099Y-19434099D01*
X19111104Y-19482873D01*
X19025000Y-19500000D01*
X18625000Y-19500000D01*
X18538896Y-19482873D01*
X18465901Y-19434099D01*
X18417127Y-19361104D01*
X18400000Y-19275000D01*
X18400000Y-18725000D01*
X18417127Y-18638896D01*
X18465901Y-18565901D01*
X18538896Y-18517127D01*
X18625000Y-18500000D01*
X19025000Y-18500000D01*
X19111104Y-18517127D01*
G37*
G36*
X5506706Y-13017740D02*
G01*
X5837427Y-13093225D01*
X6157617Y-13205264D01*
X6463250Y-13352449D01*
X6750481Y-13532928D01*
X7015698Y-13744432D01*
X7255568Y-13984302D01*
X7467072Y-14249519D01*
X7647551Y-14536750D01*
X7794736Y-14842383D01*
X7906775Y-15162573D01*
X7982260Y-15493294D01*
X8020241Y-15830387D01*
X8020241Y-16169613D01*
X7982260Y-16506706D01*
X7906775Y-16837427D01*
X7794736Y-17157617D01*
X7647551Y-17463250D01*
X7467072Y-17750481D01*
X7255568Y-18015698D01*
X7015698Y-18255568D01*
X6750481Y-18467072D01*
X6463250Y-18647551D01*
X6157617Y-18794736D01*
X5837427Y-18906775D01*
X5506706Y-18982260D01*
X5169613Y-19020241D01*
X4830387Y-19020241D01*
X4493294Y-18982260D01*
X4162573Y-18906775D01*
X3842383Y-18794736D01*
X3536750Y-18647551D01*
X3249519Y-18467072D01*
X2984302Y-18255568D01*
X2744432Y-18015698D01*
X2532928Y-17750481D01*
X2352449Y-17463250D01*
X2205264Y-17157617D01*
X2093225Y-16837427D01*
X2017740Y-16506706D01*
X1979759Y-16169613D01*
X1979759Y-15830387D01*
X2017740Y-15493294D01*
X2093225Y-15162573D01*
X2205264Y-14842383D01*
X2352449Y-14536750D01*
X2532928Y-14249519D01*
X2744432Y-13984302D01*
X2984302Y-13744432D01*
X3249519Y-13532928D01*
X3536750Y-13352449D01*
X3842383Y-13205264D01*
X4162573Y-13093225D01*
X4493294Y-13017740D01*
X4830387Y-12979759D01*
X5169613Y-12979759D01*
X5506706Y-13017740D01*
G37*
G36*
X46691970Y-18188321D02*
G01*
X46748744Y-18226256D01*
X46786679Y-18283030D01*
X46800000Y-18350000D01*
X46800000Y-18650000D01*
X46786679Y-18716970D01*
X46748744Y-18773744D01*
X46691970Y-18811679D01*
X46625000Y-18825000D01*
X45375000Y-18825000D01*
X45308030Y-18811679D01*
X45251256Y-18773744D01*
X45213321Y-18716970D01*
X45200000Y-18650000D01*
X45200000Y-18350000D01*
X45213321Y-18283030D01*
X45251256Y-18226256D01*
X45308030Y-18188321D01*
X45375000Y-18175000D01*
X46625000Y-18175000D01*
X46691970Y-18188321D01*
G37*
G36*
X46691970Y-17188321D02*
G01*
X46748744Y-17226256D01*
X46786679Y-17283030D01*
X46800000Y-17350000D01*
X46800000Y-17650000D01*
X46786679Y-17716970D01*
X46748744Y-17773744D01*
X46691970Y-17811679D01*
X46625000Y-17825000D01*
X45375000Y-17825000D01*
X45308030Y-17811679D01*
X45251256Y-17773744D01*
X45213321Y-17716970D01*
X45200000Y-17650000D01*
X45200000Y-17350000D01*
X45213321Y-17283030D01*
X45251256Y-17226256D01*
X45308030Y-17188321D01*
X45375000Y-17175000D01*
X46625000Y-17175000D01*
X46691970Y-17188321D01*
G37*
G36*
X46691970Y-16188321D02*
G01*
X46748744Y-16226256D01*
X46786679Y-16283030D01*
X46800000Y-16350000D01*
X46800000Y-16650000D01*
X46786679Y-16716970D01*
X46748744Y-16773744D01*
X46691970Y-16811679D01*
X46625000Y-16825000D01*
X45375000Y-16825000D01*
X45308030Y-16811679D01*
X45251256Y-16773744D01*
X45213321Y-16716970D01*
X45200000Y-16650000D01*
X45200000Y-16350000D01*
X45213321Y-16283030D01*
X45251256Y-16226256D01*
X45308030Y-16188321D01*
X45375000Y-16175000D01*
X46625000Y-16175000D01*
X46691970Y-16188321D01*
G37*
G36*
X32506706Y-10017740D02*
G01*
X32837427Y-10093225D01*
X33157617Y-10205264D01*
X33463250Y-10352449D01*
X33750481Y-10532928D01*
X34015698Y-10744432D01*
X34255568Y-10984302D01*
X34467072Y-11249519D01*
X34647551Y-11536750D01*
X34794736Y-11842383D01*
X34906775Y-12162573D01*
X34982260Y-12493294D01*
X35020241Y-12830387D01*
X35020241Y-13169613D01*
X34982260Y-13506706D01*
X34906775Y-13837427D01*
X34794736Y-14157617D01*
X34647551Y-14463250D01*
X34467072Y-14750481D01*
X34255568Y-15015698D01*
X34015698Y-15255568D01*
X33750481Y-15467072D01*
X33463250Y-15647551D01*
X33157617Y-15794736D01*
X32837427Y-15906775D01*
X32506706Y-15982260D01*
X32169613Y-16020241D01*
X31830387Y-16020241D01*
X31493294Y-15982260D01*
X31162573Y-15906775D01*
X30842383Y-15794736D01*
X30536750Y-15647551D01*
X30249519Y-15467072D01*
X29984302Y-15255568D01*
X29744432Y-15015698D01*
X29532928Y-14750481D01*
X29352449Y-14463250D01*
X29205264Y-14157617D01*
X29093225Y-13837427D01*
X29017740Y-13506706D01*
X28979759Y-13169613D01*
X28979759Y-12830387D01*
X29017740Y-12493294D01*
X29093225Y-12162573D01*
X29205264Y-11842383D01*
X29352449Y-11536750D01*
X29532928Y-11249519D01*
X29744432Y-10984302D01*
X29984302Y-10744432D01*
X30249519Y-10532928D01*
X30536750Y-10352449D01*
X30842383Y-10205264D01*
X31162573Y-10093225D01*
X31493294Y-10017740D01*
X31830387Y-9979759D01*
X32169613Y-9979759D01*
X32506706Y-10017740D01*
G37*
G36*
X40506706Y-10017740D02*
G01*
X40837427Y-10093225D01*
X41157617Y-10205264D01*
X41463250Y-10352449D01*
X41750481Y-10532928D01*
X42015698Y-10744432D01*
X42255568Y-10984302D01*
X42467072Y-11249519D01*
X42647551Y-11536750D01*
X42794736Y-11842383D01*
X42906775Y-12162573D01*
X42982260Y-12493294D01*
X43020241Y-12830387D01*
X43020241Y-13169613D01*
X42982260Y-13506706D01*
X42906775Y-13837427D01*
X42794736Y-14157617D01*
X42647551Y-14463250D01*
X42467072Y-14750481D01*
X42255568Y-15015698D01*
X42015698Y-15255568D01*
X41750481Y-15467072D01*
X41463250Y-15647551D01*
X41157617Y-15794736D01*
X40837427Y-15906775D01*
X40506706Y-15982260D01*
X40169613Y-16020241D01*
X39830387Y-16020241D01*
X39493294Y-15982260D01*
X39162573Y-15906775D01*
X38842383Y-15794736D01*
X38536750Y-15647551D01*
X38249519Y-15467072D01*
X37984302Y-15255568D01*
X37744432Y-15015698D01*
X37532928Y-14750481D01*
X37352449Y-14463250D01*
X37205264Y-14157617D01*
X37093225Y-13837427D01*
X37017740Y-13506706D01*
X36979759Y-13169613D01*
X36979759Y-12830387D01*
X37017740Y-12493294D01*
X37093225Y-12162573D01*
X37205264Y-11842383D01*
X37352449Y-11536750D01*
X37532928Y-11249519D01*
X37744432Y-10984302D01*
X37984302Y-10744432D01*
X38249519Y-10532928D01*
X38536750Y-10352449D01*
X38842383Y-10205264D01*
X39162573Y-10093225D01*
X39493294Y-10017740D01*
X39830387Y-9979759D01*
X40169613Y-9979759D01*
X40506706Y-10017740D01*
G37*
G36*
X46691970Y-15188321D02*
G01*
X46748744Y-15226256D01*
X46786679Y-15283030D01*
X46800000Y-15350000D01*
X46800000Y-15650000D01*
X46786679Y-15716970D01*
X46748744Y-15773744D01*
X46691970Y-15811679D01*
X46625000Y-15825000D01*
X45375000Y-15825000D01*
X45308030Y-15811679D01*
X45251256Y-15773744D01*
X45213321Y-15716970D01*
X45200000Y-15650000D01*
X45200000Y-15350000D01*
X45213321Y-15283030D01*
X45251256Y-15226256D01*
X45308030Y-15188321D01*
X45375000Y-15175000D01*
X46625000Y-15175000D01*
X46691970Y-15188321D01*
G37*
G36*
X46691970Y-14188321D02*
G01*
X46748744Y-14226256D01*
X46786679Y-14283030D01*
X46800000Y-14350000D01*
X46800000Y-14650000D01*
X46786679Y-14716970D01*
X46748744Y-14773744D01*
X46691970Y-14811679D01*
X46625000Y-14825000D01*
X45375000Y-14825000D01*
X45308030Y-14811679D01*
X45251256Y-14773744D01*
X45213321Y-14716970D01*
X45200000Y-14650000D01*
X45200000Y-14350000D01*
X45213321Y-14283030D01*
X45251256Y-14226256D01*
X45308030Y-14188321D01*
X45375000Y-14175000D01*
X46625000Y-14175000D01*
X46691970Y-14188321D01*
G37*
G36*
X46691970Y-13188321D02*
G01*
X46748744Y-13226256D01*
X46786679Y-13283030D01*
X46800000Y-13350000D01*
X46800000Y-13650000D01*
X46786679Y-13716970D01*
X46748744Y-13773744D01*
X46691970Y-13811679D01*
X46625000Y-13825000D01*
X45375000Y-13825000D01*
X45308030Y-13811679D01*
X45251256Y-13773744D01*
X45213321Y-13716970D01*
X45200000Y-13650000D01*
X45200000Y-13350000D01*
X45213321Y-13283030D01*
X45251256Y-13226256D01*
X45308030Y-13188321D01*
X45375000Y-13175000D01*
X46625000Y-13175000D01*
X46691970Y-13188321D01*
G37*
G36*
X46691970Y-12188321D02*
G01*
X46748744Y-12226256D01*
X46786679Y-12283030D01*
X46800000Y-12350000D01*
X46800000Y-12650000D01*
X46786679Y-12716970D01*
X46748744Y-12773744D01*
X46691970Y-12811679D01*
X46625000Y-12825000D01*
X45375000Y-12825000D01*
X45308030Y-12811679D01*
X45251256Y-12773744D01*
X45213321Y-12716970D01*
X45200000Y-12650000D01*
X45200000Y-12350000D01*
X45213321Y-12283030D01*
X45251256Y-12226256D01*
X45308030Y-12188321D01*
X45375000Y-12175000D01*
X46625000Y-12175000D01*
X46691970Y-12188321D01*
G37*
G36*
X12889567Y-11831903D02*
G01*
X12897678Y-11837322D01*
X12903097Y-11845433D01*
X12905000Y-11855000D01*
X12905000Y-12745000D01*
X12903097Y-12754567D01*
X12897678Y-12762678D01*
X12889567Y-12768097D01*
X12880000Y-12770000D01*
X10190000Y-12770000D01*
X10180433Y-12768097D01*
X10172322Y-12762678D01*
X10166903Y-12754567D01*
X10165000Y-12745000D01*
X10165000Y-11855000D01*
X10166903Y-11845433D01*
X10172322Y-11837322D01*
X10180433Y-11831903D01*
X10190000Y-11830000D01*
X12880000Y-11830000D01*
X12889567Y-11831903D01*
G37*
G36*
X17819567Y-11831903D02*
G01*
X17827678Y-11837322D01*
X17833097Y-11845433D01*
X17835000Y-11855000D01*
X17835000Y-12745000D01*
X17833097Y-12754567D01*
X17827678Y-12762678D01*
X17819567Y-12768097D01*
X17810000Y-12770000D01*
X15120000Y-12770000D01*
X15110433Y-12768097D01*
X15102322Y-12762678D01*
X15096903Y-12754567D01*
X15095000Y-12745000D01*
X15095000Y-11855000D01*
X15096903Y-11845433D01*
X15102322Y-11837322D01*
X15110433Y-11831903D01*
X15120000Y-11830000D01*
X17810000Y-11830000D01*
X17819567Y-11831903D01*
G37*
G36*
X5506706Y-6017740D02*
G01*
X5837427Y-6093225D01*
X6157617Y-6205264D01*
X6463250Y-6352449D01*
X6750481Y-6532928D01*
X7015698Y-6744432D01*
X7255568Y-6984302D01*
X7467072Y-7249519D01*
X7647551Y-7536750D01*
X7794736Y-7842383D01*
X7906775Y-8162573D01*
X7982260Y-8493294D01*
X8020241Y-8830387D01*
X8020241Y-9169613D01*
X7982260Y-9506706D01*
X7906775Y-9837427D01*
X7794736Y-10157617D01*
X7647551Y-10463250D01*
X7467072Y-10750481D01*
X7255568Y-11015698D01*
X7015698Y-11255568D01*
X6750481Y-11467072D01*
X6463250Y-11647551D01*
X6157617Y-11794736D01*
X5837427Y-11906775D01*
X5506706Y-11982260D01*
X5169613Y-12020241D01*
X4830387Y-12020241D01*
X4493294Y-11982260D01*
X4162573Y-11906775D01*
X3842383Y-11794736D01*
X3536750Y-11647551D01*
X3249519Y-11467072D01*
X2984302Y-11255568D01*
X2744432Y-11015698D01*
X2532928Y-10750481D01*
X2352449Y-10463250D01*
X2205264Y-10157617D01*
X2093225Y-9837427D01*
X2017740Y-9506706D01*
X1979759Y-9169613D01*
X1979759Y-8830387D01*
X2017740Y-8493294D01*
X2093225Y-8162573D01*
X2205264Y-7842383D01*
X2352449Y-7536750D01*
X2532928Y-7249519D01*
X2744432Y-6984302D01*
X2984302Y-6744432D01*
X3249519Y-6532928D01*
X3536750Y-6352449D01*
X3842383Y-6205264D01*
X4162573Y-6093225D01*
X4493294Y-6017740D01*
X4830387Y-5979759D01*
X5169613Y-5979759D01*
X5506706Y-6017740D01*
G37*
G36*
X24506706Y-6017740D02*
G01*
X24837427Y-6093225D01*
X25157617Y-6205264D01*
X25463250Y-6352449D01*
X25750481Y-6532928D01*
X26015698Y-6744432D01*
X26255568Y-6984302D01*
X26467072Y-7249519D01*
X26647551Y-7536750D01*
X26794736Y-7842383D01*
X26906775Y-8162573D01*
X26982260Y-8493294D01*
X27020241Y-8830387D01*
X27020241Y-9169613D01*
X26982260Y-9506706D01*
X26906775Y-9837427D01*
X26794736Y-10157617D01*
X26647551Y-10463250D01*
X26467072Y-10750481D01*
X26255568Y-11015698D01*
X26015698Y-11255568D01*
X25750481Y-11467072D01*
X25463250Y-11647551D01*
X25157617Y-11794736D01*
X24837427Y-11906775D01*
X24506706Y-11982260D01*
X24169613Y-12020241D01*
X23830387Y-12020241D01*
X23493294Y-11982260D01*
X23162573Y-11906775D01*
X22842383Y-11794736D01*
X22536750Y-11647551D01*
X22249519Y-11467072D01*
X21984302Y-11255568D01*
X21744432Y-11015698D01*
X21532928Y-10750481D01*
X21352449Y-10463250D01*
X21205264Y-10157617D01*
X21093225Y-9837427D01*
X21017740Y-9506706D01*
X20979759Y-9169613D01*
X20979759Y-8830387D01*
X21017740Y-8493294D01*
X21093225Y-8162573D01*
X21205264Y-7842383D01*
X21352449Y-7536750D01*
X21532928Y-7249519D01*
X21744432Y-6984302D01*
X21984302Y-6744432D01*
X22249519Y-6532928D01*
X22536750Y-6352449D01*
X22842383Y-6205264D01*
X23162573Y-6093225D01*
X23493294Y-6017740D01*
X23830387Y-5979759D01*
X24169613Y-5979759D01*
X24506706Y-6017740D01*
G37*
G36*
X46691970Y-11188321D02*
G01*
X46748744Y-11226256D01*
X46786679Y-11283030D01*
X46800000Y-11350000D01*
X46800000Y-11650000D01*
X46786679Y-11716970D01*
X46748744Y-11773744D01*
X46691970Y-11811679D01*
X46625000Y-11825000D01*
X45375000Y-11825000D01*
X45308030Y-11811679D01*
X45251256Y-11773744D01*
X45213321Y-11716970D01*
X45200000Y-11650000D01*
X45200000Y-11350000D01*
X45213321Y-11283030D01*
X45251256Y-11226256D01*
X45308030Y-11188321D01*
X45375000Y-11175000D01*
X46625000Y-11175000D01*
X46691970Y-11188321D01*
G37*
G36*
X12889567Y-5231903D02*
G01*
X12897678Y-5237322D01*
X12903097Y-5245433D01*
X12905000Y-5255000D01*
X12905000Y-10965000D01*
X12903097Y-10974567D01*
X12897678Y-10982678D01*
X12889567Y-10988097D01*
X12880000Y-10990000D01*
X10190000Y-10990000D01*
X10180433Y-10988097D01*
X10172322Y-10982678D01*
X10166903Y-10974567D01*
X10165000Y-10965000D01*
X10165000Y-5255000D01*
X10166903Y-5245433D01*
X10172322Y-5237322D01*
X10180433Y-5231903D01*
X10190000Y-5230000D01*
X12880000Y-5230000D01*
X12889567Y-5231903D01*
G37*
G36*
X17819567Y-5231903D02*
G01*
X17827678Y-5237322D01*
X17833097Y-5245433D01*
X17835000Y-5255000D01*
X17835000Y-10965000D01*
X17833097Y-10974567D01*
X17827678Y-10982678D01*
X17819567Y-10988097D01*
X17810000Y-10990000D01*
X15120000Y-10990000D01*
X15110433Y-10988097D01*
X15102322Y-10982678D01*
X15096903Y-10974567D01*
X15095000Y-10965000D01*
X15095000Y-5255000D01*
X15096903Y-5245433D01*
X15102322Y-5237322D01*
X15110433Y-5231903D01*
X15120000Y-5230000D01*
X17810000Y-5230000D01*
X17819567Y-5231903D01*
G37*
G36*
X46691970Y-10188321D02*
G01*
X46748744Y-10226256D01*
X46786679Y-10283030D01*
X46800000Y-10350000D01*
X46800000Y-10650000D01*
X46786679Y-10716970D01*
X46748744Y-10773744D01*
X46691970Y-10811679D01*
X46625000Y-10825000D01*
X45375000Y-10825000D01*
X45308030Y-10811679D01*
X45251256Y-10773744D01*
X45213321Y-10716970D01*
X45200000Y-10650000D01*
X45200000Y-10350000D01*
X45213321Y-10283030D01*
X45251256Y-10226256D01*
X45308030Y-10188321D01*
X45375000Y-10175000D01*
X46625000Y-10175000D01*
X46691970Y-10188321D01*
G37*
G36*
X46691970Y-9188321D02*
G01*
X46748744Y-9226256D01*
X46786679Y-9283030D01*
X46800000Y-9350000D01*
X46800000Y-9650000D01*
X46786679Y-9716970D01*
X46748744Y-9773744D01*
X46691970Y-9811679D01*
X46625000Y-9825000D01*
X45375000Y-9825000D01*
X45308030Y-9811679D01*
X45251256Y-9773744D01*
X45213321Y-9716970D01*
X45200000Y-9650000D01*
X45200000Y-9350000D01*
X45213321Y-9283030D01*
X45251256Y-9226256D01*
X45308030Y-9188321D01*
X45375000Y-9175000D01*
X46625000Y-9175000D01*
X46691970Y-9188321D01*
G37*
G36*
X50527017Y-7575401D02*
G01*
X50587045Y-7582365D01*
X50607554Y-7591421D01*
X50630238Y-7595933D01*
X50654522Y-7612159D01*
X50680167Y-7623483D01*
X50697682Y-7640998D01*
X50719454Y-7655546D01*
X50734001Y-7677317D01*
X50751516Y-7694832D01*
X50762838Y-7720474D01*
X50779067Y-7744762D01*
X50783579Y-7767447D01*
X50792634Y-7787954D01*
X50799596Y-7847970D01*
X50800000Y-7850000D01*
X50800000Y-8550000D01*
X50799596Y-8552029D01*
X50792634Y-8612045D01*
X50783579Y-8632550D01*
X50779067Y-8655238D01*
X50762837Y-8679527D01*
X50751516Y-8705167D01*
X50734003Y-8722679D01*
X50719454Y-8744454D01*
X50697679Y-8759003D01*
X50680167Y-8776516D01*
X50654527Y-8787837D01*
X50630238Y-8804067D01*
X50607550Y-8808579D01*
X50587045Y-8817634D01*
X50527031Y-8824595D01*
X50525000Y-8825000D01*
X49225000Y-8825000D01*
X49222971Y-8824596D01*
X49162954Y-8817634D01*
X49142447Y-8808579D01*
X49119762Y-8804067D01*
X49095474Y-8787838D01*
X49069832Y-8776516D01*
X49052317Y-8759001D01*
X49030546Y-8744454D01*
X49015998Y-8722682D01*
X48998483Y-8705167D01*
X48987159Y-8679522D01*
X48970933Y-8655238D01*
X48966421Y-8632554D01*
X48957365Y-8612045D01*
X48950401Y-8552019D01*
X48950000Y-8550000D01*
X48950000Y-7850000D01*
X48950401Y-7847983D01*
X48957365Y-7787954D01*
X48966421Y-7767443D01*
X48970933Y-7744762D01*
X48987158Y-7720479D01*
X48998483Y-7694832D01*
X49016000Y-7677314D01*
X49030546Y-7655546D01*
X49052314Y-7641000D01*
X49069832Y-7623483D01*
X49095479Y-7612158D01*
X49119762Y-7595933D01*
X49142443Y-7591421D01*
X49162954Y-7582365D01*
X49222982Y-7575401D01*
X49225000Y-7575000D01*
X50525000Y-7575000D01*
X50527017Y-7575401D01*
G37*
G36*
X28952017Y-4275401D02*
G01*
X29012045Y-4282365D01*
X29032554Y-4291421D01*
X29055238Y-4295933D01*
X29079522Y-4312159D01*
X29105167Y-4323483D01*
X29122682Y-4340998D01*
X29144454Y-4355546D01*
X29159001Y-4377317D01*
X29176516Y-4394832D01*
X29187838Y-4420474D01*
X29204067Y-4444762D01*
X29208579Y-4467447D01*
X29217634Y-4487954D01*
X29224596Y-4547970D01*
X29225000Y-4550000D01*
X29225000Y-5850000D01*
X29224596Y-5852029D01*
X29217634Y-5912045D01*
X29208579Y-5932550D01*
X29204067Y-5955238D01*
X29187837Y-5979527D01*
X29176516Y-6005167D01*
X29159003Y-6022679D01*
X29144454Y-6044454D01*
X29122679Y-6059003D01*
X29105167Y-6076516D01*
X29079527Y-6087837D01*
X29055238Y-6104067D01*
X29032550Y-6108579D01*
X29012045Y-6117634D01*
X28952031Y-6124595D01*
X28950000Y-6125000D01*
X28250000Y-6125000D01*
X28247971Y-6124596D01*
X28187954Y-6117634D01*
X28167447Y-6108579D01*
X28144762Y-6104067D01*
X28120474Y-6087838D01*
X28094832Y-6076516D01*
X28077317Y-6059001D01*
X28055546Y-6044454D01*
X28040998Y-6022682D01*
X28023483Y-6005167D01*
X28012159Y-5979522D01*
X27995933Y-5955238D01*
X27991421Y-5932554D01*
X27982365Y-5912045D01*
X27975401Y-5852019D01*
X27975000Y-5850000D01*
X27975000Y-4550000D01*
X27975401Y-4547983D01*
X27982365Y-4487954D01*
X27991421Y-4467443D01*
X27995933Y-4444762D01*
X28012158Y-4420479D01*
X28023483Y-4394832D01*
X28041000Y-4377314D01*
X28055546Y-4355546D01*
X28077314Y-4341000D01*
X28094832Y-4323483D01*
X28120479Y-4312158D01*
X28144762Y-4295933D01*
X28167443Y-4291421D01*
X28187954Y-4282365D01*
X28247982Y-4275401D01*
X28250000Y-4275000D01*
X28950000Y-4275000D01*
X28952017Y-4275401D01*
G37*
G36*
X38552017Y-4275401D02*
G01*
X38612045Y-4282365D01*
X38632554Y-4291421D01*
X38655238Y-4295933D01*
X38679522Y-4312159D01*
X38705167Y-4323483D01*
X38722682Y-4340998D01*
X38744454Y-4355546D01*
X38759001Y-4377317D01*
X38776516Y-4394832D01*
X38787838Y-4420474D01*
X38804067Y-4444762D01*
X38808579Y-4467447D01*
X38817634Y-4487954D01*
X38824596Y-4547970D01*
X38825000Y-4550000D01*
X38825000Y-5850000D01*
X38824596Y-5852029D01*
X38817634Y-5912045D01*
X38808579Y-5932550D01*
X38804067Y-5955238D01*
X38787837Y-5979527D01*
X38776516Y-6005167D01*
X38759003Y-6022679D01*
X38744454Y-6044454D01*
X38722679Y-6059003D01*
X38705167Y-6076516D01*
X38679527Y-6087837D01*
X38655238Y-6104067D01*
X38632550Y-6108579D01*
X38612045Y-6117634D01*
X38552031Y-6124595D01*
X38550000Y-6125000D01*
X37850000Y-6125000D01*
X37847971Y-6124596D01*
X37787954Y-6117634D01*
X37767447Y-6108579D01*
X37744762Y-6104067D01*
X37720474Y-6087838D01*
X37694832Y-6076516D01*
X37677317Y-6059001D01*
X37655546Y-6044454D01*
X37640998Y-6022682D01*
X37623483Y-6005167D01*
X37612159Y-5979522D01*
X37595933Y-5955238D01*
X37591421Y-5932554D01*
X37582365Y-5912045D01*
X37575401Y-5852019D01*
X37575000Y-5850000D01*
X37575000Y-4550000D01*
X37575401Y-4547983D01*
X37582365Y-4487954D01*
X37591421Y-4467443D01*
X37595933Y-4444762D01*
X37612158Y-4420479D01*
X37623483Y-4394832D01*
X37641000Y-4377314D01*
X37655546Y-4355546D01*
X37677314Y-4341000D01*
X37694832Y-4323483D01*
X37720479Y-4312158D01*
X37744762Y-4295933D01*
X37767443Y-4291421D01*
X37787954Y-4282365D01*
X37847982Y-4275401D01*
X37850000Y-4275000D01*
X38550000Y-4275000D01*
X38552017Y-4275401D01*
G37*
G36*
X41052017Y-4275401D02*
G01*
X41112045Y-4282365D01*
X41132554Y-4291421D01*
X41155238Y-4295933D01*
X41179522Y-4312159D01*
X41205167Y-4323483D01*
X41222682Y-4340998D01*
X41244454Y-4355546D01*
X41259001Y-4377317D01*
X41276516Y-4394832D01*
X41287838Y-4420474D01*
X41304067Y-4444762D01*
X41308579Y-4467447D01*
X41317634Y-4487954D01*
X41324596Y-4547970D01*
X41325000Y-4550000D01*
X41325000Y-5850000D01*
X41324596Y-5852029D01*
X41317634Y-5912045D01*
X41308579Y-5932550D01*
X41304067Y-5955238D01*
X41287837Y-5979527D01*
X41276516Y-6005167D01*
X41259003Y-6022679D01*
X41244454Y-6044454D01*
X41222679Y-6059003D01*
X41205167Y-6076516D01*
X41179527Y-6087837D01*
X41155238Y-6104067D01*
X41132550Y-6108579D01*
X41112045Y-6117634D01*
X41052031Y-6124595D01*
X41050000Y-6125000D01*
X40350000Y-6125000D01*
X40347971Y-6124596D01*
X40287954Y-6117634D01*
X40267447Y-6108579D01*
X40244762Y-6104067D01*
X40220474Y-6087838D01*
X40194832Y-6076516D01*
X40177317Y-6059001D01*
X40155546Y-6044454D01*
X40140998Y-6022682D01*
X40123483Y-6005167D01*
X40112159Y-5979522D01*
X40095933Y-5955238D01*
X40091421Y-5932554D01*
X40082365Y-5912045D01*
X40075401Y-5852019D01*
X40075000Y-5850000D01*
X40075000Y-4550000D01*
X40075401Y-4547983D01*
X40082365Y-4487954D01*
X40091421Y-4467443D01*
X40095933Y-4444762D01*
X40112158Y-4420479D01*
X40123483Y-4394832D01*
X40141000Y-4377314D01*
X40155546Y-4355546D01*
X40177314Y-4341000D01*
X40194832Y-4323483D01*
X40220479Y-4312158D01*
X40244762Y-4295933D01*
X40267443Y-4291421D01*
X40287954Y-4282365D01*
X40347982Y-4275401D01*
X40350000Y-4275000D01*
X41050000Y-4275000D01*
X41052017Y-4275401D01*
G37*
G36*
X47652017Y-4275401D02*
G01*
X47712045Y-4282365D01*
X47732554Y-4291421D01*
X47755238Y-4295933D01*
X47779522Y-4312159D01*
X47805167Y-4323483D01*
X47822682Y-4340998D01*
X47844454Y-4355546D01*
X47859001Y-4377317D01*
X47876516Y-4394832D01*
X47887838Y-4420474D01*
X47904067Y-4444762D01*
X47908579Y-4467447D01*
X47917634Y-4487954D01*
X47924596Y-4547970D01*
X47925000Y-4550000D01*
X47925000Y-5850000D01*
X47924596Y-5852029D01*
X47917634Y-5912045D01*
X47908579Y-5932550D01*
X47904067Y-5955238D01*
X47887837Y-5979527D01*
X47876516Y-6005167D01*
X47859003Y-6022679D01*
X47844454Y-6044454D01*
X47822679Y-6059003D01*
X47805167Y-6076516D01*
X47779527Y-6087837D01*
X47755238Y-6104067D01*
X47732550Y-6108579D01*
X47712045Y-6117634D01*
X47652031Y-6124595D01*
X47650000Y-6125000D01*
X46950000Y-6125000D01*
X46947971Y-6124596D01*
X46887954Y-6117634D01*
X46867447Y-6108579D01*
X46844762Y-6104067D01*
X46820474Y-6087838D01*
X46794832Y-6076516D01*
X46777317Y-6059001D01*
X46755546Y-6044454D01*
X46740998Y-6022682D01*
X46723483Y-6005167D01*
X46712159Y-5979522D01*
X46695933Y-5955238D01*
X46691421Y-5932554D01*
X46682365Y-5912045D01*
X46675401Y-5852019D01*
X46675000Y-5850000D01*
X46675000Y-4550000D01*
X46675401Y-4547983D01*
X46682365Y-4487954D01*
X46691421Y-4467443D01*
X46695933Y-4444762D01*
X46712158Y-4420479D01*
X46723483Y-4394832D01*
X46741000Y-4377314D01*
X46755546Y-4355546D01*
X46777314Y-4341000D01*
X46794832Y-4323483D01*
X46820479Y-4312158D01*
X46844762Y-4295933D01*
X46867443Y-4291421D01*
X46887954Y-4282365D01*
X46947982Y-4275401D01*
X46950000Y-4275000D01*
X47650000Y-4275000D01*
X47652017Y-4275401D01*
G37*
G36*
X3262626Y-1906084D02*
G01*
X3430519Y-1960636D01*
X3587811Y-2040780D01*
X3730629Y-2144543D01*
X3855457Y-2269371D01*
X3959220Y-2412189D01*
X4039364Y-2569481D01*
X4093916Y-2737374D01*
X4121532Y-2911734D01*
X4121532Y-3088266D01*
X4093916Y-3262626D01*
X4039364Y-3430519D01*
X3959220Y-3587811D01*
X3855457Y-3730629D01*
X3730629Y-3855457D01*
X3587811Y-3959220D01*
X3430519Y-4039364D01*
X3262626Y-4093916D01*
X3088266Y-4121532D01*
X2911734Y-4121532D01*
X2737374Y-4093916D01*
X2569481Y-4039364D01*
X2412189Y-3959220D01*
X2269371Y-3855457D01*
X2144543Y-3730629D01*
X2040780Y-3587811D01*
X1960636Y-3430519D01*
X1906084Y-3262626D01*
X1878468Y-3088266D01*
X1878468Y-2911734D01*
X1906084Y-2737374D01*
X1960636Y-2569481D01*
X2040780Y-2412189D01*
X2144543Y-2269371D01*
X2269371Y-2144543D01*
X2412189Y-2040780D01*
X2569481Y-1960636D01*
X2737374Y-1906084D01*
X2911734Y-1878468D01*
X3088266Y-1878468D01*
X3262626Y-1906084D01*
G37*
G36*
X23262626Y-1906084D02*
G01*
X23430519Y-1960636D01*
X23587811Y-2040780D01*
X23730629Y-2144543D01*
X23855457Y-2269371D01*
X23959220Y-2412189D01*
X24039364Y-2569481D01*
X24093916Y-2737374D01*
X24121532Y-2911734D01*
X24121532Y-3088266D01*
X24093916Y-3262626D01*
X24039364Y-3430519D01*
X23959220Y-3587811D01*
X23855457Y-3730629D01*
X23730629Y-3855457D01*
X23587811Y-3959220D01*
X23430519Y-4039364D01*
X23262626Y-4093916D01*
X23088266Y-4121532D01*
X22911734Y-4121532D01*
X22737374Y-4093916D01*
X22569481Y-4039364D01*
X22412189Y-3959220D01*
X22269371Y-3855457D01*
X22144543Y-3730629D01*
X22040780Y-3587811D01*
X21960636Y-3430519D01*
X21906084Y-3262626D01*
X21878468Y-3088266D01*
X21878468Y-2911734D01*
X21906084Y-2737374D01*
X21960636Y-2569481D01*
X22040780Y-2412189D01*
X22144543Y-2269371D01*
X22269371Y-2144543D01*
X22412189Y-2040780D01*
X22569481Y-1960636D01*
X22737374Y-1906084D01*
X22911734Y-1878468D01*
X23088266Y-1878468D01*
X23262626Y-1906084D01*
G37*
G36*
X30116970Y-1888321D02*
G01*
X30173744Y-1926256D01*
X30211679Y-1983030D01*
X30225000Y-2050000D01*
X30225000Y-3300000D01*
X30211679Y-3366970D01*
X30173744Y-3423744D01*
X30116970Y-3461679D01*
X30050000Y-3475000D01*
X29750000Y-3475000D01*
X29683030Y-3461679D01*
X29626256Y-3423744D01*
X29588321Y-3366970D01*
X29575000Y-3300000D01*
X29575000Y-2050000D01*
X29588321Y-1983030D01*
X29626256Y-1926256D01*
X29683030Y-1888321D01*
X29750000Y-1875000D01*
X30050000Y-1875000D01*
X30116970Y-1888321D01*
G37*
G36*
X31116970Y-1888321D02*
G01*
X31173744Y-1926256D01*
X31211679Y-1983030D01*
X31225000Y-2050000D01*
X31225000Y-3300000D01*
X31211679Y-3366970D01*
X31173744Y-3423744D01*
X31116970Y-3461679D01*
X31050000Y-3475000D01*
X30750000Y-3475000D01*
X30683030Y-3461679D01*
X30626256Y-3423744D01*
X30588321Y-3366970D01*
X30575000Y-3300000D01*
X30575000Y-2050000D01*
X30588321Y-1983030D01*
X30626256Y-1926256D01*
X30683030Y-1888321D01*
X30750000Y-1875000D01*
X31050000Y-1875000D01*
X31116970Y-1888321D01*
G37*
G36*
X32116970Y-1888321D02*
G01*
X32173744Y-1926256D01*
X32211679Y-1983030D01*
X32225000Y-2050000D01*
X32225000Y-3300000D01*
X32211679Y-3366970D01*
X32173744Y-3423744D01*
X32116970Y-3461679D01*
X32050000Y-3475000D01*
X31750000Y-3475000D01*
X31683030Y-3461679D01*
X31626256Y-3423744D01*
X31588321Y-3366970D01*
X31575000Y-3300000D01*
X31575000Y-2050000D01*
X31588321Y-1983030D01*
X31626256Y-1926256D01*
X31683030Y-1888321D01*
X31750000Y-1875000D01*
X32050000Y-1875000D01*
X32116970Y-1888321D01*
G37*
G36*
X33116970Y-1888321D02*
G01*
X33173744Y-1926256D01*
X33211679Y-1983030D01*
X33225000Y-2050000D01*
X33225000Y-3300000D01*
X33211679Y-3366970D01*
X33173744Y-3423744D01*
X33116970Y-3461679D01*
X33050000Y-3475000D01*
X32750000Y-3475000D01*
X32683030Y-3461679D01*
X32626256Y-3423744D01*
X32588321Y-3366970D01*
X32575000Y-3300000D01*
X32575000Y-2050000D01*
X32588321Y-1983030D01*
X32626256Y-1926256D01*
X32683030Y-1888321D01*
X32750000Y-1875000D01*
X33050000Y-1875000D01*
X33116970Y-1888321D01*
G37*
G36*
X34116970Y-1888321D02*
G01*
X34173744Y-1926256D01*
X34211679Y-1983030D01*
X34225000Y-2050000D01*
X34225000Y-3300000D01*
X34211679Y-3366970D01*
X34173744Y-3423744D01*
X34116970Y-3461679D01*
X34050000Y-3475000D01*
X33750000Y-3475000D01*
X33683030Y-3461679D01*
X33626256Y-3423744D01*
X33588321Y-3366970D01*
X33575000Y-3300000D01*
X33575000Y-2050000D01*
X33588321Y-1983030D01*
X33626256Y-1926256D01*
X33683030Y-1888321D01*
X33750000Y-1875000D01*
X34050000Y-1875000D01*
X34116970Y-1888321D01*
G37*
G36*
X35116970Y-1888321D02*
G01*
X35173744Y-1926256D01*
X35211679Y-1983030D01*
X35225000Y-2050000D01*
X35225000Y-3300000D01*
X35211679Y-3366970D01*
X35173744Y-3423744D01*
X35116970Y-3461679D01*
X35050000Y-3475000D01*
X34750000Y-3475000D01*
X34683030Y-3461679D01*
X34626256Y-3423744D01*
X34588321Y-3366970D01*
X34575000Y-3300000D01*
X34575000Y-2050000D01*
X34588321Y-1983030D01*
X34626256Y-1926256D01*
X34683030Y-1888321D01*
X34750000Y-1875000D01*
X35050000Y-1875000D01*
X35116970Y-1888321D01*
G37*
G36*
X36116970Y-1888321D02*
G01*
X36173744Y-1926256D01*
X36211679Y-1983030D01*
X36225000Y-2050000D01*
X36225000Y-3300000D01*
X36211679Y-3366970D01*
X36173744Y-3423744D01*
X36116970Y-3461679D01*
X36050000Y-3475000D01*
X35750000Y-3475000D01*
X35683030Y-3461679D01*
X35626256Y-3423744D01*
X35588321Y-3366970D01*
X35575000Y-3300000D01*
X35575000Y-2050000D01*
X35588321Y-1983030D01*
X35626256Y-1926256D01*
X35683030Y-1888321D01*
X35750000Y-1875000D01*
X36050000Y-1875000D01*
X36116970Y-1888321D01*
G37*
G36*
X37116970Y-1888321D02*
G01*
X37173744Y-1926256D01*
X37211679Y-1983030D01*
X37225000Y-2050000D01*
X37225000Y-3300000D01*
X37211679Y-3366970D01*
X37173744Y-3423744D01*
X37116970Y-3461679D01*
X37050000Y-3475000D01*
X36750000Y-3475000D01*
X36683030Y-3461679D01*
X36626256Y-3423744D01*
X36588321Y-3366970D01*
X36575000Y-3300000D01*
X36575000Y-2050000D01*
X36588321Y-1983030D01*
X36626256Y-1926256D01*
X36683030Y-1888321D01*
X36750000Y-1875000D01*
X37050000Y-1875000D01*
X37116970Y-1888321D01*
G37*
G36*
X42216970Y-1888321D02*
G01*
X42273744Y-1926256D01*
X42311679Y-1983030D01*
X42325000Y-2050000D01*
X42325000Y-3300000D01*
X42311679Y-3366970D01*
X42273744Y-3423744D01*
X42216970Y-3461679D01*
X42150000Y-3475000D01*
X41850000Y-3475000D01*
X41783030Y-3461679D01*
X41726256Y-3423744D01*
X41688321Y-3366970D01*
X41675000Y-3300000D01*
X41675000Y-2050000D01*
X41688321Y-1983030D01*
X41726256Y-1926256D01*
X41783030Y-1888321D01*
X41850000Y-1875000D01*
X42150000Y-1875000D01*
X42216970Y-1888321D01*
G37*
G36*
X43216970Y-1888321D02*
G01*
X43273744Y-1926256D01*
X43311679Y-1983030D01*
X43325000Y-2050000D01*
X43325000Y-3300000D01*
X43311679Y-3366970D01*
X43273744Y-3423744D01*
X43216970Y-3461679D01*
X43150000Y-3475000D01*
X42850000Y-3475000D01*
X42783030Y-3461679D01*
X42726256Y-3423744D01*
X42688321Y-3366970D01*
X42675000Y-3300000D01*
X42675000Y-2050000D01*
X42688321Y-1983030D01*
X42726256Y-1926256D01*
X42783030Y-1888321D01*
X42850000Y-1875000D01*
X43150000Y-1875000D01*
X43216970Y-1888321D01*
G37*
G36*
X44216970Y-1888321D02*
G01*
X44273744Y-1926256D01*
X44311679Y-1983030D01*
X44325000Y-2050000D01*
X44325000Y-3300000D01*
X44311679Y-3366970D01*
X44273744Y-3423744D01*
X44216970Y-3461679D01*
X44150000Y-3475000D01*
X43850000Y-3475000D01*
X43783030Y-3461679D01*
X43726256Y-3423744D01*
X43688321Y-3366970D01*
X43675000Y-3300000D01*
X43675000Y-2050000D01*
X43688321Y-1983030D01*
X43726256Y-1926256D01*
X43783030Y-1888321D01*
X43850000Y-1875000D01*
X44150000Y-1875000D01*
X44216970Y-1888321D01*
G37*
G36*
X45216970Y-1888321D02*
G01*
X45273744Y-1926256D01*
X45311679Y-1983030D01*
X45325000Y-2050000D01*
X45325000Y-3300000D01*
X45311679Y-3366970D01*
X45273744Y-3423744D01*
X45216970Y-3461679D01*
X45150000Y-3475000D01*
X44850000Y-3475000D01*
X44783030Y-3461679D01*
X44726256Y-3423744D01*
X44688321Y-3366970D01*
X44675000Y-3300000D01*
X44675000Y-2050000D01*
X44688321Y-1983030D01*
X44726256Y-1926256D01*
X44783030Y-1888321D01*
X44850000Y-1875000D01*
X45150000Y-1875000D01*
X45216970Y-1888321D01*
G37*
G36*
X46216970Y-1888321D02*
G01*
X46273744Y-1926256D01*
X46311679Y-1983030D01*
X46325000Y-2050000D01*
X46325000Y-3300000D01*
X46311679Y-3366970D01*
X46273744Y-3423744D01*
X46216970Y-3461679D01*
X46150000Y-3475000D01*
X45850000Y-3475000D01*
X45783030Y-3461679D01*
X45726256Y-3423744D01*
X45688321Y-3366970D01*
X45675000Y-3300000D01*
X45675000Y-2050000D01*
X45688321Y-1983030D01*
X45726256Y-1926256D01*
X45783030Y-1888321D01*
X45850000Y-1875000D01*
X46150000Y-1875000D01*
X46216970Y-1888321D01*
G37*
M02*
