M48
; DRILL file KiCad 10.0.6 date 2026-09-14T01:05:35
; FORMAT={-:-/ absolute / metric / decimal}
; #@! TF.CreationDate,2026-09-14T01:05:35+08:00
; #@! TF.GenerationSoftware,Kicad,Pcbnew,10.0.6
; #@! TF.FileFunction,Plated,1,4,PTH
FMAT,2
METRIC
; #@! TA.AperFunction,Plated,PTH,ViaDrill
T1C0.200
; #@! TA.AperFunction,Plated,PTH,ComponentDrill
T2C0.800
; #@! TA.AperFunction,Plated,PTH,ComponentDrill
T3C2.400
%
G90
G05
T1
X3.0Y-21.0
X3.0Y-24.0
X3.0Y-27.0
X3.0Y-30.0
X3.0Y-36.0
X6.0Y-3.0
X6.0Y-30.0
X6.0Y-33.0
X6.0Y-36.0
X6.0Y-39.0
X7.2Y-25.4
X7.6Y-23.8
X9.0Y-3.0
X9.0Y-6.0
X9.0Y-12.0
X9.0Y-15.0
X9.0Y-18.0
X9.0Y-30.0
X9.0Y-33.0
X9.0Y-36.0
X9.0Y-39.0
X9.6Y-19.0
X9.8Y-24.2
X10.1Y-15.5
X10.1Y-16.5
X10.6Y-23.7
X10.6Y-24.7
X10.7Y-17.0
X11.4Y-23.1
X11.6Y-19.2
X12.0Y-3.0
X12.0Y-18.0
X12.0Y-39.0
X13.2Y-19.2
X15.0Y-3.0
X15.0Y-15.0
X15.0Y-39.0
X15.2Y-23.0
X15.2Y-23.7
X15.2Y-24.4
X15.2Y-25.1
X15.2Y-25.8
X15.2Y-28.0
X15.2Y-28.7
X15.2Y-29.4
X15.2Y-30.1
X15.2Y-30.8
X15.605Y-32.7
X16.0Y-23.0
X16.0Y-23.7
X16.0Y-24.4
X16.0Y-25.1
X16.0Y-25.8
X16.0Y-28.0
X16.0Y-28.7
X16.0Y-29.4
X16.0Y-30.1
X16.0Y-30.8
X17.0Y-24.8
X17.3Y-15.5
X17.9Y-16.0
X17.9Y-17.0
X18.0Y-3.0
X18.0Y-27.0
X18.0Y-30.0
X18.0Y-36.0
X18.0Y-39.0
X20.4Y-24.6
X21.0Y-3.0
X21.0Y-24.0
X21.0Y-27.0
X21.0Y-30.0
X21.0Y-39.0
X22.4Y-35.0
X24.0Y-24.0
X24.0Y-30.0
X24.0Y-33.0
X24.0Y-39.0
X25.8Y-32.2
X26.5Y-39.325
X27.0Y-3.0
X27.0Y-24.0
X27.0Y-30.0
X27.5Y-39.325
X28.5Y-39.325
X28.6Y-26.6
X28.6Y-27.4
X29.2Y-26.6
X29.2Y-27.4
X29.8Y-26.6
X29.8Y-27.4
X29.9Y-2.675
X30.0Y-6.0
X30.0Y-9.0
X30.0Y-33.0
X30.4Y-26.6
X30.4Y-27.4
X30.4Y-31.8
X30.6Y-25.6
X30.6Y-28.4
X30.9Y-2.675
X31.0Y-29.2
X31.8Y-28.4
X31.9Y-2.675
X32.0Y-32.2
X32.9Y-2.675
X33.0Y-6.0
X33.0Y-24.0
X33.0Y-33.0
X33.775Y-30.0
X33.9Y-2.675
X34.4Y-9.0
X34.5Y-39.325
X34.8Y-23.6
X34.9Y-2.675
X35.4Y-24.2
X35.4Y-24.8
X35.4Y-25.4
X35.4Y-26.0
X35.4Y-28.4
X35.5Y-39.325
X35.6Y-27.25
X35.9Y-2.675
X36.0Y-9.0
X36.0Y-36.0
X36.2Y-27.25
X36.5Y-39.325
X36.6Y-23.4
X36.8Y-27.25
X36.9Y-2.675
X37.1Y-7.5
X37.4Y-27.25
X38.0Y-9.0
X38.0Y-24.8
X39.0Y-9.0
X39.0Y-33.0
X39.0Y-36.0
X39.0Y-39.0
X40.775Y-24.5
X41.2Y-6.6
X42.0Y-4.5
X42.0Y-27.0
X42.0Y-33.6
X42.0Y-39.0
X42.4Y-34.8
X43.0Y-39.325
X43.1Y-4.5
X43.2Y-5.4
X43.6Y-34.0
X44.0Y-39.325
X44.2Y-9.0
X44.2Y-17.0
X44.2Y-29.0
X44.75Y-5.3
X45.0Y-8.8
X45.0Y-21.0
X45.0Y-33.0
X45.0Y-39.0
X45.3Y-4.5
X45.3Y-7.5
X45.4Y-5.8
X46.0Y-9.5
X46.0Y-10.5
X46.0Y-11.5
X46.0Y-13.5
X46.0Y-14.5
X46.0Y-16.5
X46.0Y-17.5
X46.0Y-18.5
X46.0Y-24.0
X46.0Y-25.0
X46.0Y-31.0
X46.0Y-32.0
X46.1Y-4.3
X47.2Y-11.0
X47.4Y-7.0
X48.0Y-3.0
X48.0Y-12.0
X48.0Y-15.0
X48.0Y-18.0
X48.0Y-21.0
X48.0Y-24.0
X48.0Y-27.0
X48.0Y-30.0
X48.0Y-33.0
X48.0Y-36.0
T2
X4.0Y-32.0
X7.5Y-32.0
X39.0Y-31.0
X41.5Y-31.0
T3
X5.0Y-9.0
X5.0Y-16.0
X24.0Y-9.0
X24.0Y-17.0
X32.0Y-13.0
X32.0Y-20.0
X40.0Y-13.0
X40.0Y-20.0
M30
