%TF.GenerationSoftware,KiCad,Pcbnew,10.0.6*%
%TF.CreationDate,2026-09-14T01:04:56+08:00*%
%TF.ProjectId,Microduck_Entry_5V_R22,4d696372-6f64-4756-936b-5f456e747279,rev?*%
%TF.SameCoordinates,Original*%
%TF.FileFunction,Legend,Top*%
%TF.FilePolarity,Positive*%
%FSLAX46Y46*%
G04 Gerber Fmt 4.6, Leading zero omitted, Abs format (unit mm)*
G04 Created by KiCad (PCBNEW 10.0.6) date 2026-09-14 01:04:56*
%MOMM*%
%LPD*%
G01*
G04 APERTURE LIST*
%ADD10C,0.120000*%
G04 APERTURE END LIST*
D10*
X3780952Y-4463855D02*
X3971428Y-5263855D01*
X3971428Y-5263855D02*
X4123809Y-4692426D01*
X4123809Y-4692426D02*
X4276190Y-5263855D01*
X4276190Y-5263855D02*
X4466667Y-4463855D01*
X5190476Y-5263855D02*
X4733333Y-5263855D01*
X4961905Y-5263855D02*
X4961905Y-4463855D01*
X4961905Y-4463855D02*
X4885714Y-4578140D01*
X4885714Y-4578140D02*
X4809524Y-4654331D01*
X4809524Y-4654331D02*
X4733333Y-4692426D01*
X5533334Y-4959093D02*
X6142858Y-4959093D01*
X5838096Y-5263855D02*
X5838096Y-4654331D01*
X8280952Y-15563855D02*
X8471428Y-16363855D01*
X8471428Y-16363855D02*
X8623809Y-15792426D01*
X8623809Y-15792426D02*
X8776190Y-16363855D01*
X8776190Y-16363855D02*
X8966667Y-15563855D01*
X9233333Y-15640045D02*
X9271429Y-15601950D01*
X9271429Y-15601950D02*
X9347619Y-15563855D01*
X9347619Y-15563855D02*
X9538095Y-15563855D01*
X9538095Y-15563855D02*
X9614286Y-15601950D01*
X9614286Y-15601950D02*
X9652381Y-15640045D01*
X9652381Y-15640045D02*
X9690476Y-15716236D01*
X9690476Y-15716236D02*
X9690476Y-15792426D01*
X9690476Y-15792426D02*
X9652381Y-15906712D01*
X9652381Y-15906712D02*
X9195238Y-16363855D01*
X9195238Y-16363855D02*
X9690476Y-16363855D01*
X10033334Y-16059093D02*
X10642858Y-16059093D01*
X9395238Y-2944807D02*
X9661904Y-2944807D01*
X9776190Y-3363855D02*
X9395238Y-3363855D01*
X9395238Y-3363855D02*
X9395238Y-2563855D01*
X9395238Y-2563855D02*
X9776190Y-2563855D01*
X10119048Y-3363855D02*
X10119048Y-2563855D01*
X10119048Y-2563855D02*
X10576191Y-3363855D01*
X10576191Y-3363855D02*
X10576191Y-2563855D01*
X10842857Y-2563855D02*
X11300000Y-2563855D01*
X11071428Y-3363855D02*
X11071428Y-2563855D01*
X12023810Y-3363855D02*
X11757143Y-2982902D01*
X11566667Y-3363855D02*
X11566667Y-2563855D01*
X11566667Y-2563855D02*
X11871429Y-2563855D01*
X11871429Y-2563855D02*
X11947619Y-2601950D01*
X11947619Y-2601950D02*
X11985714Y-2640045D01*
X11985714Y-2640045D02*
X12023810Y-2716236D01*
X12023810Y-2716236D02*
X12023810Y-2830521D01*
X12023810Y-2830521D02*
X11985714Y-2906712D01*
X11985714Y-2906712D02*
X11947619Y-2944807D01*
X11947619Y-2944807D02*
X11871429Y-2982902D01*
X11871429Y-2982902D02*
X11566667Y-2982902D01*
X12519048Y-2982902D02*
X12519048Y-3363855D01*
X12252381Y-2563855D02*
X12519048Y-2982902D01*
X12519048Y-2982902D02*
X12785714Y-2563855D01*
X14119048Y-3363855D02*
X13852381Y-2982902D01*
X13661905Y-3363855D02*
X13661905Y-2563855D01*
X13661905Y-2563855D02*
X13966667Y-2563855D01*
X13966667Y-2563855D02*
X14042857Y-2601950D01*
X14042857Y-2601950D02*
X14080952Y-2640045D01*
X14080952Y-2640045D02*
X14119048Y-2716236D01*
X14119048Y-2716236D02*
X14119048Y-2830521D01*
X14119048Y-2830521D02*
X14080952Y-2906712D01*
X14080952Y-2906712D02*
X14042857Y-2944807D01*
X14042857Y-2944807D02*
X13966667Y-2982902D01*
X13966667Y-2982902D02*
X13661905Y-2982902D01*
X14423809Y-2640045D02*
X14461905Y-2601950D01*
X14461905Y-2601950D02*
X14538095Y-2563855D01*
X14538095Y-2563855D02*
X14728571Y-2563855D01*
X14728571Y-2563855D02*
X14804762Y-2601950D01*
X14804762Y-2601950D02*
X14842857Y-2640045D01*
X14842857Y-2640045D02*
X14880952Y-2716236D01*
X14880952Y-2716236D02*
X14880952Y-2792426D01*
X14880952Y-2792426D02*
X14842857Y-2906712D01*
X14842857Y-2906712D02*
X14385714Y-3363855D01*
X14385714Y-3363855D02*
X14880952Y-3363855D01*
X15185714Y-2640045D02*
X15223810Y-2601950D01*
X15223810Y-2601950D02*
X15300000Y-2563855D01*
X15300000Y-2563855D02*
X15490476Y-2563855D01*
X15490476Y-2563855D02*
X15566667Y-2601950D01*
X15566667Y-2601950D02*
X15604762Y-2640045D01*
X15604762Y-2640045D02*
X15642857Y-2716236D01*
X15642857Y-2716236D02*
X15642857Y-2792426D01*
X15642857Y-2792426D02*
X15604762Y-2906712D01*
X15604762Y-2906712D02*
X15147619Y-3363855D01*
X15147619Y-3363855D02*
X15642857Y-3363855D01*
X22780952Y-12563855D02*
X22971428Y-13363855D01*
X22971428Y-13363855D02*
X23123809Y-12792426D01*
X23123809Y-12792426D02*
X23276190Y-13363855D01*
X23276190Y-13363855D02*
X23466667Y-12563855D01*
X23695238Y-12563855D02*
X24190476Y-12563855D01*
X24190476Y-12563855D02*
X23923810Y-12868617D01*
X23923810Y-12868617D02*
X24038095Y-12868617D01*
X24038095Y-12868617D02*
X24114286Y-12906712D01*
X24114286Y-12906712D02*
X24152381Y-12944807D01*
X24152381Y-12944807D02*
X24190476Y-13020998D01*
X24190476Y-13020998D02*
X24190476Y-13211474D01*
X24190476Y-13211474D02*
X24152381Y-13287664D01*
X24152381Y-13287664D02*
X24114286Y-13325760D01*
X24114286Y-13325760D02*
X24038095Y-13363855D01*
X24038095Y-13363855D02*
X23809524Y-13363855D01*
X23809524Y-13363855D02*
X23733333Y-13325760D01*
X23733333Y-13325760D02*
X23695238Y-13287664D01*
X24533334Y-13059093D02*
X25142858Y-13059093D01*
X24838096Y-13363855D02*
X24838096Y-12754331D01*
X22780952Y-20563855D02*
X22971428Y-21363855D01*
X22971428Y-21363855D02*
X23123809Y-20792426D01*
X23123809Y-20792426D02*
X23276190Y-21363855D01*
X23276190Y-21363855D02*
X23466667Y-20563855D01*
X24114286Y-20830521D02*
X24114286Y-21363855D01*
X23923810Y-20525760D02*
X23733333Y-21097188D01*
X23733333Y-21097188D02*
X24228572Y-21097188D01*
X24533334Y-21059093D02*
X25142858Y-21059093D01*
X30780952Y-8563855D02*
X30971428Y-9363855D01*
X30971428Y-9363855D02*
X31123809Y-8792426D01*
X31123809Y-8792426D02*
X31276190Y-9363855D01*
X31276190Y-9363855D02*
X31466667Y-8563855D01*
X32152381Y-8563855D02*
X31771429Y-8563855D01*
X31771429Y-8563855D02*
X31733333Y-8944807D01*
X31733333Y-8944807D02*
X31771429Y-8906712D01*
X31771429Y-8906712D02*
X31847619Y-8868617D01*
X31847619Y-8868617D02*
X32038095Y-8868617D01*
X32038095Y-8868617D02*
X32114286Y-8906712D01*
X32114286Y-8906712D02*
X32152381Y-8944807D01*
X32152381Y-8944807D02*
X32190476Y-9020998D01*
X32190476Y-9020998D02*
X32190476Y-9211474D01*
X32190476Y-9211474D02*
X32152381Y-9287664D01*
X32152381Y-9287664D02*
X32114286Y-9325760D01*
X32114286Y-9325760D02*
X32038095Y-9363855D01*
X32038095Y-9363855D02*
X31847619Y-9363855D01*
X31847619Y-9363855D02*
X31771429Y-9325760D01*
X31771429Y-9325760D02*
X31733333Y-9287664D01*
X32533334Y-9059093D02*
X33142858Y-9059093D01*
X32838096Y-9363855D02*
X32838096Y-8754331D01*
X30780952Y-23363855D02*
X30971428Y-24163855D01*
X30971428Y-24163855D02*
X31123809Y-23592426D01*
X31123809Y-23592426D02*
X31276190Y-24163855D01*
X31276190Y-24163855D02*
X31466667Y-23363855D01*
X32114286Y-23363855D02*
X31961905Y-23363855D01*
X31961905Y-23363855D02*
X31885714Y-23401950D01*
X31885714Y-23401950D02*
X31847619Y-23440045D01*
X31847619Y-23440045D02*
X31771429Y-23554331D01*
X31771429Y-23554331D02*
X31733333Y-23706712D01*
X31733333Y-23706712D02*
X31733333Y-24011474D01*
X31733333Y-24011474D02*
X31771429Y-24087664D01*
X31771429Y-24087664D02*
X31809524Y-24125760D01*
X31809524Y-24125760D02*
X31885714Y-24163855D01*
X31885714Y-24163855D02*
X32038095Y-24163855D01*
X32038095Y-24163855D02*
X32114286Y-24125760D01*
X32114286Y-24125760D02*
X32152381Y-24087664D01*
X32152381Y-24087664D02*
X32190476Y-24011474D01*
X32190476Y-24011474D02*
X32190476Y-23820998D01*
X32190476Y-23820998D02*
X32152381Y-23744807D01*
X32152381Y-23744807D02*
X32114286Y-23706712D01*
X32114286Y-23706712D02*
X32038095Y-23668617D01*
X32038095Y-23668617D02*
X31885714Y-23668617D01*
X31885714Y-23668617D02*
X31809524Y-23706712D01*
X31809524Y-23706712D02*
X31771429Y-23744807D01*
X31771429Y-23744807D02*
X31733333Y-23820998D01*
X32533334Y-23859093D02*
X33142858Y-23859093D01*
X38780952Y-8563855D02*
X38971428Y-9363855D01*
X38971428Y-9363855D02*
X39123809Y-8792426D01*
X39123809Y-8792426D02*
X39276190Y-9363855D01*
X39276190Y-9363855D02*
X39466667Y-8563855D01*
X39695238Y-8563855D02*
X40228572Y-8563855D01*
X40228572Y-8563855D02*
X39885714Y-9363855D01*
X40533334Y-9059093D02*
X41142858Y-9059093D01*
X40838096Y-9363855D02*
X40838096Y-8754331D01*
X43280952Y-19563855D02*
X43471428Y-20363855D01*
X43471428Y-20363855D02*
X43623809Y-19792426D01*
X43623809Y-19792426D02*
X43776190Y-20363855D01*
X43776190Y-20363855D02*
X43966667Y-19563855D01*
X44385714Y-19906712D02*
X44309524Y-19868617D01*
X44309524Y-19868617D02*
X44271429Y-19830521D01*
X44271429Y-19830521D02*
X44233333Y-19754331D01*
X44233333Y-19754331D02*
X44233333Y-19716236D01*
X44233333Y-19716236D02*
X44271429Y-19640045D01*
X44271429Y-19640045D02*
X44309524Y-19601950D01*
X44309524Y-19601950D02*
X44385714Y-19563855D01*
X44385714Y-19563855D02*
X44538095Y-19563855D01*
X44538095Y-19563855D02*
X44614286Y-19601950D01*
X44614286Y-19601950D02*
X44652381Y-19640045D01*
X44652381Y-19640045D02*
X44690476Y-19716236D01*
X44690476Y-19716236D02*
X44690476Y-19754331D01*
X44690476Y-19754331D02*
X44652381Y-19830521D01*
X44652381Y-19830521D02*
X44614286Y-19868617D01*
X44614286Y-19868617D02*
X44538095Y-19906712D01*
X44538095Y-19906712D02*
X44385714Y-19906712D01*
X44385714Y-19906712D02*
X44309524Y-19944807D01*
X44309524Y-19944807D02*
X44271429Y-19982902D01*
X44271429Y-19982902D02*
X44233333Y-20059093D01*
X44233333Y-20059093D02*
X44233333Y-20211474D01*
X44233333Y-20211474D02*
X44271429Y-20287664D01*
X44271429Y-20287664D02*
X44309524Y-20325760D01*
X44309524Y-20325760D02*
X44385714Y-20363855D01*
X44385714Y-20363855D02*
X44538095Y-20363855D01*
X44538095Y-20363855D02*
X44614286Y-20325760D01*
X44614286Y-20325760D02*
X44652381Y-20287664D01*
X44652381Y-20287664D02*
X44690476Y-20211474D01*
X44690476Y-20211474D02*
X44690476Y-20059093D01*
X44690476Y-20059093D02*
X44652381Y-19982902D01*
X44652381Y-19982902D02*
X44614286Y-19944807D01*
X44614286Y-19944807D02*
X44538095Y-19906712D01*
X45033334Y-20059093D02*
X45642858Y-20059093D01*
%TO.C,C16*%
X37738748Y-24265000D02*
X38261252Y-24265000D01*
X37738748Y-25735000D02*
X38261252Y-25735000D01*
%TO.C,F1*%
X25045000Y-23785000D02*
X25045000Y-26215000D01*
X27955000Y-23785000D02*
X27955000Y-26215000D01*
%TO.C,J6*%
X32890000Y-37960000D02*
X32890000Y-39110000D01*
X32890000Y-39110000D02*
X33940000Y-39110000D01*
X33940000Y-39110000D02*
X33940000Y-40100000D01*
X34060000Y-35990000D02*
X36940000Y-35990000D01*
X38110000Y-37960000D02*
X38110000Y-39110000D01*
X38110000Y-39110000D02*
X37060000Y-39110000D01*
%TO.C,J3*%
X41390000Y-37960000D02*
X41390000Y-39110000D01*
X41390000Y-39110000D02*
X42440000Y-39110000D01*
X42440000Y-39110000D02*
X42440000Y-40100000D01*
X42560000Y-35990000D02*
X44440000Y-35990000D01*
X45610000Y-37960000D02*
X45610000Y-39110000D01*
X45610000Y-39110000D02*
X44560000Y-39110000D01*
%TO.C,C9*%
X6288748Y-20640000D02*
X7711252Y-20640000D01*
X6288748Y-23360000D02*
X7711252Y-23360000D01*
%TO.C,C8*%
X17859420Y-20490000D02*
X18140580Y-20490000D01*
X17859420Y-21510000D02*
X18140580Y-21510000D01*
%TO.C,J7*%
X24890000Y-37960000D02*
X24890000Y-39110000D01*
X24890000Y-39110000D02*
X25940000Y-39110000D01*
X25940000Y-39110000D02*
X25940000Y-40100000D01*
X26060000Y-35990000D02*
X28940000Y-35990000D01*
X30110000Y-37960000D02*
X30110000Y-39110000D01*
X30110000Y-39110000D02*
X29060000Y-39110000D01*
%TO.C,J5*%
X28290000Y-2890000D02*
X29340000Y-2890000D01*
X28290000Y-4040000D02*
X28290000Y-2890000D01*
X37340000Y-6010000D02*
X29460000Y-6010000D01*
X37460000Y-2890000D02*
X37460000Y-1900000D01*
X38510000Y-2890000D02*
X37460000Y-2890000D01*
X38510000Y-4040000D02*
X38510000Y-2890000D01*
%TO.C,C12*%
X12288748Y-33640000D02*
X13711252Y-33640000D01*
X12288748Y-36360000D02*
X13711252Y-36360000D01*
%TO.C,C18*%
X36749759Y-29161000D02*
X37379759Y-29161000D01*
X37064759Y-28846000D02*
X37064759Y-29476000D01*
X40250000Y-27770000D02*
X40250000Y-34230000D01*
X40290000Y-27770000D02*
X40290000Y-34230000D01*
X40330000Y-27771000D02*
X40330000Y-34229000D01*
X40370000Y-27772000D02*
X40370000Y-34228000D01*
X40410000Y-27774000D02*
X40410000Y-34226000D01*
X40450000Y-27776000D02*
X40450000Y-34224000D01*
X40490000Y-27779000D02*
X40490000Y-29960000D01*
X40490000Y-32040000D02*
X40490000Y-34221000D01*
X40530000Y-27782000D02*
X40530000Y-29960000D01*
X40530000Y-32040000D02*
X40530000Y-34218000D01*
X40570000Y-27786000D02*
X40570000Y-29960000D01*
X40570000Y-32040000D02*
X40570000Y-34214000D01*
X40610000Y-27790000D02*
X40610000Y-29960000D01*
X40610000Y-32040000D02*
X40610000Y-34210000D01*
X40650000Y-27795000D02*
X40650000Y-29960000D01*
X40650000Y-32040000D02*
X40650000Y-34205000D01*
X40690000Y-27800000D02*
X40690000Y-29960000D01*
X40690000Y-32040000D02*
X40690000Y-34200000D01*
X40730000Y-27805000D02*
X40730000Y-29960000D01*
X40730000Y-32040000D02*
X40730000Y-34195000D01*
X40770000Y-27812000D02*
X40770000Y-29960000D01*
X40770000Y-32040000D02*
X40770000Y-34188000D01*
X40810000Y-27818000D02*
X40810000Y-29960000D01*
X40810000Y-32040000D02*
X40810000Y-34182000D01*
X40850000Y-27826000D02*
X40850000Y-29960000D01*
X40850000Y-32040000D02*
X40850000Y-34174000D01*
X40890000Y-27833000D02*
X40890000Y-29960000D01*
X40890000Y-32040000D02*
X40890000Y-34167000D01*
X40930000Y-27841000D02*
X40930000Y-29960000D01*
X40930000Y-32040000D02*
X40930000Y-34159000D01*
X40970000Y-27850000D02*
X40970000Y-29960000D01*
X40970000Y-32040000D02*
X40970000Y-34150000D01*
X41010000Y-27860000D02*
X41010000Y-29960000D01*
X41010000Y-32040000D02*
X41010000Y-34140000D01*
X41050000Y-27869000D02*
X41050000Y-29960000D01*
X41050000Y-32040000D02*
X41050000Y-34131000D01*
X41090000Y-27880000D02*
X41090000Y-29960000D01*
X41090000Y-32040000D02*
X41090000Y-34120000D01*
X41130000Y-27891000D02*
X41130000Y-29960000D01*
X41130000Y-32040000D02*
X41130000Y-34109000D01*
X41170000Y-27902000D02*
X41170000Y-29960000D01*
X41170000Y-32040000D02*
X41170000Y-34098000D01*
X41210000Y-27914000D02*
X41210000Y-29960000D01*
X41210000Y-32040000D02*
X41210000Y-34086000D01*
X41250000Y-27927000D02*
X41250000Y-29960000D01*
X41250000Y-32040000D02*
X41250000Y-34073000D01*
X41290000Y-27940000D02*
X41290000Y-29960000D01*
X41290000Y-32040000D02*
X41290000Y-34060000D01*
X41330000Y-27953000D02*
X41330000Y-29960000D01*
X41330000Y-32040000D02*
X41330000Y-34047000D01*
X41370000Y-27968000D02*
X41370000Y-29960000D01*
X41370000Y-32040000D02*
X41370000Y-34032000D01*
X41410000Y-27983000D02*
X41410000Y-29960000D01*
X41410000Y-32040000D02*
X41410000Y-34017000D01*
X41450000Y-27998000D02*
X41450000Y-29960000D01*
X41450000Y-32040000D02*
X41450000Y-34002000D01*
X41490000Y-28014000D02*
X41490000Y-29960000D01*
X41490000Y-32040000D02*
X41490000Y-33986000D01*
X41530000Y-28031000D02*
X41530000Y-29960000D01*
X41530000Y-32040000D02*
X41530000Y-33969000D01*
X41570000Y-28048000D02*
X41570000Y-29960000D01*
X41570000Y-32040000D02*
X41570000Y-33952000D01*
X41610000Y-28066000D02*
X41610000Y-29960000D01*
X41610000Y-32040000D02*
X41610000Y-33934000D01*
X41650000Y-28085000D02*
X41650000Y-29960000D01*
X41650000Y-32040000D02*
X41650000Y-33915000D01*
X41690000Y-28104000D02*
X41690000Y-29960000D01*
X41690000Y-32040000D02*
X41690000Y-33896000D01*
X41730000Y-28124000D02*
X41730000Y-29960000D01*
X41730000Y-32040000D02*
X41730000Y-33876000D01*
X41770000Y-28145000D02*
X41770000Y-29960000D01*
X41770000Y-32040000D02*
X41770000Y-33855000D01*
X41810000Y-28166000D02*
X41810000Y-29960000D01*
X41810000Y-32040000D02*
X41810000Y-33834000D01*
X41850000Y-28188000D02*
X41850000Y-29960000D01*
X41850000Y-32040000D02*
X41850000Y-33812000D01*
X41890000Y-28211000D02*
X41890000Y-29960000D01*
X41890000Y-32040000D02*
X41890000Y-33789000D01*
X41930000Y-28235000D02*
X41930000Y-29960000D01*
X41930000Y-32040000D02*
X41930000Y-33765000D01*
X41970000Y-28259000D02*
X41970000Y-29960000D01*
X41970000Y-32040000D02*
X41970000Y-33741000D01*
X42010000Y-28284000D02*
X42010000Y-29960000D01*
X42010000Y-32040000D02*
X42010000Y-33716000D01*
X42050000Y-28310000D02*
X42050000Y-29960000D01*
X42050000Y-32040000D02*
X42050000Y-33690000D01*
X42090000Y-28337000D02*
X42090000Y-29960000D01*
X42090000Y-32040000D02*
X42090000Y-33663000D01*
X42130000Y-28364000D02*
X42130000Y-29960000D01*
X42130000Y-32040000D02*
X42130000Y-33636000D01*
X42170000Y-28393000D02*
X42170000Y-29960000D01*
X42170000Y-32040000D02*
X42170000Y-33607000D01*
X42210000Y-28423000D02*
X42210000Y-29960000D01*
X42210000Y-32040000D02*
X42210000Y-33577000D01*
X42250000Y-28453000D02*
X42250000Y-29960000D01*
X42250000Y-32040000D02*
X42250000Y-33547000D01*
X42290000Y-28484000D02*
X42290000Y-29960000D01*
X42290000Y-32040000D02*
X42290000Y-33516000D01*
X42330000Y-28517000D02*
X42330000Y-29960000D01*
X42330000Y-32040000D02*
X42330000Y-33483000D01*
X42370000Y-28550000D02*
X42370000Y-29960000D01*
X42370000Y-32040000D02*
X42370000Y-33450000D01*
X42410000Y-28585000D02*
X42410000Y-29960000D01*
X42410000Y-32040000D02*
X42410000Y-33415000D01*
X42450000Y-28621000D02*
X42450000Y-29960000D01*
X42450000Y-32040000D02*
X42450000Y-33379000D01*
X42490000Y-28658000D02*
X42490000Y-29960000D01*
X42490000Y-32040000D02*
X42490000Y-33342000D01*
X42530000Y-28696000D02*
X42530000Y-29960000D01*
X42530000Y-32040000D02*
X42530000Y-33304000D01*
X42570000Y-28736000D02*
X42570000Y-33264000D01*
X42610000Y-28777000D02*
X42610000Y-33223000D01*
X42650000Y-28819000D02*
X42650000Y-33181000D01*
X42690000Y-28863000D02*
X42690000Y-33137000D01*
X42730000Y-28909000D02*
X42730000Y-33091000D01*
X42770000Y-28956000D02*
X42770000Y-33044000D01*
X42810000Y-29005000D02*
X42810000Y-32995000D01*
X42850000Y-29057000D02*
X42850000Y-32943000D01*
X42890000Y-29110000D02*
X42890000Y-32890000D01*
X42930000Y-29166000D02*
X42930000Y-32834000D01*
X42970000Y-29225000D02*
X42970000Y-32775000D01*
X43010000Y-29286000D02*
X43010000Y-32714000D01*
X43050000Y-29351000D02*
X43050000Y-32649000D01*
X43090000Y-29419000D02*
X43090000Y-32581000D01*
X43130000Y-29491000D02*
X43130000Y-32509000D01*
X43170000Y-29568000D02*
X43170000Y-32432000D01*
X43210000Y-29650000D02*
X43210000Y-32350000D01*
X43250000Y-29739000D02*
X43250000Y-32261000D01*
X43290000Y-29835000D02*
X43290000Y-32165000D01*
X43330000Y-29942000D02*
X43330000Y-32058000D01*
X43370000Y-30061000D02*
X43370000Y-31939000D01*
X43410000Y-30199000D02*
X43410000Y-31801000D01*
X43450000Y-30367000D02*
X43450000Y-31633000D01*
X43490000Y-30598000D02*
X43490000Y-31402000D01*
X43520000Y-31000000D02*
G75*
G02*
X36980000Y-31000000I-3270000J0D01*
G01*
X36980000Y-31000000D02*
G75*
G02*
X43520000Y-31000000I3270000J0D01*
G01*
%TO.C,C13*%
X17288748Y-33640000D02*
X18711252Y-33640000D01*
X17288748Y-36360000D02*
X18711252Y-36360000D01*
%TO.C,C17*%
X32859420Y-29490000D02*
X33140580Y-29490000D01*
X32859420Y-30510000D02*
X33140580Y-30510000D01*
%TO.C,J1*%
X46215000Y-22390000D02*
X46215000Y-23440000D01*
X46215000Y-25560000D02*
X45225000Y-25560000D01*
X46215000Y-26610000D02*
X46215000Y-25560000D01*
X48715000Y-22390000D02*
X46215000Y-22390000D01*
X48715000Y-26610000D02*
X46215000Y-26610000D01*
X50685000Y-25440000D02*
X50685000Y-23560000D01*
%TO.C,R10*%
X17762742Y-18477500D02*
X18237258Y-18477500D01*
X17762742Y-19522500D02*
X18237258Y-19522500D01*
%TO.C,J2*%
X46215000Y-29390000D02*
X46215000Y-30440000D01*
X46215000Y-32560000D02*
X45225000Y-32560000D01*
X46215000Y-33610000D02*
X46215000Y-32560000D01*
X48715000Y-29390000D02*
X46215000Y-29390000D01*
X48715000Y-33610000D02*
X46215000Y-33610000D01*
X50685000Y-32440000D02*
X50685000Y-30560000D01*
%TO.C,C11*%
X1340302Y-29685000D02*
X2140302Y-29685000D01*
X1740302Y-29285000D02*
X1740302Y-30085000D01*
X5750000Y-27920000D02*
X5750000Y-36080000D01*
X5790000Y-27920000D02*
X5790000Y-36080000D01*
X5830000Y-27921000D02*
X5830000Y-36079000D01*
X5870000Y-27922000D02*
X5870000Y-36078000D01*
X5910000Y-27923000D02*
X5910000Y-36077000D01*
X5950000Y-27925000D02*
X5950000Y-36075000D01*
X5990000Y-27927000D02*
X5990000Y-36073000D01*
X6030000Y-27930000D02*
X6030000Y-36070000D01*
X6070000Y-27932000D02*
X6070000Y-36068000D01*
X6110000Y-27936000D02*
X6110000Y-36064000D01*
X6150000Y-27939000D02*
X6150000Y-36061000D01*
X6190000Y-27944000D02*
X6190000Y-36056000D01*
X6230000Y-27948000D02*
X6230000Y-36052000D01*
X6270000Y-27953000D02*
X6270000Y-36047000D01*
X6310000Y-27958000D02*
X6310000Y-36042000D01*
X6350000Y-27964000D02*
X6350000Y-36036000D01*
X6390000Y-27970000D02*
X6390000Y-36030000D01*
X6430000Y-27977000D02*
X6430000Y-36023000D01*
X6470000Y-27983000D02*
X6470000Y-30960000D01*
X6470000Y-33040000D02*
X6470000Y-36017000D01*
X6510000Y-27991000D02*
X6510000Y-30960000D01*
X6510000Y-33040000D02*
X6510000Y-36009000D01*
X6550000Y-27998000D02*
X6550000Y-30960000D01*
X6550000Y-33040000D02*
X6550000Y-36002000D01*
X6590000Y-28007000D02*
X6590000Y-30960000D01*
X6590000Y-33040000D02*
X6590000Y-35993000D01*
X6630000Y-28015000D02*
X6630000Y-30960000D01*
X6630000Y-33040000D02*
X6630000Y-35985000D01*
X6670000Y-28024000D02*
X6670000Y-30960000D01*
X6670000Y-33040000D02*
X6670000Y-35976000D01*
X6710000Y-28033000D02*
X6710000Y-30960000D01*
X6710000Y-33040000D02*
X6710000Y-35967000D01*
X6750000Y-28043000D02*
X6750000Y-30960000D01*
X6750000Y-33040000D02*
X6750000Y-35957000D01*
X6790000Y-28053000D02*
X6790000Y-30960000D01*
X6790000Y-33040000D02*
X6790000Y-35947000D01*
X6830000Y-28064000D02*
X6830000Y-30960000D01*
X6830000Y-33040000D02*
X6830000Y-35936000D01*
X6870000Y-28075000D02*
X6870000Y-30960000D01*
X6870000Y-33040000D02*
X6870000Y-35925000D01*
X6910000Y-28087000D02*
X6910000Y-30960000D01*
X6910000Y-33040000D02*
X6910000Y-35913000D01*
X6950000Y-28099000D02*
X6950000Y-30960000D01*
X6950000Y-33040000D02*
X6950000Y-35901000D01*
X6990000Y-28111000D02*
X6990000Y-30960000D01*
X6990000Y-33040000D02*
X6990000Y-35889000D01*
X7030000Y-28124000D02*
X7030000Y-30960000D01*
X7030000Y-33040000D02*
X7030000Y-35876000D01*
X7070000Y-28137000D02*
X7070000Y-30960000D01*
X7070000Y-33040000D02*
X7070000Y-35863000D01*
X7110000Y-28151000D02*
X7110000Y-30960000D01*
X7110000Y-33040000D02*
X7110000Y-35849000D01*
X7150000Y-28165000D02*
X7150000Y-30960000D01*
X7150000Y-33040000D02*
X7150000Y-35835000D01*
X7190000Y-28180000D02*
X7190000Y-30960000D01*
X7190000Y-33040000D02*
X7190000Y-35820000D01*
X7230000Y-28195000D02*
X7230000Y-30960000D01*
X7230000Y-33040000D02*
X7230000Y-35805000D01*
X7270000Y-28211000D02*
X7270000Y-30960000D01*
X7270000Y-33040000D02*
X7270000Y-35789000D01*
X7310000Y-28227000D02*
X7310000Y-30960000D01*
X7310000Y-33040000D02*
X7310000Y-35773000D01*
X7350000Y-28243000D02*
X7350000Y-30960000D01*
X7350000Y-33040000D02*
X7350000Y-35757000D01*
X7390000Y-28260000D02*
X7390000Y-30960000D01*
X7390000Y-33040000D02*
X7390000Y-35740000D01*
X7430000Y-28278000D02*
X7430000Y-30960000D01*
X7430000Y-33040000D02*
X7430000Y-35722000D01*
X7470000Y-28296000D02*
X7470000Y-30960000D01*
X7470000Y-33040000D02*
X7470000Y-35704000D01*
X7510000Y-28315000D02*
X7510000Y-30960000D01*
X7510000Y-33040000D02*
X7510000Y-35685000D01*
X7550000Y-28334000D02*
X7550000Y-30960000D01*
X7550000Y-33040000D02*
X7550000Y-35666000D01*
X7590000Y-28354000D02*
X7590000Y-30960000D01*
X7590000Y-33040000D02*
X7590000Y-35646000D01*
X7630000Y-28374000D02*
X7630000Y-30960000D01*
X7630000Y-33040000D02*
X7630000Y-35626000D01*
X7670000Y-28395000D02*
X7670000Y-30960000D01*
X7670000Y-33040000D02*
X7670000Y-35605000D01*
X7710000Y-28416000D02*
X7710000Y-30960000D01*
X7710000Y-33040000D02*
X7710000Y-35584000D01*
X7750000Y-28438000D02*
X7750000Y-30960000D01*
X7750000Y-33040000D02*
X7750000Y-35562000D01*
X7790000Y-28461000D02*
X7790000Y-30960000D01*
X7790000Y-33040000D02*
X7790000Y-35539000D01*
X7830000Y-28484000D02*
X7830000Y-30960000D01*
X7830000Y-33040000D02*
X7830000Y-35516000D01*
X7870000Y-28507000D02*
X7870000Y-30960000D01*
X7870000Y-33040000D02*
X7870000Y-35493000D01*
X7910000Y-28532000D02*
X7910000Y-30960000D01*
X7910000Y-33040000D02*
X7910000Y-35468000D01*
X7950000Y-28557000D02*
X7950000Y-30960000D01*
X7950000Y-33040000D02*
X7950000Y-35443000D01*
X7990000Y-28582000D02*
X7990000Y-30960000D01*
X7990000Y-33040000D02*
X7990000Y-35418000D01*
X8030000Y-28608000D02*
X8030000Y-30960000D01*
X8030000Y-33040000D02*
X8030000Y-35392000D01*
X8070000Y-28635000D02*
X8070000Y-30960000D01*
X8070000Y-33040000D02*
X8070000Y-35365000D01*
X8110000Y-28663000D02*
X8110000Y-30960000D01*
X8110000Y-33040000D02*
X8110000Y-35337000D01*
X8150000Y-28691000D02*
X8150000Y-30960000D01*
X8150000Y-33040000D02*
X8150000Y-35309000D01*
X8190000Y-28720000D02*
X8190000Y-30960000D01*
X8190000Y-33040000D02*
X8190000Y-35280000D01*
X8230000Y-28750000D02*
X8230000Y-30960000D01*
X8230000Y-33040000D02*
X8230000Y-35250000D01*
X8270000Y-28781000D02*
X8270000Y-30960000D01*
X8270000Y-33040000D02*
X8270000Y-35219000D01*
X8310000Y-28812000D02*
X8310000Y-30960000D01*
X8310000Y-33040000D02*
X8310000Y-35188000D01*
X8350000Y-28844000D02*
X8350000Y-30960000D01*
X8350000Y-33040000D02*
X8350000Y-35156000D01*
X8390000Y-28877000D02*
X8390000Y-30960000D01*
X8390000Y-33040000D02*
X8390000Y-35123000D01*
X8430000Y-28911000D02*
X8430000Y-30960000D01*
X8430000Y-33040000D02*
X8430000Y-35089000D01*
X8470000Y-28945000D02*
X8470000Y-30960000D01*
X8470000Y-33040000D02*
X8470000Y-35055000D01*
X8510000Y-28981000D02*
X8510000Y-30960000D01*
X8510000Y-33040000D02*
X8510000Y-35019000D01*
X8550000Y-29018000D02*
X8550000Y-34982000D01*
X8590000Y-29055000D02*
X8590000Y-34945000D01*
X8630000Y-29094000D02*
X8630000Y-34906000D01*
X8670000Y-29133000D02*
X8670000Y-34867000D01*
X8710000Y-29174000D02*
X8710000Y-34826000D01*
X8750000Y-29216000D02*
X8750000Y-34784000D01*
X8790000Y-29259000D02*
X8790000Y-34741000D01*
X8830000Y-29304000D02*
X8830000Y-34696000D01*
X8870000Y-29349000D02*
X8870000Y-34651000D01*
X8910000Y-29396000D02*
X8910000Y-34604000D01*
X8950000Y-29445000D02*
X8950000Y-34555000D01*
X8990000Y-29495000D02*
X8990000Y-34505000D01*
X9030000Y-29547000D02*
X9030000Y-34453000D01*
X9070000Y-29600000D02*
X9070000Y-34400000D01*
X9110000Y-29656000D02*
X9110000Y-34344000D01*
X9150000Y-29713000D02*
X9150000Y-34287000D01*
X9190000Y-29773000D02*
X9190000Y-34227000D01*
X9230000Y-29835000D02*
X9230000Y-34165000D01*
X9270000Y-29899000D02*
X9270000Y-34101000D01*
X9310000Y-29966000D02*
X9310000Y-34034000D01*
X9350000Y-30036000D02*
X9350000Y-33964000D01*
X9390000Y-30110000D02*
X9390000Y-33890000D01*
X9430000Y-30187000D02*
X9430000Y-33813000D01*
X9470000Y-30269000D02*
X9470000Y-33731000D01*
X9510000Y-30356000D02*
X9510000Y-33644000D01*
X9550000Y-30448000D02*
X9550000Y-33552000D01*
X9590000Y-30547000D02*
X9590000Y-33453000D01*
X9630000Y-30654000D02*
X9630000Y-33346000D01*
X9670000Y-30772000D02*
X9670000Y-33228000D01*
X9710000Y-30903000D02*
X9710000Y-33097000D01*
X9750000Y-31053000D02*
X9750000Y-32947000D01*
X9790000Y-31232000D02*
X9790000Y-32768000D01*
X9830000Y-31467000D02*
X9830000Y-32533000D01*
X9870000Y-32000000D02*
G75*
G02*
X1630000Y-32000000I-4120000J0D01*
G01*
X1630000Y-32000000D02*
G75*
G02*
X9870000Y-32000000I4120000J0D01*
G01*
%TO.C,J4*%
X46215000Y-7890000D02*
X46215000Y-8940000D01*
X46215000Y-19060000D02*
X45225000Y-19060000D01*
X46215000Y-20110000D02*
X46215000Y-19060000D01*
X48715000Y-7890000D02*
X46215000Y-7890000D01*
X48715000Y-20110000D02*
X46215000Y-20110000D01*
X50685000Y-18940000D02*
X50685000Y-9060000D01*
%TO.C,C10*%
X6288748Y-24140000D02*
X7711252Y-24140000D01*
X6288748Y-26860000D02*
X7711252Y-26860000D01*
%TO.C,J8*%
X40390000Y-2890000D02*
X41440000Y-2890000D01*
X40390000Y-4040000D02*
X40390000Y-2890000D01*
X46440000Y-6010000D02*
X41560000Y-6010000D01*
X46560000Y-2890000D02*
X46560000Y-1900000D01*
X47610000Y-2890000D02*
X46560000Y-2890000D01*
X47610000Y-4040000D02*
X47610000Y-2890000D01*
%TD*%
M02*
