M48
; DRILL file KiCad 10.0.6 date 2026-09-14T01:05:35
; FORMAT={-:-/ absolute / metric / decimal}
; #@! TF.CreationDate,2026-09-14T01:05:35+08:00
; #@! TF.GenerationSoftware,Kicad,Pcbnew,10.0.6
; #@! TF.FileFunction,Plated,1,4,PTH
FMAT,2
METRIC
; #@! TA.AperFunction,Plated,PTH,ViaDrill
T1C0.200
; #@! TA.AperFunction,Plated,PTH,ViaDrill
T2C0.300
; #@! TA.AperFunction,Plated,PTH,ComponentDrill
T3C0.500
; #@! TA.AperFunction,Plated,PTH,ComponentDrill
T4C1.000
; #@! TA.AperFunction,Plated,PTH,ComponentDrill
T5C1.200
; #@! TA.AperFunction,Plated,PTH,ComponentDrill
T6C1.300
; #@! TA.AperFunction,Plated,PTH,ComponentDrill
T7C1.900
; #@! TA.AperFunction,Plated,PTH,ComponentDrill
T8C2.400
%
G90
G05
T1
X5.0Y-5.0
X5.0Y-10.0
X5.0Y-15.0
X5.0Y-20.0
X5.0Y-25.0
X5.0Y-30.0
X5.0Y-35.0
X5.0Y-40.0
X5.0Y-45.0
X7.0Y-5.0
X8.4Y-7.2
X8.6Y-3.2
X10.0Y-10.0
X10.0Y-35.0
X10.0Y-40.0
X10.0Y-45.0
X13.6Y-19.0
X13.6Y-23.0
X13.6Y-27.0
X13.8Y-8.8
X15.0Y-3.0
X15.0Y-6.0
X15.0Y-10.0
X15.0Y-55.0
X18.8Y-10.6
X19.2Y-3.6
X20.0Y-3.0
X20.0Y-10.0
X20.0Y-15.0
X20.0Y-20.0
X20.0Y-25.0
X20.0Y-30.0
X20.0Y-35.0
X20.0Y-40.0
X20.0Y-45.0
X20.0Y-50.0
X20.0Y-55.0
X20.2Y-1.0
X22.0Y-6.0
X22.2Y-10.0
X22.7Y-3.0
X22.7Y-4.0
X22.7Y-5.0
X25.0Y-2.0
X25.0Y-10.0
X25.0Y-15.0
X25.0Y-20.0
X25.0Y-25.0
X25.0Y-30.0
X25.0Y-40.0
X25.0Y-55.0
X25.9Y-45.0
X25.9Y-46.0
X26.0Y-10.0
X26.3Y-5.0
X26.6Y-5.6
X26.7Y-44.5
X26.8Y-45.5
X27.0Y-3.5
X27.0Y-4.5
X27.2Y-6.0
X28.0Y6.8
X28.0Y-1.0
X28.4Y-48.2
X28.5Y-10.0
X28.5Y-15.0
X28.5Y-21.0
X28.5Y-25.0
X28.5Y-30.0
X28.5Y-33.0
X28.6Y6.4
X30.0Y-45.0
X31.0Y-44.5
X32.2Y-48.0
X33.2Y-44.0
X33.3Y-45.5
X34.1Y-46.0
X34.6Y-47.4
X35.0Y-3.4
X35.0Y-10.0
X35.0Y-30.0
X35.0Y-35.0
X35.0Y-38.0
X35.0Y-53.0
X35.0Y-55.0
X36.0Y-6.0
X36.2Y-38.2
X36.6Y-1.8
X37.2Y-39.0
X38.0Y0.4
X39.0Y-28.175
X39.2Y-36.0
X39.8Y-0.4
X40.0Y-5.0
X40.0Y-10.0
X40.0Y-20.0
X40.0Y-40.0
X40.0Y-55.0
X40.7Y-38.75
X40.7Y-39.75
X40.7Y-40.75
X41.0Y-38.0
X41.2Y1.6
X41.2Y-41.25
X41.5Y-39.25
X41.5Y-40.25
X41.8Y-4.4
X42.0Y-54.0
X43.2Y4.8
X43.2Y3.5
X43.2Y2.2
X43.4Y-45.4
X44.2Y4.8
X44.2Y3.5
X44.2Y2.2
X44.2Y-35.2
X44.4Y-36.0
X44.6Y-32.4
X45.0Y-5.0
X45.0Y-15.0
X45.2Y4.8
X45.2Y3.5
X45.2Y2.2
X46.0Y-54.0
X46.5Y-38.75
X46.5Y-40.25
X46.5Y-41.25
X46.8Y-39.75
X46.8Y-43.0
X47.3Y-39.75
X48.1Y-39.25
X49.0Y-47.6
X49.0Y-54.0
X49.2Y-29.0
X49.7Y-28.5
X49.7Y-30.0
X50.0Y-5.0
X50.0Y-10.0
X50.0Y-15.0
X50.0Y-20.0
X50.0Y-25.0
X50.0Y-45.0
X50.0Y-55.0
X50.4Y-41.0
X50.6Y-42.4
X55.0Y-5.0
X55.0Y-10.0
X55.0Y-15.0
X55.0Y-25.0
X55.0Y-40.0
X56.3Y-28.0
X56.3Y-29.0
X56.3Y-30.0
X57.1Y-29.5
X57.2Y-27.8
X58.0Y-16.5
X58.0Y-23.5
X58.6Y-33.6
X59.4Y-30.6
X59.8Y-18.2
X59.8Y-21.2
X59.8Y-22.2
X60.0Y-5.0
X60.0Y-10.0
X60.0Y-20.0
X60.0Y-23.4
X60.0Y-30.0
X60.0Y-45.0
X60.0Y-50.0
X60.0Y-55.0
X60.5Y-15.0
X60.5Y-25.0
X62.0Y-39.0
T2
X30.8Y-7.2
X30.8Y-8.0
X30.8Y-8.8
X31.6Y-7.2
X31.6Y-8.0
X31.6Y-8.8
X32.4Y-7.2
X32.4Y-8.0
X32.4Y-8.8
X33.2Y-7.2
X33.2Y-8.0
X33.2Y-8.8
T3
X35.6Y8.5
X36.87Y8.5
X38.14Y8.5
X39.41Y8.5
X40.68Y8.5
T4
X18.0Y-52.0
X23.0Y-52.0
X47.0Y-10.0
X47.0Y-23.0
X52.0Y-10.0
X52.0Y-23.0
T5
X1.8Y6.0
X1.8Y1.0
T6
X8.5Y-16.8
X8.5Y-24.42
X8.5Y-32.04
X20.57Y-32.04
X24.38Y-32.04
X36.44Y-20.61
X36.44Y-24.42
X36.44Y-28.23
T7
X36.44Y-16.8
X36.44Y-32.04
T8
X8.0Y-52.0
X31.0Y-53.0
X32.0Y11.5
X44.0Y11.5
X44.0Y-56.0
X54.0Y-54.0
M30
