%TF.GenerationSoftware,KiCad,Pcbnew,10.0.6*%
%TF.CreationDate,2026-09-14T01:04:56+08:00*%
%TF.ProjectId,Microduck_Power_Regen_R22,4d696372-6f64-4756-936b-5f506f776572,rev?*%
%TF.SameCoordinates,Original*%
%TF.FileFunction,Soldermask,Top*%
%TF.FilePolarity,Negative*%
%FSLAX46Y46*%
G04 Gerber Fmt 4.6, Leading zero omitted, Abs format (unit mm)*
G04 Created by KiCad (PCBNEW 10.0.6) date 2026-09-14 01:04:56*
%MOMM*%
%LPD*%
G01*
G04 APERTURE LIST*
G04 APERTURE END LIST*
G36*
X44506706Y-53017740D02*
G01*
X44837427Y-53093225D01*
X45157617Y-53205264D01*
X45463250Y-53352449D01*
X45750481Y-53532928D01*
X46015698Y-53744432D01*
X46255568Y-53984302D01*
X46467072Y-54249519D01*
X46647551Y-54536750D01*
X46794736Y-54842383D01*
X46906775Y-55162573D01*
X46982260Y-55493294D01*
X47020241Y-55830387D01*
X47020241Y-56169613D01*
X46982260Y-56506706D01*
X46906775Y-56837427D01*
X46794736Y-57157617D01*
X46647551Y-57463250D01*
X46467072Y-57750481D01*
X46255568Y-58015698D01*
X46015698Y-58255568D01*
X45750481Y-58467072D01*
X45463250Y-58647551D01*
X45157617Y-58794736D01*
X44837427Y-58906775D01*
X44506706Y-58982260D01*
X44169613Y-59020241D01*
X43830387Y-59020241D01*
X43493294Y-58982260D01*
X43162573Y-58906775D01*
X42842383Y-58794736D01*
X42536750Y-58647551D01*
X42249519Y-58467072D01*
X41984302Y-58255568D01*
X41744432Y-58015698D01*
X41532928Y-57750481D01*
X41352449Y-57463250D01*
X41205264Y-57157617D01*
X41093225Y-56837427D01*
X41017740Y-56506706D01*
X40979759Y-56169613D01*
X40979759Y-55830387D01*
X41017740Y-55493294D01*
X41093225Y-55162573D01*
X41205264Y-54842383D01*
X41352449Y-54536750D01*
X41532928Y-54249519D01*
X41744432Y-53984302D01*
X41984302Y-53744432D01*
X42249519Y-53532928D01*
X42536750Y-53352449D01*
X42842383Y-53205264D01*
X43162573Y-53093225D01*
X43493294Y-53017740D01*
X43830387Y-52979759D01*
X44169613Y-52979759D01*
X44506706Y-53017740D01*
G37*
G36*
X3262626Y-55906084D02*
G01*
X3430519Y-55960636D01*
X3587811Y-56040780D01*
X3730629Y-56144543D01*
X3855457Y-56269371D01*
X3959220Y-56412189D01*
X4039364Y-56569481D01*
X4093916Y-56737374D01*
X4121532Y-56911734D01*
X4121532Y-57088266D01*
X4093916Y-57262626D01*
X4039364Y-57430519D01*
X3959220Y-57587811D01*
X3855457Y-57730629D01*
X3730629Y-57855457D01*
X3587811Y-57959220D01*
X3430519Y-58039364D01*
X3262626Y-58093916D01*
X3088266Y-58121532D01*
X2911734Y-58121532D01*
X2737374Y-58093916D01*
X2569481Y-58039364D01*
X2412189Y-57959220D01*
X2269371Y-57855457D01*
X2144543Y-57730629D01*
X2040780Y-57587811D01*
X1960636Y-57430519D01*
X1906084Y-57262626D01*
X1878468Y-57088266D01*
X1878468Y-56911734D01*
X1906084Y-56737374D01*
X1960636Y-56569481D01*
X2040780Y-56412189D01*
X2144543Y-56269371D01*
X2269371Y-56144543D01*
X2412189Y-56040780D01*
X2569481Y-55960636D01*
X2737374Y-55906084D01*
X2911734Y-55878468D01*
X3088266Y-55878468D01*
X3262626Y-55906084D01*
G37*
G36*
X62262626Y-55906084D02*
G01*
X62430519Y-55960636D01*
X62587811Y-56040780D01*
X62730629Y-56144543D01*
X62855457Y-56269371D01*
X62959220Y-56412189D01*
X63039364Y-56569481D01*
X63093916Y-56737374D01*
X63121532Y-56911734D01*
X63121532Y-57088266D01*
X63093916Y-57262626D01*
X63039364Y-57430519D01*
X62959220Y-57587811D01*
X62855457Y-57730629D01*
X62730629Y-57855457D01*
X62587811Y-57959220D01*
X62430519Y-58039364D01*
X62262626Y-58093916D01*
X62088266Y-58121532D01*
X61911734Y-58121532D01*
X61737374Y-58093916D01*
X61569481Y-58039364D01*
X61412189Y-57959220D01*
X61269371Y-57855457D01*
X61144543Y-57730629D01*
X61040780Y-57587811D01*
X60960636Y-57430519D01*
X60906084Y-57262626D01*
X60878468Y-57088266D01*
X60878468Y-56911734D01*
X60906084Y-56737374D01*
X60960636Y-56569481D01*
X61040780Y-56412189D01*
X61144543Y-56269371D01*
X61269371Y-56144543D01*
X61412189Y-56040780D01*
X61569481Y-55960636D01*
X61737374Y-55906084D01*
X61911734Y-55878468D01*
X62088266Y-55878468D01*
X62262626Y-55906084D01*
G37*
G36*
X54506706Y-51017740D02*
G01*
X54837427Y-51093225D01*
X55157617Y-51205264D01*
X55463250Y-51352449D01*
X55750481Y-51532928D01*
X56015698Y-51744432D01*
X56255568Y-51984302D01*
X56467072Y-52249519D01*
X56647551Y-52536750D01*
X56794736Y-52842383D01*
X56906775Y-53162573D01*
X56982260Y-53493294D01*
X57020241Y-53830387D01*
X57020241Y-54169613D01*
X56982260Y-54506706D01*
X56906775Y-54837427D01*
X56794736Y-55157617D01*
X56647551Y-55463250D01*
X56467072Y-55750481D01*
X56255568Y-56015698D01*
X56015698Y-56255568D01*
X55750481Y-56467072D01*
X55463250Y-56647551D01*
X55157617Y-56794736D01*
X54837427Y-56906775D01*
X54506706Y-56982260D01*
X54169613Y-57020241D01*
X53830387Y-57020241D01*
X53493294Y-56982260D01*
X53162573Y-56906775D01*
X52842383Y-56794736D01*
X52536750Y-56647551D01*
X52249519Y-56467072D01*
X51984302Y-56255568D01*
X51744432Y-56015698D01*
X51532928Y-55750481D01*
X51352449Y-55463250D01*
X51205264Y-55157617D01*
X51093225Y-54837427D01*
X51017740Y-54506706D01*
X50979759Y-54169613D01*
X50979759Y-53830387D01*
X51017740Y-53493294D01*
X51093225Y-53162573D01*
X51205264Y-52842383D01*
X51352449Y-52536750D01*
X51532928Y-52249519D01*
X51744432Y-51984302D01*
X51984302Y-51744432D01*
X52249519Y-51532928D01*
X52536750Y-51352449D01*
X52842383Y-51205264D01*
X53162573Y-51093225D01*
X53493294Y-51017740D01*
X53830387Y-50979759D01*
X54169613Y-50979759D01*
X54506706Y-51017740D01*
G37*
G36*
X31506706Y-50017740D02*
G01*
X31837427Y-50093225D01*
X32157617Y-50205264D01*
X32463250Y-50352449D01*
X32750481Y-50532928D01*
X33015698Y-50744432D01*
X33255568Y-50984302D01*
X33467072Y-51249519D01*
X33647551Y-51536750D01*
X33794736Y-51842383D01*
X33906775Y-52162573D01*
X33982260Y-52493294D01*
X34020241Y-52830387D01*
X34020241Y-53169613D01*
X33982260Y-53506706D01*
X33906775Y-53837427D01*
X33794736Y-54157617D01*
X33647551Y-54463250D01*
X33467072Y-54750481D01*
X33255568Y-55015698D01*
X33015698Y-55255568D01*
X32750481Y-55467072D01*
X32463250Y-55647551D01*
X32157617Y-55794736D01*
X31837427Y-55906775D01*
X31506706Y-55982260D01*
X31169613Y-56020241D01*
X30830387Y-56020241D01*
X30493294Y-55982260D01*
X30162573Y-55906775D01*
X29842383Y-55794736D01*
X29536750Y-55647551D01*
X29249519Y-55467072D01*
X28984302Y-55255568D01*
X28744432Y-55015698D01*
X28532928Y-54750481D01*
X28352449Y-54463250D01*
X28205264Y-54157617D01*
X28093225Y-53837427D01*
X28017740Y-53506706D01*
X27979759Y-53169613D01*
X27979759Y-52830387D01*
X28017740Y-52493294D01*
X28093225Y-52162573D01*
X28205264Y-51842383D01*
X28352449Y-51536750D01*
X28532928Y-51249519D01*
X28744432Y-50984302D01*
X28984302Y-50744432D01*
X29249519Y-50532928D01*
X29536750Y-50352449D01*
X29842383Y-50205264D01*
X30162573Y-50093225D01*
X30493294Y-50017740D01*
X30830387Y-49979759D01*
X31169613Y-49979759D01*
X31506706Y-50017740D01*
G37*
G36*
X8506706Y-49017740D02*
G01*
X8837427Y-49093225D01*
X9157617Y-49205264D01*
X9463250Y-49352449D01*
X9750481Y-49532928D01*
X10015698Y-49744432D01*
X10255568Y-49984302D01*
X10467072Y-50249519D01*
X10647551Y-50536750D01*
X10794736Y-50842383D01*
X10906775Y-51162573D01*
X10982260Y-51493294D01*
X11020241Y-51830387D01*
X11020241Y-52169613D01*
X10982260Y-52506706D01*
X10906775Y-52837427D01*
X10794736Y-53157617D01*
X10647551Y-53463250D01*
X10467072Y-53750481D01*
X10255568Y-54015698D01*
X10015698Y-54255568D01*
X9750481Y-54467072D01*
X9463250Y-54647551D01*
X9157617Y-54794736D01*
X8837427Y-54906775D01*
X8506706Y-54982260D01*
X8169613Y-55020241D01*
X7830387Y-55020241D01*
X7493294Y-54982260D01*
X7162573Y-54906775D01*
X6842383Y-54794736D01*
X6536750Y-54647551D01*
X6249519Y-54467072D01*
X5984302Y-54255568D01*
X5744432Y-54015698D01*
X5532928Y-53750481D01*
X5352449Y-53463250D01*
X5205264Y-53157617D01*
X5093225Y-52837427D01*
X5017740Y-52506706D01*
X4979759Y-52169613D01*
X4979759Y-51830387D01*
X5017740Y-51493294D01*
X5093225Y-51162573D01*
X5205264Y-50842383D01*
X5352449Y-50536750D01*
X5532928Y-50249519D01*
X5744432Y-49984302D01*
X5984302Y-49744432D01*
X6249519Y-49532928D01*
X6536750Y-49352449D01*
X6842383Y-49205264D01*
X7162573Y-49093225D01*
X7493294Y-49017740D01*
X7830387Y-48979759D01*
X8169613Y-48979759D01*
X8506706Y-49017740D01*
G37*
G36*
X18752017Y-50975401D02*
G01*
X18812045Y-50982365D01*
X18832554Y-50991421D01*
X18855238Y-50995933D01*
X18879522Y-51012159D01*
X18905167Y-51023483D01*
X18922682Y-51040998D01*
X18944454Y-51055546D01*
X18959001Y-51077317D01*
X18976516Y-51094832D01*
X18987838Y-51120474D01*
X19004067Y-51144762D01*
X19008579Y-51167447D01*
X19017634Y-51187954D01*
X19024596Y-51247970D01*
X19025000Y-51250000D01*
X19025000Y-52750000D01*
X19024596Y-52752029D01*
X19017634Y-52812045D01*
X19008579Y-52832550D01*
X19004067Y-52855238D01*
X18987837Y-52879527D01*
X18976516Y-52905167D01*
X18959003Y-52922679D01*
X18944454Y-52944454D01*
X18922679Y-52959003D01*
X18905167Y-52976516D01*
X18879527Y-52987837D01*
X18855238Y-53004067D01*
X18832550Y-53008579D01*
X18812045Y-53017634D01*
X18752031Y-53024595D01*
X18750000Y-53025000D01*
X17250000Y-53025000D01*
X17247971Y-53024596D01*
X17187954Y-53017634D01*
X17167447Y-53008579D01*
X17144762Y-53004067D01*
X17120474Y-52987838D01*
X17094832Y-52976516D01*
X17077317Y-52959001D01*
X17055546Y-52944454D01*
X17040998Y-52922682D01*
X17023483Y-52905167D01*
X17012159Y-52879522D01*
X16995933Y-52855238D01*
X16991421Y-52832554D01*
X16982365Y-52812045D01*
X16975401Y-52752019D01*
X16975000Y-52750000D01*
X16975000Y-51250000D01*
X16975401Y-51247983D01*
X16982365Y-51187954D01*
X16991421Y-51167443D01*
X16995933Y-51144762D01*
X17012158Y-51120479D01*
X17023483Y-51094832D01*
X17041000Y-51077314D01*
X17055546Y-51055546D01*
X17077314Y-51041000D01*
X17094832Y-51023483D01*
X17120479Y-51012158D01*
X17144762Y-50995933D01*
X17167443Y-50991421D01*
X17187954Y-50982365D01*
X17247982Y-50975401D01*
X17250000Y-50975000D01*
X18750000Y-50975000D01*
X18752017Y-50975401D01*
G37*
G36*
X23297542Y-51019136D02*
G01*
X23483182Y-51096031D01*
X23650253Y-51207664D01*
X23792336Y-51349747D01*
X23903969Y-51516818D01*
X23980864Y-51702458D01*
X24020064Y-51899532D01*
X24020064Y-52100468D01*
X23980864Y-52297542D01*
X23903969Y-52483182D01*
X23792336Y-52650253D01*
X23650253Y-52792336D01*
X23483182Y-52903969D01*
X23297542Y-52980864D01*
X23100468Y-53020064D01*
X22899532Y-53020064D01*
X22702458Y-52980864D01*
X22516818Y-52903969D01*
X22349747Y-52792336D01*
X22207664Y-52650253D01*
X22096031Y-52483182D01*
X22019136Y-52297542D01*
X21979936Y-52100468D01*
X21979936Y-51899532D01*
X22019136Y-51702458D01*
X22096031Y-51516818D01*
X22207664Y-51349747D01*
X22349747Y-51207664D01*
X22516818Y-51096031D01*
X22702458Y-51019136D01*
X22899532Y-50979936D01*
X23100468Y-50979936D01*
X23297542Y-51019136D01*
G37*
G36*
X50154567Y-46096903D02*
G01*
X50162678Y-46102322D01*
X50168097Y-46110433D01*
X50170000Y-46120000D01*
X50170000Y-48810000D01*
X50168097Y-48819567D01*
X50162678Y-48827678D01*
X50154567Y-48833097D01*
X50145000Y-48835000D01*
X49255000Y-48835000D01*
X49245433Y-48833097D01*
X49237322Y-48827678D01*
X49231903Y-48819567D01*
X49230000Y-48810000D01*
X49230000Y-46120000D01*
X49231903Y-46110433D01*
X49237322Y-46102322D01*
X49245433Y-46096903D01*
X49255000Y-46095000D01*
X50145000Y-46095000D01*
X50154567Y-46096903D01*
G37*
G36*
X56754567Y-46096903D02*
G01*
X56762678Y-46102322D01*
X56768097Y-46110433D01*
X56770000Y-46120000D01*
X56770000Y-48810000D01*
X56768097Y-48819567D01*
X56762678Y-48827678D01*
X56754567Y-48833097D01*
X56745000Y-48835000D01*
X51035000Y-48835000D01*
X51025433Y-48833097D01*
X51017322Y-48827678D01*
X51011903Y-48819567D01*
X51010000Y-48810000D01*
X51010000Y-46120000D01*
X51011903Y-46110433D01*
X51017322Y-46102322D01*
X51025433Y-46096903D01*
X51035000Y-46095000D01*
X56745000Y-46095000D01*
X56754567Y-46096903D01*
G37*
G36*
X50154567Y-41166903D02*
G01*
X50162678Y-41172322D01*
X50168097Y-41180433D01*
X50170000Y-41190000D01*
X50170000Y-43880000D01*
X50168097Y-43889567D01*
X50162678Y-43897678D01*
X50154567Y-43903097D01*
X50145000Y-43905000D01*
X49255000Y-43905000D01*
X49245433Y-43903097D01*
X49237322Y-43897678D01*
X49231903Y-43889567D01*
X49230000Y-43880000D01*
X49230000Y-41190000D01*
X49231903Y-41180433D01*
X49237322Y-41172322D01*
X49245433Y-41166903D01*
X49255000Y-41165000D01*
X50145000Y-41165000D01*
X50154567Y-41166903D01*
G37*
G36*
X56754567Y-41166903D02*
G01*
X56762678Y-41172322D01*
X56768097Y-41180433D01*
X56770000Y-41190000D01*
X56770000Y-43880000D01*
X56768097Y-43889567D01*
X56762678Y-43897678D01*
X56754567Y-43903097D01*
X56745000Y-43905000D01*
X51035000Y-43905000D01*
X51025433Y-43903097D01*
X51017322Y-43897678D01*
X51011903Y-43889567D01*
X51010000Y-43880000D01*
X51010000Y-41190000D01*
X51011903Y-41180433D01*
X51017322Y-41172322D01*
X51025433Y-41166903D01*
X51035000Y-41165000D01*
X56745000Y-41165000D01*
X56754567Y-41166903D01*
G37*
G36*
X1652017Y-34625401D02*
G01*
X1712045Y-34632365D01*
X1732554Y-34641421D01*
X1755238Y-34645933D01*
X1779522Y-34662159D01*
X1805167Y-34673483D01*
X1822682Y-34690998D01*
X1844454Y-34705546D01*
X1859001Y-34727317D01*
X1876516Y-34744832D01*
X1887838Y-34770474D01*
X1904067Y-34794762D01*
X1908579Y-34817447D01*
X1917634Y-34837954D01*
X1924596Y-34897970D01*
X1925000Y-34900000D01*
X1925000Y-37100000D01*
X1924596Y-37102029D01*
X1917634Y-37162045D01*
X1908579Y-37182550D01*
X1904067Y-37205238D01*
X1887837Y-37229527D01*
X1876516Y-37255167D01*
X1859003Y-37272679D01*
X1844454Y-37294454D01*
X1822679Y-37309003D01*
X1805167Y-37326516D01*
X1779527Y-37337837D01*
X1755238Y-37354067D01*
X1732550Y-37358579D01*
X1712045Y-37367634D01*
X1652031Y-37374595D01*
X1650000Y-37375000D01*
X1000000Y-37375000D01*
X997971Y-37374596D01*
X937954Y-37367634D01*
X917447Y-37358579D01*
X894762Y-37354067D01*
X870474Y-37337838D01*
X844832Y-37326516D01*
X827317Y-37309001D01*
X805546Y-37294454D01*
X790998Y-37272682D01*
X773483Y-37255167D01*
X762159Y-37229522D01*
X745933Y-37205238D01*
X741421Y-37182554D01*
X732365Y-37162045D01*
X725401Y-37102019D01*
X725000Y-37100000D01*
X725000Y-34900000D01*
X725401Y-34897983D01*
X732365Y-34837954D01*
X741421Y-34817443D01*
X745933Y-34794762D01*
X762158Y-34770479D01*
X773483Y-34744832D01*
X791000Y-34727314D01*
X805546Y-34705546D01*
X827314Y-34691000D01*
X844832Y-34673483D01*
X870479Y-34662158D01*
X894762Y-34645933D01*
X917443Y-34641421D01*
X937954Y-34632365D01*
X997982Y-34625401D01*
X1000000Y-34625000D01*
X1650000Y-34625000D01*
X1652017Y-34625401D01*
G37*
G36*
X4602017Y-34625401D02*
G01*
X4662045Y-34632365D01*
X4682554Y-34641421D01*
X4705238Y-34645933D01*
X4729522Y-34662159D01*
X4755167Y-34673483D01*
X4772682Y-34690998D01*
X4794454Y-34705546D01*
X4809001Y-34727317D01*
X4826516Y-34744832D01*
X4837838Y-34770474D01*
X4854067Y-34794762D01*
X4858579Y-34817447D01*
X4867634Y-34837954D01*
X4874596Y-34897970D01*
X4875000Y-34900000D01*
X4875000Y-37100000D01*
X4874596Y-37102029D01*
X4867634Y-37162045D01*
X4858579Y-37182550D01*
X4854067Y-37205238D01*
X4837837Y-37229527D01*
X4826516Y-37255167D01*
X4809003Y-37272679D01*
X4794454Y-37294454D01*
X4772679Y-37309003D01*
X4755167Y-37326516D01*
X4729527Y-37337837D01*
X4705238Y-37354067D01*
X4682550Y-37358579D01*
X4662045Y-37367634D01*
X4602031Y-37374595D01*
X4600000Y-37375000D01*
X3950000Y-37375000D01*
X3947971Y-37374596D01*
X3887954Y-37367634D01*
X3867447Y-37358579D01*
X3844762Y-37354067D01*
X3820474Y-37337838D01*
X3794832Y-37326516D01*
X3777317Y-37309001D01*
X3755546Y-37294454D01*
X3740998Y-37272682D01*
X3723483Y-37255167D01*
X3712159Y-37229522D01*
X3695933Y-37205238D01*
X3691421Y-37182554D01*
X3682365Y-37162045D01*
X3675401Y-37102019D01*
X3675000Y-37100000D01*
X3675000Y-34900000D01*
X3675401Y-34897983D01*
X3682365Y-34837954D01*
X3691421Y-34817443D01*
X3695933Y-34794762D01*
X3712158Y-34770479D01*
X3723483Y-34744832D01*
X3741000Y-34727314D01*
X3755546Y-34705546D01*
X3777314Y-34691000D01*
X3794832Y-34673483D01*
X3820479Y-34662158D01*
X3844762Y-34645933D01*
X3867443Y-34641421D01*
X3887954Y-34632365D01*
X3947982Y-34625401D01*
X3950000Y-34625000D01*
X4600000Y-34625000D01*
X4602017Y-34625401D01*
G37*
G36*
X43925567Y-36526903D02*
G01*
X43933678Y-36532322D01*
X43939097Y-36540433D01*
X43941000Y-36550000D01*
X43941000Y-37260000D01*
X43939097Y-37269567D01*
X43933678Y-37277678D01*
X43925567Y-37283097D01*
X43916000Y-37285000D01*
X42544000Y-37285000D01*
X42534433Y-37283097D01*
X42526322Y-37277678D01*
X42520903Y-37269567D01*
X42519000Y-37260000D01*
X42519000Y-36550000D01*
X42520903Y-36540433D01*
X42526322Y-36532322D01*
X42534433Y-36526903D01*
X42544000Y-36525000D01*
X43916000Y-36525000D01*
X43925567Y-36526903D01*
G37*
G36*
X49465567Y-32716903D02*
G01*
X49473678Y-32722322D01*
X49479097Y-32730433D01*
X49481000Y-32740000D01*
X49481000Y-33450000D01*
X49479097Y-33459567D01*
X49473678Y-33467678D01*
X49465567Y-33473097D01*
X49456000Y-33475000D01*
X48905642Y-33475000D01*
X48891000Y-33489642D01*
X48891000Y-33970357D01*
X48905643Y-33985000D01*
X49456000Y-33985000D01*
X49465567Y-33986903D01*
X49473678Y-33992322D01*
X49479097Y-34000433D01*
X49481000Y-34010000D01*
X49481000Y-34720000D01*
X49479097Y-34729567D01*
X49473678Y-34737678D01*
X49465567Y-34743097D01*
X49456000Y-34745000D01*
X48905642Y-34745000D01*
X48891000Y-34759642D01*
X48891000Y-35240357D01*
X48905643Y-35255000D01*
X49456000Y-35255000D01*
X49465567Y-35256903D01*
X49473678Y-35262322D01*
X49479097Y-35270433D01*
X49481000Y-35280000D01*
X49481000Y-35990000D01*
X49479097Y-35999567D01*
X49473678Y-36007678D01*
X49465567Y-36013097D01*
X49456000Y-36015000D01*
X48905642Y-36015000D01*
X48891000Y-36029642D01*
X48891000Y-36510357D01*
X48905643Y-36525000D01*
X49456000Y-36525000D01*
X49465567Y-36526903D01*
X49473678Y-36532322D01*
X49479097Y-36540433D01*
X49481000Y-36550000D01*
X49481000Y-37260000D01*
X49479097Y-37269567D01*
X49473678Y-37277678D01*
X49465567Y-37283097D01*
X49456000Y-37285000D01*
X48866000Y-37285000D01*
X45016000Y-37285000D01*
X45006433Y-37283097D01*
X44998322Y-37277678D01*
X44992903Y-37269567D01*
X44991000Y-37260000D01*
X44991000Y-32740000D01*
X44992903Y-32730433D01*
X44998322Y-32722322D01*
X45006433Y-32716903D01*
X45016000Y-32715000D01*
X48866000Y-32715000D01*
X49453536Y-32715000D01*
X49456000Y-32715000D01*
X49465567Y-32716903D01*
G37*
G36*
X57993567Y-32716903D02*
G01*
X58001678Y-32722322D01*
X58007097Y-32730433D01*
X58009000Y-32740000D01*
X58009000Y-37260000D01*
X58007097Y-37269567D01*
X58001678Y-37277678D01*
X57993567Y-37283097D01*
X57984000Y-37285000D01*
X54134000Y-37285000D01*
X53544000Y-37285000D01*
X53534433Y-37283097D01*
X53526322Y-37277678D01*
X53520903Y-37269567D01*
X53519000Y-37260000D01*
X53519000Y-36550000D01*
X53520903Y-36540433D01*
X53526322Y-36532322D01*
X53534433Y-36526903D01*
X53544000Y-36525000D01*
X54094356Y-36525000D01*
X54109000Y-36510356D01*
X54109000Y-36029643D01*
X54094357Y-36015000D01*
X53544000Y-36015000D01*
X53534433Y-36013097D01*
X53526322Y-36007678D01*
X53520903Y-35999567D01*
X53519000Y-35990000D01*
X53519000Y-35280000D01*
X53520903Y-35270433D01*
X53526322Y-35262322D01*
X53534433Y-35256903D01*
X53544000Y-35255000D01*
X54094356Y-35255000D01*
X54109000Y-35240356D01*
X54109000Y-34759643D01*
X54094357Y-34745000D01*
X53544000Y-34745000D01*
X53534433Y-34743097D01*
X53526322Y-34737678D01*
X53520903Y-34729567D01*
X53519000Y-34720000D01*
X53519000Y-34010000D01*
X53520903Y-34000433D01*
X53526322Y-33992322D01*
X53534433Y-33986903D01*
X53544000Y-33985000D01*
X54094356Y-33985000D01*
X54109000Y-33970356D01*
X54109000Y-33489643D01*
X54094357Y-33475000D01*
X53544000Y-33475000D01*
X53534433Y-33473097D01*
X53526322Y-33467678D01*
X53520903Y-33459567D01*
X53519000Y-33450000D01*
X53519000Y-32740000D01*
X53520903Y-32730433D01*
X53526322Y-32722322D01*
X53534433Y-32716903D01*
X53544000Y-32715000D01*
X54134000Y-32715000D01*
X57981536Y-32715000D01*
X57984000Y-32715000D01*
X57993567Y-32716903D01*
G37*
G36*
X60465567Y-36526903D02*
G01*
X60473678Y-36532322D01*
X60479097Y-36540433D01*
X60481000Y-36550000D01*
X60481000Y-37260000D01*
X60479097Y-37269567D01*
X60473678Y-37277678D01*
X60465567Y-37283097D01*
X60456000Y-37285000D01*
X59084000Y-37285000D01*
X59074433Y-37283097D01*
X59066322Y-37277678D01*
X59060903Y-37269567D01*
X59059000Y-37260000D01*
X59059000Y-36550000D01*
X59060903Y-36540433D01*
X59066322Y-36532322D01*
X59074433Y-36526903D01*
X59084000Y-36525000D01*
X60456000Y-36525000D01*
X60465567Y-36526903D01*
G37*
G36*
X43925567Y-35256903D02*
G01*
X43933678Y-35262322D01*
X43939097Y-35270433D01*
X43941000Y-35280000D01*
X43941000Y-35990000D01*
X43939097Y-35999567D01*
X43933678Y-36007678D01*
X43925567Y-36013097D01*
X43916000Y-36015000D01*
X42544000Y-36015000D01*
X42534433Y-36013097D01*
X42526322Y-36007678D01*
X42520903Y-35999567D01*
X42519000Y-35990000D01*
X42519000Y-35280000D01*
X42520903Y-35270433D01*
X42526322Y-35262322D01*
X42534433Y-35256903D01*
X42544000Y-35255000D01*
X43916000Y-35255000D01*
X43925567Y-35256903D01*
G37*
G36*
X60465567Y-35256903D02*
G01*
X60473678Y-35262322D01*
X60479097Y-35270433D01*
X60481000Y-35280000D01*
X60481000Y-35990000D01*
X60479097Y-35999567D01*
X60473678Y-36007678D01*
X60465567Y-36013097D01*
X60456000Y-36015000D01*
X59084000Y-36015000D01*
X59074433Y-36013097D01*
X59066322Y-36007678D01*
X59060903Y-35999567D01*
X59059000Y-35990000D01*
X59059000Y-35280000D01*
X59060903Y-35270433D01*
X59066322Y-35262322D01*
X59074433Y-35256903D01*
X59084000Y-35255000D01*
X60456000Y-35255000D01*
X60465567Y-35256903D01*
G37*
G36*
X43925567Y-33986903D02*
G01*
X43933678Y-33992322D01*
X43939097Y-34000433D01*
X43941000Y-34010000D01*
X43941000Y-34720000D01*
X43939097Y-34729567D01*
X43933678Y-34737678D01*
X43925567Y-34743097D01*
X43916000Y-34745000D01*
X42544000Y-34745000D01*
X42534433Y-34743097D01*
X42526322Y-34737678D01*
X42520903Y-34729567D01*
X42519000Y-34720000D01*
X42519000Y-34010000D01*
X42520903Y-34000433D01*
X42526322Y-33992322D01*
X42534433Y-33986903D01*
X42544000Y-33985000D01*
X43916000Y-33985000D01*
X43925567Y-33986903D01*
G37*
G36*
X60465567Y-33986903D02*
G01*
X60473678Y-33992322D01*
X60479097Y-34000433D01*
X60481000Y-34010000D01*
X60481000Y-34720000D01*
X60479097Y-34729567D01*
X60473678Y-34737678D01*
X60465567Y-34743097D01*
X60456000Y-34745000D01*
X59084000Y-34745000D01*
X59074433Y-34743097D01*
X59066322Y-34737678D01*
X59060903Y-34729567D01*
X59059000Y-34720000D01*
X59059000Y-34010000D01*
X59060903Y-34000433D01*
X59066322Y-33992322D01*
X59074433Y-33986903D01*
X59084000Y-33985000D01*
X60456000Y-33985000D01*
X60465567Y-33986903D01*
G37*
G36*
X36819349Y-30459899D02*
G01*
X37061861Y-30538696D01*
X37289060Y-30654460D01*
X37495353Y-30804340D01*
X37675660Y-30984647D01*
X37825540Y-31190940D01*
X37941304Y-31418139D01*
X38020101Y-31660651D01*
X38059991Y-31912504D01*
X38059991Y-32167496D01*
X38020101Y-32419349D01*
X37941304Y-32661861D01*
X37825540Y-32889060D01*
X37675660Y-33095353D01*
X37495353Y-33275660D01*
X37289060Y-33425540D01*
X37061861Y-33541304D01*
X36819349Y-33620101D01*
X36567496Y-33659991D01*
X36312504Y-33659991D01*
X36060651Y-33620101D01*
X35818139Y-33541304D01*
X35590940Y-33425540D01*
X35384647Y-33275660D01*
X35204340Y-33095353D01*
X35054460Y-32889060D01*
X34938696Y-32661861D01*
X34859899Y-32419349D01*
X34820009Y-32167496D01*
X34820009Y-31912504D01*
X34859899Y-31660651D01*
X34938696Y-31418139D01*
X35054460Y-31190940D01*
X35204340Y-30984647D01*
X35384647Y-30804340D01*
X35590940Y-30654460D01*
X35818139Y-30538696D01*
X36060651Y-30459899D01*
X36312504Y-30420009D01*
X36567496Y-30420009D01*
X36819349Y-30459899D01*
G37*
G36*
X43925567Y-32716903D02*
G01*
X43933678Y-32722322D01*
X43939097Y-32730433D01*
X43941000Y-32740000D01*
X43941000Y-33450000D01*
X43939097Y-33459567D01*
X43933678Y-33467678D01*
X43925567Y-33473097D01*
X43916000Y-33475000D01*
X42544000Y-33475000D01*
X42534433Y-33473097D01*
X42526322Y-33467678D01*
X42520903Y-33459567D01*
X42519000Y-33450000D01*
X42519000Y-32740000D01*
X42520903Y-32730433D01*
X42526322Y-32722322D01*
X42534433Y-32716903D01*
X42544000Y-32715000D01*
X43916000Y-32715000D01*
X43925567Y-32716903D01*
G37*
G36*
X60465567Y-32716903D02*
G01*
X60473678Y-32722322D01*
X60479097Y-32730433D01*
X60481000Y-32740000D01*
X60481000Y-33450000D01*
X60479097Y-33459567D01*
X60473678Y-33467678D01*
X60465567Y-33473097D01*
X60456000Y-33475000D01*
X59084000Y-33475000D01*
X59074433Y-33473097D01*
X59066322Y-33467678D01*
X59060903Y-33459567D01*
X59059000Y-33450000D01*
X59059000Y-32740000D01*
X59060903Y-32730433D01*
X59066322Y-32722322D01*
X59074433Y-32716903D01*
X59084000Y-32715000D01*
X60456000Y-32715000D01*
X60465567Y-32716903D01*
G37*
G36*
X8785971Y-30848847D02*
G01*
X8968787Y-30908248D01*
X9140061Y-30995516D01*
X9295574Y-31108503D01*
X9431497Y-31244426D01*
X9544484Y-31399939D01*
X9631752Y-31571213D01*
X9691153Y-31754029D01*
X9721224Y-31943888D01*
X9721224Y-32136112D01*
X9691153Y-32325971D01*
X9631752Y-32508787D01*
X9544484Y-32680061D01*
X9431497Y-32835574D01*
X9295574Y-32971497D01*
X9140061Y-33084484D01*
X8968787Y-33171752D01*
X8785971Y-33231153D01*
X8596112Y-33261224D01*
X8403888Y-33261224D01*
X8214029Y-33231153D01*
X8031213Y-33171752D01*
X7859939Y-33084484D01*
X7704426Y-32971497D01*
X7568503Y-32835574D01*
X7455516Y-32680061D01*
X7368248Y-32508787D01*
X7308847Y-32325971D01*
X7278776Y-32136112D01*
X7278776Y-31943888D01*
X7308847Y-31754029D01*
X7368248Y-31571213D01*
X7455516Y-31399939D01*
X7568503Y-31244426D01*
X7704426Y-31108503D01*
X7859939Y-30995516D01*
X8031213Y-30908248D01*
X8214029Y-30848847D01*
X8403888Y-30818776D01*
X8596112Y-30818776D01*
X8785971Y-30848847D01*
G37*
G36*
X20855971Y-30848847D02*
G01*
X21038787Y-30908248D01*
X21210061Y-30995516D01*
X21365574Y-31108503D01*
X21501497Y-31244426D01*
X21614484Y-31399939D01*
X21701752Y-31571213D01*
X21761153Y-31754029D01*
X21791224Y-31943888D01*
X21791224Y-32136112D01*
X21761153Y-32325971D01*
X21701752Y-32508787D01*
X21614484Y-32680061D01*
X21501497Y-32835574D01*
X21365574Y-32971497D01*
X21210061Y-33084484D01*
X21038787Y-33171752D01*
X20855971Y-33231153D01*
X20666112Y-33261224D01*
X20473888Y-33261224D01*
X20284029Y-33231153D01*
X20101213Y-33171752D01*
X19929939Y-33084484D01*
X19774426Y-32971497D01*
X19638503Y-32835574D01*
X19525516Y-32680061D01*
X19438248Y-32508787D01*
X19378847Y-32325971D01*
X19348776Y-32136112D01*
X19348776Y-31943888D01*
X19378847Y-31754029D01*
X19438248Y-31571213D01*
X19525516Y-31399939D01*
X19638503Y-31244426D01*
X19774426Y-31108503D01*
X19929939Y-30995516D01*
X20101213Y-30908248D01*
X20284029Y-30848847D01*
X20473888Y-30818776D01*
X20666112Y-30818776D01*
X20855971Y-30848847D01*
G37*
G36*
X24665971Y-30848847D02*
G01*
X24848787Y-30908248D01*
X25020061Y-30995516D01*
X25175574Y-31108503D01*
X25311497Y-31244426D01*
X25424484Y-31399939D01*
X25511752Y-31571213D01*
X25571153Y-31754029D01*
X25601224Y-31943888D01*
X25601224Y-32136112D01*
X25571153Y-32325971D01*
X25511752Y-32508787D01*
X25424484Y-32680061D01*
X25311497Y-32835574D01*
X25175574Y-32971497D01*
X25020061Y-33084484D01*
X24848787Y-33171752D01*
X24665971Y-33231153D01*
X24476112Y-33261224D01*
X24283888Y-33261224D01*
X24094029Y-33231153D01*
X23911213Y-33171752D01*
X23739939Y-33084484D01*
X23584426Y-32971497D01*
X23448503Y-32835574D01*
X23335516Y-32680061D01*
X23248248Y-32508787D01*
X23188847Y-32325971D01*
X23158776Y-32136112D01*
X23158776Y-31943888D01*
X23188847Y-31754029D01*
X23248248Y-31571213D01*
X23335516Y-31399939D01*
X23448503Y-31244426D01*
X23584426Y-31108503D01*
X23739939Y-30995516D01*
X23911213Y-30908248D01*
X24094029Y-30848847D01*
X24283888Y-30818776D01*
X24476112Y-30818776D01*
X24665971Y-30848847D01*
G37*
G36*
X36725971Y-27038847D02*
G01*
X36908787Y-27098248D01*
X37080061Y-27185516D01*
X37235574Y-27298503D01*
X37371497Y-27434426D01*
X37484484Y-27589939D01*
X37571752Y-27761213D01*
X37631153Y-27944029D01*
X37661224Y-28133888D01*
X37661224Y-28326112D01*
X37631153Y-28515971D01*
X37571752Y-28698787D01*
X37484484Y-28870061D01*
X37371497Y-29025574D01*
X37235574Y-29161497D01*
X37080061Y-29274484D01*
X36908787Y-29361752D01*
X36725971Y-29421153D01*
X36536112Y-29451224D01*
X36343888Y-29451224D01*
X36154029Y-29421153D01*
X35971213Y-29361752D01*
X35799939Y-29274484D01*
X35644426Y-29161497D01*
X35508503Y-29025574D01*
X35395516Y-28870061D01*
X35308248Y-28698787D01*
X35248847Y-28515971D01*
X35218776Y-28326112D01*
X35218776Y-28133888D01*
X35248847Y-27944029D01*
X35308248Y-27761213D01*
X35395516Y-27589939D01*
X35508503Y-27434426D01*
X35644426Y-27298503D01*
X35799939Y-27185516D01*
X35971213Y-27098248D01*
X36154029Y-27038847D01*
X36343888Y-27008776D01*
X36536112Y-27008776D01*
X36725971Y-27038847D01*
G37*
G36*
X8785971Y-23228847D02*
G01*
X8968787Y-23288248D01*
X9140061Y-23375516D01*
X9295574Y-23488503D01*
X9431497Y-23624426D01*
X9544484Y-23779939D01*
X9631752Y-23951213D01*
X9691153Y-24134029D01*
X9721224Y-24323888D01*
X9721224Y-24516112D01*
X9691153Y-24705971D01*
X9631752Y-24888787D01*
X9544484Y-25060061D01*
X9431497Y-25215574D01*
X9295574Y-25351497D01*
X9140061Y-25464484D01*
X8968787Y-25551752D01*
X8785971Y-25611153D01*
X8596112Y-25641224D01*
X8403888Y-25641224D01*
X8214029Y-25611153D01*
X8031213Y-25551752D01*
X7859939Y-25464484D01*
X7704426Y-25351497D01*
X7568503Y-25215574D01*
X7455516Y-25060061D01*
X7368248Y-24888787D01*
X7308847Y-24705971D01*
X7278776Y-24516112D01*
X7278776Y-24323888D01*
X7308847Y-24134029D01*
X7368248Y-23951213D01*
X7455516Y-23779939D01*
X7568503Y-23624426D01*
X7704426Y-23488503D01*
X7859939Y-23375516D01*
X8031213Y-23288248D01*
X8214029Y-23228847D01*
X8403888Y-23198776D01*
X8596112Y-23198776D01*
X8785971Y-23228847D01*
G37*
G36*
X36725971Y-23228847D02*
G01*
X36908787Y-23288248D01*
X37080061Y-23375516D01*
X37235574Y-23488503D01*
X37371497Y-23624426D01*
X37484484Y-23779939D01*
X37571752Y-23951213D01*
X37631153Y-24134029D01*
X37661224Y-24323888D01*
X37661224Y-24516112D01*
X37631153Y-24705971D01*
X37571752Y-24888787D01*
X37484484Y-25060061D01*
X37371497Y-25215574D01*
X37235574Y-25351497D01*
X37080061Y-25464484D01*
X36908787Y-25551752D01*
X36725971Y-25611153D01*
X36536112Y-25641224D01*
X36343888Y-25641224D01*
X36154029Y-25611153D01*
X35971213Y-25551752D01*
X35799939Y-25464484D01*
X35644426Y-25351497D01*
X35508503Y-25215574D01*
X35395516Y-25060061D01*
X35308248Y-24888787D01*
X35248847Y-24705971D01*
X35218776Y-24516112D01*
X35218776Y-24323888D01*
X35248847Y-24134029D01*
X35308248Y-23951213D01*
X35395516Y-23779939D01*
X35508503Y-23624426D01*
X35644426Y-23488503D01*
X35799939Y-23375516D01*
X35971213Y-23288248D01*
X36154029Y-23228847D01*
X36343888Y-23198776D01*
X36536112Y-23198776D01*
X36725971Y-23228847D01*
G37*
G36*
X59452017Y-24175401D02*
G01*
X59512045Y-24182365D01*
X59532554Y-24191421D01*
X59555238Y-24195933D01*
X59579522Y-24212159D01*
X59605167Y-24223483D01*
X59622682Y-24240998D01*
X59644454Y-24255546D01*
X59659001Y-24277317D01*
X59676516Y-24294832D01*
X59687838Y-24320474D01*
X59704067Y-24344762D01*
X59708579Y-24367447D01*
X59717634Y-24387954D01*
X59724596Y-24447970D01*
X59725000Y-24450000D01*
X59725000Y-25150000D01*
X59724596Y-25152029D01*
X59717634Y-25212045D01*
X59708579Y-25232550D01*
X59704067Y-25255238D01*
X59687837Y-25279527D01*
X59676516Y-25305167D01*
X59659003Y-25322679D01*
X59644454Y-25344454D01*
X59622679Y-25359003D01*
X59605167Y-25376516D01*
X59579527Y-25387837D01*
X59555238Y-25404067D01*
X59532550Y-25408579D01*
X59512045Y-25417634D01*
X59452031Y-25424595D01*
X59450000Y-25425000D01*
X58150000Y-25425000D01*
X58147971Y-25424596D01*
X58087954Y-25417634D01*
X58067447Y-25408579D01*
X58044762Y-25404067D01*
X58020474Y-25387838D01*
X57994832Y-25376516D01*
X57977317Y-25359001D01*
X57955546Y-25344454D01*
X57940998Y-25322682D01*
X57923483Y-25305167D01*
X57912159Y-25279522D01*
X57895933Y-25255238D01*
X57891421Y-25232554D01*
X57882365Y-25212045D01*
X57875401Y-25152019D01*
X57875000Y-25150000D01*
X57875000Y-24450000D01*
X57875401Y-24447983D01*
X57882365Y-24387954D01*
X57891421Y-24367443D01*
X57895933Y-24344762D01*
X57912158Y-24320479D01*
X57923483Y-24294832D01*
X57941000Y-24277314D01*
X57955546Y-24255546D01*
X57977314Y-24241000D01*
X57994832Y-24223483D01*
X58020479Y-24212158D01*
X58044762Y-24195933D01*
X58067443Y-24191421D01*
X58087954Y-24182365D01*
X58147982Y-24175401D01*
X58150000Y-24175000D01*
X59450000Y-24175000D01*
X59452017Y-24175401D01*
G37*
G36*
X47752017Y-21975401D02*
G01*
X47812045Y-21982365D01*
X47832554Y-21991421D01*
X47855238Y-21995933D01*
X47879522Y-22012159D01*
X47905167Y-22023483D01*
X47922682Y-22040998D01*
X47944454Y-22055546D01*
X47959001Y-22077317D01*
X47976516Y-22094832D01*
X47987838Y-22120474D01*
X48004067Y-22144762D01*
X48008579Y-22167447D01*
X48017634Y-22187954D01*
X48024596Y-22247970D01*
X48025000Y-22250000D01*
X48025000Y-23750000D01*
X48024596Y-23752029D01*
X48017634Y-23812045D01*
X48008579Y-23832550D01*
X48004067Y-23855238D01*
X47987837Y-23879527D01*
X47976516Y-23905167D01*
X47959003Y-23922679D01*
X47944454Y-23944454D01*
X47922679Y-23959003D01*
X47905167Y-23976516D01*
X47879527Y-23987837D01*
X47855238Y-24004067D01*
X47832550Y-24008579D01*
X47812045Y-24017634D01*
X47752031Y-24024595D01*
X47750000Y-24025000D01*
X46250000Y-24025000D01*
X46247971Y-24024596D01*
X46187954Y-24017634D01*
X46167447Y-24008579D01*
X46144762Y-24004067D01*
X46120474Y-23987838D01*
X46094832Y-23976516D01*
X46077317Y-23959001D01*
X46055546Y-23944454D01*
X46040998Y-23922682D01*
X46023483Y-23905167D01*
X46012159Y-23879522D01*
X45995933Y-23855238D01*
X45991421Y-23832554D01*
X45982365Y-23812045D01*
X45975401Y-23752019D01*
X45975000Y-23750000D01*
X45975000Y-22250000D01*
X45975401Y-22247983D01*
X45982365Y-22187954D01*
X45991421Y-22167443D01*
X45995933Y-22144762D01*
X46012158Y-22120479D01*
X46023483Y-22094832D01*
X46041000Y-22077314D01*
X46055546Y-22055546D01*
X46077314Y-22041000D01*
X46094832Y-22023483D01*
X46120479Y-22012158D01*
X46144762Y-21995933D01*
X46167443Y-21991421D01*
X46187954Y-21982365D01*
X46247982Y-21975401D01*
X46250000Y-21975000D01*
X47750000Y-21975000D01*
X47752017Y-21975401D01*
G37*
G36*
X52297542Y-22019136D02*
G01*
X52483182Y-22096031D01*
X52650253Y-22207664D01*
X52792336Y-22349747D01*
X52903969Y-22516818D01*
X52980864Y-22702458D01*
X53020064Y-22899532D01*
X53020064Y-23100468D01*
X52980864Y-23297542D01*
X52903969Y-23483182D01*
X52792336Y-23650253D01*
X52650253Y-23792336D01*
X52483182Y-23903969D01*
X52297542Y-23980864D01*
X52100468Y-24020064D01*
X51899532Y-24020064D01*
X51702458Y-23980864D01*
X51516818Y-23903969D01*
X51349747Y-23792336D01*
X51207664Y-23650253D01*
X51096031Y-23483182D01*
X51019136Y-23297542D01*
X50979936Y-23100468D01*
X50979936Y-22899532D01*
X51019136Y-22702458D01*
X51096031Y-22516818D01*
X51207664Y-22349747D01*
X51349747Y-22207664D01*
X51516818Y-22096031D01*
X51702458Y-22019136D01*
X51899532Y-21979936D01*
X52100468Y-21979936D01*
X52297542Y-22019136D01*
G37*
G36*
X62016970Y-23188321D02*
G01*
X62073744Y-23226256D01*
X62111679Y-23283030D01*
X62125000Y-23350000D01*
X62125000Y-23650000D01*
X62111679Y-23716970D01*
X62073744Y-23773744D01*
X62016970Y-23811679D01*
X61950000Y-23825000D01*
X60700000Y-23825000D01*
X60633030Y-23811679D01*
X60576256Y-23773744D01*
X60538321Y-23716970D01*
X60525000Y-23650000D01*
X60525000Y-23350000D01*
X60538321Y-23283030D01*
X60576256Y-23226256D01*
X60633030Y-23188321D01*
X60700000Y-23175000D01*
X61950000Y-23175000D01*
X62016970Y-23188321D01*
G37*
G36*
X62016970Y-22188321D02*
G01*
X62073744Y-22226256D01*
X62111679Y-22283030D01*
X62125000Y-22350000D01*
X62125000Y-22650000D01*
X62111679Y-22716970D01*
X62073744Y-22773744D01*
X62016970Y-22811679D01*
X61950000Y-22825000D01*
X60700000Y-22825000D01*
X60633030Y-22811679D01*
X60576256Y-22773744D01*
X60538321Y-22716970D01*
X60525000Y-22650000D01*
X60525000Y-22350000D01*
X60538321Y-22283030D01*
X60576256Y-22226256D01*
X60633030Y-22188321D01*
X60700000Y-22175000D01*
X61950000Y-22175000D01*
X62016970Y-22188321D01*
G37*
G36*
X36725971Y-19418847D02*
G01*
X36908787Y-19478248D01*
X37080061Y-19565516D01*
X37235574Y-19678503D01*
X37371497Y-19814426D01*
X37484484Y-19969939D01*
X37571752Y-20141213D01*
X37631153Y-20324029D01*
X37661224Y-20513888D01*
X37661224Y-20706112D01*
X37631153Y-20895971D01*
X37571752Y-21078787D01*
X37484484Y-21250061D01*
X37371497Y-21405574D01*
X37235574Y-21541497D01*
X37080061Y-21654484D01*
X36908787Y-21741752D01*
X36725971Y-21801153D01*
X36536112Y-21831224D01*
X36343888Y-21831224D01*
X36154029Y-21801153D01*
X35971213Y-21741752D01*
X35799939Y-21654484D01*
X35644426Y-21541497D01*
X35508503Y-21405574D01*
X35395516Y-21250061D01*
X35308248Y-21078787D01*
X35248847Y-20895971D01*
X35218776Y-20706112D01*
X35218776Y-20513888D01*
X35248847Y-20324029D01*
X35308248Y-20141213D01*
X35395516Y-19969939D01*
X35508503Y-19814426D01*
X35644426Y-19678503D01*
X35799939Y-19565516D01*
X35971213Y-19478248D01*
X36154029Y-19418847D01*
X36343888Y-19388776D01*
X36536112Y-19388776D01*
X36725971Y-19418847D01*
G37*
G36*
X62016970Y-21188321D02*
G01*
X62073744Y-21226256D01*
X62111679Y-21283030D01*
X62125000Y-21350000D01*
X62125000Y-21650000D01*
X62111679Y-21716970D01*
X62073744Y-21773744D01*
X62016970Y-21811679D01*
X61950000Y-21825000D01*
X60700000Y-21825000D01*
X60633030Y-21811679D01*
X60576256Y-21773744D01*
X60538321Y-21716970D01*
X60525000Y-21650000D01*
X60525000Y-21350000D01*
X60538321Y-21283030D01*
X60576256Y-21226256D01*
X60633030Y-21188321D01*
X60700000Y-21175000D01*
X61950000Y-21175000D01*
X62016970Y-21188321D01*
G37*
G36*
X62016970Y-20188321D02*
G01*
X62073744Y-20226256D01*
X62111679Y-20283030D01*
X62125000Y-20350000D01*
X62125000Y-20650000D01*
X62111679Y-20716970D01*
X62073744Y-20773744D01*
X62016970Y-20811679D01*
X61950000Y-20825000D01*
X60700000Y-20825000D01*
X60633030Y-20811679D01*
X60576256Y-20773744D01*
X60538321Y-20716970D01*
X60525000Y-20650000D01*
X60525000Y-20350000D01*
X60538321Y-20283030D01*
X60576256Y-20226256D01*
X60633030Y-20188321D01*
X60700000Y-20175000D01*
X61950000Y-20175000D01*
X62016970Y-20188321D01*
G37*
G36*
X62016970Y-19188321D02*
G01*
X62073744Y-19226256D01*
X62111679Y-19283030D01*
X62125000Y-19350000D01*
X62125000Y-19650000D01*
X62111679Y-19716970D01*
X62073744Y-19773744D01*
X62016970Y-19811679D01*
X61950000Y-19825000D01*
X60700000Y-19825000D01*
X60633030Y-19811679D01*
X60576256Y-19773744D01*
X60538321Y-19716970D01*
X60525000Y-19650000D01*
X60525000Y-19350000D01*
X60538321Y-19283030D01*
X60576256Y-19226256D01*
X60633030Y-19188321D01*
X60700000Y-19175000D01*
X61950000Y-19175000D01*
X62016970Y-19188321D01*
G37*
G36*
X1652017Y-16625401D02*
G01*
X1712045Y-16632365D01*
X1732554Y-16641421D01*
X1755238Y-16645933D01*
X1779522Y-16662159D01*
X1805167Y-16673483D01*
X1822682Y-16690998D01*
X1844454Y-16705546D01*
X1859001Y-16727317D01*
X1876516Y-16744832D01*
X1887838Y-16770474D01*
X1904067Y-16794762D01*
X1908579Y-16817447D01*
X1917634Y-16837954D01*
X1924596Y-16897970D01*
X1925000Y-16900000D01*
X1925000Y-19100000D01*
X1924596Y-19102029D01*
X1917634Y-19162045D01*
X1908579Y-19182550D01*
X1904067Y-19205238D01*
X1887837Y-19229527D01*
X1876516Y-19255167D01*
X1859003Y-19272679D01*
X1844454Y-19294454D01*
X1822679Y-19309003D01*
X1805167Y-19326516D01*
X1779527Y-19337837D01*
X1755238Y-19354067D01*
X1732550Y-19358579D01*
X1712045Y-19367634D01*
X1652031Y-19374595D01*
X1650000Y-19375000D01*
X1000000Y-19375000D01*
X997971Y-19374596D01*
X937954Y-19367634D01*
X917447Y-19358579D01*
X894762Y-19354067D01*
X870474Y-19337838D01*
X844832Y-19326516D01*
X827317Y-19309001D01*
X805546Y-19294454D01*
X790998Y-19272682D01*
X773483Y-19255167D01*
X762159Y-19229522D01*
X745933Y-19205238D01*
X741421Y-19182554D01*
X732365Y-19162045D01*
X725401Y-19102019D01*
X725000Y-19100000D01*
X725000Y-16900000D01*
X725401Y-16897983D01*
X732365Y-16837954D01*
X741421Y-16817443D01*
X745933Y-16794762D01*
X762158Y-16770479D01*
X773483Y-16744832D01*
X791000Y-16727314D01*
X805546Y-16705546D01*
X827314Y-16691000D01*
X844832Y-16673483D01*
X870479Y-16662158D01*
X894762Y-16645933D01*
X917443Y-16641421D01*
X937954Y-16632365D01*
X997982Y-16625401D01*
X1000000Y-16625000D01*
X1650000Y-16625000D01*
X1652017Y-16625401D01*
G37*
G36*
X4602017Y-16625401D02*
G01*
X4662045Y-16632365D01*
X4682554Y-16641421D01*
X4705238Y-16645933D01*
X4729522Y-16662159D01*
X4755167Y-16673483D01*
X4772682Y-16690998D01*
X4794454Y-16705546D01*
X4809001Y-16727317D01*
X4826516Y-16744832D01*
X4837838Y-16770474D01*
X4854067Y-16794762D01*
X4858579Y-16817447D01*
X4867634Y-16837954D01*
X4874596Y-16897970D01*
X4875000Y-16900000D01*
X4875000Y-19100000D01*
X4874596Y-19102029D01*
X4867634Y-19162045D01*
X4858579Y-19182550D01*
X4854067Y-19205238D01*
X4837837Y-19229527D01*
X4826516Y-19255167D01*
X4809003Y-19272679D01*
X4794454Y-19294454D01*
X4772679Y-19309003D01*
X4755167Y-19326516D01*
X4729527Y-19337837D01*
X4705238Y-19354067D01*
X4682550Y-19358579D01*
X4662045Y-19367634D01*
X4602031Y-19374595D01*
X4600000Y-19375000D01*
X3950000Y-19375000D01*
X3947971Y-19374596D01*
X3887954Y-19367634D01*
X3867447Y-19358579D01*
X3844762Y-19354067D01*
X3820474Y-19337838D01*
X3794832Y-19326516D01*
X3777317Y-19309001D01*
X3755546Y-19294454D01*
X3740998Y-19272682D01*
X3723483Y-19255167D01*
X3712159Y-19229522D01*
X3695933Y-19205238D01*
X3691421Y-19182554D01*
X3682365Y-19162045D01*
X3675401Y-19102019D01*
X3675000Y-19100000D01*
X3675000Y-16900000D01*
X3675401Y-16897983D01*
X3682365Y-16837954D01*
X3691421Y-16817443D01*
X3695933Y-16794762D01*
X3712158Y-16770479D01*
X3723483Y-16744832D01*
X3741000Y-16727314D01*
X3755546Y-16705546D01*
X3777314Y-16691000D01*
X3794832Y-16673483D01*
X3820479Y-16662158D01*
X3844762Y-16645933D01*
X3867443Y-16641421D01*
X3887954Y-16632365D01*
X3947982Y-16625401D01*
X3950000Y-16625000D01*
X4600000Y-16625000D01*
X4602017Y-16625401D01*
G37*
G36*
X62016970Y-18188321D02*
G01*
X62073744Y-18226256D01*
X62111679Y-18283030D01*
X62125000Y-18350000D01*
X62125000Y-18650000D01*
X62111679Y-18716970D01*
X62073744Y-18773744D01*
X62016970Y-18811679D01*
X61950000Y-18825000D01*
X60700000Y-18825000D01*
X60633030Y-18811679D01*
X60576256Y-18773744D01*
X60538321Y-18716970D01*
X60525000Y-18650000D01*
X60525000Y-18350000D01*
X60538321Y-18283030D01*
X60576256Y-18226256D01*
X60633030Y-18188321D01*
X60700000Y-18175000D01*
X61950000Y-18175000D01*
X62016970Y-18188321D01*
G37*
G36*
X36819349Y-15219899D02*
G01*
X37061861Y-15298696D01*
X37289060Y-15414460D01*
X37495353Y-15564340D01*
X37675660Y-15744647D01*
X37825540Y-15950940D01*
X37941304Y-16178139D01*
X38020101Y-16420651D01*
X38059991Y-16672504D01*
X38059991Y-16927496D01*
X38020101Y-17179349D01*
X37941304Y-17421861D01*
X37825540Y-17649060D01*
X37675660Y-17855353D01*
X37495353Y-18035660D01*
X37289060Y-18185540D01*
X37061861Y-18301304D01*
X36819349Y-18380101D01*
X36567496Y-18419991D01*
X36312504Y-18419991D01*
X36060651Y-18380101D01*
X35818139Y-18301304D01*
X35590940Y-18185540D01*
X35384647Y-18035660D01*
X35204340Y-17855353D01*
X35054460Y-17649060D01*
X34938696Y-17421861D01*
X34859899Y-17179349D01*
X34820009Y-16927496D01*
X34820009Y-16672504D01*
X34859899Y-16420651D01*
X34938696Y-16178139D01*
X35054460Y-15950940D01*
X35204340Y-15744647D01*
X35384647Y-15564340D01*
X35590940Y-15414460D01*
X35818139Y-15298696D01*
X36060651Y-15219899D01*
X36312504Y-15180009D01*
X36567496Y-15180009D01*
X36819349Y-15219899D01*
G37*
G36*
X8785971Y-15608847D02*
G01*
X8968787Y-15668248D01*
X9140061Y-15755516D01*
X9295574Y-15868503D01*
X9431497Y-16004426D01*
X9544484Y-16159939D01*
X9631752Y-16331213D01*
X9691153Y-16514029D01*
X9721224Y-16703888D01*
X9721224Y-16896112D01*
X9691153Y-17085971D01*
X9631752Y-17268787D01*
X9544484Y-17440061D01*
X9431497Y-17595574D01*
X9295574Y-17731497D01*
X9140061Y-17844484D01*
X8968787Y-17931752D01*
X8785971Y-17991153D01*
X8596112Y-18021224D01*
X8403888Y-18021224D01*
X8214029Y-17991153D01*
X8031213Y-17931752D01*
X7859939Y-17844484D01*
X7704426Y-17731497D01*
X7568503Y-17595574D01*
X7455516Y-17440061D01*
X7368248Y-17268787D01*
X7308847Y-17085971D01*
X7278776Y-16896112D01*
X7278776Y-16703888D01*
X7308847Y-16514029D01*
X7368248Y-16331213D01*
X7455516Y-16159939D01*
X7568503Y-16004426D01*
X7704426Y-15868503D01*
X7859939Y-15755516D01*
X8031213Y-15668248D01*
X8214029Y-15608847D01*
X8403888Y-15578776D01*
X8596112Y-15578776D01*
X8785971Y-15608847D01*
G37*
G36*
X62016970Y-17188321D02*
G01*
X62073744Y-17226256D01*
X62111679Y-17283030D01*
X62125000Y-17350000D01*
X62125000Y-17650000D01*
X62111679Y-17716970D01*
X62073744Y-17773744D01*
X62016970Y-17811679D01*
X61950000Y-17825000D01*
X60700000Y-17825000D01*
X60633030Y-17811679D01*
X60576256Y-17773744D01*
X60538321Y-17716970D01*
X60525000Y-17650000D01*
X60525000Y-17350000D01*
X60538321Y-17283030D01*
X60576256Y-17226256D01*
X60633030Y-17188321D01*
X60700000Y-17175000D01*
X61950000Y-17175000D01*
X62016970Y-17188321D01*
G37*
G36*
X62016970Y-16188321D02*
G01*
X62073744Y-16226256D01*
X62111679Y-16283030D01*
X62125000Y-16350000D01*
X62125000Y-16650000D01*
X62111679Y-16716970D01*
X62073744Y-16773744D01*
X62016970Y-16811679D01*
X61950000Y-16825000D01*
X60700000Y-16825000D01*
X60633030Y-16811679D01*
X60576256Y-16773744D01*
X60538321Y-16716970D01*
X60525000Y-16650000D01*
X60525000Y-16350000D01*
X60538321Y-16283030D01*
X60576256Y-16226256D01*
X60633030Y-16188321D01*
X60700000Y-16175000D01*
X61950000Y-16175000D01*
X62016970Y-16188321D01*
G37*
G36*
X59452017Y-14575401D02*
G01*
X59512045Y-14582365D01*
X59532554Y-14591421D01*
X59555238Y-14595933D01*
X59579522Y-14612159D01*
X59605167Y-14623483D01*
X59622682Y-14640998D01*
X59644454Y-14655546D01*
X59659001Y-14677317D01*
X59676516Y-14694832D01*
X59687838Y-14720474D01*
X59704067Y-14744762D01*
X59708579Y-14767447D01*
X59717634Y-14787954D01*
X59724596Y-14847970D01*
X59725000Y-14850000D01*
X59725000Y-15550000D01*
X59724596Y-15552029D01*
X59717634Y-15612045D01*
X59708579Y-15632550D01*
X59704067Y-15655238D01*
X59687837Y-15679527D01*
X59676516Y-15705167D01*
X59659003Y-15722679D01*
X59644454Y-15744454D01*
X59622679Y-15759003D01*
X59605167Y-15776516D01*
X59579527Y-15787837D01*
X59555238Y-15804067D01*
X59532550Y-15808579D01*
X59512045Y-15817634D01*
X59452031Y-15824595D01*
X59450000Y-15825000D01*
X58150000Y-15825000D01*
X58147971Y-15824596D01*
X58087954Y-15817634D01*
X58067447Y-15808579D01*
X58044762Y-15804067D01*
X58020474Y-15787838D01*
X57994832Y-15776516D01*
X57977317Y-15759001D01*
X57955546Y-15744454D01*
X57940998Y-15722682D01*
X57923483Y-15705167D01*
X57912159Y-15679522D01*
X57895933Y-15655238D01*
X57891421Y-15632554D01*
X57882365Y-15612045D01*
X57875401Y-15552019D01*
X57875000Y-15550000D01*
X57875000Y-14850000D01*
X57875401Y-14847983D01*
X57882365Y-14787954D01*
X57891421Y-14767443D01*
X57895933Y-14744762D01*
X57912158Y-14720479D01*
X57923483Y-14694832D01*
X57941000Y-14677314D01*
X57955546Y-14655546D01*
X57977314Y-14641000D01*
X57994832Y-14623483D01*
X58020479Y-14612158D01*
X58044762Y-14595933D01*
X58067443Y-14591421D01*
X58087954Y-14582365D01*
X58147982Y-14575401D01*
X58150000Y-14575000D01*
X59450000Y-14575000D01*
X59452017Y-14575401D01*
G37*
G36*
X1652017Y-8625401D02*
G01*
X1712045Y-8632365D01*
X1732554Y-8641421D01*
X1755238Y-8645933D01*
X1779522Y-8662159D01*
X1805167Y-8673483D01*
X1822682Y-8690998D01*
X1844454Y-8705546D01*
X1859001Y-8727317D01*
X1876516Y-8744832D01*
X1887838Y-8770474D01*
X1904067Y-8794762D01*
X1908579Y-8817447D01*
X1917634Y-8837954D01*
X1924596Y-8897970D01*
X1925000Y-8900000D01*
X1925000Y-11100000D01*
X1924596Y-11102029D01*
X1917634Y-11162045D01*
X1908579Y-11182550D01*
X1904067Y-11205238D01*
X1887837Y-11229527D01*
X1876516Y-11255167D01*
X1859003Y-11272679D01*
X1844454Y-11294454D01*
X1822679Y-11309003D01*
X1805167Y-11326516D01*
X1779527Y-11337837D01*
X1755238Y-11354067D01*
X1732550Y-11358579D01*
X1712045Y-11367634D01*
X1652031Y-11374595D01*
X1650000Y-11375000D01*
X1000000Y-11375000D01*
X997971Y-11374596D01*
X937954Y-11367634D01*
X917447Y-11358579D01*
X894762Y-11354067D01*
X870474Y-11337838D01*
X844832Y-11326516D01*
X827317Y-11309001D01*
X805546Y-11294454D01*
X790998Y-11272682D01*
X773483Y-11255167D01*
X762159Y-11229522D01*
X745933Y-11205238D01*
X741421Y-11182554D01*
X732365Y-11162045D01*
X725401Y-11102019D01*
X725000Y-11100000D01*
X725000Y-8900000D01*
X725401Y-8897983D01*
X732365Y-8837954D01*
X741421Y-8817443D01*
X745933Y-8794762D01*
X762158Y-8770479D01*
X773483Y-8744832D01*
X791000Y-8727314D01*
X805546Y-8705546D01*
X827314Y-8691000D01*
X844832Y-8673483D01*
X870479Y-8662158D01*
X894762Y-8645933D01*
X917443Y-8641421D01*
X937954Y-8632365D01*
X997982Y-8625401D01*
X1000000Y-8625000D01*
X1650000Y-8625000D01*
X1652017Y-8625401D01*
G37*
G36*
X4602017Y-8625401D02*
G01*
X4662045Y-8632365D01*
X4682554Y-8641421D01*
X4705238Y-8645933D01*
X4729522Y-8662159D01*
X4755167Y-8673483D01*
X4772682Y-8690998D01*
X4794454Y-8705546D01*
X4809001Y-8727317D01*
X4826516Y-8744832D01*
X4837838Y-8770474D01*
X4854067Y-8794762D01*
X4858579Y-8817447D01*
X4867634Y-8837954D01*
X4874596Y-8897970D01*
X4875000Y-8900000D01*
X4875000Y-11100000D01*
X4874596Y-11102029D01*
X4867634Y-11162045D01*
X4858579Y-11182550D01*
X4854067Y-11205238D01*
X4837837Y-11229527D01*
X4826516Y-11255167D01*
X4809003Y-11272679D01*
X4794454Y-11294454D01*
X4772679Y-11309003D01*
X4755167Y-11326516D01*
X4729527Y-11337837D01*
X4705238Y-11354067D01*
X4682550Y-11358579D01*
X4662045Y-11367634D01*
X4602031Y-11374595D01*
X4600000Y-11375000D01*
X3950000Y-11375000D01*
X3947971Y-11374596D01*
X3887954Y-11367634D01*
X3867447Y-11358579D01*
X3844762Y-11354067D01*
X3820474Y-11337838D01*
X3794832Y-11326516D01*
X3777317Y-11309001D01*
X3755546Y-11294454D01*
X3740998Y-11272682D01*
X3723483Y-11255167D01*
X3712159Y-11229522D01*
X3695933Y-11205238D01*
X3691421Y-11182554D01*
X3682365Y-11162045D01*
X3675401Y-11102019D01*
X3675000Y-11100000D01*
X3675000Y-8900000D01*
X3675401Y-8897983D01*
X3682365Y-8837954D01*
X3691421Y-8817443D01*
X3695933Y-8794762D01*
X3712158Y-8770479D01*
X3723483Y-8744832D01*
X3741000Y-8727314D01*
X3755546Y-8705546D01*
X3777314Y-8691000D01*
X3794832Y-8673483D01*
X3820479Y-8662158D01*
X3844762Y-8645933D01*
X3867443Y-8641421D01*
X3887954Y-8632365D01*
X3947982Y-8625401D01*
X3950000Y-8625000D01*
X4600000Y-8625000D01*
X4602017Y-8625401D01*
G37*
G36*
X47752017Y-8975401D02*
G01*
X47812045Y-8982365D01*
X47832554Y-8991421D01*
X47855238Y-8995933D01*
X47879522Y-9012159D01*
X47905167Y-9023483D01*
X47922682Y-9040998D01*
X47944454Y-9055546D01*
X47959001Y-9077317D01*
X47976516Y-9094832D01*
X47987838Y-9120474D01*
X48004067Y-9144762D01*
X48008579Y-9167447D01*
X48017634Y-9187954D01*
X48024596Y-9247970D01*
X48025000Y-9250000D01*
X48025000Y-10750000D01*
X48024596Y-10752029D01*
X48017634Y-10812045D01*
X48008579Y-10832550D01*
X48004067Y-10855238D01*
X47987837Y-10879527D01*
X47976516Y-10905167D01*
X47959003Y-10922679D01*
X47944454Y-10944454D01*
X47922679Y-10959003D01*
X47905167Y-10976516D01*
X47879527Y-10987837D01*
X47855238Y-11004067D01*
X47832550Y-11008579D01*
X47812045Y-11017634D01*
X47752031Y-11024595D01*
X47750000Y-11025000D01*
X46250000Y-11025000D01*
X46247971Y-11024596D01*
X46187954Y-11017634D01*
X46167447Y-11008579D01*
X46144762Y-11004067D01*
X46120474Y-10987838D01*
X46094832Y-10976516D01*
X46077317Y-10959001D01*
X46055546Y-10944454D01*
X46040998Y-10922682D01*
X46023483Y-10905167D01*
X46012159Y-10879522D01*
X45995933Y-10855238D01*
X45991421Y-10832554D01*
X45982365Y-10812045D01*
X45975401Y-10752019D01*
X45975000Y-10750000D01*
X45975000Y-9250000D01*
X45975401Y-9247983D01*
X45982365Y-9187954D01*
X45991421Y-9167443D01*
X45995933Y-9144762D01*
X46012158Y-9120479D01*
X46023483Y-9094832D01*
X46041000Y-9077314D01*
X46055546Y-9055546D01*
X46077314Y-9041000D01*
X46094832Y-9023483D01*
X46120479Y-9012158D01*
X46144762Y-8995933D01*
X46167443Y-8991421D01*
X46187954Y-8982365D01*
X46247982Y-8975401D01*
X46250000Y-8975000D01*
X47750000Y-8975000D01*
X47752017Y-8975401D01*
G37*
G36*
X52297542Y-9019136D02*
G01*
X52483182Y-9096031D01*
X52650253Y-9207664D01*
X52792336Y-9349747D01*
X52903969Y-9516818D01*
X52980864Y-9702458D01*
X53020064Y-9899532D01*
X53020064Y-10100468D01*
X52980864Y-10297542D01*
X52903969Y-10483182D01*
X52792336Y-10650253D01*
X52650253Y-10792336D01*
X52483182Y-10903969D01*
X52297542Y-10980864D01*
X52100468Y-11020064D01*
X51899532Y-11020064D01*
X51702458Y-10980864D01*
X51516818Y-10903969D01*
X51349747Y-10792336D01*
X51207664Y-10650253D01*
X51096031Y-10483182D01*
X51019136Y-10297542D01*
X50979936Y-10100468D01*
X50979936Y-9899532D01*
X51019136Y-9702458D01*
X51096031Y-9516818D01*
X51207664Y-9349747D01*
X51349747Y-9207664D01*
X51516818Y-9096031D01*
X51702458Y-9019136D01*
X51899532Y-8979936D01*
X52100468Y-8979936D01*
X52297542Y-9019136D01*
G37*
G36*
X3262626Y-1906084D02*
G01*
X3430519Y-1960636D01*
X3587811Y-2040780D01*
X3730629Y-2144543D01*
X3855457Y-2269371D01*
X3959220Y-2412189D01*
X4039364Y-2569481D01*
X4093916Y-2737374D01*
X4121532Y-2911734D01*
X4121532Y-3088266D01*
X4093916Y-3262626D01*
X4039364Y-3430519D01*
X3959220Y-3587811D01*
X3855457Y-3730629D01*
X3730629Y-3855457D01*
X3587811Y-3959220D01*
X3430519Y-4039364D01*
X3262626Y-4093916D01*
X3088266Y-4121532D01*
X2911734Y-4121532D01*
X2737374Y-4093916D01*
X2569481Y-4039364D01*
X2412189Y-3959220D01*
X2269371Y-3855457D01*
X2144543Y-3730629D01*
X2040780Y-3587811D01*
X1960636Y-3430519D01*
X1906084Y-3262626D01*
X1878468Y-3088266D01*
X1878468Y-2911734D01*
X1906084Y-2737374D01*
X1960636Y-2569481D01*
X2040780Y-2412189D01*
X2144543Y-2269371D01*
X2269371Y-2144543D01*
X2412189Y-2040780D01*
X2569481Y-1960636D01*
X2737374Y-1906084D01*
X2911734Y-1878468D01*
X3088266Y-1878468D01*
X3262626Y-1906084D01*
G37*
G36*
X62262626Y-1906084D02*
G01*
X62430519Y-1960636D01*
X62587811Y-2040780D01*
X62730629Y-2144543D01*
X62855457Y-2269371D01*
X62959220Y-2412189D01*
X63039364Y-2569481D01*
X63093916Y-2737374D01*
X63121532Y-2911734D01*
X63121532Y-3088266D01*
X63093916Y-3262626D01*
X63039364Y-3430519D01*
X62959220Y-3587811D01*
X62855457Y-3730629D01*
X62730629Y-3855457D01*
X62587811Y-3959220D01*
X62430519Y-4039364D01*
X62262626Y-4093916D01*
X62088266Y-4121532D01*
X61911734Y-4121532D01*
X61737374Y-4093916D01*
X61569481Y-4039364D01*
X61412189Y-3959220D01*
X61269371Y-3855457D01*
X61144543Y-3730629D01*
X61040780Y-3587811D01*
X60960636Y-3430519D01*
X60906084Y-3262626D01*
X60878468Y-3088266D01*
X60878468Y-2911734D01*
X60906084Y-2737374D01*
X60960636Y-2569481D01*
X61040780Y-2412189D01*
X61144543Y-2269371D01*
X61269371Y-2144543D01*
X61412189Y-2040780D01*
X61569481Y-1960636D01*
X61737374Y-1906084D01*
X61911734Y-1878468D01*
X62088266Y-1878468D01*
X62262626Y-1906084D01*
G37*
G36*
X31889567Y5488097D02*
G01*
X31897678Y5482678D01*
X31903097Y5474567D01*
X31905000Y5465000D01*
X31905000Y-245000D01*
X31903097Y-254567D01*
X31897678Y-262678D01*
X31889567Y-268097D01*
X31880000Y-270000D01*
X29190000Y-270000D01*
X29180433Y-268097D01*
X29172322Y-262678D01*
X29166903Y-254567D01*
X29165000Y-245000D01*
X29165000Y5465000D01*
X29166903Y5474567D01*
X29172322Y5482678D01*
X29180433Y5488097D01*
X29190000Y5490000D01*
X31880000Y5490000D01*
X31889567Y5488097D01*
G37*
G36*
X36819567Y5488097D02*
G01*
X36827678Y5482678D01*
X36833097Y5474567D01*
X36835000Y5465000D01*
X36835000Y-245000D01*
X36833097Y-254567D01*
X36827678Y-262678D01*
X36819567Y-268097D01*
X36810000Y-270000D01*
X34120000Y-270000D01*
X34110433Y-268097D01*
X34102322Y-262678D01*
X34096903Y-254567D01*
X34095000Y-245000D01*
X34095000Y5465000D01*
X34096903Y5474567D01*
X34102322Y5482678D01*
X34110433Y5488097D01*
X34120000Y5490000D01*
X36810000Y5490000D01*
X36819567Y5488097D01*
G37*
G36*
X2085971Y2191153D02*
G01*
X2268787Y2131752D01*
X2440061Y2044484D01*
X2595574Y1931497D01*
X2731497Y1795574D01*
X2844484Y1640061D01*
X2931752Y1468787D01*
X2991153Y1285971D01*
X3021224Y1096112D01*
X3021224Y903888D01*
X2991153Y714029D01*
X2931752Y531213D01*
X2844484Y359939D01*
X2731497Y204426D01*
X2595574Y68503D01*
X2440061Y-44484D01*
X2268787Y-131752D01*
X2085971Y-191153D01*
X1896112Y-221224D01*
X1703888Y-221224D01*
X1514029Y-191153D01*
X1331213Y-131752D01*
X1159939Y-44484D01*
X1004426Y68503D01*
X868503Y204426D01*
X755516Y359939D01*
X668248Y531213D01*
X608847Y714029D01*
X578776Y903888D01*
X578776Y1096112D01*
X608847Y1285971D01*
X668248Y1468787D01*
X755516Y1640061D01*
X868503Y1795574D01*
X1004426Y1931497D01*
X1159939Y2044484D01*
X1331213Y2131752D01*
X1514029Y2191153D01*
X1703888Y2221224D01*
X1896112Y2221224D01*
X2085971Y2191153D01*
G37*
G36*
X40925567Y1973097D02*
G01*
X40933678Y1967678D01*
X40939097Y1959567D01*
X40941000Y1950000D01*
X40941000Y1240000D01*
X40939097Y1230433D01*
X40933678Y1222322D01*
X40925567Y1216903D01*
X40916000Y1215000D01*
X40913536Y1215000D01*
X39546463Y1215000D01*
X39544000Y1215000D01*
X39534433Y1216903D01*
X39526322Y1222322D01*
X39520903Y1230433D01*
X39519000Y1240000D01*
X39519000Y1950000D01*
X39520903Y1959567D01*
X39526322Y1967678D01*
X39534433Y1973097D01*
X39544000Y1975000D01*
X40916000Y1975000D01*
X40925567Y1973097D01*
G37*
G36*
X46465567Y5783097D02*
G01*
X46473678Y5777678D01*
X46479097Y5769567D01*
X46481000Y5760000D01*
X46481000Y5050000D01*
X46479097Y5040433D01*
X46473678Y5032322D01*
X46465567Y5026903D01*
X46456000Y5025000D01*
X46453536Y5025000D01*
X45905643Y5025000D01*
X45891000Y5010357D01*
X45891000Y4529642D01*
X45905642Y4515000D01*
X46456000Y4515000D01*
X46465567Y4513097D01*
X46473678Y4507678D01*
X46479097Y4499567D01*
X46481000Y4490000D01*
X46481000Y3780000D01*
X46479097Y3770433D01*
X46473678Y3762322D01*
X46465567Y3756903D01*
X46456000Y3755000D01*
X46453536Y3755000D01*
X45905643Y3755000D01*
X45891000Y3740357D01*
X45891000Y3259642D01*
X45905642Y3245000D01*
X46456000Y3245000D01*
X46465567Y3243097D01*
X46473678Y3237678D01*
X46479097Y3229567D01*
X46481000Y3220000D01*
X46481000Y2510000D01*
X46479097Y2500433D01*
X46473678Y2492322D01*
X46465567Y2486903D01*
X46456000Y2485000D01*
X46453536Y2485000D01*
X45905643Y2485000D01*
X45891000Y2470357D01*
X45891000Y1989642D01*
X45905642Y1975000D01*
X46456000Y1975000D01*
X46465567Y1973097D01*
X46473678Y1967678D01*
X46479097Y1959567D01*
X46481000Y1950000D01*
X46481000Y1240000D01*
X46479097Y1230433D01*
X46473678Y1222322D01*
X46465567Y1216903D01*
X46456000Y1215000D01*
X45866000Y1215000D01*
X42018464Y1215000D01*
X42016000Y1215000D01*
X42006433Y1216903D01*
X41998322Y1222322D01*
X41992903Y1230433D01*
X41991000Y1240000D01*
X41991000Y5760000D01*
X41992903Y5769567D01*
X41998322Y5777678D01*
X42006433Y5783097D01*
X42016000Y5785000D01*
X45866000Y5785000D01*
X46456000Y5785000D01*
X46465567Y5783097D01*
G37*
G36*
X40925567Y3243097D02*
G01*
X40933678Y3237678D01*
X40939097Y3229567D01*
X40941000Y3220000D01*
X40941000Y2510000D01*
X40939097Y2500433D01*
X40933678Y2492322D01*
X40925567Y2486903D01*
X40916000Y2485000D01*
X40913536Y2485000D01*
X39546463Y2485000D01*
X39544000Y2485000D01*
X39534433Y2486903D01*
X39526322Y2492322D01*
X39520903Y2500433D01*
X39519000Y2510000D01*
X39519000Y3220000D01*
X39520903Y3229567D01*
X39526322Y3237678D01*
X39534433Y3243097D01*
X39544000Y3245000D01*
X40916000Y3245000D01*
X40925567Y3243097D01*
G37*
G36*
X40925567Y4513097D02*
G01*
X40933678Y4507678D01*
X40939097Y4499567D01*
X40941000Y4490000D01*
X40941000Y3780000D01*
X40939097Y3770433D01*
X40933678Y3762322D01*
X40925567Y3756903D01*
X40916000Y3755000D01*
X40913536Y3755000D01*
X39546463Y3755000D01*
X39544000Y3755000D01*
X39534433Y3756903D01*
X39526322Y3762322D01*
X39520903Y3770433D01*
X39519000Y3780000D01*
X39519000Y4490000D01*
X39520903Y4499567D01*
X39526322Y4507678D01*
X39534433Y4513097D01*
X39544000Y4515000D01*
X40916000Y4515000D01*
X40925567Y4513097D01*
G37*
G36*
X3009567Y7223097D02*
G01*
X3017678Y7217678D01*
X3023097Y7209567D01*
X3025000Y7200000D01*
X3025000Y4800000D01*
X3023097Y4790433D01*
X3017678Y4782322D01*
X3009567Y4776903D01*
X3000000Y4775000D01*
X2997536Y4775000D01*
X602463Y4775000D01*
X600000Y4775000D01*
X590433Y4776903D01*
X582322Y4782322D01*
X576903Y4790433D01*
X575000Y4800000D01*
X575000Y7200000D01*
X576903Y7209567D01*
X582322Y7217678D01*
X590433Y7223097D01*
X600000Y7225000D01*
X3000000Y7225000D01*
X3009567Y7223097D01*
G37*
G36*
X40925567Y5783097D02*
G01*
X40933678Y5777678D01*
X40939097Y5769567D01*
X40941000Y5760000D01*
X40941000Y5050000D01*
X40939097Y5040433D01*
X40933678Y5032322D01*
X40925567Y5026903D01*
X40916000Y5025000D01*
X40913536Y5025000D01*
X39546463Y5025000D01*
X39544000Y5025000D01*
X39534433Y5026903D01*
X39526322Y5032322D01*
X39520903Y5040433D01*
X39519000Y5050000D01*
X39519000Y5760000D01*
X39520903Y5769567D01*
X39526322Y5777678D01*
X39534433Y5783097D01*
X39544000Y5785000D01*
X40916000Y5785000D01*
X40925567Y5783097D01*
G37*
G36*
X31889567Y7268097D02*
G01*
X31897678Y7262678D01*
X31903097Y7254567D01*
X31905000Y7245000D01*
X31905000Y6355000D01*
X31903097Y6345433D01*
X31897678Y6337322D01*
X31889567Y6331903D01*
X31880000Y6330000D01*
X31877536Y6330000D01*
X29192463Y6330000D01*
X29190000Y6330000D01*
X29180433Y6331903D01*
X29172322Y6337322D01*
X29166903Y6345433D01*
X29165000Y6355000D01*
X29165000Y7245000D01*
X29166903Y7254567D01*
X29172322Y7262678D01*
X29180433Y7268097D01*
X29190000Y7270000D01*
X31880000Y7270000D01*
X31889567Y7268097D01*
G37*
G36*
X36819567Y7268097D02*
G01*
X36827678Y7262678D01*
X36833097Y7254567D01*
X36835000Y7245000D01*
X36835000Y6355000D01*
X36833097Y6345433D01*
X36827678Y6337322D01*
X36819567Y6331903D01*
X36810000Y6330000D01*
X36807536Y6330000D01*
X34122463Y6330000D01*
X34120000Y6330000D01*
X34110433Y6331903D01*
X34102322Y6337322D01*
X34096903Y6345433D01*
X34095000Y6355000D01*
X34095000Y7245000D01*
X34096903Y7254567D01*
X34102322Y7262678D01*
X34110433Y7268097D01*
X34120000Y7270000D01*
X36810000Y7270000D01*
X36819567Y7268097D01*
G37*
G36*
X35800909Y8985037D02*
G01*
X35919600Y8916511D01*
X36016511Y8819600D01*
X36085037Y8700909D01*
X36120509Y8568526D01*
X36120509Y8431474D01*
X36085037Y8299091D01*
X36016511Y8180400D01*
X35919600Y8083489D01*
X35800909Y8014963D01*
X35668526Y7979491D01*
X35531474Y7979491D01*
X35399091Y8014963D01*
X35280400Y8083489D01*
X35183489Y8180400D01*
X35114963Y8299091D01*
X35079491Y8431474D01*
X35079491Y8568526D01*
X35114963Y8700909D01*
X35183489Y8819600D01*
X35280400Y8916511D01*
X35399091Y8985037D01*
X35531474Y9020509D01*
X35668526Y9020509D01*
X35800909Y8985037D01*
G37*
G36*
X37070909Y8985037D02*
G01*
X37189600Y8916511D01*
X37286511Y8819600D01*
X37355037Y8700909D01*
X37390509Y8568526D01*
X37390509Y8431474D01*
X37355037Y8299091D01*
X37286511Y8180400D01*
X37189600Y8083489D01*
X37070909Y8014963D01*
X36938526Y7979491D01*
X36801474Y7979491D01*
X36669091Y8014963D01*
X36550400Y8083489D01*
X36453489Y8180400D01*
X36384963Y8299091D01*
X36349491Y8431474D01*
X36349491Y8568526D01*
X36384963Y8700909D01*
X36453489Y8819600D01*
X36550400Y8916511D01*
X36669091Y8985037D01*
X36801474Y9020509D01*
X36938526Y9020509D01*
X37070909Y8985037D01*
G37*
G36*
X38340909Y8985037D02*
G01*
X38459600Y8916511D01*
X38556511Y8819600D01*
X38625037Y8700909D01*
X38660509Y8568526D01*
X38660509Y8431474D01*
X38625037Y8299091D01*
X38556511Y8180400D01*
X38459600Y8083489D01*
X38340909Y8014963D01*
X38208526Y7979491D01*
X38071474Y7979491D01*
X37939091Y8014963D01*
X37820400Y8083489D01*
X37723489Y8180400D01*
X37654963Y8299091D01*
X37619491Y8431474D01*
X37619491Y8568526D01*
X37654963Y8700909D01*
X37723489Y8819600D01*
X37820400Y8916511D01*
X37939091Y8985037D01*
X38071474Y9020509D01*
X38208526Y9020509D01*
X38340909Y8985037D01*
G37*
G36*
X39610909Y8985037D02*
G01*
X39729600Y8916511D01*
X39826511Y8819600D01*
X39895037Y8700909D01*
X39930509Y8568526D01*
X39930509Y8431474D01*
X39895037Y8299091D01*
X39826511Y8180400D01*
X39729600Y8083489D01*
X39610909Y8014963D01*
X39478526Y7979491D01*
X39341474Y7979491D01*
X39209091Y8014963D01*
X39090400Y8083489D01*
X38993489Y8180400D01*
X38924963Y8299091D01*
X38889491Y8431474D01*
X38889491Y8568526D01*
X38924963Y8700909D01*
X38993489Y8819600D01*
X39090400Y8916511D01*
X39209091Y8985037D01*
X39341474Y9020509D01*
X39478526Y9020509D01*
X39610909Y8985037D01*
G37*
G36*
X40880909Y8985037D02*
G01*
X40999600Y8916511D01*
X41096511Y8819600D01*
X41165037Y8700909D01*
X41200509Y8568526D01*
X41200509Y8431474D01*
X41165037Y8299091D01*
X41096511Y8180400D01*
X40999600Y8083489D01*
X40880909Y8014963D01*
X40748526Y7979491D01*
X40611474Y7979491D01*
X40479091Y8014963D01*
X40360400Y8083489D01*
X40263489Y8180400D01*
X40194963Y8299091D01*
X40159491Y8431474D01*
X40159491Y8568526D01*
X40194963Y8700909D01*
X40263489Y8819600D01*
X40360400Y8916511D01*
X40479091Y8985037D01*
X40611474Y9020509D01*
X40748526Y9020509D01*
X40880909Y8985037D01*
G37*
G36*
X32506706Y14482260D02*
G01*
X32837427Y14406775D01*
X33157617Y14294736D01*
X33463250Y14147551D01*
X33750481Y13967072D01*
X34015698Y13755568D01*
X34255568Y13515698D01*
X34467072Y13250481D01*
X34647551Y12963250D01*
X34794736Y12657617D01*
X34906775Y12337427D01*
X34982260Y12006706D01*
X35020241Y11669613D01*
X35020241Y11330387D01*
X34982260Y10993294D01*
X34906775Y10662573D01*
X34794736Y10342383D01*
X34647551Y10036750D01*
X34467072Y9749519D01*
X34255568Y9484302D01*
X34015698Y9244432D01*
X33750481Y9032928D01*
X33463250Y8852449D01*
X33157617Y8705264D01*
X32837427Y8593225D01*
X32506706Y8517740D01*
X32169613Y8479759D01*
X31830387Y8479759D01*
X31493294Y8517740D01*
X31162573Y8593225D01*
X30842383Y8705264D01*
X30536750Y8852449D01*
X30249519Y9032928D01*
X29984302Y9244432D01*
X29744432Y9484302D01*
X29532928Y9749519D01*
X29352449Y10036750D01*
X29205264Y10342383D01*
X29093225Y10662573D01*
X29017740Y10993294D01*
X28979759Y11330387D01*
X28979759Y11669613D01*
X29017740Y12006706D01*
X29093225Y12337427D01*
X29205264Y12657617D01*
X29352449Y12963250D01*
X29532928Y13250481D01*
X29744432Y13515698D01*
X29984302Y13755568D01*
X30249519Y13967072D01*
X30536750Y14147551D01*
X30842383Y14294736D01*
X31162573Y14406775D01*
X31493294Y14482260D01*
X31830387Y14520241D01*
X32169613Y14520241D01*
X32506706Y14482260D01*
G37*
G36*
X44506706Y14482260D02*
G01*
X44837427Y14406775D01*
X45157617Y14294736D01*
X45463250Y14147551D01*
X45750481Y13967072D01*
X46015698Y13755568D01*
X46255568Y13515698D01*
X46467072Y13250481D01*
X46647551Y12963250D01*
X46794736Y12657617D01*
X46906775Y12337427D01*
X46982260Y12006706D01*
X47020241Y11669613D01*
X47020241Y11330387D01*
X46982260Y10993294D01*
X46906775Y10662573D01*
X46794736Y10342383D01*
X46647551Y10036750D01*
X46467072Y9749519D01*
X46255568Y9484302D01*
X46015698Y9244432D01*
X45750481Y9032928D01*
X45463250Y8852449D01*
X45157617Y8705264D01*
X44837427Y8593225D01*
X44506706Y8517740D01*
X44169613Y8479759D01*
X43830387Y8479759D01*
X43493294Y8517740D01*
X43162573Y8593225D01*
X42842383Y8705264D01*
X42536750Y8852449D01*
X42249519Y9032928D01*
X41984302Y9244432D01*
X41744432Y9484302D01*
X41532928Y9749519D01*
X41352449Y10036750D01*
X41205264Y10342383D01*
X41093225Y10662573D01*
X41017740Y10993294D01*
X40979759Y11330387D01*
X40979759Y11669613D01*
X41017740Y12006706D01*
X41093225Y12337427D01*
X41205264Y12657617D01*
X41352449Y12963250D01*
X41532928Y13250481D01*
X41744432Y13515698D01*
X41984302Y13755568D01*
X42249519Y13967072D01*
X42536750Y14147551D01*
X42842383Y14294736D01*
X43162573Y14406775D01*
X43493294Y14482260D01*
X43830387Y14520241D01*
X44169613Y14520241D01*
X44506706Y14482260D01*
G37*
M02*
