%TF.GenerationSoftware,KiCad,Pcbnew,10.0.6*%
%TF.CreationDate,2026-09-14T01:04:56+08:00*%
%TF.ProjectId,Microduck_Power_Regen_R22,4d696372-6f64-4756-936b-5f506f776572,rev?*%
%TF.SameCoordinates,Original*%
%TF.FileFunction,Legend,Top*%
%TF.FilePolarity,Positive*%
%FSLAX46Y46*%
G04 Gerber Fmt 4.6, Leading zero omitted, Abs format (unit mm)*
G04 Created by KiCad (PCBNEW 10.0.6) date 2026-09-14 01:04:56*
%MOMM*%
%LPD*%
G01*
G04 APERTURE LIST*
%ADD10C,0.120000*%
G04 APERTURE END LIST*
D10*
X19357143Y-3410117D02*
X19057143Y-2981545D01*
X18842857Y-3410117D02*
X18842857Y-2510117D01*
X18842857Y-2510117D02*
X19185714Y-2510117D01*
X19185714Y-2510117D02*
X19271429Y-2552974D01*
X19271429Y-2552974D02*
X19314286Y-2595831D01*
X19314286Y-2595831D02*
X19357143Y-2681545D01*
X19357143Y-2681545D02*
X19357143Y-2810117D01*
X19357143Y-2810117D02*
X19314286Y-2895831D01*
X19314286Y-2895831D02*
X19271429Y-2938688D01*
X19271429Y-2938688D02*
X19185714Y-2981545D01*
X19185714Y-2981545D02*
X18842857Y-2981545D01*
X19700000Y-2595831D02*
X19742857Y-2552974D01*
X19742857Y-2552974D02*
X19828572Y-2510117D01*
X19828572Y-2510117D02*
X20042857Y-2510117D01*
X20042857Y-2510117D02*
X20128572Y-2552974D01*
X20128572Y-2552974D02*
X20171429Y-2595831D01*
X20171429Y-2595831D02*
X20214286Y-2681545D01*
X20214286Y-2681545D02*
X20214286Y-2767260D01*
X20214286Y-2767260D02*
X20171429Y-2895831D01*
X20171429Y-2895831D02*
X19657143Y-3410117D01*
X19657143Y-3410117D02*
X20214286Y-3410117D01*
X20557143Y-2595831D02*
X20600000Y-2552974D01*
X20600000Y-2552974D02*
X20685715Y-2510117D01*
X20685715Y-2510117D02*
X20900000Y-2510117D01*
X20900000Y-2510117D02*
X20985715Y-2552974D01*
X20985715Y-2552974D02*
X21028572Y-2595831D01*
X21028572Y-2595831D02*
X21071429Y-2681545D01*
X21071429Y-2681545D02*
X21071429Y-2767260D01*
X21071429Y-2767260D02*
X21028572Y-2895831D01*
X21028572Y-2895831D02*
X20514286Y-3410117D01*
X20514286Y-3410117D02*
X21071429Y-3410117D01*
X22142857Y-3410117D02*
X22142857Y-2510117D01*
X22142857Y-2510117D02*
X22485714Y-2510117D01*
X22485714Y-2510117D02*
X22571429Y-2552974D01*
X22571429Y-2552974D02*
X22614286Y-2595831D01*
X22614286Y-2595831D02*
X22657143Y-2681545D01*
X22657143Y-2681545D02*
X22657143Y-2810117D01*
X22657143Y-2810117D02*
X22614286Y-2895831D01*
X22614286Y-2895831D02*
X22571429Y-2938688D01*
X22571429Y-2938688D02*
X22485714Y-2981545D01*
X22485714Y-2981545D02*
X22142857Y-2981545D01*
X23214286Y-2510117D02*
X23385714Y-2510117D01*
X23385714Y-2510117D02*
X23471429Y-2552974D01*
X23471429Y-2552974D02*
X23557143Y-2638688D01*
X23557143Y-2638688D02*
X23600000Y-2810117D01*
X23600000Y-2810117D02*
X23600000Y-3110117D01*
X23600000Y-3110117D02*
X23557143Y-3281545D01*
X23557143Y-3281545D02*
X23471429Y-3367260D01*
X23471429Y-3367260D02*
X23385714Y-3410117D01*
X23385714Y-3410117D02*
X23214286Y-3410117D01*
X23214286Y-3410117D02*
X23128572Y-3367260D01*
X23128572Y-3367260D02*
X23042857Y-3281545D01*
X23042857Y-3281545D02*
X23000000Y-3110117D01*
X23000000Y-3110117D02*
X23000000Y-2810117D01*
X23000000Y-2810117D02*
X23042857Y-2638688D01*
X23042857Y-2638688D02*
X23128572Y-2552974D01*
X23128572Y-2552974D02*
X23214286Y-2510117D01*
X23900000Y-2510117D02*
X24114286Y-3410117D01*
X24114286Y-3410117D02*
X24285714Y-2767260D01*
X24285714Y-2767260D02*
X24457143Y-3410117D01*
X24457143Y-3410117D02*
X24671429Y-2510117D01*
X25014285Y-2938688D02*
X25314285Y-2938688D01*
X25442857Y-3410117D02*
X25014285Y-3410117D01*
X25014285Y-3410117D02*
X25014285Y-2510117D01*
X25014285Y-2510117D02*
X25442857Y-2510117D01*
X26342857Y-3410117D02*
X26042857Y-2981545D01*
X25828571Y-3410117D02*
X25828571Y-2510117D01*
X25828571Y-2510117D02*
X26171428Y-2510117D01*
X26171428Y-2510117D02*
X26257143Y-2552974D01*
X26257143Y-2552974D02*
X26300000Y-2595831D01*
X26300000Y-2595831D02*
X26342857Y-2681545D01*
X26342857Y-2681545D02*
X26342857Y-2810117D01*
X26342857Y-2810117D02*
X26300000Y-2895831D01*
X26300000Y-2895831D02*
X26257143Y-2938688D01*
X26257143Y-2938688D02*
X26171428Y-2981545D01*
X26171428Y-2981545D02*
X25828571Y-2981545D01*
X27414285Y-3067260D02*
X28100000Y-3067260D01*
X27757142Y-3410117D02*
X27757142Y-2724402D01*
X29728571Y-3410117D02*
X29428571Y-2981545D01*
X29214285Y-3410117D02*
X29214285Y-2510117D01*
X29214285Y-2510117D02*
X29557142Y-2510117D01*
X29557142Y-2510117D02*
X29642857Y-2552974D01*
X29642857Y-2552974D02*
X29685714Y-2595831D01*
X29685714Y-2595831D02*
X29728571Y-2681545D01*
X29728571Y-2681545D02*
X29728571Y-2810117D01*
X29728571Y-2810117D02*
X29685714Y-2895831D01*
X29685714Y-2895831D02*
X29642857Y-2938688D01*
X29642857Y-2938688D02*
X29557142Y-2981545D01*
X29557142Y-2981545D02*
X29214285Y-2981545D01*
X30114285Y-2938688D02*
X30414285Y-2938688D01*
X30542857Y-3410117D02*
X30114285Y-3410117D01*
X30114285Y-3410117D02*
X30114285Y-2510117D01*
X30114285Y-2510117D02*
X30542857Y-2510117D01*
X31400000Y-2552974D02*
X31314286Y-2510117D01*
X31314286Y-2510117D02*
X31185714Y-2510117D01*
X31185714Y-2510117D02*
X31057143Y-2552974D01*
X31057143Y-2552974D02*
X30971428Y-2638688D01*
X30971428Y-2638688D02*
X30928571Y-2724402D01*
X30928571Y-2724402D02*
X30885714Y-2895831D01*
X30885714Y-2895831D02*
X30885714Y-3024402D01*
X30885714Y-3024402D02*
X30928571Y-3195831D01*
X30928571Y-3195831D02*
X30971428Y-3281545D01*
X30971428Y-3281545D02*
X31057143Y-3367260D01*
X31057143Y-3367260D02*
X31185714Y-3410117D01*
X31185714Y-3410117D02*
X31271428Y-3410117D01*
X31271428Y-3410117D02*
X31400000Y-3367260D01*
X31400000Y-3367260D02*
X31442857Y-3324402D01*
X31442857Y-3324402D02*
X31442857Y-3024402D01*
X31442857Y-3024402D02*
X31271428Y-3024402D01*
X31828571Y-2938688D02*
X32128571Y-2938688D01*
X32257143Y-3410117D02*
X31828571Y-3410117D01*
X31828571Y-3410117D02*
X31828571Y-2510117D01*
X31828571Y-2510117D02*
X32257143Y-2510117D01*
X32642857Y-3410117D02*
X32642857Y-2510117D01*
X32642857Y-2510117D02*
X33157143Y-3410117D01*
X33157143Y-3410117D02*
X33157143Y-2510117D01*
%TO.C,C3*%
X44020354Y-20125000D02*
X45020354Y-20125000D01*
X44520354Y-19625000D02*
X44520354Y-20625000D01*
X49500000Y-17920000D02*
X49500000Y-28080000D01*
X49540000Y-17920000D02*
X49540000Y-28080000D01*
X49580000Y-17921000D02*
X49580000Y-28079000D01*
X49620000Y-17921000D02*
X49620000Y-28079000D01*
X49660000Y-17923000D02*
X49660000Y-28077000D01*
X49700000Y-17924000D02*
X49700000Y-28076000D01*
X49740000Y-17926000D02*
X49740000Y-28074000D01*
X49780000Y-17928000D02*
X49780000Y-28072000D01*
X49820000Y-17930000D02*
X49820000Y-28070000D01*
X49860000Y-17933000D02*
X49860000Y-28067000D01*
X49900000Y-17936000D02*
X49900000Y-28064000D01*
X49940000Y-17939000D02*
X49940000Y-28061000D01*
X49980000Y-17943000D02*
X49980000Y-28057000D01*
X50020000Y-17946000D02*
X50020000Y-28054000D01*
X50060000Y-17951000D02*
X50060000Y-28049000D01*
X50100000Y-17955000D02*
X50100000Y-28045000D01*
X50140000Y-17960000D02*
X50140000Y-28040000D01*
X50180000Y-17965000D02*
X50180000Y-28035000D01*
X50220000Y-17971000D02*
X50220000Y-28029000D01*
X50260000Y-17977000D02*
X50260000Y-28023000D01*
X50300000Y-17983000D02*
X50300000Y-28017000D01*
X50340000Y-17989000D02*
X50340000Y-28011000D01*
X50380000Y-17996000D02*
X50380000Y-28004000D01*
X50420000Y-18003000D02*
X50420000Y-27997000D01*
X50460000Y-18011000D02*
X50460000Y-27989000D01*
X50500000Y-18019000D02*
X50500000Y-27981000D01*
X50540000Y-18027000D02*
X50540000Y-27973000D01*
X50580000Y-18035000D02*
X50580000Y-27965000D01*
X50620000Y-18044000D02*
X50620000Y-27956000D01*
X50660000Y-18053000D02*
X50660000Y-27947000D01*
X50700000Y-18063000D02*
X50700000Y-27937000D01*
X50740000Y-18072000D02*
X50740000Y-27928000D01*
X50780000Y-18083000D02*
X50780000Y-21760000D01*
X50780000Y-24240000D02*
X50780000Y-27917000D01*
X50820000Y-18093000D02*
X50820000Y-21760000D01*
X50820000Y-24240000D02*
X50820000Y-27907000D01*
X50860000Y-18104000D02*
X50860000Y-21760000D01*
X50860000Y-24240000D02*
X50860000Y-27896000D01*
X50900000Y-18115000D02*
X50900000Y-21760000D01*
X50900000Y-24240000D02*
X50900000Y-27885000D01*
X50940000Y-18127000D02*
X50940000Y-21760000D01*
X50940000Y-24240000D02*
X50940000Y-27873000D01*
X50980000Y-18139000D02*
X50980000Y-21760000D01*
X50980000Y-24240000D02*
X50980000Y-27861000D01*
X51020000Y-18151000D02*
X51020000Y-21760000D01*
X51020000Y-24240000D02*
X51020000Y-27849000D01*
X51060000Y-18163000D02*
X51060000Y-21760000D01*
X51060000Y-24240000D02*
X51060000Y-27837000D01*
X51100000Y-18176000D02*
X51100000Y-21760000D01*
X51100000Y-24240000D02*
X51100000Y-27824000D01*
X51140000Y-18190000D02*
X51140000Y-21760000D01*
X51140000Y-24240000D02*
X51140000Y-27810000D01*
X51180000Y-18203000D02*
X51180000Y-21760000D01*
X51180000Y-24240000D02*
X51180000Y-27797000D01*
X51220000Y-18218000D02*
X51220000Y-21760000D01*
X51220000Y-24240000D02*
X51220000Y-27782000D01*
X51260000Y-18232000D02*
X51260000Y-21760000D01*
X51260000Y-24240000D02*
X51260000Y-27768000D01*
X51300000Y-18247000D02*
X51300000Y-21760000D01*
X51300000Y-24240000D02*
X51300000Y-27753000D01*
X51340000Y-18262000D02*
X51340000Y-21760000D01*
X51340000Y-24240000D02*
X51340000Y-27738000D01*
X51380000Y-18278000D02*
X51380000Y-21760000D01*
X51380000Y-24240000D02*
X51380000Y-27722000D01*
X51420000Y-18294000D02*
X51420000Y-21760000D01*
X51420000Y-24240000D02*
X51420000Y-27706000D01*
X51460000Y-18310000D02*
X51460000Y-21760000D01*
X51460000Y-24240000D02*
X51460000Y-27690000D01*
X51500000Y-18327000D02*
X51500000Y-21760000D01*
X51500000Y-24240000D02*
X51500000Y-27673000D01*
X51540000Y-18344000D02*
X51540000Y-21760000D01*
X51540000Y-24240000D02*
X51540000Y-27656000D01*
X51580000Y-18362000D02*
X51580000Y-21760000D01*
X51580000Y-24240000D02*
X51580000Y-27638000D01*
X51620000Y-18380000D02*
X51620000Y-21760000D01*
X51620000Y-24240000D02*
X51620000Y-27620000D01*
X51660000Y-18398000D02*
X51660000Y-21760000D01*
X51660000Y-24240000D02*
X51660000Y-27602000D01*
X51700000Y-18417000D02*
X51700000Y-21760000D01*
X51700000Y-24240000D02*
X51700000Y-27583000D01*
X51740000Y-18436000D02*
X51740000Y-21760000D01*
X51740000Y-24240000D02*
X51740000Y-27564000D01*
X51780000Y-18456000D02*
X51780000Y-21760000D01*
X51780000Y-24240000D02*
X51780000Y-27544000D01*
X51820000Y-18476000D02*
X51820000Y-21760000D01*
X51820000Y-24240000D02*
X51820000Y-27524000D01*
X51860000Y-18496000D02*
X51860000Y-21760000D01*
X51860000Y-24240000D02*
X51860000Y-27504000D01*
X51900000Y-18517000D02*
X51900000Y-21760000D01*
X51900000Y-24240000D02*
X51900000Y-27483000D01*
X51940000Y-18539000D02*
X51940000Y-21760000D01*
X51940000Y-24240000D02*
X51940000Y-27461000D01*
X51980000Y-18561000D02*
X51980000Y-21760000D01*
X51980000Y-24240000D02*
X51980000Y-27439000D01*
X52020000Y-18583000D02*
X52020000Y-21760000D01*
X52020000Y-24240000D02*
X52020000Y-27417000D01*
X52060000Y-18606000D02*
X52060000Y-21760000D01*
X52060000Y-24240000D02*
X52060000Y-27394000D01*
X52100000Y-18629000D02*
X52100000Y-21760000D01*
X52100000Y-24240000D02*
X52100000Y-27371000D01*
X52140000Y-18653000D02*
X52140000Y-21760000D01*
X52140000Y-24240000D02*
X52140000Y-27347000D01*
X52180000Y-18677000D02*
X52180000Y-21760000D01*
X52180000Y-24240000D02*
X52180000Y-27323000D01*
X52220000Y-18702000D02*
X52220000Y-21760000D01*
X52220000Y-24240000D02*
X52220000Y-27298000D01*
X52260000Y-18728000D02*
X52260000Y-21760000D01*
X52260000Y-24240000D02*
X52260000Y-27272000D01*
X52300000Y-18753000D02*
X52300000Y-21760000D01*
X52300000Y-24240000D02*
X52300000Y-27247000D01*
X52340000Y-18780000D02*
X52340000Y-21760000D01*
X52340000Y-24240000D02*
X52340000Y-27220000D01*
X52380000Y-18807000D02*
X52380000Y-21760000D01*
X52380000Y-24240000D02*
X52380000Y-27193000D01*
X52420000Y-18834000D02*
X52420000Y-21760000D01*
X52420000Y-24240000D02*
X52420000Y-27166000D01*
X52460000Y-18862000D02*
X52460000Y-21760000D01*
X52460000Y-24240000D02*
X52460000Y-27138000D01*
X52500000Y-18891000D02*
X52500000Y-21760000D01*
X52500000Y-24240000D02*
X52500000Y-27109000D01*
X52540000Y-18920000D02*
X52540000Y-21760000D01*
X52540000Y-24240000D02*
X52540000Y-27080000D01*
X52580000Y-18950000D02*
X52580000Y-21760000D01*
X52580000Y-24240000D02*
X52580000Y-27050000D01*
X52620000Y-18980000D02*
X52620000Y-21760000D01*
X52620000Y-24240000D02*
X52620000Y-27020000D01*
X52660000Y-19012000D02*
X52660000Y-21760000D01*
X52660000Y-24240000D02*
X52660000Y-26988000D01*
X52700000Y-19043000D02*
X52700000Y-21760000D01*
X52700000Y-24240000D02*
X52700000Y-26957000D01*
X52740000Y-19076000D02*
X52740000Y-21760000D01*
X52740000Y-24240000D02*
X52740000Y-26924000D01*
X52780000Y-19109000D02*
X52780000Y-21760000D01*
X52780000Y-24240000D02*
X52780000Y-26891000D01*
X52820000Y-19142000D02*
X52820000Y-21760000D01*
X52820000Y-24240000D02*
X52820000Y-26858000D01*
X52860000Y-19177000D02*
X52860000Y-21760000D01*
X52860000Y-24240000D02*
X52860000Y-26823000D01*
X52900000Y-19212000D02*
X52900000Y-21760000D01*
X52900000Y-24240000D02*
X52900000Y-26788000D01*
X52940000Y-19248000D02*
X52940000Y-21760000D01*
X52940000Y-24240000D02*
X52940000Y-26752000D01*
X52980000Y-19284000D02*
X52980000Y-21760000D01*
X52980000Y-24240000D02*
X52980000Y-26716000D01*
X53020000Y-19322000D02*
X53020000Y-21760000D01*
X53020000Y-24240000D02*
X53020000Y-26678000D01*
X53060000Y-19360000D02*
X53060000Y-21760000D01*
X53060000Y-24240000D02*
X53060000Y-26640000D01*
X53100000Y-19399000D02*
X53100000Y-21760000D01*
X53100000Y-24240000D02*
X53100000Y-26601000D01*
X53140000Y-19439000D02*
X53140000Y-21760000D01*
X53140000Y-24240000D02*
X53140000Y-26561000D01*
X53180000Y-19480000D02*
X53180000Y-21760000D01*
X53180000Y-24240000D02*
X53180000Y-26520000D01*
X53220000Y-19522000D02*
X53220000Y-21760000D01*
X53220000Y-24240000D02*
X53220000Y-26478000D01*
X53260000Y-19565000D02*
X53260000Y-26435000D01*
X53300000Y-19609000D02*
X53300000Y-26391000D01*
X53340000Y-19653000D02*
X53340000Y-26347000D01*
X53380000Y-19699000D02*
X53380000Y-26301000D01*
X53420000Y-19746000D02*
X53420000Y-26254000D01*
X53460000Y-19795000D02*
X53460000Y-26205000D01*
X53500000Y-19844000D02*
X53500000Y-26156000D01*
X53540000Y-19895000D02*
X53540000Y-26105000D01*
X53580000Y-19947000D02*
X53580000Y-26053000D01*
X53620000Y-20000000D02*
X53620000Y-26000000D01*
X53660000Y-20055000D02*
X53660000Y-25945000D01*
X53700000Y-20112000D02*
X53700000Y-25888000D01*
X53740000Y-20170000D02*
X53740000Y-25830000D01*
X53780000Y-20230000D02*
X53780000Y-25770000D01*
X53820000Y-20292000D02*
X53820000Y-25708000D01*
X53860000Y-20356000D02*
X53860000Y-25644000D01*
X53900000Y-20422000D02*
X53900000Y-25578000D01*
X53940000Y-20490000D02*
X53940000Y-25510000D01*
X53980000Y-20561000D02*
X53980000Y-25439000D01*
X54020000Y-20635000D02*
X54020000Y-25365000D01*
X54060000Y-20712000D02*
X54060000Y-25288000D01*
X54100000Y-20792000D02*
X54100000Y-25208000D01*
X54140000Y-20876000D02*
X54140000Y-25124000D01*
X54180000Y-20963000D02*
X54180000Y-25037000D01*
X54220000Y-21056000D02*
X54220000Y-24944000D01*
X54260000Y-21154000D02*
X54260000Y-24846000D01*
X54300000Y-21258000D02*
X54300000Y-24742000D01*
X54340000Y-21370000D02*
X54340000Y-24630000D01*
X54380000Y-21491000D02*
X54380000Y-24509000D01*
X54420000Y-21623000D02*
X54420000Y-24377000D01*
X54460000Y-21770000D02*
X54460000Y-24230000D01*
X54500000Y-21938000D02*
X54500000Y-24062000D01*
X54540000Y-22138000D02*
X54540000Y-23862000D01*
X54580000Y-22401000D02*
X54580000Y-23599000D01*
X54620000Y-23000000D02*
G75*
G02*
X44380000Y-23000000I-5120000J0D01*
G01*
X44380000Y-23000000D02*
G75*
G02*
X54620000Y-23000000I5120000J0D01*
G01*
%TO.C,C2*%
X44020354Y-7125000D02*
X45020354Y-7125000D01*
X44520354Y-6625000D02*
X44520354Y-7625000D01*
X49500000Y-4920000D02*
X49500000Y-15080000D01*
X49540000Y-4920000D02*
X49540000Y-15080000D01*
X49580000Y-4921000D02*
X49580000Y-15079000D01*
X49620000Y-4921000D02*
X49620000Y-15079000D01*
X49660000Y-4923000D02*
X49660000Y-15077000D01*
X49700000Y-4924000D02*
X49700000Y-15076000D01*
X49740000Y-4926000D02*
X49740000Y-15074000D01*
X49780000Y-4928000D02*
X49780000Y-15072000D01*
X49820000Y-4930000D02*
X49820000Y-15070000D01*
X49860000Y-4933000D02*
X49860000Y-15067000D01*
X49900000Y-4936000D02*
X49900000Y-15064000D01*
X49940000Y-4939000D02*
X49940000Y-15061000D01*
X49980000Y-4943000D02*
X49980000Y-15057000D01*
X50020000Y-4946000D02*
X50020000Y-15054000D01*
X50060000Y-4951000D02*
X50060000Y-15049000D01*
X50100000Y-4955000D02*
X50100000Y-15045000D01*
X50140000Y-4960000D02*
X50140000Y-15040000D01*
X50180000Y-4965000D02*
X50180000Y-15035000D01*
X50220000Y-4971000D02*
X50220000Y-15029000D01*
X50260000Y-4977000D02*
X50260000Y-15023000D01*
X50300000Y-4983000D02*
X50300000Y-15017000D01*
X50340000Y-4989000D02*
X50340000Y-15011000D01*
X50380000Y-4996000D02*
X50380000Y-15004000D01*
X50420000Y-5003000D02*
X50420000Y-14997000D01*
X50460000Y-5011000D02*
X50460000Y-14989000D01*
X50500000Y-5019000D02*
X50500000Y-14981000D01*
X50540000Y-5027000D02*
X50540000Y-14973000D01*
X50580000Y-5035000D02*
X50580000Y-14965000D01*
X50620000Y-5044000D02*
X50620000Y-14956000D01*
X50660000Y-5053000D02*
X50660000Y-14947000D01*
X50700000Y-5063000D02*
X50700000Y-14937000D01*
X50740000Y-5072000D02*
X50740000Y-14928000D01*
X50780000Y-5083000D02*
X50780000Y-8760000D01*
X50780000Y-11240000D02*
X50780000Y-14917000D01*
X50820000Y-5093000D02*
X50820000Y-8760000D01*
X50820000Y-11240000D02*
X50820000Y-14907000D01*
X50860000Y-5104000D02*
X50860000Y-8760000D01*
X50860000Y-11240000D02*
X50860000Y-14896000D01*
X50900000Y-5115000D02*
X50900000Y-8760000D01*
X50900000Y-11240000D02*
X50900000Y-14885000D01*
X50940000Y-5127000D02*
X50940000Y-8760000D01*
X50940000Y-11240000D02*
X50940000Y-14873000D01*
X50980000Y-5139000D02*
X50980000Y-8760000D01*
X50980000Y-11240000D02*
X50980000Y-14861000D01*
X51020000Y-5151000D02*
X51020000Y-8760000D01*
X51020000Y-11240000D02*
X51020000Y-14849000D01*
X51060000Y-5163000D02*
X51060000Y-8760000D01*
X51060000Y-11240000D02*
X51060000Y-14837000D01*
X51100000Y-5176000D02*
X51100000Y-8760000D01*
X51100000Y-11240000D02*
X51100000Y-14824000D01*
X51140000Y-5190000D02*
X51140000Y-8760000D01*
X51140000Y-11240000D02*
X51140000Y-14810000D01*
X51180000Y-5203000D02*
X51180000Y-8760000D01*
X51180000Y-11240000D02*
X51180000Y-14797000D01*
X51220000Y-5218000D02*
X51220000Y-8760000D01*
X51220000Y-11240000D02*
X51220000Y-14782000D01*
X51260000Y-5232000D02*
X51260000Y-8760000D01*
X51260000Y-11240000D02*
X51260000Y-14768000D01*
X51300000Y-5247000D02*
X51300000Y-8760000D01*
X51300000Y-11240000D02*
X51300000Y-14753000D01*
X51340000Y-5262000D02*
X51340000Y-8760000D01*
X51340000Y-11240000D02*
X51340000Y-14738000D01*
X51380000Y-5278000D02*
X51380000Y-8760000D01*
X51380000Y-11240000D02*
X51380000Y-14722000D01*
X51420000Y-5294000D02*
X51420000Y-8760000D01*
X51420000Y-11240000D02*
X51420000Y-14706000D01*
X51460000Y-5310000D02*
X51460000Y-8760000D01*
X51460000Y-11240000D02*
X51460000Y-14690000D01*
X51500000Y-5327000D02*
X51500000Y-8760000D01*
X51500000Y-11240000D02*
X51500000Y-14673000D01*
X51540000Y-5344000D02*
X51540000Y-8760000D01*
X51540000Y-11240000D02*
X51540000Y-14656000D01*
X51580000Y-5362000D02*
X51580000Y-8760000D01*
X51580000Y-11240000D02*
X51580000Y-14638000D01*
X51620000Y-5380000D02*
X51620000Y-8760000D01*
X51620000Y-11240000D02*
X51620000Y-14620000D01*
X51660000Y-5398000D02*
X51660000Y-8760000D01*
X51660000Y-11240000D02*
X51660000Y-14602000D01*
X51700000Y-5417000D02*
X51700000Y-8760000D01*
X51700000Y-11240000D02*
X51700000Y-14583000D01*
X51740000Y-5436000D02*
X51740000Y-8760000D01*
X51740000Y-11240000D02*
X51740000Y-14564000D01*
X51780000Y-5456000D02*
X51780000Y-8760000D01*
X51780000Y-11240000D02*
X51780000Y-14544000D01*
X51820000Y-5476000D02*
X51820000Y-8760000D01*
X51820000Y-11240000D02*
X51820000Y-14524000D01*
X51860000Y-5496000D02*
X51860000Y-8760000D01*
X51860000Y-11240000D02*
X51860000Y-14504000D01*
X51900000Y-5517000D02*
X51900000Y-8760000D01*
X51900000Y-11240000D02*
X51900000Y-14483000D01*
X51940000Y-5539000D02*
X51940000Y-8760000D01*
X51940000Y-11240000D02*
X51940000Y-14461000D01*
X51980000Y-5561000D02*
X51980000Y-8760000D01*
X51980000Y-11240000D02*
X51980000Y-14439000D01*
X52020000Y-5583000D02*
X52020000Y-8760000D01*
X52020000Y-11240000D02*
X52020000Y-14417000D01*
X52060000Y-5606000D02*
X52060000Y-8760000D01*
X52060000Y-11240000D02*
X52060000Y-14394000D01*
X52100000Y-5629000D02*
X52100000Y-8760000D01*
X52100000Y-11240000D02*
X52100000Y-14371000D01*
X52140000Y-5653000D02*
X52140000Y-8760000D01*
X52140000Y-11240000D02*
X52140000Y-14347000D01*
X52180000Y-5677000D02*
X52180000Y-8760000D01*
X52180000Y-11240000D02*
X52180000Y-14323000D01*
X52220000Y-5702000D02*
X52220000Y-8760000D01*
X52220000Y-11240000D02*
X52220000Y-14298000D01*
X52260000Y-5728000D02*
X52260000Y-8760000D01*
X52260000Y-11240000D02*
X52260000Y-14272000D01*
X52300000Y-5753000D02*
X52300000Y-8760000D01*
X52300000Y-11240000D02*
X52300000Y-14247000D01*
X52340000Y-5780000D02*
X52340000Y-8760000D01*
X52340000Y-11240000D02*
X52340000Y-14220000D01*
X52380000Y-5807000D02*
X52380000Y-8760000D01*
X52380000Y-11240000D02*
X52380000Y-14193000D01*
X52420000Y-5834000D02*
X52420000Y-8760000D01*
X52420000Y-11240000D02*
X52420000Y-14166000D01*
X52460000Y-5862000D02*
X52460000Y-8760000D01*
X52460000Y-11240000D02*
X52460000Y-14138000D01*
X52500000Y-5891000D02*
X52500000Y-8760000D01*
X52500000Y-11240000D02*
X52500000Y-14109000D01*
X52540000Y-5920000D02*
X52540000Y-8760000D01*
X52540000Y-11240000D02*
X52540000Y-14080000D01*
X52580000Y-5950000D02*
X52580000Y-8760000D01*
X52580000Y-11240000D02*
X52580000Y-14050000D01*
X52620000Y-5980000D02*
X52620000Y-8760000D01*
X52620000Y-11240000D02*
X52620000Y-14020000D01*
X52660000Y-6012000D02*
X52660000Y-8760000D01*
X52660000Y-11240000D02*
X52660000Y-13988000D01*
X52700000Y-6043000D02*
X52700000Y-8760000D01*
X52700000Y-11240000D02*
X52700000Y-13957000D01*
X52740000Y-6076000D02*
X52740000Y-8760000D01*
X52740000Y-11240000D02*
X52740000Y-13924000D01*
X52780000Y-6109000D02*
X52780000Y-8760000D01*
X52780000Y-11240000D02*
X52780000Y-13891000D01*
X52820000Y-6142000D02*
X52820000Y-8760000D01*
X52820000Y-11240000D02*
X52820000Y-13858000D01*
X52860000Y-6177000D02*
X52860000Y-8760000D01*
X52860000Y-11240000D02*
X52860000Y-13823000D01*
X52900000Y-6212000D02*
X52900000Y-8760000D01*
X52900000Y-11240000D02*
X52900000Y-13788000D01*
X52940000Y-6248000D02*
X52940000Y-8760000D01*
X52940000Y-11240000D02*
X52940000Y-13752000D01*
X52980000Y-6284000D02*
X52980000Y-8760000D01*
X52980000Y-11240000D02*
X52980000Y-13716000D01*
X53020000Y-6322000D02*
X53020000Y-8760000D01*
X53020000Y-11240000D02*
X53020000Y-13678000D01*
X53060000Y-6360000D02*
X53060000Y-8760000D01*
X53060000Y-11240000D02*
X53060000Y-13640000D01*
X53100000Y-6399000D02*
X53100000Y-8760000D01*
X53100000Y-11240000D02*
X53100000Y-13601000D01*
X53140000Y-6439000D02*
X53140000Y-8760000D01*
X53140000Y-11240000D02*
X53140000Y-13561000D01*
X53180000Y-6480000D02*
X53180000Y-8760000D01*
X53180000Y-11240000D02*
X53180000Y-13520000D01*
X53220000Y-6522000D02*
X53220000Y-8760000D01*
X53220000Y-11240000D02*
X53220000Y-13478000D01*
X53260000Y-6565000D02*
X53260000Y-13435000D01*
X53300000Y-6609000D02*
X53300000Y-13391000D01*
X53340000Y-6653000D02*
X53340000Y-13347000D01*
X53380000Y-6699000D02*
X53380000Y-13301000D01*
X53420000Y-6746000D02*
X53420000Y-13254000D01*
X53460000Y-6795000D02*
X53460000Y-13205000D01*
X53500000Y-6844000D02*
X53500000Y-13156000D01*
X53540000Y-6895000D02*
X53540000Y-13105000D01*
X53580000Y-6947000D02*
X53580000Y-13053000D01*
X53620000Y-7000000D02*
X53620000Y-13000000D01*
X53660000Y-7055000D02*
X53660000Y-12945000D01*
X53700000Y-7112000D02*
X53700000Y-12888000D01*
X53740000Y-7170000D02*
X53740000Y-12830000D01*
X53780000Y-7230000D02*
X53780000Y-12770000D01*
X53820000Y-7292000D02*
X53820000Y-12708000D01*
X53860000Y-7356000D02*
X53860000Y-12644000D01*
X53900000Y-7422000D02*
X53900000Y-12578000D01*
X53940000Y-7490000D02*
X53940000Y-12510000D01*
X53980000Y-7561000D02*
X53980000Y-12439000D01*
X54020000Y-7635000D02*
X54020000Y-12365000D01*
X54060000Y-7712000D02*
X54060000Y-12288000D01*
X54100000Y-7792000D02*
X54100000Y-12208000D01*
X54140000Y-7876000D02*
X54140000Y-12124000D01*
X54180000Y-7963000D02*
X54180000Y-12037000D01*
X54220000Y-8056000D02*
X54220000Y-11944000D01*
X54260000Y-8154000D02*
X54260000Y-11846000D01*
X54300000Y-8258000D02*
X54300000Y-11742000D01*
X54340000Y-8370000D02*
X54340000Y-11630000D01*
X54380000Y-8491000D02*
X54380000Y-11509000D01*
X54420000Y-8623000D02*
X54420000Y-11377000D01*
X54460000Y-8770000D02*
X54460000Y-11230000D01*
X54500000Y-8938000D02*
X54500000Y-11062000D01*
X54540000Y-9138000D02*
X54540000Y-10862000D01*
X54580000Y-9401000D02*
X54580000Y-10599000D01*
X54620000Y-10000000D02*
G75*
G02*
X44380000Y-10000000I-5120000J0D01*
G01*
X44380000Y-10000000D02*
G75*
G02*
X54620000Y-10000000I5120000J0D01*
G01*
%TO.C,C111*%
X2088748Y-16640000D02*
X3511252Y-16640000D01*
X2088748Y-19360000D02*
X3511252Y-19360000D01*
%TO.C,C112*%
X2088748Y-34640000D02*
X3511252Y-34640000D01*
X2088748Y-37360000D02*
X3511252Y-37360000D01*
%TO.C,J1*%
X57990000Y-23940000D02*
X57990000Y-16060000D01*
X59960000Y-14890000D02*
X61110000Y-14890000D01*
X59960000Y-25110000D02*
X61110000Y-25110000D01*
X61110000Y-14890000D02*
X61110000Y-15940000D01*
X61110000Y-24060000D02*
X62100000Y-24060000D01*
X61110000Y-25110000D02*
X61110000Y-24060000D01*
%TO.C,C110*%
X2088748Y-8640000D02*
X3511252Y-8640000D01*
X2088748Y-11360000D02*
X3511252Y-11360000D01*
%TO.C,C1*%
X15020354Y-49125000D02*
X16020354Y-49125000D01*
X15520354Y-48625000D02*
X15520354Y-49625000D01*
X20500000Y-46920000D02*
X20500000Y-57080000D01*
X20540000Y-46920000D02*
X20540000Y-57080000D01*
X20580000Y-46921000D02*
X20580000Y-57079000D01*
X20620000Y-46921000D02*
X20620000Y-57079000D01*
X20660000Y-46923000D02*
X20660000Y-57077000D01*
X20700000Y-46924000D02*
X20700000Y-57076000D01*
X20740000Y-46926000D02*
X20740000Y-57074000D01*
X20780000Y-46928000D02*
X20780000Y-57072000D01*
X20820000Y-46930000D02*
X20820000Y-57070000D01*
X20860000Y-46933000D02*
X20860000Y-57067000D01*
X20900000Y-46936000D02*
X20900000Y-57064000D01*
X20940000Y-46939000D02*
X20940000Y-57061000D01*
X20980000Y-46943000D02*
X20980000Y-57057000D01*
X21020000Y-46946000D02*
X21020000Y-57054000D01*
X21060000Y-46951000D02*
X21060000Y-57049000D01*
X21100000Y-46955000D02*
X21100000Y-57045000D01*
X21140000Y-46960000D02*
X21140000Y-57040000D01*
X21180000Y-46965000D02*
X21180000Y-57035000D01*
X21220000Y-46971000D02*
X21220000Y-57029000D01*
X21260000Y-46977000D02*
X21260000Y-57023000D01*
X21300000Y-46983000D02*
X21300000Y-57017000D01*
X21340000Y-46989000D02*
X21340000Y-57011000D01*
X21380000Y-46996000D02*
X21380000Y-57004000D01*
X21420000Y-47003000D02*
X21420000Y-56997000D01*
X21460000Y-47011000D02*
X21460000Y-56989000D01*
X21500000Y-47019000D02*
X21500000Y-56981000D01*
X21540000Y-47027000D02*
X21540000Y-56973000D01*
X21580000Y-47035000D02*
X21580000Y-56965000D01*
X21620000Y-47044000D02*
X21620000Y-56956000D01*
X21660000Y-47053000D02*
X21660000Y-56947000D01*
X21700000Y-47063000D02*
X21700000Y-56937000D01*
X21740000Y-47072000D02*
X21740000Y-56928000D01*
X21780000Y-47083000D02*
X21780000Y-50760000D01*
X21780000Y-53240000D02*
X21780000Y-56917000D01*
X21820000Y-47093000D02*
X21820000Y-50760000D01*
X21820000Y-53240000D02*
X21820000Y-56907000D01*
X21860000Y-47104000D02*
X21860000Y-50760000D01*
X21860000Y-53240000D02*
X21860000Y-56896000D01*
X21900000Y-47115000D02*
X21900000Y-50760000D01*
X21900000Y-53240000D02*
X21900000Y-56885000D01*
X21940000Y-47127000D02*
X21940000Y-50760000D01*
X21940000Y-53240000D02*
X21940000Y-56873000D01*
X21980000Y-47139000D02*
X21980000Y-50760000D01*
X21980000Y-53240000D02*
X21980000Y-56861000D01*
X22020000Y-47151000D02*
X22020000Y-50760000D01*
X22020000Y-53240000D02*
X22020000Y-56849000D01*
X22060000Y-47163000D02*
X22060000Y-50760000D01*
X22060000Y-53240000D02*
X22060000Y-56837000D01*
X22100000Y-47176000D02*
X22100000Y-50760000D01*
X22100000Y-53240000D02*
X22100000Y-56824000D01*
X22140000Y-47190000D02*
X22140000Y-50760000D01*
X22140000Y-53240000D02*
X22140000Y-56810000D01*
X22180000Y-47203000D02*
X22180000Y-50760000D01*
X22180000Y-53240000D02*
X22180000Y-56797000D01*
X22220000Y-47218000D02*
X22220000Y-50760000D01*
X22220000Y-53240000D02*
X22220000Y-56782000D01*
X22260000Y-47232000D02*
X22260000Y-50760000D01*
X22260000Y-53240000D02*
X22260000Y-56768000D01*
X22300000Y-47247000D02*
X22300000Y-50760000D01*
X22300000Y-53240000D02*
X22300000Y-56753000D01*
X22340000Y-47262000D02*
X22340000Y-50760000D01*
X22340000Y-53240000D02*
X22340000Y-56738000D01*
X22380000Y-47278000D02*
X22380000Y-50760000D01*
X22380000Y-53240000D02*
X22380000Y-56722000D01*
X22420000Y-47294000D02*
X22420000Y-50760000D01*
X22420000Y-53240000D02*
X22420000Y-56706000D01*
X22460000Y-47310000D02*
X22460000Y-50760000D01*
X22460000Y-53240000D02*
X22460000Y-56690000D01*
X22500000Y-47327000D02*
X22500000Y-50760000D01*
X22500000Y-53240000D02*
X22500000Y-56673000D01*
X22540000Y-47344000D02*
X22540000Y-50760000D01*
X22540000Y-53240000D02*
X22540000Y-56656000D01*
X22580000Y-47362000D02*
X22580000Y-50760000D01*
X22580000Y-53240000D02*
X22580000Y-56638000D01*
X22620000Y-47380000D02*
X22620000Y-50760000D01*
X22620000Y-53240000D02*
X22620000Y-56620000D01*
X22660000Y-47398000D02*
X22660000Y-50760000D01*
X22660000Y-53240000D02*
X22660000Y-56602000D01*
X22700000Y-47417000D02*
X22700000Y-50760000D01*
X22700000Y-53240000D02*
X22700000Y-56583000D01*
X22740000Y-47436000D02*
X22740000Y-50760000D01*
X22740000Y-53240000D02*
X22740000Y-56564000D01*
X22780000Y-47456000D02*
X22780000Y-50760000D01*
X22780000Y-53240000D02*
X22780000Y-56544000D01*
X22820000Y-47476000D02*
X22820000Y-50760000D01*
X22820000Y-53240000D02*
X22820000Y-56524000D01*
X22860000Y-47496000D02*
X22860000Y-50760000D01*
X22860000Y-53240000D02*
X22860000Y-56504000D01*
X22900000Y-47517000D02*
X22900000Y-50760000D01*
X22900000Y-53240000D02*
X22900000Y-56483000D01*
X22940000Y-47539000D02*
X22940000Y-50760000D01*
X22940000Y-53240000D02*
X22940000Y-56461000D01*
X22980000Y-47561000D02*
X22980000Y-50760000D01*
X22980000Y-53240000D02*
X22980000Y-56439000D01*
X23020000Y-47583000D02*
X23020000Y-50760000D01*
X23020000Y-53240000D02*
X23020000Y-56417000D01*
X23060000Y-47606000D02*
X23060000Y-50760000D01*
X23060000Y-53240000D02*
X23060000Y-56394000D01*
X23100000Y-47629000D02*
X23100000Y-50760000D01*
X23100000Y-53240000D02*
X23100000Y-56371000D01*
X23140000Y-47653000D02*
X23140000Y-50760000D01*
X23140000Y-53240000D02*
X23140000Y-56347000D01*
X23180000Y-47677000D02*
X23180000Y-50760000D01*
X23180000Y-53240000D02*
X23180000Y-56323000D01*
X23220000Y-47702000D02*
X23220000Y-50760000D01*
X23220000Y-53240000D02*
X23220000Y-56298000D01*
X23260000Y-47728000D02*
X23260000Y-50760000D01*
X23260000Y-53240000D02*
X23260000Y-56272000D01*
X23300000Y-47753000D02*
X23300000Y-50760000D01*
X23300000Y-53240000D02*
X23300000Y-56247000D01*
X23340000Y-47780000D02*
X23340000Y-50760000D01*
X23340000Y-53240000D02*
X23340000Y-56220000D01*
X23380000Y-47807000D02*
X23380000Y-50760000D01*
X23380000Y-53240000D02*
X23380000Y-56193000D01*
X23420000Y-47834000D02*
X23420000Y-50760000D01*
X23420000Y-53240000D02*
X23420000Y-56166000D01*
X23460000Y-47862000D02*
X23460000Y-50760000D01*
X23460000Y-53240000D02*
X23460000Y-56138000D01*
X23500000Y-47891000D02*
X23500000Y-50760000D01*
X23500000Y-53240000D02*
X23500000Y-56109000D01*
X23540000Y-47920000D02*
X23540000Y-50760000D01*
X23540000Y-53240000D02*
X23540000Y-56080000D01*
X23580000Y-47950000D02*
X23580000Y-50760000D01*
X23580000Y-53240000D02*
X23580000Y-56050000D01*
X23620000Y-47980000D02*
X23620000Y-50760000D01*
X23620000Y-53240000D02*
X23620000Y-56020000D01*
X23660000Y-48012000D02*
X23660000Y-50760000D01*
X23660000Y-53240000D02*
X23660000Y-55988000D01*
X23700000Y-48043000D02*
X23700000Y-50760000D01*
X23700000Y-53240000D02*
X23700000Y-55957000D01*
X23740000Y-48076000D02*
X23740000Y-50760000D01*
X23740000Y-53240000D02*
X23740000Y-55924000D01*
X23780000Y-48109000D02*
X23780000Y-50760000D01*
X23780000Y-53240000D02*
X23780000Y-55891000D01*
X23820000Y-48142000D02*
X23820000Y-50760000D01*
X23820000Y-53240000D02*
X23820000Y-55858000D01*
X23860000Y-48177000D02*
X23860000Y-50760000D01*
X23860000Y-53240000D02*
X23860000Y-55823000D01*
X23900000Y-48212000D02*
X23900000Y-50760000D01*
X23900000Y-53240000D02*
X23900000Y-55788000D01*
X23940000Y-48248000D02*
X23940000Y-50760000D01*
X23940000Y-53240000D02*
X23940000Y-55752000D01*
X23980000Y-48284000D02*
X23980000Y-50760000D01*
X23980000Y-53240000D02*
X23980000Y-55716000D01*
X24020000Y-48322000D02*
X24020000Y-50760000D01*
X24020000Y-53240000D02*
X24020000Y-55678000D01*
X24060000Y-48360000D02*
X24060000Y-50760000D01*
X24060000Y-53240000D02*
X24060000Y-55640000D01*
X24100000Y-48399000D02*
X24100000Y-50760000D01*
X24100000Y-53240000D02*
X24100000Y-55601000D01*
X24140000Y-48439000D02*
X24140000Y-50760000D01*
X24140000Y-53240000D02*
X24140000Y-55561000D01*
X24180000Y-48480000D02*
X24180000Y-50760000D01*
X24180000Y-53240000D02*
X24180000Y-55520000D01*
X24220000Y-48522000D02*
X24220000Y-50760000D01*
X24220000Y-53240000D02*
X24220000Y-55478000D01*
X24260000Y-48565000D02*
X24260000Y-55435000D01*
X24300000Y-48609000D02*
X24300000Y-55391000D01*
X24340000Y-48653000D02*
X24340000Y-55347000D01*
X24380000Y-48699000D02*
X24380000Y-55301000D01*
X24420000Y-48746000D02*
X24420000Y-55254000D01*
X24460000Y-48795000D02*
X24460000Y-55205000D01*
X24500000Y-48844000D02*
X24500000Y-55156000D01*
X24540000Y-48895000D02*
X24540000Y-55105000D01*
X24580000Y-48947000D02*
X24580000Y-55053000D01*
X24620000Y-49000000D02*
X24620000Y-55000000D01*
X24660000Y-49055000D02*
X24660000Y-54945000D01*
X24700000Y-49112000D02*
X24700000Y-54888000D01*
X24740000Y-49170000D02*
X24740000Y-54830000D01*
X24780000Y-49230000D02*
X24780000Y-54770000D01*
X24820000Y-49292000D02*
X24820000Y-54708000D01*
X24860000Y-49356000D02*
X24860000Y-54644000D01*
X24900000Y-49422000D02*
X24900000Y-54578000D01*
X24940000Y-49490000D02*
X24940000Y-54510000D01*
X24980000Y-49561000D02*
X24980000Y-54439000D01*
X25020000Y-49635000D02*
X25020000Y-54365000D01*
X25060000Y-49712000D02*
X25060000Y-54288000D01*
X25100000Y-49792000D02*
X25100000Y-54208000D01*
X25140000Y-49876000D02*
X25140000Y-54124000D01*
X25180000Y-49963000D02*
X25180000Y-54037000D01*
X25220000Y-50056000D02*
X25220000Y-53944000D01*
X25260000Y-50154000D02*
X25260000Y-53846000D01*
X25300000Y-50258000D02*
X25300000Y-53742000D01*
X25340000Y-50370000D02*
X25340000Y-53630000D01*
X25380000Y-50491000D02*
X25380000Y-53509000D01*
X25420000Y-50623000D02*
X25420000Y-53377000D01*
X25460000Y-50770000D02*
X25460000Y-53230000D01*
X25500000Y-50938000D02*
X25500000Y-53062000D01*
X25540000Y-51138000D02*
X25540000Y-52862000D01*
X25580000Y-51401000D02*
X25580000Y-52599000D01*
X25620000Y-52000000D02*
G75*
G02*
X15380000Y-52000000I-5120000J0D01*
G01*
X15380000Y-52000000D02*
G75*
G02*
X25620000Y-52000000I5120000J0D01*
G01*
%TD*%
M02*
