%TF.GenerationSoftware,KiCad,Pcbnew,10.0.6*%
%TF.CreationDate,2026-09-14T01:04:56+08:00*%
%TF.ProjectId,Microduck_Power_Regen_R22,4d696372-6f64-4756-936b-5f506f776572,rev?*%
%TF.SameCoordinates,Original*%
%TF.FileFunction,Paste,Top*%
%TF.FilePolarity,Positive*%
%FSLAX46Y46*%
G04 Gerber Fmt 4.6, Leading zero omitted, Abs format (unit mm)*
G04 Created by KiCad (PCBNEW 10.0.6) date 2026-09-14 01:04:56*
%MOMM*%
%LPD*%
G01*
G04 APERTURE LIST*
G04 Aperture macros list*
%AMRoundRect*
0 Rectangle with rounded corners*
0 $1 Rounding radius*
0 $2 $3 $4 $5 $6 $7 $8 $9 X,Y pos of 4 corners*
0 Add a 4 corners polygon primitive as box body*
4,1,4,$2,$3,$4,$5,$6,$7,$8,$9,$2,$3,0*
0 Add four circle primitives for the rounded corners*
1,1,$1+$1,$2,$3*
1,1,$1+$1,$4,$5*
1,1,$1+$1,$6,$7*
1,1,$1+$1,$8,$9*
0 Add four rect primitives between the rounded corners*
20,1,$1+$1,$2,$3,$4,$5,0*
20,1,$1+$1,$4,$5,$6,$7,0*
20,1,$1+$1,$6,$7,$8,$9,0*
20,1,$1+$1,$8,$9,$2,$3,0*%
G04 Aperture macros list end*
%ADD10R,2.690000X5.710000*%
%ADD11R,2.690000X0.890000*%
%ADD12R,5.710000X2.690000*%
%ADD13R,0.890000X2.690000*%
%ADD14RoundRect,0.250000X-0.325000X-1.100000X0.325000X-1.100000X0.325000X1.100000X-0.325000X1.100000X0*%
%ADD15R,0.766000X0.508000*%
%ADD16R,1.294000X0.746000*%
%ADD17R,1.072000X0.562000*%
%ADD18RoundRect,0.150000X0.625000X-0.150000X0.625000X0.150000X-0.625000X0.150000X-0.625000X-0.150000X0*%
%ADD19RoundRect,0.250000X0.650000X-0.350000X0.650000X0.350000X-0.650000X0.350000X-0.650000X-0.350000X0*%
G04 APERTURE END LIST*
D10*
%TO.C,RS101*%
X35465000Y2610000D03*
D11*
X35465000Y6800000D03*
X30535000Y6800000D03*
D10*
X30535000Y2610000D03*
%TD*%
D12*
%TO.C,RS1*%
X53890000Y-42535000D03*
D13*
X49700000Y-42535000D03*
X49700000Y-47465000D03*
D12*
X53890000Y-47465000D03*
%TD*%
D14*
%TO.C,C111*%
X1325000Y-18000000D03*
X4275000Y-18000000D03*
%TD*%
%TO.C,C112*%
X1325000Y-36000000D03*
X4275000Y-36000000D03*
%TD*%
D15*
%TO.C,Q101*%
X46014000Y1595000D03*
X46014000Y2865000D03*
X46014000Y4135000D03*
X46014000Y5405000D03*
D16*
X44940000Y1931000D03*
X44940000Y2977000D03*
X44940000Y4023000D03*
X44940000Y5069000D03*
X43296000Y1931000D03*
X43296000Y2977000D03*
X43296000Y4023000D03*
X43296000Y5069000D03*
D17*
X40464000Y1595000D03*
X40464000Y2865000D03*
X40464000Y4135000D03*
X40464000Y5405000D03*
%TD*%
D18*
%TO.C,J1*%
X61325000Y-23500000D03*
X61325000Y-22500000D03*
X61325000Y-21500000D03*
X61325000Y-20500000D03*
X61325000Y-19500000D03*
X61325000Y-18500000D03*
X61325000Y-17500000D03*
X61325000Y-16500000D03*
D19*
X58800000Y-24800000D03*
X58800000Y-15200000D03*
%TD*%
D15*
%TO.C,Q1*%
X49014000Y-36905000D03*
X49014000Y-35635000D03*
X49014000Y-34365000D03*
X49014000Y-33095000D03*
D16*
X47940000Y-36569000D03*
X47940000Y-35523000D03*
X47940000Y-34477000D03*
X47940000Y-33431000D03*
X46296000Y-36569000D03*
X46296000Y-35523000D03*
X46296000Y-34477000D03*
X46296000Y-33431000D03*
D17*
X43464000Y-36905000D03*
X43464000Y-35635000D03*
X43464000Y-34365000D03*
X43464000Y-33095000D03*
%TD*%
D15*
%TO.C,Q2*%
X53986000Y-33095000D03*
X53986000Y-34365000D03*
X53986000Y-35635000D03*
X53986000Y-36905000D03*
D16*
X55060000Y-33431000D03*
X55060000Y-34477000D03*
X55060000Y-35523000D03*
X55060000Y-36569000D03*
X56704000Y-33431000D03*
X56704000Y-34477000D03*
X56704000Y-35523000D03*
X56704000Y-36569000D03*
D17*
X59536000Y-33095000D03*
X59536000Y-34365000D03*
X59536000Y-35635000D03*
X59536000Y-36905000D03*
%TD*%
D14*
%TO.C,C110*%
X1325000Y-10000000D03*
X4275000Y-10000000D03*
%TD*%
M02*
