%TF.GenerationSoftware,KiCad,Pcbnew,10.0.6*%
%TF.CreationDate,2026-09-14T01:04:56+08:00*%
%TF.ProjectId,Microduck_Power_Regen_R22,4d696372-6f64-4756-936b-5f506f776572,rev?*%
%TF.SameCoordinates,Original*%
%TF.FileFunction,Legend,Bot*%
%TF.FilePolarity,Positive*%
%FSLAX46Y46*%
G04 Gerber Fmt 4.6, Leading zero omitted, Abs format (unit mm)*
G04 Created by KiCad (PCBNEW 10.0.6) date 2026-09-14 01:04:56*
%MOMM*%
%LPD*%
G01*
G04 APERTURE LIST*
%ADD10C,0.120000*%
G04 APERTURE END LIST*
%TO.C,Q3*%
D10*
X5240000Y-26440000D02*
X5240000Y-27440000D01*
X5240000Y-28560000D02*
X5240000Y-29560000D01*
X5240000Y-29560000D02*
X6760000Y-29560000D01*
X6760000Y-26440000D02*
X5240000Y-26440000D01*
X6760000Y-26490000D02*
X6760000Y-26440000D01*
X6760000Y-28390000D02*
X6760000Y-27610000D01*
X6760000Y-29560000D02*
X6760000Y-29510000D01*
X7300000Y-27620000D02*
X7060000Y-27950000D01*
X7540000Y-27950000D01*
X7300000Y-27620000D01*
G36*
X7540000Y-27950000D02*
G01*
X7060000Y-27950000D01*
X7300000Y-27620000D01*
X7540000Y-27950000D01*
G37*
%TO.C,U102*%
X12240000Y-5440000D02*
X12240000Y-6440000D01*
X12240000Y-7560000D02*
X12240000Y-8560000D01*
X12240000Y-8560000D02*
X13760000Y-8560000D01*
X13760000Y-5440000D02*
X12240000Y-5440000D01*
X13760000Y-5490000D02*
X13760000Y-5440000D01*
X13760000Y-7390000D02*
X13760000Y-6610000D01*
X13760000Y-8560000D02*
X13760000Y-8510000D01*
X14300000Y-6620000D02*
X14060000Y-6950000D01*
X14540000Y-6950000D01*
X14300000Y-6620000D01*
G36*
X14540000Y-6950000D02*
G01*
X14060000Y-6950000D01*
X14300000Y-6620000D01*
X14540000Y-6950000D01*
G37*
%TO.C,R101*%
X13237258Y-12477500D02*
X12762742Y-12477500D01*
X13237258Y-13522500D02*
X12762742Y-13522500D01*
%TO.C,R110*%
X24237258Y-6477500D02*
X23762742Y-6477500D01*
X24237258Y-7522500D02*
X23762742Y-7522500D01*
%TO.C,R4*%
X41477500Y-29237258D02*
X41477500Y-28762742D01*
X42522500Y-29237258D02*
X42522500Y-28762742D01*
%TO.C,C13*%
X13711252Y-17640000D02*
X12288748Y-17640000D01*
X13711252Y-20360000D02*
X12288748Y-20360000D01*
%TO.C,U104*%
X38090000Y-440000D02*
X38090000Y-490000D01*
X38090000Y-3510000D02*
X38090000Y-3560000D01*
X38090000Y-3560000D02*
X39910000Y-3560000D01*
X39910000Y-440000D02*
X38090000Y-440000D01*
X39910000Y-490000D02*
X39910000Y-440000D01*
X39910000Y-3560000D02*
X39910000Y-3510000D01*
X40450000Y-490000D02*
X40690000Y-160000D01*
X40210000Y-160000D01*
X40450000Y-490000D01*
G36*
X40450000Y-490000D02*
G01*
X40210000Y-160000D01*
X40690000Y-160000D01*
X40450000Y-490000D01*
G37*
%TO.C,R105*%
X38237258Y5522500D02*
X37762742Y5522500D01*
X38237258Y4477500D02*
X37762742Y4477500D01*
%TO.C,C6*%
X41140580Y-35490000D02*
X40859420Y-35490000D01*
X41140580Y-36510000D02*
X40859420Y-36510000D01*
%TO.C,R5*%
X41477500Y-25237258D02*
X41477500Y-24762742D01*
X42522500Y-25237258D02*
X42522500Y-24762742D01*
%TO.C,C10*%
X33140580Y-47490000D02*
X32859420Y-47490000D01*
X33140580Y-48510000D02*
X32859420Y-48510000D01*
%TO.C,C17*%
X20711252Y-21640000D02*
X19288748Y-21640000D01*
X20711252Y-24360000D02*
X19288748Y-24360000D01*
%TO.C,R11*%
X30237258Y-47477500D02*
X29762742Y-47477500D01*
X30237258Y-48522500D02*
X29762742Y-48522500D01*
%TO.C,U4*%
X51390000Y-27390000D02*
X51390000Y-27565000D01*
X51390000Y-30435000D02*
X51390000Y-30610000D01*
X51390000Y-30610000D02*
X54610000Y-30610000D01*
X54610000Y-27390000D02*
X51390000Y-27390000D01*
X54610000Y-27565000D02*
X54610000Y-27390000D01*
X54610000Y-30610000D02*
X54610000Y-30435000D01*
X55160000Y-27560000D02*
X55400000Y-27230000D01*
X54920000Y-27230000D01*
X55160000Y-27560000D01*
G36*
X55160000Y-27560000D02*
G01*
X54920000Y-27230000D01*
X55400000Y-27230000D01*
X55160000Y-27560000D01*
G37*
%TO.C,R109*%
X22237258Y3022500D02*
X21762742Y3022500D01*
X22237258Y1977500D02*
X21762742Y1977500D01*
%TO.C,C106*%
X35190000Y-2140580D02*
X35190000Y-1859420D01*
X36210000Y-2140580D02*
X36210000Y-1859420D01*
%TO.C,C108*%
X17640580Y-3490000D02*
X17359420Y-3490000D01*
X17640580Y-4510000D02*
X17359420Y-4510000D01*
%TO.C,R104*%
X38237258Y1522500D02*
X37762742Y1522500D01*
X38237258Y477500D02*
X37762742Y477500D01*
%TO.C,R103*%
X23237258Y-14477500D02*
X22762742Y-14477500D01*
X23237258Y-15522500D02*
X22762742Y-15522500D01*
%TO.C,U101*%
X6240000Y-5440000D02*
X6240000Y-6440000D01*
X6240000Y-7560000D02*
X6240000Y-8560000D01*
X6240000Y-8560000D02*
X7760000Y-8560000D01*
X7760000Y-5440000D02*
X6240000Y-5440000D01*
X7760000Y-5490000D02*
X7760000Y-5440000D01*
X7760000Y-7390000D02*
X7760000Y-6610000D01*
X7760000Y-8560000D02*
X7760000Y-8510000D01*
X8300000Y-6620000D02*
X8060000Y-6950000D01*
X8540000Y-6950000D01*
X8300000Y-6620000D01*
G36*
X8540000Y-6950000D02*
G01*
X8060000Y-6950000D01*
X8300000Y-6620000D01*
X8540000Y-6950000D01*
G37*
%TO.C,R102*%
X17237258Y-13477500D02*
X16762742Y-13477500D01*
X17237258Y-14522500D02*
X16762742Y-14522500D01*
%TO.C,U3*%
X28390000Y-43390000D02*
X28390000Y-43565000D01*
X28390000Y-46435000D02*
X28390000Y-46610000D01*
X28390000Y-46610000D02*
X31610000Y-46610000D01*
X31610000Y-43390000D02*
X28390000Y-43390000D01*
X31610000Y-43565000D02*
X31610000Y-43390000D01*
X31610000Y-46610000D02*
X31610000Y-46435000D01*
X32160000Y-43560000D02*
X32400000Y-43230000D01*
X31920000Y-43230000D01*
X32160000Y-43560000D01*
G36*
X32160000Y-43560000D02*
G01*
X31920000Y-43230000D01*
X32400000Y-43230000D01*
X32160000Y-43560000D01*
G37*
%TO.C,R6*%
X32237258Y-40477500D02*
X31762742Y-40477500D01*
X32237258Y-41522500D02*
X31762742Y-41522500D01*
%TO.C,R108*%
X22237258Y522500D02*
X21762742Y522500D01*
X22237258Y-522500D02*
X21762742Y-522500D01*
%TO.C,C12*%
X9140580Y-19490000D02*
X8859420Y-19490000D01*
X9140580Y-20510000D02*
X8859420Y-20510000D01*
%TO.C,R1*%
X38477500Y-24237258D02*
X38477500Y-23762742D01*
X39522500Y-24237258D02*
X39522500Y-23762742D01*
%TO.C,C18*%
X13711252Y-25640000D02*
X12288748Y-25640000D01*
X13711252Y-28360000D02*
X12288748Y-28360000D01*
%TO.C,U2*%
X42390000Y-41635000D02*
X45610000Y-41635000D01*
X45610000Y-38365000D02*
X42390000Y-38365000D01*
X46140000Y-38750000D02*
X46470000Y-38990000D01*
X46470000Y-38510000D01*
X46140000Y-38750000D01*
G36*
X46470000Y-38990000D02*
G01*
X46140000Y-38750000D01*
X46470000Y-38510000D01*
X46470000Y-38990000D01*
G37*
%TO.C,R107*%
X24237258Y-10477500D02*
X23762742Y-10477500D01*
X24237258Y-11522500D02*
X23762742Y-11522500D01*
%TO.C,C14*%
X20711252Y-17640000D02*
X19288748Y-17640000D01*
X20711252Y-20360000D02*
X19288748Y-20360000D01*
%TO.C,C4*%
X27140580Y-34490000D02*
X26859420Y-34490000D01*
X27140580Y-35510000D02*
X26859420Y-35510000D01*
%TO.C,C9*%
X26140580Y-49490000D02*
X25859420Y-49490000D01*
X26140580Y-50510000D02*
X25859420Y-50510000D01*
%TO.C,C102*%
X8140580Y-3490000D02*
X7859420Y-3490000D01*
X8140580Y-4510000D02*
X7859420Y-4510000D01*
%TO.C,U105*%
X24390000Y-2390000D02*
X24390000Y-2565000D01*
X24390000Y-5435000D02*
X24390000Y-5610000D01*
X24390000Y-5610000D02*
X27610000Y-5610000D01*
X27610000Y-2390000D02*
X24390000Y-2390000D01*
X27610000Y-2565000D02*
X27610000Y-2390000D01*
X27610000Y-5610000D02*
X27610000Y-5435000D01*
X28160000Y-2560000D02*
X28400000Y-2230000D01*
X27920000Y-2230000D01*
X28160000Y-2560000D01*
G36*
X28160000Y-2560000D02*
G01*
X27920000Y-2230000D01*
X28400000Y-2230000D01*
X28160000Y-2560000D01*
G37*
%TO.C,C7*%
X46140580Y-43490000D02*
X45859420Y-43490000D01*
X46140580Y-44510000D02*
X45859420Y-44510000D01*
%TO.C,R106*%
X47237258Y2522500D02*
X46762742Y2522500D01*
X47237258Y1477500D02*
X46762742Y1477500D01*
%TO.C,R8*%
X28477500Y-38237258D02*
X28477500Y-37762742D01*
X29522500Y-38237258D02*
X29522500Y-37762742D01*
%TO.C,C104*%
X16640580Y-7490000D02*
X16359420Y-7490000D01*
X16640580Y-8510000D02*
X16359420Y-8510000D01*
%TO.C,C107*%
X35190000Y3359420D02*
X35190000Y3640580D01*
X36210000Y3359420D02*
X36210000Y3640580D01*
%TO.C,C16*%
X13711252Y-21640000D02*
X12288748Y-21640000D01*
X13711252Y-24360000D02*
X12288748Y-24360000D01*
%TO.C,C103*%
X7140580Y-9490000D02*
X6859420Y-9490000D01*
X7140580Y-10510000D02*
X6859420Y-10510000D01*
%TO.C,R7*%
X34477500Y-38237258D02*
X34477500Y-37762742D01*
X35522500Y-38237258D02*
X35522500Y-37762742D01*
%TO.C,C5*%
X41140580Y-33490000D02*
X40859420Y-33490000D01*
X41140580Y-34510000D02*
X40859420Y-34510000D01*
%TO.C,C109*%
X21140580Y-3490000D02*
X20859420Y-3490000D01*
X21140580Y-4510000D02*
X20859420Y-4510000D01*
%TO.C,R9*%
X60477500Y-29237258D02*
X60477500Y-28762742D01*
X61522500Y-29237258D02*
X61522500Y-28762742D01*
%TO.C,C105*%
X42490000Y-5140580D02*
X42490000Y-4859420D01*
X43510000Y-5140580D02*
X43510000Y-4859420D01*
%TO.C,Q102*%
X19240000Y-5440000D02*
X19240000Y-6440000D01*
X19240000Y-7560000D02*
X19240000Y-8560000D01*
X19240000Y-8560000D02*
X20760000Y-8560000D01*
X20760000Y-5440000D02*
X19240000Y-5440000D01*
X20760000Y-5490000D02*
X20760000Y-5440000D01*
X20760000Y-7390000D02*
X20760000Y-6610000D01*
X20760000Y-8560000D02*
X20760000Y-8510000D01*
X21300000Y-6620000D02*
X21060000Y-6950000D01*
X21540000Y-6950000D01*
X21300000Y-6620000D01*
G36*
X21540000Y-6950000D02*
G01*
X21060000Y-6950000D01*
X21300000Y-6620000D01*
X21540000Y-6950000D01*
G37*
%TO.C,C19*%
X20711252Y-25640000D02*
X19288748Y-25640000D01*
X20711252Y-28360000D02*
X19288748Y-28360000D01*
%TO.C,C11*%
X57140580Y-25990000D02*
X56859420Y-25990000D01*
X57140580Y-27010000D02*
X56859420Y-27010000D01*
%TO.C,U103*%
X19090000Y-9440000D02*
X19090000Y-9490000D01*
X19090000Y-10610000D02*
X19090000Y-11390000D01*
X19090000Y-12510000D02*
X19090000Y-12560000D01*
X19090000Y-12560000D02*
X20910000Y-12560000D01*
X20910000Y-9440000D02*
X19090000Y-9440000D01*
X20910000Y-9490000D02*
X20910000Y-9440000D01*
X20910000Y-12560000D02*
X20910000Y-12510000D01*
X21450000Y-9490000D02*
X21690000Y-9160000D01*
X21210000Y-9160000D01*
X21450000Y-9490000D01*
G36*
X21450000Y-9490000D02*
G01*
X21210000Y-9160000D01*
X21690000Y-9160000D01*
X21450000Y-9490000D01*
G37*
%TO.C,C8*%
X60140580Y-38490000D02*
X59859420Y-38490000D01*
X60140580Y-39510000D02*
X59859420Y-39510000D01*
%TO.C,C15*%
X36140580Y-13490000D02*
X35859420Y-13490000D01*
X36140580Y-14510000D02*
X35859420Y-14510000D01*
%TO.C,R3*%
X24237258Y-34477500D02*
X23762742Y-34477500D01*
X24237258Y-35522500D02*
X23762742Y-35522500D01*
%TO.C,R10*%
X26237258Y-47477500D02*
X25762742Y-47477500D01*
X26237258Y-48522500D02*
X25762742Y-48522500D01*
%TO.C,R2*%
X38477500Y-29237258D02*
X38477500Y-28762742D01*
X39522500Y-29237258D02*
X39522500Y-28762742D01*
%TD*%
M02*
