%TF.GenerationSoftware,KiCad,Pcbnew,10.0.6*%
%TF.CreationDate,2026-09-14T01:04:56+08:00*%
%TF.ProjectId,Microduck_Power_Regen_R22,4d696372-6f64-4756-936b-5f506f776572,rev?*%
%TF.SameCoordinates,Original*%
%TF.FileFunction,Copper,L2,Inr*%
%TF.FilePolarity,Positive*%
%FSLAX46Y46*%
G04 Gerber Fmt 4.6, Leading zero omitted, Abs format (unit mm)*
G04 Created by KiCad (PCBNEW 10.0.6) date 2026-09-14 01:04:56*
%MOMM*%
%LPD*%
G01*
G04 APERTURE LIST*
G04 Aperture macros list*
%AMRoundRect*
0 Rectangle with rounded corners*
0 $1 Rounding radius*
0 $2 $3 $4 $5 $6 $7 $8 $9 X,Y pos of 4 corners*
0 Add a 4 corners polygon primitive as box body*
4,1,4,$2,$3,$4,$5,$6,$7,$8,$9,$2,$3,0*
0 Add four circle primitives for the rounded corners*
1,1,$1+$1,$2,$3*
1,1,$1+$1,$4,$5*
1,1,$1+$1,$6,$7*
1,1,$1+$1,$8,$9*
0 Add four rect primitives between the rounded corners*
20,1,$1+$1,$2,$3,$4,$5,0*
20,1,$1+$1,$4,$5,$6,$7,0*
20,1,$1+$1,$6,$7,$8,$9,0*
20,1,$1+$1,$8,$9,$2,$3,0*%
G04 Aperture macros list end*
%TA.AperFunction,ComponentPad*%
%ADD10RoundRect,0.250000X-0.750000X-0.750000X0.750000X-0.750000X0.750000X0.750000X-0.750000X0.750000X0*%
%TD*%
%TA.AperFunction,ComponentPad*%
%ADD11C,2.000000*%
%TD*%
%TA.AperFunction,ComponentPad*%
%ADD12C,1.000000*%
%TD*%
%TA.AperFunction,ComponentPad*%
%ADD13C,6.000000*%
%TD*%
%TA.AperFunction,ComponentPad*%
%ADD14C,2.400000*%
%TD*%
%TA.AperFunction,ComponentPad*%
%ADD15C,3.200000*%
%TD*%
%TA.AperFunction,ComponentPad*%
%ADD16R,2.400000X2.400000*%
%TD*%
%TA.AperFunction,ViaPad*%
%ADD17C,0.450000*%
%TD*%
%TA.AperFunction,ViaPad*%
%ADD18C,0.600000*%
%TD*%
%TA.AperFunction,Conductor*%
%ADD19C,0.200000*%
%TD*%
G04 APERTURE END LIST*
D10*
%TO.N,REG_RAW*%
%TO.C,C3*%
X47000000Y-23000000D03*
D11*
%TO.N,GND*%
X52000000Y-23000000D03*
%TD*%
D10*
%TO.N,REG_RAW*%
%TO.C,C2*%
X47000000Y-10000000D03*
D11*
%TO.N,GND*%
X52000000Y-10000000D03*
%TD*%
D12*
%TO.N,RG_I2C_SDA*%
%TO.C,P103*%
X38140000Y8500000D03*
%TD*%
D13*
%TO.N,SERVO_BUS*%
%TO.C,W3*%
X54000000Y-54000000D03*
%TD*%
D12*
%TO.N,RG_I2C_SCL*%
%TO.C,P104*%
X39410000Y8500000D03*
%TD*%
D13*
%TO.N,GND*%
%TO.C,W4*%
X44000000Y-56000000D03*
%TD*%
D12*
%TO.N,RG_+3V3*%
%TO.C,P102*%
X36870000Y8500000D03*
%TD*%
D14*
%TO.N,BAT_SW*%
%TO.C,U1*%
X8500000Y-16800000D03*
%TO.N,TDK_ON_N*%
X8500000Y-24420000D03*
%TO.N,GND*%
X8500000Y-32040000D03*
D15*
X36440000Y-32040000D03*
D14*
%TO.N,ITRIM*%
X36440000Y-28230000D03*
%TO.N,VTRIM*%
X36440000Y-24420000D03*
%TO.N,REG_RAW*%
X36440000Y-20610000D03*
D15*
X36440000Y-16800000D03*
D14*
%TO.N,GND*%
X20570000Y-32040000D03*
%TO.N,IMON_RAW*%
X24380000Y-32040000D03*
%TD*%
D13*
%TO.N,BAT_SW*%
%TO.C,W1*%
X8000000Y-52000000D03*
%TD*%
%TO.N,GND*%
%TO.C,W2*%
X31000000Y-53000000D03*
%TD*%
D16*
%TO.N,SERVO_BUS*%
%TO.C,C101*%
X1800000Y6000000D03*
D14*
%TO.N,GND*%
X1800000Y1000000D03*
%TD*%
D13*
%TO.N,SERVO_BUS*%
%TO.C,W103*%
X32000000Y11500000D03*
%TD*%
%TO.N,RG_RH_LOW*%
%TO.C,W104*%
X44000000Y11500000D03*
%TD*%
D12*
%TO.N,RG_BRAKE_ACTIVE_N*%
%TO.C,P105*%
X40680000Y8500000D03*
%TD*%
%TO.N,GND*%
%TO.C,P101*%
X35600000Y8500000D03*
%TD*%
D10*
%TO.N,BAT_SW*%
%TO.C,C1*%
X18000000Y-52000000D03*
D11*
%TO.N,GND*%
X23000000Y-52000000D03*
%TD*%
D17*
%TO.N,RG_BRAKE_SENSE_P*%
X28600000Y6400000D03*
%TO.N,RG_BRAKE_SENSE_N*%
X28000000Y6799999D03*
%TO.N,GND*%
X42000000Y-54000000D03*
X10000000Y-40000000D03*
X20000000Y-30000000D03*
X15000000Y-3000000D03*
X49000000Y-54000000D03*
X40000000Y-20000000D03*
X15000000Y-10000000D03*
X45000000Y-5000000D03*
X41200000Y-41250000D03*
X25000000Y-2000000D03*
X25000000Y-40000000D03*
X58000000Y-16500000D03*
X28000000Y-1000000D03*
X28500000Y-21000000D03*
X58000000Y-23500000D03*
X30000000Y-45000000D03*
X55000000Y-15000000D03*
X55000000Y-5000000D03*
X46000000Y-54000000D03*
X35000000Y-55000000D03*
X39000000Y-28175000D03*
X20000000Y-50000000D03*
X5000000Y-10000000D03*
X60000000Y-20000000D03*
X20000000Y-55000000D03*
X25000000Y-30000000D03*
X55000000Y-25000000D03*
X20000000Y-20000000D03*
X28500000Y-33000000D03*
X40000000Y-40000000D03*
X10000000Y-45000000D03*
X5000000Y-5000000D03*
X20000000Y-15000000D03*
X25000000Y-25000000D03*
X28500000Y-30000000D03*
X50000000Y-20000000D03*
X50000000Y-55000000D03*
X35000000Y-38000000D03*
X20000000Y-45000000D03*
X20000000Y-10000000D03*
X25000000Y-15000000D03*
X55000000Y-10000000D03*
X35000000Y-53000000D03*
X40000000Y-10000000D03*
X35000000Y-30000000D03*
X20000000Y-35000000D03*
X10000000Y-10000000D03*
X49200000Y-29000000D03*
X60000000Y-30000000D03*
X5000000Y-30000000D03*
X35000000Y-10000000D03*
X60000000Y-55000000D03*
X26800000Y-45500000D03*
X25000000Y-10000000D03*
X28500000Y-10000000D03*
X60000000Y-5000000D03*
X15000000Y-55000000D03*
X10000000Y-35000000D03*
X28500000Y-15000000D03*
X28500000Y-25000000D03*
X50000000Y-15000000D03*
X60500000Y-15000000D03*
X60000000Y-50000000D03*
X55000000Y-40000000D03*
X25000000Y-20000000D03*
X20000000Y-40000000D03*
X25000000Y-55000000D03*
X32200000Y-48000000D03*
X5000000Y-20000000D03*
X50000000Y-5000000D03*
X40000000Y-55000000D03*
X5000000Y-35000000D03*
X50000000Y-25000000D03*
X20000000Y-25000000D03*
X60000000Y-45000000D03*
X35000000Y-35000000D03*
X50000000Y-45000000D03*
X7000000Y-5000000D03*
X20000000Y-3000000D03*
X50000000Y-10000000D03*
X40000000Y-5000000D03*
X5000000Y-25000000D03*
X5000000Y-15000000D03*
X5000000Y-40000000D03*
X45000000Y-15000000D03*
X36000000Y-6000000D03*
X60000000Y-10000000D03*
X60500000Y-25000000D03*
X33200000Y-44000000D03*
X5000000Y-45000000D03*
%TO.N,REG_RAW*%
X44200000Y-35200000D03*
X46800000Y-43000000D03*
X48100000Y-39250000D03*
%TO.N,PRE_SHUNT*%
X62000000Y-39000000D03*
X41500000Y-40250000D03*
X50600000Y-42400000D03*
%TO.N,SENSE_P*%
X50400000Y-41000000D03*
X56300000Y-28000000D03*
X43400000Y-45400000D03*
%TO.N,SENSE_N*%
X49000000Y-47600000D03*
D18*
%TO.N,SERVO_BUS*%
X30800000Y-8000000D03*
X32400000Y-8000000D03*
D17*
X22700000Y-4000000D03*
D18*
X31600000Y-7200000D03*
X31600000Y-8800000D03*
D17*
X8400000Y-7200000D03*
D18*
X30800000Y-8800000D03*
X31600000Y-8000000D03*
X33200000Y-8000000D03*
D17*
X13800000Y-8800000D03*
X8600000Y-3199999D03*
D18*
X33200000Y-7200000D03*
X33200000Y-8800000D03*
D17*
X25900000Y-45000000D03*
D18*
X30800000Y-7200000D03*
X32400000Y-8800000D03*
X32400000Y-7200000D03*
D17*
%TO.N,RG_I2C_SDA*%
X27000000Y-4500000D03*
X27000000Y-3500000D03*
%TO.N,RG_I2C_SCL*%
X26300000Y-5000000D03*
%TO.N,RG_+3V3*%
X27200000Y-6000000D03*
X22700000Y-5000000D03*
%TO.N,RG_GATE*%
X38000000Y399999D03*
X41200000Y1599999D03*
%TO.N,RG_RH_LOW*%
X43200000Y2200000D03*
X45200000Y2200000D03*
X43200000Y4800000D03*
X43200000Y3500000D03*
X44200000Y2200000D03*
X45200000Y4800000D03*
X45200000Y3500000D03*
X44200000Y4800000D03*
X44200000Y3500000D03*
%TO.N,BAT_SW*%
X13600000Y-23000000D03*
X13600000Y-19000000D03*
X13600000Y-27000000D03*
%TO.N,+3V3*%
X34600000Y-47400000D03*
X57100000Y-29500000D03*
X60000000Y-23400000D03*
X25900000Y-46000000D03*
X49700000Y-28500000D03*
X31000000Y-44500000D03*
X57200000Y-27800000D03*
%TO.N,I2C_SDA*%
X33299999Y-45500000D03*
X59800000Y-22200000D03*
%TO.N,I2C_SCL*%
X59800000Y-21200000D03*
X34100000Y-46000000D03*
%TO.N,RUN_REQ*%
X39200000Y-36000000D03*
X49700000Y-30000000D03*
X44600000Y-32400000D03*
%TO.N,RUN_OK*%
X56300000Y-30000000D03*
X37200000Y-39000000D03*
X36200000Y-38200000D03*
X46500000Y-41250000D03*
%TO.N,TDK_IMON*%
X59800000Y-18200000D03*
%TO.N,DGATE*%
X46500000Y-38750000D03*
%TO.N,MID_DRAIN*%
X40700000Y-38750000D03*
X44400000Y-36000000D03*
X40700000Y-39750000D03*
X47300000Y-39750000D03*
X46800000Y-39750000D03*
X46500000Y-40250000D03*
%TO.N,HGATE*%
X40700000Y-40750000D03*
X58600000Y-33600000D03*
%TO.N,RG_BRAKE_ACTIVE_N*%
X26600000Y-5600000D03*
%TO.N,RG_BRAKE_5V*%
X18800000Y-10600000D03*
X41800000Y-4400000D03*
X15000000Y-6000000D03*
X39800000Y-400000D03*
X35000000Y-3400000D03*
%TO.N,RG_BRAKE_CMD*%
X22200000Y-10000000D03*
X26000000Y-10000000D03*
X22000000Y-6000000D03*
X36600000Y-1800000D03*
%TO.N,INA_N*%
X26700000Y-44500000D03*
X28400000Y-48200000D03*
%TO.N,OC_LIMIT*%
X59400000Y-30600000D03*
X56300000Y-29000000D03*
%TO.N,RG_INA_P*%
X22700000Y-3000000D03*
X20200000Y-1000000D03*
X19200000Y-3600000D03*
%TO.N,CP_CAP*%
X41500000Y-39250000D03*
X41000000Y-38000000D03*
%TD*%
%TO.N,REG_RAW*%
D19*
X46150000Y-37300000D02*
X46150000Y-36900000D01*
X44750000Y-35550000D02*
X44700000Y-35500000D01*
X44650000Y-35500000D02*
X44600000Y-35450000D01*
X44800000Y-35550000D02*
X44750000Y-35550000D01*
X44450000Y-35450000D02*
X44200000Y-35200000D01*
X48100000Y-39250000D02*
X46150000Y-37300000D01*
X44600000Y-35450000D02*
X44450000Y-35450000D01*
X44700000Y-35500000D02*
X44650000Y-35500000D01*
X46150000Y-36900000D02*
X44800000Y-35550000D01*
%TO.N,PRE_SHUNT*%
X46400000Y-41800000D02*
X47000000Y-42400000D01*
X46250000Y-41750000D02*
X46300000Y-41800000D01*
X44650000Y-40250000D02*
X46100000Y-41700000D01*
X46100000Y-41700000D02*
X46150000Y-41700000D01*
X46200000Y-41750000D02*
X46250000Y-41750000D01*
X46300000Y-41800000D02*
X46400000Y-41800000D01*
X47000000Y-42400000D02*
X50600000Y-42400000D01*
X41500000Y-40250000D02*
X44650000Y-40250000D01*
X46150000Y-41700000D02*
X46200000Y-41750000D01*
%TO.N,SENSE_P*%
X51600000Y-38350000D02*
X51600000Y-38400000D01*
X51800000Y-37950000D02*
X51750000Y-38000000D01*
X51700000Y-38150000D02*
X51700000Y-38200000D01*
X51000000Y-39700000D02*
X50950000Y-39750000D01*
X51550000Y-38500000D02*
X51500000Y-38550000D01*
X51450000Y-38750000D02*
X51400000Y-38800000D01*
X51200000Y-39300000D02*
X51150000Y-39350000D01*
X56200000Y-28100000D02*
X56200000Y-28150000D01*
X50900000Y-39900000D02*
X50900000Y-39950000D01*
X50600000Y-40550000D02*
X50600000Y-40600000D01*
X51850000Y-37850000D02*
X51800000Y-37900000D01*
X51850000Y-37800000D02*
X51850000Y-37850000D01*
X51900000Y-37750000D02*
X51850000Y-37800000D01*
X50650000Y-40500000D02*
X50600000Y-40550000D01*
X51700000Y-38200000D02*
X51650000Y-38250000D01*
X51050000Y-39550000D02*
X51050000Y-39600000D01*
X50800000Y-40100000D02*
X50800000Y-40150000D01*
X50750000Y-40200000D02*
X50750000Y-40250000D01*
X50700000Y-40300000D02*
X50700000Y-40400000D01*
X50850000Y-40000000D02*
X50850000Y-40050000D01*
X50750000Y-40250000D02*
X50700000Y-40300000D01*
X51400000Y-38850000D02*
X51350000Y-38900000D01*
X51600000Y-38400000D02*
X51550000Y-38450000D01*
X51050000Y-39600000D02*
X51000000Y-39650000D01*
X51350000Y-38900000D02*
X51350000Y-38950000D01*
X51350000Y-38950000D02*
X51300000Y-39000000D01*
X51150000Y-39400000D02*
X51100000Y-39450000D01*
X56200000Y-28150000D02*
X56150000Y-28200000D01*
X51500000Y-38550000D02*
X51500000Y-38600000D01*
X50550000Y-40650000D02*
X50550000Y-40700000D01*
X56300000Y-28000000D02*
X56200000Y-28100000D01*
X50550000Y-40700000D02*
X50500000Y-40750000D01*
X50800000Y-40150000D02*
X50750000Y-40200000D01*
X50600000Y-40600000D02*
X50550000Y-40650000D01*
X50450000Y-40950000D02*
X50400000Y-41000000D01*
X50950000Y-39850000D02*
X50900000Y-39900000D01*
X50450000Y-40850000D02*
X50450000Y-40950000D01*
X51000000Y-39650000D02*
X51000000Y-39700000D01*
X50500000Y-40750000D02*
X50500000Y-40800000D01*
X51300000Y-39000000D02*
X51300000Y-39050000D01*
X51650000Y-38250000D02*
X51650000Y-38300000D01*
X51100000Y-39500000D02*
X51050000Y-39550000D01*
X51550000Y-38450000D02*
X51550000Y-38500000D01*
X51100000Y-39450000D02*
X51100000Y-39500000D01*
X51750000Y-38000000D02*
X51750000Y-38100000D01*
X51800000Y-37900000D02*
X51800000Y-37950000D01*
X50850000Y-40050000D02*
X50800000Y-40100000D01*
X50650000Y-40450000D02*
X50650000Y-40500000D01*
X50700000Y-40400000D02*
X50650000Y-40450000D01*
X50500000Y-40800000D02*
X50450000Y-40850000D01*
X51300000Y-39050000D02*
X51250000Y-39100000D01*
X51250000Y-39100000D02*
X51250000Y-39150000D01*
X51250000Y-39150000D02*
X51200000Y-39200000D01*
X51400000Y-38800000D02*
X51400000Y-38850000D01*
X51450000Y-38650000D02*
X51450000Y-38750000D01*
X51750000Y-38100000D02*
X51700000Y-38150000D01*
X50900000Y-39950000D02*
X50850000Y-40000000D01*
X51900000Y-32550000D02*
X51900000Y-37750000D01*
X51500000Y-38600000D02*
X51450000Y-38650000D01*
X51200000Y-39200000D02*
X51200000Y-39300000D01*
X56150000Y-28300000D02*
X51900000Y-32550000D01*
X56150000Y-28200000D02*
X56150000Y-28300000D01*
X50950000Y-39750000D02*
X50950000Y-39850000D01*
X51650000Y-38300000D02*
X51600000Y-38350000D01*
X51150000Y-39350000D02*
X51150000Y-39400000D01*
%TO.N,RG_I2C_SDA*%
X38000000Y8149999D02*
X38000000Y8199999D01*
X37600000Y7250000D02*
X37600000Y7300000D01*
X37650000Y7350000D02*
X37650000Y7449999D01*
X37450000Y6949999D02*
X37450000Y7000000D01*
X38150000Y8450000D02*
X38150000Y8500000D01*
X37800000Y7750000D02*
X37850000Y7800000D01*
X37900000Y7899999D02*
X37900000Y8000000D01*
X37550000Y7199999D02*
X37600000Y7250000D01*
X37750000Y7600000D02*
X37750000Y7649999D01*
X37900000Y8000000D02*
X37950000Y8050000D01*
X37700000Y7550000D02*
X37750000Y7600000D01*
X38000000Y8199999D02*
X38050000Y8250000D01*
X37950000Y8100000D02*
X38000000Y8149999D01*
X38050000Y8300000D02*
X38100000Y8350000D01*
X37550000Y7149999D02*
X37550000Y7199999D01*
X37650000Y7449999D02*
X37700000Y7500000D01*
X37800000Y7699999D02*
X37800000Y7750000D01*
X37500000Y7050000D02*
X37500000Y7100000D01*
X37850000Y7850000D02*
X37900000Y7899999D01*
X38050000Y8250000D02*
X38050000Y8300000D01*
X37500000Y7100000D02*
X37550000Y7149999D01*
X38140000Y8500000D02*
X38150000Y8500000D01*
X37600000Y7300000D02*
X37650000Y7350000D01*
X27000000Y-3500000D02*
X37450000Y6949999D01*
X37450000Y7000000D02*
X37500000Y7050000D01*
X37750000Y7649999D02*
X37800000Y7699999D01*
X37850000Y7800000D02*
X37850000Y7850000D01*
X38100000Y8350000D02*
X38100000Y8399999D01*
X37700000Y7500000D02*
X37700000Y7550000D01*
X37950000Y8050000D02*
X37950000Y8100000D01*
X38100000Y8399999D02*
X38150000Y8450000D01*
%TO.N,RG_I2C_SCL*%
X38700000Y7000000D02*
X38750000Y7050000D01*
X38550000Y6650000D02*
X38600000Y6699999D01*
X38350000Y6199999D02*
X38400000Y6250000D01*
X39150000Y7899999D02*
X39150000Y8000000D01*
X39000000Y7600000D02*
X39000000Y7649999D01*
X38750000Y7050000D02*
X38750000Y7100000D01*
X38400000Y6350000D02*
X38450000Y6400000D01*
X39300000Y8300000D02*
X39350000Y8350000D01*
X38800000Y7149999D02*
X38800000Y7199999D01*
X38400000Y6250000D02*
X38400000Y6350000D01*
X38250000Y5949999D02*
X38250000Y6000000D01*
X38450000Y6449999D02*
X38500000Y6500000D01*
X39050000Y7699999D02*
X39050000Y7750000D01*
X38200000Y5850000D02*
X38200000Y5900000D01*
X38300000Y6049999D02*
X38300000Y6100000D01*
X26800000Y-5050000D02*
X27200000Y-5050000D01*
X38900000Y7449999D02*
X38950000Y7500000D01*
X38500000Y6500000D02*
X38500000Y6549999D01*
X38300000Y6100000D02*
X38350000Y6150000D01*
X39250000Y8149999D02*
X39250000Y8199999D01*
X26750000Y-5000000D02*
X26800000Y-5050000D01*
X39300000Y8250000D02*
X39300000Y8300000D01*
X38600000Y6750000D02*
X38650000Y6799999D01*
X39050000Y7750000D02*
X39100000Y7800000D01*
X38900000Y7350000D02*
X38900000Y7449999D01*
X38700000Y6949999D02*
X38700000Y7000000D01*
X27200000Y-5050000D02*
X27250000Y-5000000D01*
X26300000Y-5000000D02*
X26750000Y-5000000D01*
X39000000Y7649999D02*
X39050000Y7699999D01*
X27300000Y-5000000D02*
X27350000Y-4950000D01*
X38650000Y6799999D02*
X38650000Y6900000D01*
X38250000Y6000000D02*
X38300000Y6049999D01*
X38950000Y7500000D02*
X38950000Y7550000D01*
X39400000Y8450000D02*
X39400000Y8500000D01*
X38850000Y7250000D02*
X38850000Y7300000D01*
X38550000Y6600000D02*
X38550000Y6650000D01*
X39250000Y8199999D02*
X39300000Y8250000D01*
X39150000Y8000000D02*
X39200000Y8050000D01*
X38750000Y7100000D02*
X38800000Y7149999D01*
X38850000Y7300000D02*
X38900000Y7350000D01*
X38200000Y5900000D02*
X38250000Y5949999D01*
X38600000Y6699999D02*
X38600000Y6750000D01*
X39200000Y8050000D02*
X39200000Y8100000D01*
X39100000Y7850000D02*
X39150000Y7899999D01*
X39350000Y8350000D02*
X39350000Y8399999D01*
X27250000Y-5000000D02*
X27300000Y-5000000D01*
X39100000Y7800000D02*
X39100000Y7850000D01*
X39200000Y8100000D02*
X39250000Y8149999D01*
X38950000Y7550000D02*
X39000000Y7600000D01*
X38650000Y6900000D02*
X38700000Y6949999D01*
X38800000Y7199999D02*
X38850000Y7250000D01*
X39350000Y8399999D02*
X39400000Y8450000D01*
X38450000Y6400000D02*
X38450000Y6449999D01*
X39410000Y8500000D02*
X39400000Y8500000D01*
X27400000Y-4950000D02*
X38200000Y5850000D01*
X27350000Y-4950000D02*
X27400000Y-4950000D01*
X38500000Y6549999D02*
X38550000Y6600000D01*
X38350000Y6150000D02*
X38350000Y6199999D01*
%TO.N,RG_+3V3*%
X26250000Y-6050000D02*
X26200000Y-6050000D01*
X27200000Y-6000000D02*
X27050000Y-6000000D01*
X24550000Y-3100000D02*
X24800000Y-2850000D01*
X24800000Y-2850000D02*
X25000000Y-2850000D01*
X35500000Y7649999D02*
X35750000Y7649999D01*
X36870000Y8500000D02*
X36850000Y8500000D01*
X22700000Y-5000000D02*
X24550000Y-3150000D01*
X36000000Y7750000D02*
X36050000Y7750000D01*
X26200000Y-6050000D02*
X23950000Y-3800000D01*
X26350000Y-6100000D02*
X26300000Y-6100000D01*
X26950000Y-6050000D02*
X26900000Y-6100000D01*
X26400000Y-6150000D02*
X26350000Y-6100000D01*
X35750000Y7649999D02*
X35800000Y7699999D01*
X36050000Y7750000D02*
X36800000Y8500000D01*
X27000000Y-6050000D02*
X26950000Y-6050000D01*
X26850000Y-6100000D02*
X26800000Y-6150000D01*
X26300000Y-6100000D02*
X26250000Y-6050000D01*
X27050000Y-6000000D02*
X27000000Y-6050000D01*
X26900000Y-6100000D02*
X26850000Y-6100000D01*
X26800000Y-6150000D02*
X26400000Y-6150000D01*
X24550000Y-3150000D02*
X24550000Y-3100000D01*
X25000000Y-2850000D02*
X35500000Y7649999D01*
X36800000Y8500000D02*
X36850000Y8500000D01*
X35800000Y7699999D02*
X35950000Y7699999D01*
X35950000Y7699999D02*
X36000000Y7750000D01*
X23950000Y-3800000D02*
X23950000Y-3750000D01*
%TO.N,TDK_ON_N*%
X8500000Y-24420000D02*
X8500000Y-24400000D01*
%TO.N,ITRIM*%
X36440000Y-28230000D02*
X36450000Y-28250000D01*
%TO.N,VTRIM*%
X36440000Y-24420000D02*
X36450000Y-24400000D01*
%TO.N,IMON_RAW*%
X24380000Y-32040000D02*
X24400000Y-32050000D01*
%TO.N,+3V3*%
X29800000Y-44450000D02*
X30900000Y-44450000D01*
X27800000Y-45950000D02*
X27850000Y-45950000D01*
X28150000Y-45800000D02*
X28200000Y-45750000D01*
X26550000Y-46000000D02*
X26600000Y-46050000D01*
X29750000Y-44500000D02*
X29800000Y-44450000D01*
X25900000Y-46000000D02*
X26550000Y-46000000D01*
X30900000Y-44450000D02*
X30950000Y-44500000D01*
X27650000Y-46000000D02*
X27750000Y-46000000D01*
X29700000Y-44500000D02*
X29750000Y-44500000D01*
X29650000Y-44550000D02*
X29700000Y-44500000D01*
X29600000Y-44550000D02*
X29650000Y-44550000D01*
X27600000Y-46050000D02*
X27650000Y-46000000D01*
X30950000Y-44500000D02*
X31000000Y-44500000D01*
X28050000Y-45850000D02*
X28100000Y-45800000D01*
X27950000Y-45900000D02*
X28000000Y-45850000D01*
X28200000Y-45750000D02*
X28300000Y-45750000D01*
X28300000Y-45750000D02*
X28350000Y-45700000D01*
X28450000Y-45650000D02*
X28500000Y-45650000D01*
X28000000Y-45850000D02*
X28050000Y-45850000D01*
X26600000Y-46050000D02*
X27600000Y-46050000D01*
X27900000Y-45900000D02*
X27950000Y-45900000D01*
X28100000Y-45800000D02*
X28150000Y-45800000D01*
X27750000Y-46000000D02*
X27800000Y-45950000D01*
X28400000Y-45700000D02*
X28450000Y-45650000D01*
X28500000Y-45650000D02*
X29600000Y-44550000D01*
X28350000Y-45700000D02*
X28400000Y-45700000D01*
X27850000Y-45950000D02*
X27900000Y-45900000D01*
%TO.N,I2C_SCL*%
X49500000Y-29500000D02*
X49500000Y-29450000D01*
X59450000Y-21350000D02*
X59500000Y-21300000D01*
X34100000Y-46000000D02*
X39450000Y-40650000D01*
X57800000Y-22100000D02*
X57850000Y-22050000D01*
X59350000Y-21400000D02*
X59400000Y-21350000D01*
X58600000Y-21750000D02*
X58650000Y-21700000D01*
X39500000Y-39750000D02*
X39500000Y-39700000D01*
X39500000Y-39700000D02*
X39550000Y-39650000D01*
X59400000Y-21350000D02*
X59450000Y-21350000D01*
X39450000Y-39800000D02*
X39500000Y-39750000D01*
X49400000Y-29500000D02*
X49500000Y-29500000D01*
X59250000Y-21450000D02*
X59300000Y-21400000D01*
X57600000Y-22200000D02*
X57650000Y-22150000D01*
X56400000Y-22750000D02*
X56450000Y-22700000D01*
X59700000Y-21250000D02*
X59750000Y-21200000D01*
X40500000Y-37750000D02*
X40500000Y-37700000D01*
X40150000Y-39000000D02*
X40150000Y-38550000D01*
X59600000Y-21250000D02*
X59700000Y-21250000D01*
X56650000Y-22600000D02*
X56700000Y-22600000D01*
X56450000Y-22700000D02*
X56500000Y-22700000D01*
X58250000Y-21900000D02*
X58300000Y-21850000D01*
X56850000Y-22550000D02*
X56900000Y-22500000D01*
X58850000Y-21600000D02*
X58900000Y-21600000D01*
X56700000Y-22600000D02*
X56750000Y-22550000D01*
X56600000Y-22650000D02*
X56650000Y-22600000D01*
X57250000Y-22350000D02*
X57300000Y-22300000D01*
X58750000Y-21650000D02*
X58800000Y-21650000D01*
X57650000Y-22150000D02*
X57700000Y-22150000D01*
X40200000Y-38450000D02*
X40250000Y-38400000D01*
X57100000Y-22400000D02*
X57150000Y-22400000D01*
X57900000Y-22050000D02*
X57950000Y-22000000D01*
X58800000Y-21650000D02*
X58850000Y-21600000D01*
X49400000Y-29550000D02*
X49400000Y-29500000D01*
X57050000Y-22450000D02*
X57100000Y-22400000D01*
X49600000Y-29450000D02*
X56250000Y-22800000D01*
X39450000Y-40650000D02*
X39450000Y-39800000D01*
X40550000Y-37650000D02*
X40550000Y-37600000D01*
X58200000Y-21900000D02*
X58250000Y-21900000D01*
X59750000Y-21200000D02*
X59800000Y-21200000D01*
X58500000Y-21750000D02*
X58600000Y-21750000D01*
X58150000Y-21950000D02*
X58200000Y-21900000D01*
X59150000Y-21500000D02*
X59200000Y-21450000D01*
X57350000Y-22300000D02*
X57400000Y-22250000D01*
X49500000Y-29450000D02*
X49600000Y-29450000D01*
X40150000Y-38550000D02*
X40200000Y-38500000D01*
X58950000Y-21550000D02*
X59000000Y-21550000D01*
X56300000Y-22800000D02*
X56350000Y-22750000D01*
X58700000Y-21700000D02*
X58750000Y-21650000D01*
X57950000Y-22000000D02*
X58050000Y-22000000D01*
X57850000Y-22050000D02*
X57900000Y-22050000D01*
X58450000Y-21800000D02*
X58500000Y-21750000D01*
X40250000Y-38350000D02*
X40450000Y-38150000D01*
X59500000Y-21300000D02*
X59550000Y-21300000D01*
X56750000Y-22550000D02*
X56850000Y-22550000D01*
X57150000Y-22400000D02*
X57200000Y-22350000D01*
X58900000Y-21600000D02*
X58950000Y-21550000D01*
X40500000Y-37700000D02*
X40550000Y-37650000D01*
X39550000Y-39650000D02*
X39550000Y-39600000D01*
X56250000Y-22800000D02*
X56300000Y-22800000D01*
X59200000Y-21450000D02*
X59250000Y-21450000D01*
X59000000Y-21550000D02*
X59050000Y-21500000D01*
X59300000Y-21400000D02*
X59350000Y-21400000D01*
X40200000Y-38500000D02*
X40200000Y-38450000D01*
X57300000Y-22300000D02*
X57350000Y-22300000D01*
X57000000Y-22450000D02*
X57050000Y-22450000D01*
X58350000Y-21850000D02*
X58400000Y-21800000D01*
X58050000Y-22000000D02*
X58100000Y-21950000D01*
X56900000Y-22500000D02*
X56950000Y-22500000D01*
X40450000Y-38150000D02*
X40450000Y-37800000D01*
X56950000Y-22500000D02*
X57000000Y-22450000D01*
X57750000Y-22100000D02*
X57800000Y-22100000D01*
X58300000Y-21850000D02*
X58350000Y-21850000D01*
X56550000Y-22650000D02*
X56600000Y-22650000D01*
X40450000Y-37800000D02*
X40500000Y-37750000D01*
X57700000Y-22150000D02*
X57750000Y-22100000D01*
X39550000Y-39600000D02*
X40150000Y-39000000D01*
X57400000Y-22250000D02*
X57500000Y-22250000D01*
X58100000Y-21950000D02*
X58150000Y-21950000D01*
X59050000Y-21500000D02*
X59150000Y-21500000D01*
X58650000Y-21700000D02*
X58700000Y-21700000D01*
X40550000Y-37600000D02*
X48600000Y-29550000D01*
X58400000Y-21800000D02*
X58450000Y-21800000D01*
X48600000Y-29550000D02*
X49400000Y-29550000D01*
X57200000Y-22350000D02*
X57250000Y-22350000D01*
X56350000Y-22750000D02*
X56400000Y-22750000D01*
X57550000Y-22200000D02*
X57600000Y-22200000D01*
X59550000Y-21300000D02*
X59600000Y-21250000D01*
X40250000Y-38400000D02*
X40250000Y-38350000D01*
X56500000Y-22700000D02*
X56550000Y-22650000D01*
X57500000Y-22250000D02*
X57550000Y-22200000D01*
%TO.N,RUN_REQ*%
X43350000Y-32900000D02*
X43400000Y-32850000D01*
X42800000Y-33150000D02*
X42850000Y-33100000D01*
X42250000Y-33400000D02*
X42300000Y-33350000D01*
X42050000Y-33500000D02*
X42100000Y-33450000D01*
X43850000Y-32650000D02*
X43900000Y-32650000D01*
X43700000Y-32750000D02*
X43750000Y-32700000D01*
X41800000Y-33600000D02*
X41850000Y-33550000D01*
X44400000Y-32400000D02*
X44600000Y-32400000D01*
X43450000Y-32850000D02*
X43500000Y-32800000D01*
X41850000Y-33550000D02*
X41950000Y-33550000D01*
X42850000Y-33100000D02*
X42900000Y-33100000D01*
X42400000Y-33300000D02*
X42500000Y-33300000D01*
X43800000Y-32700000D02*
X43850000Y-32650000D01*
X42950000Y-33050000D02*
X43050000Y-33050000D01*
X41750000Y-33600000D02*
X41800000Y-33600000D01*
X43650000Y-32750000D02*
X43700000Y-32750000D01*
X41400000Y-33800000D02*
X41450000Y-33800000D01*
X42500000Y-33300000D02*
X42550000Y-33250000D01*
X44250000Y-32500000D02*
X44300000Y-32450000D01*
X42550000Y-33250000D02*
X42600000Y-33250000D01*
X44050000Y-32550000D02*
X44150000Y-32550000D01*
X42900000Y-33100000D02*
X42950000Y-33050000D01*
X42000000Y-33500000D02*
X42050000Y-33500000D01*
X41450000Y-33800000D02*
X41550000Y-33700000D01*
X43400000Y-32850000D02*
X43450000Y-32850000D01*
X42200000Y-33400000D02*
X42250000Y-33400000D01*
X43050000Y-33050000D02*
X43100000Y-33000000D01*
X42750000Y-33150000D02*
X42800000Y-33150000D01*
X44200000Y-32500000D02*
X44250000Y-32500000D01*
X39200000Y-36000000D02*
X41400000Y-33800000D01*
X43950000Y-32600000D02*
X44000000Y-32600000D01*
X42600000Y-33250000D02*
X42650000Y-33200000D01*
X42100000Y-33450000D02*
X42150000Y-33450000D01*
X41700000Y-33650000D02*
X41750000Y-33600000D01*
X44300000Y-32450000D02*
X44350000Y-32450000D01*
X41600000Y-33700000D02*
X41650000Y-33650000D01*
X44150000Y-32550000D02*
X44200000Y-32500000D01*
X43500000Y-32800000D02*
X43600000Y-32800000D01*
X42300000Y-33350000D02*
X42350000Y-33350000D01*
X44000000Y-32600000D02*
X44050000Y-32550000D01*
X43600000Y-32800000D02*
X43650000Y-32750000D01*
X43200000Y-32950000D02*
X43250000Y-32950000D01*
X43250000Y-32950000D02*
X43300000Y-32900000D01*
X43100000Y-33000000D02*
X43150000Y-33000000D01*
X43150000Y-33000000D02*
X43200000Y-32950000D01*
X41950000Y-33550000D02*
X42000000Y-33500000D01*
X41550000Y-33700000D02*
X41600000Y-33700000D01*
X42700000Y-33200000D02*
X42750000Y-33150000D01*
X42150000Y-33450000D02*
X42200000Y-33400000D01*
X42350000Y-33350000D02*
X42400000Y-33300000D01*
X43900000Y-32650000D02*
X43950000Y-32600000D01*
X43300000Y-32900000D02*
X43350000Y-32900000D01*
X42650000Y-33200000D02*
X42700000Y-33200000D01*
X43750000Y-32700000D02*
X43800000Y-32700000D01*
X44350000Y-32450000D02*
X44400000Y-32400000D01*
X41650000Y-33650000D02*
X41700000Y-33650000D01*
%TO.N,RG_BRAKE_ACTIVE_N*%
X40680000Y8500000D02*
X40700000Y8500000D01*
%TO.N,RG_BRAKE_5V*%
X30500000Y-6350000D02*
X26400000Y-10450000D01*
X41550000Y-4100000D02*
X39400000Y-1949999D01*
X34850000Y-3400000D02*
X31900000Y-6350000D01*
X39250000Y-1250000D02*
X39200000Y-1199999D01*
X39250000Y-1300000D02*
X39250000Y-1250000D01*
X39350000Y-1500000D02*
X39350000Y-1449999D01*
X26200000Y-10550000D02*
X18850000Y-10550000D01*
X38250000Y-1600000D02*
X38200000Y-1600000D01*
X35100000Y-3300000D02*
X35000000Y-3400000D01*
X26250000Y-10500000D02*
X26200000Y-10550000D01*
X39400000Y-1550000D02*
X39350000Y-1500000D01*
X15000000Y-6800000D02*
X15000000Y-6000000D01*
X39350000Y-1449999D02*
X39300000Y-1400000D01*
X26350000Y-10450000D02*
X26300000Y-10500000D01*
X39300000Y-1350000D02*
X39250000Y-1300000D01*
X18800000Y-10600000D02*
X15000000Y-6800000D01*
X36500000Y-3300000D02*
X35100000Y-3300000D01*
X38800000Y-1050000D02*
X38250000Y-1600000D01*
X39200000Y-1150000D02*
X39150000Y-1100000D01*
X18850000Y-10550000D02*
X18800000Y-10600000D01*
X39200000Y-1199999D02*
X39200000Y-1150000D01*
X39800000Y-400000D02*
X39150000Y-1050000D01*
X31900000Y-6350000D02*
X30500000Y-6350000D01*
X26400000Y-10450000D02*
X26350000Y-10450000D01*
X35000000Y-3400000D02*
X34850000Y-3400000D01*
X39150000Y-1100000D02*
X39150000Y-1050000D01*
X41800000Y-4400000D02*
X41550000Y-4150000D01*
X26300000Y-10500000D02*
X26250000Y-10500000D01*
X39150000Y-1050000D02*
X38800000Y-1050000D01*
X41550000Y-4150000D02*
X41550000Y-4100000D01*
X38200000Y-1600000D02*
X36500000Y-3300000D01*
X39400000Y-1949999D02*
X39400000Y-1550000D01*
X39300000Y-1400000D02*
X39300000Y-1350000D01*
%TO.N,RG_BRAKE_CMD*%
X36150000Y-1800000D02*
X36600000Y-1800000D01*
X34150000Y-2750000D02*
X34200000Y-2699999D01*
X35200000Y-2250000D02*
X35250000Y-2250000D01*
X33650000Y-2949999D02*
X33700000Y-2949999D01*
X33100000Y-3199999D02*
X33150000Y-3199999D01*
X34750000Y-2449999D02*
X34800000Y-2449999D01*
X33500000Y-3050000D02*
X33550000Y-3000000D01*
X33200000Y-3150000D02*
X33250000Y-3150000D01*
X35450000Y-2150000D02*
X35500000Y-2100000D01*
X35700000Y-2050000D02*
X35750000Y-2000000D01*
X35300000Y-2199999D02*
X35350000Y-2199999D01*
X32700000Y-3400000D02*
X32750000Y-3350000D01*
X35150000Y-2300000D02*
X35200000Y-2250000D01*
X33400000Y-3100000D02*
X33450000Y-3050000D01*
X35550000Y-2100000D02*
X35600000Y-2050000D01*
X33800000Y-2900000D02*
X33850000Y-2850000D01*
X33000000Y-3250000D02*
X33050000Y-3250000D01*
X32850000Y-3350000D02*
X32900000Y-3300000D01*
X34200000Y-2699999D02*
X34250000Y-2699999D01*
X34300000Y-2650000D02*
X34350000Y-2650000D01*
X35900000Y-1949999D02*
X35950000Y-1900000D01*
X32550000Y-3449999D02*
X32600000Y-3449999D01*
X35750000Y-2000000D02*
X35800000Y-2000000D01*
X33050000Y-3250000D02*
X33100000Y-3199999D01*
X35050000Y-2300000D02*
X35150000Y-2300000D01*
X33950000Y-2800000D02*
X34050000Y-2800000D01*
X34600000Y-2550000D02*
X34650000Y-2500000D01*
X26000000Y-10000000D02*
X32550000Y-3449999D01*
X32600000Y-3449999D02*
X32650000Y-3400000D01*
X34700000Y-2500000D02*
X34750000Y-2449999D01*
X34350000Y-2650000D02*
X34400000Y-2600000D01*
X35800000Y-2000000D02*
X35850000Y-1949999D01*
X34650000Y-2500000D02*
X34700000Y-2500000D01*
X33900000Y-2850000D02*
X33950000Y-2800000D01*
X35250000Y-2250000D02*
X35300000Y-2199999D01*
X34950000Y-2350000D02*
X35000000Y-2350000D01*
X36000000Y-1900000D02*
X36050000Y-1850000D01*
X32750000Y-3350000D02*
X32850000Y-3350000D01*
X33450000Y-3050000D02*
X33500000Y-3050000D01*
X34800000Y-2449999D02*
X34850000Y-2400000D01*
X33750000Y-2900000D02*
X33800000Y-2900000D01*
X33700000Y-2949999D02*
X33750000Y-2900000D01*
X35400000Y-2150000D02*
X35450000Y-2150000D01*
X22000000Y-9800000D02*
X22200000Y-10000000D01*
X34400000Y-2600000D02*
X34450000Y-2600000D01*
X33600000Y-3000000D02*
X33650000Y-2949999D01*
X34450000Y-2600000D02*
X34500000Y-2550000D01*
X33550000Y-3000000D02*
X33600000Y-3000000D01*
X34100000Y-2750000D02*
X34150000Y-2750000D01*
X32900000Y-3300000D02*
X32950000Y-3300000D01*
X35950000Y-1900000D02*
X36000000Y-1900000D01*
X35000000Y-2350000D02*
X35050000Y-2300000D01*
X32650000Y-3400000D02*
X32700000Y-3400000D01*
X36050000Y-1850000D02*
X36100000Y-1850000D01*
X33850000Y-2850000D02*
X33900000Y-2850000D01*
X22000000Y-6000000D02*
X22000000Y-9800000D01*
X33150000Y-3199999D02*
X33200000Y-3150000D01*
X34500000Y-2550000D02*
X34600000Y-2550000D01*
X33250000Y-3150000D02*
X33300000Y-3100000D01*
X34250000Y-2699999D02*
X34300000Y-2650000D01*
X35600000Y-2050000D02*
X35700000Y-2050000D01*
X33300000Y-3100000D02*
X33400000Y-3100000D01*
X35350000Y-2199999D02*
X35400000Y-2150000D01*
X34050000Y-2800000D02*
X34100000Y-2750000D01*
X34850000Y-2400000D02*
X34900000Y-2400000D01*
X35850000Y-1949999D02*
X35900000Y-1949999D01*
X34900000Y-2400000D02*
X34950000Y-2350000D01*
X32950000Y-3300000D02*
X33000000Y-3250000D01*
X36100000Y-1850000D02*
X36150000Y-1800000D01*
X35500000Y-2100000D02*
X35550000Y-2100000D01*
%TD*%
%TA.AperFunction,Conductor*%
%TO.N,GND*%
G36*
X37532223Y8142023D02*
G01*
X37545741Y8128504D01*
X37545743Y8128502D01*
X37591242Y8060408D01*
X37599500Y8033185D01*
X37599500Y8030250D01*
X37592935Y8005750D01*
X37569979Y7965991D01*
X37569978Y7965987D01*
X37564948Y7947216D01*
X37560053Y7935399D01*
X37519979Y7865991D01*
X37519977Y7865985D01*
X37514948Y7847215D01*
X37510053Y7835397D01*
X37509542Y7834512D01*
X37509540Y7834510D01*
X37504868Y7826417D01*
X37469979Y7765990D01*
X37469978Y7765986D01*
X37464949Y7747218D01*
X37460054Y7735401D01*
X37419979Y7665991D01*
X37419978Y7665988D01*
X37414949Y7647219D01*
X37410055Y7635404D01*
X37409538Y7634508D01*
X37369977Y7565984D01*
X37369977Y7565983D01*
X37369976Y7565981D01*
X37361409Y7534009D01*
X37349500Y7489564D01*
X37349500Y7480250D01*
X37342935Y7455750D01*
X37319979Y7415991D01*
X37319978Y7415988D01*
X37314949Y7397219D01*
X37310055Y7385404D01*
X37289904Y7350501D01*
X37289905Y7350501D01*
X37289904Y7350500D01*
X37278082Y7330022D01*
X37272150Y7319748D01*
X37269976Y7315982D01*
X37269975Y7315980D01*
X37264948Y7297217D01*
X37260053Y7285399D01*
X37219979Y7215991D01*
X37219978Y7215987D01*
X37214948Y7197216D01*
X37210053Y7185399D01*
X37169979Y7115991D01*
X37169978Y7115987D01*
X37165675Y7099928D01*
X37152993Y7077963D01*
X27014881Y-3060148D01*
X26980233Y-3074500D01*
X26943979Y-3074500D01*
X26835764Y-3103496D01*
X26835760Y-3103497D01*
X26738736Y-3159515D01*
X26738736Y-3159516D01*
X26659516Y-3238736D01*
X26659515Y-3238736D01*
X26603497Y-3335760D01*
X26603496Y-3335764D01*
X26574500Y-3443978D01*
X26574500Y-3556021D01*
X26603496Y-3664235D01*
X26603497Y-3664239D01*
X26647442Y-3740352D01*
X26659515Y-3761263D01*
X26738737Y-3840485D01*
X26771741Y-3859540D01*
X26835760Y-3896502D01*
X26835762Y-3896502D01*
X26835763Y-3896503D01*
X26906620Y-3915489D01*
X26943978Y-3925499D01*
X26943979Y-3925500D01*
X26943982Y-3925500D01*
X27056021Y-3925500D01*
X27056021Y-3925499D01*
X27164237Y-3896503D01*
X27261263Y-3840485D01*
X27340485Y-3761263D01*
X27396503Y-3664237D01*
X27425499Y-3556021D01*
X27425500Y-3556021D01*
X27425500Y-3519767D01*
X27439852Y-3485119D01*
X37690457Y6765485D01*
X37690460Y6765488D01*
X37690461Y6765491D01*
X37690464Y6765494D01*
X37698850Y6780018D01*
X37698851Y6780022D01*
X37730019Y6834006D01*
X37730020Y6834009D01*
X37730021Y6834010D01*
X37735051Y6852786D01*
X37739945Y6864599D01*
X37740457Y6865486D01*
X37740460Y6865489D01*
X37780022Y6934012D01*
X37785052Y6952785D01*
X37789945Y6964597D01*
X37790458Y6965486D01*
X37790460Y6965488D01*
X37830021Y7034010D01*
X37835050Y7052780D01*
X37839943Y7064592D01*
X37851443Y7084511D01*
X37866409Y7110434D01*
X37880021Y7134011D01*
X37881509Y7139562D01*
X37885050Y7152779D01*
X37889946Y7164601D01*
X37890456Y7165485D01*
X37890460Y7165489D01*
X37930022Y7234012D01*
X37946172Y7294286D01*
X37950499Y7310434D01*
X37950500Y7310435D01*
X37950500Y7319748D01*
X37957064Y7344247D01*
X37977715Y7380017D01*
X37980021Y7384011D01*
X37981322Y7388866D01*
X37981509Y7389562D01*
X37985050Y7402779D01*
X37989946Y7414601D01*
X37990456Y7415485D01*
X37990460Y7415489D01*
X38030022Y7484012D01*
X38035052Y7502785D01*
X38039945Y7514598D01*
X38040457Y7515485D01*
X38040460Y7515488D01*
X38080022Y7584011D01*
X38085052Y7602787D01*
X38089946Y7614601D01*
X38090456Y7615485D01*
X38090460Y7615489D01*
X38130022Y7684012D01*
X38135052Y7702785D01*
X38139945Y7714598D01*
X38140457Y7715485D01*
X38140460Y7715488D01*
X38175265Y7775772D01*
X38205019Y7798602D01*
X38208140Y7799329D01*
X38344320Y7826417D01*
X38344329Y7826420D01*
X38471807Y7879223D01*
X38471808Y7879223D01*
X38471811Y7879225D01*
X38518074Y7910137D01*
X38586539Y7955883D01*
X38684116Y8053460D01*
X38710563Y8093042D01*
X38734258Y8128504D01*
X38765439Y8149338D01*
X38802222Y8142022D01*
X38815741Y8128502D01*
X38844512Y8085442D01*
X38851828Y8048660D01*
X38851101Y8045541D01*
X38849500Y8039564D01*
X38849500Y8030250D01*
X38842935Y8005750D01*
X38819979Y7965991D01*
X38819978Y7965987D01*
X38814948Y7947216D01*
X38810053Y7935399D01*
X38769979Y7865991D01*
X38769977Y7865985D01*
X38764948Y7847215D01*
X38760053Y7835397D01*
X38759542Y7834512D01*
X38759540Y7834510D01*
X38754868Y7826417D01*
X38719979Y7765990D01*
X38719978Y7765986D01*
X38714949Y7747218D01*
X38710054Y7735401D01*
X38669979Y7665991D01*
X38669978Y7665988D01*
X38664949Y7647219D01*
X38660055Y7635404D01*
X38659538Y7634508D01*
X38619977Y7565984D01*
X38619977Y7565983D01*
X38619976Y7565981D01*
X38611409Y7534009D01*
X38599500Y7489564D01*
X38599500Y7480250D01*
X38592935Y7455750D01*
X38569979Y7415991D01*
X38569978Y7415988D01*
X38564949Y7397219D01*
X38560055Y7385404D01*
X38539904Y7350501D01*
X38539905Y7350501D01*
X38539904Y7350500D01*
X38528082Y7330022D01*
X38522150Y7319748D01*
X38519976Y7315982D01*
X38519975Y7315980D01*
X38514948Y7297217D01*
X38510053Y7285399D01*
X38469979Y7215991D01*
X38469978Y7215987D01*
X38464948Y7197216D01*
X38460053Y7185399D01*
X38419979Y7115991D01*
X38419978Y7115987D01*
X38414948Y7097216D01*
X38410053Y7085399D01*
X38369979Y7015991D01*
X38369979Y7015989D01*
X38349500Y6939563D01*
X38349500Y6930250D01*
X38342935Y6905750D01*
X38319979Y6865991D01*
X38319978Y6865987D01*
X38314948Y6847216D01*
X38310053Y6835399D01*
X38309540Y6834511D01*
X38304338Y6825500D01*
X38269979Y6765991D01*
X38269978Y6765988D01*
X38264949Y6747219D01*
X38260055Y6735404D01*
X38259538Y6734508D01*
X38245123Y6709539D01*
X38228082Y6680022D01*
X38223401Y6671916D01*
X38219976Y6665983D01*
X38214949Y6647220D01*
X38210055Y6635404D01*
X38209538Y6634508D01*
X38169977Y6565984D01*
X38169977Y6565983D01*
X38169976Y6565981D01*
X38164948Y6547216D01*
X38160053Y6535399D01*
X38119979Y6465991D01*
X38119979Y6465989D01*
X38099500Y6389565D01*
X38099500Y6380250D01*
X38092935Y6355750D01*
X38089326Y6349499D01*
X38086139Y6343978D01*
X38078082Y6330022D01*
X38069977Y6315984D01*
X38069976Y6315982D01*
X38069975Y6315980D01*
X38064948Y6297217D01*
X38060053Y6285399D01*
X38019979Y6215991D01*
X38019978Y6215987D01*
X38014948Y6197216D01*
X38010053Y6185399D01*
X37969981Y6115993D01*
X37969978Y6115987D01*
X37964948Y6097216D01*
X37960053Y6085399D01*
X37919979Y6015991D01*
X37919978Y6015987D01*
X37915675Y5999929D01*
X37902993Y5977964D01*
X27497251Y-4427777D01*
X27462603Y-4442129D01*
X27427955Y-4427777D01*
X27415273Y-4405811D01*
X27396503Y-4335764D01*
X27396502Y-4335760D01*
X27353050Y-4260500D01*
X27340485Y-4238737D01*
X27261263Y-4159515D01*
X27164239Y-4103497D01*
X27164235Y-4103496D01*
X27056021Y-4074500D01*
X27056018Y-4074500D01*
X26943982Y-4074500D01*
X26943979Y-4074500D01*
X26835764Y-4103496D01*
X26835760Y-4103497D01*
X26738736Y-4159515D01*
X26738736Y-4159516D01*
X26659516Y-4238736D01*
X26659515Y-4238736D01*
X26603497Y-4335760D01*
X26603496Y-4335764D01*
X26574500Y-4443978D01*
X26574500Y-4556018D01*
X26579112Y-4573232D01*
X26574216Y-4610414D01*
X26544462Y-4633244D01*
X26507281Y-4628348D01*
X26464239Y-4603497D01*
X26464235Y-4603496D01*
X26356021Y-4574500D01*
X26356018Y-4574500D01*
X26243982Y-4574500D01*
X26243979Y-4574500D01*
X26135764Y-4603496D01*
X26135760Y-4603497D01*
X26038736Y-4659515D01*
X26038736Y-4659516D01*
X25959516Y-4738736D01*
X25959515Y-4738736D01*
X25903497Y-4835760D01*
X25903496Y-4835764D01*
X25874500Y-4943978D01*
X25874500Y-5056021D01*
X25903496Y-5164235D01*
X25903497Y-5164239D01*
X25941825Y-5230623D01*
X25946720Y-5267805D01*
X25923890Y-5297558D01*
X25886708Y-5302453D01*
X25864742Y-5289771D01*
X24384619Y-3809648D01*
X24370267Y-3775000D01*
X24384619Y-3740352D01*
X24587249Y-3537722D01*
X24790460Y-3334511D01*
X24801156Y-3315985D01*
X24830021Y-3265989D01*
X24834324Y-3249929D01*
X24847002Y-3227967D01*
X24910120Y-3164850D01*
X24944767Y-3150500D01*
X25039564Y-3150500D01*
X25066230Y-3143354D01*
X25115989Y-3130021D01*
X25115993Y-3130019D01*
X25142096Y-3114948D01*
X25184511Y-3090460D01*
X25240460Y-3034511D01*
X25240459Y-3034511D01*
X35610119Y7335147D01*
X35644767Y7349499D01*
X35789564Y7349499D01*
X35865987Y7369977D01*
X35865991Y7369978D01*
X35905750Y7392934D01*
X35930250Y7399499D01*
X35989564Y7399499D01*
X36065989Y7419978D01*
X36065991Y7419978D01*
X36135403Y7460054D01*
X36147219Y7464949D01*
X36165988Y7469978D01*
X36165991Y7469979D01*
X36234511Y7509540D01*
X36561712Y7836741D01*
X36596360Y7851093D01*
X36615111Y7847363D01*
X36665670Y7826420D01*
X36665681Y7826417D01*
X36801001Y7799500D01*
X36801007Y7799500D01*
X36938998Y7799500D01*
X37074318Y7826417D01*
X37074329Y7826420D01*
X37201807Y7879223D01*
X37201808Y7879223D01*
X37201811Y7879225D01*
X37248074Y7910137D01*
X37316539Y7955883D01*
X37414116Y8053460D01*
X37464257Y8128502D01*
X37464258Y8128504D01*
X37495440Y8149339D01*
X37532223Y8142023D01*
G37*
%TD.AperFunction*%
%TA.AperFunction,Conductor*%
G36*
X31236959Y14685648D02*
G01*
X31251311Y14651000D01*
X31236959Y14616352D01*
X31213214Y14603228D01*
X31112592Y14580262D01*
X30773292Y14461536D01*
X30773290Y14461535D01*
X30773287Y14461534D01*
X30773281Y14461531D01*
X30449420Y14305567D01*
X30449416Y14305565D01*
X30145047Y14114317D01*
X29864004Y13890194D01*
X29863992Y13890183D01*
X29609816Y13636007D01*
X29609805Y13635995D01*
X29385682Y13354952D01*
X29194434Y13050583D01*
X29194432Y13050579D01*
X29038468Y12726718D01*
X29038465Y12726712D01*
X28919737Y12387405D01*
X28839747Y12036943D01*
X28839747Y12036938D01*
X28799500Y11679736D01*
X28799500Y11320263D01*
X28839747Y10963061D01*
X28839747Y10963056D01*
X28919737Y10612594D01*
X29038465Y10273287D01*
X29038468Y10273281D01*
X29194432Y9949420D01*
X29194434Y9949416D01*
X29385682Y9645047D01*
X29609805Y9364004D01*
X29609816Y9363992D01*
X29863992Y9109816D01*
X29864004Y9109805D01*
X30145048Y8885682D01*
X30145047Y8885682D01*
X30449416Y8694434D01*
X30449420Y8694432D01*
X30773281Y8538468D01*
X30773287Y8538465D01*
X31112594Y8419737D01*
X31112593Y8419737D01*
X31349598Y8365643D01*
X31463052Y8339748D01*
X31463055Y8339747D01*
X31463058Y8339747D01*
X31820263Y8299500D01*
X31820264Y8299500D01*
X32179737Y8299500D01*
X32347853Y8318442D01*
X32536939Y8339747D01*
X32536943Y8339747D01*
X32536946Y8339747D01*
X32536948Y8339748D01*
X32645358Y8364492D01*
X32887405Y8419737D01*
X33226712Y8538465D01*
X33226718Y8538468D01*
X33550579Y8694432D01*
X33550583Y8694434D01*
X33854952Y8885682D01*
X34135995Y9109805D01*
X34136007Y9109816D01*
X34390183Y9363992D01*
X34390194Y9364004D01*
X34614317Y9645047D01*
X34805565Y9949416D01*
X34805567Y9949420D01*
X34961531Y10273281D01*
X34961534Y10273287D01*
X34961536Y10273292D01*
X35080262Y10612592D01*
X35160252Y10963052D01*
X35200500Y11320264D01*
X35200500Y11679736D01*
X35160252Y12036948D01*
X35080262Y12387408D01*
X34961536Y12726708D01*
X34805566Y13050582D01*
X34614315Y13354956D01*
X34390188Y13636003D01*
X34136003Y13890188D01*
X33854956Y14114315D01*
X33550582Y14305566D01*
X33226708Y14461536D01*
X32887408Y14580262D01*
X32786785Y14603228D01*
X32756200Y14624930D01*
X32749917Y14661903D01*
X32771619Y14692489D01*
X32797689Y14700000D01*
X43202311Y14700000D01*
X43236959Y14685648D01*
X43251311Y14651000D01*
X43236959Y14616352D01*
X43213214Y14603228D01*
X43112592Y14580262D01*
X42773292Y14461536D01*
X42773290Y14461535D01*
X42773287Y14461534D01*
X42773281Y14461531D01*
X42449420Y14305567D01*
X42449416Y14305565D01*
X42145047Y14114317D01*
X41864004Y13890194D01*
X41863992Y13890183D01*
X41609816Y13636007D01*
X41609805Y13635995D01*
X41385682Y13354952D01*
X41194434Y13050583D01*
X41194432Y13050579D01*
X41038468Y12726718D01*
X41038465Y12726712D01*
X40919737Y12387405D01*
X40839747Y12036943D01*
X40839747Y12036938D01*
X40799500Y11679736D01*
X40799500Y11320263D01*
X40839747Y10963061D01*
X40839747Y10963056D01*
X40919737Y10612594D01*
X41038465Y10273287D01*
X41038468Y10273281D01*
X41194432Y9949420D01*
X41194434Y9949416D01*
X41385682Y9645047D01*
X41609805Y9364004D01*
X41609816Y9363992D01*
X41863992Y9109816D01*
X41864004Y9109805D01*
X42145048Y8885682D01*
X42145047Y8885682D01*
X42449416Y8694434D01*
X42449420Y8694432D01*
X42773281Y8538468D01*
X42773287Y8538465D01*
X43112594Y8419737D01*
X43112593Y8419737D01*
X43349598Y8365643D01*
X43463052Y8339748D01*
X43463055Y8339747D01*
X43463058Y8339747D01*
X43820263Y8299500D01*
X43820264Y8299500D01*
X44179737Y8299500D01*
X44347853Y8318442D01*
X44536939Y8339747D01*
X44536943Y8339747D01*
X44536946Y8339747D01*
X44536948Y8339748D01*
X44645358Y8364492D01*
X44887405Y8419737D01*
X45226712Y8538465D01*
X45226718Y8538468D01*
X45550579Y8694432D01*
X45550583Y8694434D01*
X45854952Y8885682D01*
X46135995Y9109805D01*
X46136007Y9109816D01*
X46390183Y9363992D01*
X46390194Y9364004D01*
X46614317Y9645047D01*
X46805565Y9949416D01*
X46805567Y9949420D01*
X46961531Y10273281D01*
X46961534Y10273287D01*
X46961536Y10273292D01*
X47080262Y10612592D01*
X47160252Y10963052D01*
X47200500Y11320264D01*
X47200500Y11679736D01*
X47160252Y12036948D01*
X47080262Y12387408D01*
X46961536Y12726708D01*
X46805566Y13050582D01*
X46614315Y13354956D01*
X46390188Y13636003D01*
X46136003Y13890188D01*
X45854956Y14114315D01*
X45550582Y14305566D01*
X45226708Y14461536D01*
X44887408Y14580262D01*
X44786785Y14603228D01*
X44756200Y14624930D01*
X44749917Y14661903D01*
X44771619Y14692489D01*
X44797689Y14700000D01*
X49651000Y14700000D01*
X49685648Y14685648D01*
X49700000Y14651000D01*
X49700000Y-300000D01*
X64651000Y-300000D01*
X64685648Y-314352D01*
X64700000Y-349000D01*
X64700000Y-59651000D01*
X64685648Y-59685648D01*
X64651000Y-59700000D01*
X349000Y-59700000D01*
X314352Y-59685648D01*
X300000Y-59651000D01*
X300000Y-56900796D01*
X1739500Y-56900796D01*
X1739500Y-57099203D01*
X1770536Y-57295165D01*
X1770537Y-57295168D01*
X1831849Y-57483865D01*
X1921921Y-57660643D01*
X2038545Y-57821162D01*
X2038549Y-57821167D01*
X2178833Y-57961451D01*
X2178837Y-57961454D01*
X2178839Y-57961456D01*
X2339354Y-58078077D01*
X2516136Y-58168151D01*
X2704832Y-58229463D01*
X2900796Y-58260500D01*
X2900797Y-58260500D01*
X3099203Y-58260500D01*
X3099204Y-58260500D01*
X3295168Y-58229463D01*
X3483864Y-58168151D01*
X3660646Y-58078077D01*
X3821161Y-57961456D01*
X3821164Y-57961452D01*
X3821167Y-57961451D01*
X3961451Y-57821167D01*
X3961452Y-57821164D01*
X3961456Y-57821161D01*
X4078077Y-57660646D01*
X4168151Y-57483864D01*
X4229463Y-57295168D01*
X4260500Y-57099204D01*
X4260500Y-56900796D01*
X4229463Y-56704832D01*
X4168151Y-56516136D01*
X4078077Y-56339354D01*
X3961456Y-56178839D01*
X3961454Y-56178837D01*
X3961451Y-56178833D01*
X3821167Y-56038549D01*
X3821162Y-56038545D01*
X3660643Y-55921921D01*
X3483865Y-55831849D01*
X3295168Y-55770537D01*
X3295165Y-55770536D01*
X3144628Y-55746694D01*
X3099204Y-55739500D01*
X2900796Y-55739500D01*
X2863919Y-55745340D01*
X2704834Y-55770536D01*
X2704831Y-55770537D01*
X2516134Y-55831849D01*
X2339356Y-55921921D01*
X2178837Y-56038545D01*
X2038545Y-56178837D01*
X1921921Y-56339356D01*
X1831849Y-56516134D01*
X1770537Y-56704831D01*
X1770536Y-56704834D01*
X1739500Y-56900796D01*
X300000Y-56900796D01*
X300000Y-51820263D01*
X4799500Y-51820263D01*
X4799500Y-52179736D01*
X4839747Y-52536938D01*
X4839747Y-52536943D01*
X4919737Y-52887405D01*
X5038465Y-53226712D01*
X5038468Y-53226718D01*
X5194432Y-53550579D01*
X5194434Y-53550583D01*
X5385682Y-53854952D01*
X5609805Y-54135995D01*
X5609816Y-54136007D01*
X5863992Y-54390183D01*
X5864004Y-54390194D01*
X5937027Y-54448427D01*
X6145044Y-54614315D01*
X6145047Y-54614317D01*
X6449416Y-54805565D01*
X6449420Y-54805567D01*
X6773281Y-54961531D01*
X6773287Y-54961534D01*
X6773290Y-54961535D01*
X6773292Y-54961536D01*
X7112592Y-55080262D01*
X7463052Y-55160252D01*
X7769233Y-55194750D01*
X7820263Y-55200500D01*
X7820264Y-55200500D01*
X8179737Y-55200500D01*
X8212209Y-55196841D01*
X8536948Y-55160252D01*
X8887408Y-55080262D01*
X9226708Y-54961536D01*
X9550582Y-54805566D01*
X9854956Y-54614315D01*
X10136003Y-54390188D01*
X10390188Y-54136003D01*
X10614315Y-53854956D01*
X10630746Y-53828806D01*
X10636114Y-53820264D01*
X50799500Y-53820264D01*
X50799500Y-54179736D01*
X50839748Y-54536948D01*
X50857407Y-54614317D01*
X50919737Y-54887405D01*
X51038465Y-55226712D01*
X51038468Y-55226718D01*
X51194432Y-55550579D01*
X51194434Y-55550583D01*
X51385682Y-55854952D01*
X51609805Y-56135995D01*
X51609816Y-56136007D01*
X51863992Y-56390183D01*
X51864004Y-56390194D01*
X51937027Y-56448427D01*
X52145044Y-56614315D01*
X52145047Y-56614317D01*
X52449416Y-56805565D01*
X52449420Y-56805567D01*
X52773281Y-56961531D01*
X52773287Y-56961534D01*
X52773290Y-56961535D01*
X52773292Y-56961536D01*
X53112592Y-57080262D01*
X53463052Y-57160252D01*
X53769233Y-57194750D01*
X53820263Y-57200500D01*
X53820264Y-57200500D01*
X54179737Y-57200500D01*
X54212209Y-57196841D01*
X54536948Y-57160252D01*
X54887408Y-57080262D01*
X55226708Y-56961536D01*
X55352836Y-56900796D01*
X60739500Y-56900796D01*
X60739500Y-57099203D01*
X60770536Y-57295165D01*
X60770537Y-57295168D01*
X60831849Y-57483865D01*
X60921921Y-57660643D01*
X61038545Y-57821162D01*
X61038549Y-57821167D01*
X61178833Y-57961451D01*
X61178837Y-57961454D01*
X61178839Y-57961456D01*
X61339354Y-58078077D01*
X61516136Y-58168151D01*
X61704832Y-58229463D01*
X61900796Y-58260500D01*
X61900797Y-58260500D01*
X62099203Y-58260500D01*
X62099204Y-58260500D01*
X62295168Y-58229463D01*
X62483864Y-58168151D01*
X62660646Y-58078077D01*
X62821161Y-57961456D01*
X62821164Y-57961452D01*
X62821167Y-57961451D01*
X62961451Y-57821167D01*
X62961452Y-57821164D01*
X62961456Y-57821161D01*
X63078077Y-57660646D01*
X63168151Y-57483864D01*
X63229463Y-57295168D01*
X63260500Y-57099204D01*
X63260500Y-56900796D01*
X63229463Y-56704832D01*
X63168151Y-56516136D01*
X63078077Y-56339354D01*
X62961456Y-56178839D01*
X62961454Y-56178837D01*
X62961451Y-56178833D01*
X62821167Y-56038549D01*
X62821162Y-56038545D01*
X62660643Y-55921921D01*
X62483865Y-55831849D01*
X62295168Y-55770537D01*
X62295165Y-55770536D01*
X62144628Y-55746694D01*
X62099204Y-55739500D01*
X61900796Y-55739500D01*
X61863919Y-55745340D01*
X61704834Y-55770536D01*
X61704831Y-55770537D01*
X61516134Y-55831849D01*
X61339356Y-55921921D01*
X61178837Y-56038545D01*
X61038545Y-56178837D01*
X60921921Y-56339356D01*
X60831849Y-56516134D01*
X60770537Y-56704831D01*
X60770536Y-56704834D01*
X60739500Y-56900796D01*
X55352836Y-56900796D01*
X55448506Y-56854724D01*
X55508380Y-56825889D01*
X55550582Y-56805566D01*
X55854956Y-56614315D01*
X56136003Y-56390188D01*
X56390188Y-56136003D01*
X56614315Y-55854956D01*
X56805566Y-55550582D01*
X56961536Y-55226708D01*
X57080262Y-54887408D01*
X57160252Y-54536948D01*
X57200500Y-54179736D01*
X57200500Y-53820264D01*
X57160252Y-53463052D01*
X57080262Y-53112592D01*
X56961536Y-52773292D01*
X56805566Y-52449418D01*
X56636113Y-52179736D01*
X56614317Y-52145047D01*
X56390194Y-51864004D01*
X56390183Y-51863992D01*
X56136007Y-51609816D01*
X56135995Y-51609805D01*
X56027564Y-51523335D01*
X55854956Y-51385685D01*
X55854951Y-51385682D01*
X55854952Y-51385682D01*
X55550583Y-51194434D01*
X55550579Y-51194432D01*
X55226718Y-51038468D01*
X55226712Y-51038465D01*
X54887405Y-50919737D01*
X54887406Y-50919737D01*
X54720493Y-50881641D01*
X54536948Y-50839748D01*
X54536942Y-50839747D01*
X54536941Y-50839747D01*
X54179737Y-50799500D01*
X54179736Y-50799500D01*
X53820264Y-50799500D01*
X53820263Y-50799500D01*
X53463061Y-50839747D01*
X53463056Y-50839747D01*
X53112594Y-50919737D01*
X52773287Y-51038465D01*
X52773281Y-51038468D01*
X52449420Y-51194432D01*
X52449416Y-51194434D01*
X52145047Y-51385682D01*
X51864004Y-51609805D01*
X51863992Y-51609816D01*
X51609816Y-51863992D01*
X51609805Y-51864004D01*
X51385682Y-52145047D01*
X51194434Y-52449416D01*
X51194432Y-52449420D01*
X51038468Y-52773281D01*
X51038465Y-52773287D01*
X50919737Y-53112594D01*
X50839747Y-53463056D01*
X50839747Y-53463060D01*
X50799500Y-53820264D01*
X10636114Y-53820264D01*
X10653359Y-53792819D01*
X10805565Y-53550583D01*
X10805566Y-53550582D01*
X10961536Y-53226708D01*
X11080262Y-52887408D01*
X11160252Y-52536948D01*
X11200500Y-52179736D01*
X11200500Y-51820264D01*
X11160252Y-51463052D01*
X11099236Y-51195724D01*
X16799500Y-51195724D01*
X16799500Y-52804275D01*
X16802353Y-52834698D01*
X16802353Y-52834699D01*
X16847204Y-52962876D01*
X16847208Y-52962885D01*
X16927849Y-53072150D01*
X17037114Y-53152791D01*
X17037117Y-53152792D01*
X17037118Y-53152793D01*
X17037120Y-53152793D01*
X17037123Y-53152795D01*
X17165301Y-53197646D01*
X17195734Y-53200500D01*
X17195744Y-53200500D01*
X18804256Y-53200500D01*
X18804266Y-53200500D01*
X18834699Y-53197646D01*
X18962882Y-53152793D01*
X19072150Y-53072150D01*
X19152793Y-52962882D01*
X19197646Y-52834699D01*
X19200500Y-52804266D01*
X19200500Y-51195734D01*
X19197646Y-51165301D01*
X19179202Y-51112592D01*
X19152795Y-51037123D01*
X19152791Y-51037114D01*
X19072150Y-50927849D01*
X18962885Y-50847208D01*
X18962876Y-50847204D01*
X18834698Y-50802353D01*
X18804275Y-50799500D01*
X18804266Y-50799500D01*
X17195734Y-50799500D01*
X17195724Y-50799500D01*
X17165301Y-50802353D01*
X17165300Y-50802353D01*
X17037123Y-50847204D01*
X17037114Y-50847208D01*
X16927849Y-50927849D01*
X16847208Y-51037114D01*
X16847204Y-51037123D01*
X16802353Y-51165300D01*
X16802353Y-51165301D01*
X16799500Y-51195724D01*
X11099236Y-51195724D01*
X11080262Y-51112592D01*
X10961536Y-50773292D01*
X10805566Y-50449418D01*
X10614315Y-50145044D01*
X10390188Y-49863997D01*
X10136003Y-49609812D01*
X10136000Y-49609809D01*
X10135995Y-49609805D01*
X10027564Y-49523335D01*
X9854956Y-49385685D01*
X9854951Y-49385682D01*
X9854952Y-49385682D01*
X9550583Y-49194434D01*
X9550579Y-49194432D01*
X9226718Y-49038468D01*
X9226712Y-49038465D01*
X8887405Y-48919737D01*
X8887406Y-48919737D01*
X8720493Y-48881641D01*
X8536948Y-48839748D01*
X8536942Y-48839747D01*
X8536941Y-48839747D01*
X8179737Y-48799500D01*
X8179736Y-48799500D01*
X7820264Y-48799500D01*
X7820263Y-48799500D01*
X7463061Y-48839747D01*
X7463056Y-48839747D01*
X7112594Y-48919737D01*
X6773287Y-49038465D01*
X6773281Y-49038468D01*
X6449420Y-49194432D01*
X6449416Y-49194434D01*
X6145047Y-49385682D01*
X5864004Y-49609805D01*
X5863992Y-49609816D01*
X5609816Y-49863992D01*
X5609805Y-49864004D01*
X5385682Y-50145047D01*
X5194434Y-50449416D01*
X5194432Y-50449420D01*
X5038468Y-50773281D01*
X5038465Y-50773287D01*
X4919737Y-51112594D01*
X4839747Y-51463056D01*
X4839747Y-51463061D01*
X4799500Y-51820263D01*
X300000Y-51820263D01*
X300000Y-48143978D01*
X27974500Y-48143978D01*
X27974500Y-48256021D01*
X28003496Y-48364235D01*
X28003497Y-48364239D01*
X28059515Y-48461263D01*
X28138737Y-48540485D01*
X28174249Y-48560988D01*
X28235760Y-48596502D01*
X28235762Y-48596502D01*
X28235763Y-48596503D01*
X28321111Y-48619371D01*
X28343978Y-48625499D01*
X28343979Y-48625500D01*
X28343982Y-48625500D01*
X28456021Y-48625500D01*
X28456021Y-48625499D01*
X28564237Y-48596503D01*
X28661263Y-48540485D01*
X28740485Y-48461263D01*
X28796503Y-48364237D01*
X28825499Y-48256021D01*
X28825500Y-48256021D01*
X28825500Y-48143979D01*
X28825499Y-48143978D01*
X28796503Y-48035764D01*
X28796502Y-48035760D01*
X28741494Y-47940485D01*
X28740485Y-47938737D01*
X28661263Y-47859515D01*
X28564239Y-47803497D01*
X28564235Y-47803496D01*
X28456021Y-47774500D01*
X28456018Y-47774500D01*
X28343982Y-47774500D01*
X28343979Y-47774500D01*
X28235764Y-47803496D01*
X28235760Y-47803497D01*
X28138736Y-47859515D01*
X28138736Y-47859516D01*
X28059516Y-47938736D01*
X28059515Y-47938736D01*
X28003497Y-48035760D01*
X28003496Y-48035764D01*
X27974500Y-48143978D01*
X300000Y-48143978D01*
X300000Y-47343978D01*
X34174500Y-47343978D01*
X34174500Y-47456021D01*
X34203496Y-47564235D01*
X34203497Y-47564239D01*
X34259515Y-47661263D01*
X34338737Y-47740485D01*
X34374249Y-47760988D01*
X34435760Y-47796502D01*
X34435762Y-47796502D01*
X34435763Y-47796503D01*
X34521111Y-47819371D01*
X34543978Y-47825499D01*
X34543979Y-47825500D01*
X34543982Y-47825500D01*
X34656021Y-47825500D01*
X34656021Y-47825499D01*
X34764237Y-47796503D01*
X34861263Y-47740485D01*
X34940485Y-47661263D01*
X34996503Y-47564237D01*
X35001931Y-47543978D01*
X48574500Y-47543978D01*
X48574500Y-47656021D01*
X48603496Y-47764235D01*
X48603497Y-47764239D01*
X48638867Y-47825500D01*
X48659515Y-47861263D01*
X48738737Y-47940485D01*
X48774249Y-47960988D01*
X48835760Y-47996502D01*
X48835762Y-47996502D01*
X48835763Y-47996503D01*
X48921111Y-48019371D01*
X48943978Y-48025499D01*
X48943979Y-48025500D01*
X48943982Y-48025500D01*
X49056021Y-48025500D01*
X49056021Y-48025499D01*
X49164237Y-47996503D01*
X49261263Y-47940485D01*
X49340485Y-47861263D01*
X49396503Y-47764237D01*
X49425499Y-47656021D01*
X49425500Y-47656021D01*
X49425500Y-47543979D01*
X49425499Y-47543978D01*
X49401931Y-47456021D01*
X49396503Y-47435763D01*
X49396502Y-47435762D01*
X49396502Y-47435760D01*
X49340484Y-47338736D01*
X49261263Y-47259515D01*
X49164239Y-47203497D01*
X49164235Y-47203496D01*
X49056021Y-47174500D01*
X49056018Y-47174500D01*
X48943982Y-47174500D01*
X48943979Y-47174500D01*
X48835764Y-47203496D01*
X48835760Y-47203497D01*
X48738736Y-47259515D01*
X48738736Y-47259516D01*
X48659516Y-47338736D01*
X48659515Y-47338736D01*
X48603497Y-47435760D01*
X48603496Y-47435764D01*
X48574500Y-47543978D01*
X35001931Y-47543978D01*
X35025500Y-47456018D01*
X35025500Y-47343982D01*
X35025500Y-47343979D01*
X35025499Y-47343978D01*
X35019371Y-47321111D01*
X34996503Y-47235763D01*
X34996502Y-47235762D01*
X34996502Y-47235760D01*
X34940484Y-47138736D01*
X34861263Y-47059515D01*
X34764239Y-47003497D01*
X34764235Y-47003496D01*
X34656021Y-46974500D01*
X34656018Y-46974500D01*
X34543982Y-46974500D01*
X34543979Y-46974500D01*
X34435764Y-47003496D01*
X34435760Y-47003497D01*
X34338736Y-47059515D01*
X34338736Y-47059516D01*
X34259516Y-47138736D01*
X34259515Y-47138736D01*
X34203497Y-47235760D01*
X34203496Y-47235764D01*
X34174500Y-47343978D01*
X300000Y-47343978D01*
X300000Y-45943978D01*
X25474500Y-45943978D01*
X25474500Y-46056021D01*
X25503496Y-46164235D01*
X25503497Y-46164239D01*
X25547206Y-46239944D01*
X25559515Y-46261263D01*
X25638737Y-46340485D01*
X25674249Y-46360988D01*
X25735760Y-46396502D01*
X25735762Y-46396502D01*
X25735763Y-46396503D01*
X25821111Y-46419371D01*
X25843978Y-46425499D01*
X25843979Y-46425500D01*
X25843982Y-46425500D01*
X25956021Y-46425500D01*
X25956021Y-46425499D01*
X26064237Y-46396503D01*
X26161263Y-46340485D01*
X26186896Y-46314852D01*
X26221544Y-46300500D01*
X26419750Y-46300500D01*
X26444248Y-46307064D01*
X26484012Y-46330022D01*
X26523061Y-46340485D01*
X26560434Y-46350499D01*
X26560435Y-46350500D01*
X26560438Y-46350500D01*
X27639564Y-46350500D01*
X27677775Y-46340260D01*
X27715989Y-46330021D01*
X27755750Y-46307064D01*
X27780250Y-46300500D01*
X27789564Y-46300500D01*
X27840513Y-46286847D01*
X27865989Y-46280021D01*
X27934511Y-46240460D01*
X27934516Y-46240454D01*
X27935401Y-46239944D01*
X27947214Y-46235051D01*
X27965989Y-46230021D01*
X28034511Y-46190460D01*
X28034516Y-46190454D01*
X28035401Y-46189944D01*
X28047214Y-46185051D01*
X28065989Y-46180021D01*
X28134511Y-46140460D01*
X28134516Y-46140454D01*
X28135401Y-46139944D01*
X28147214Y-46135051D01*
X28165989Y-46130021D01*
X28234511Y-46090460D01*
X28234516Y-46090454D01*
X28235401Y-46089944D01*
X28247214Y-46085051D01*
X28265989Y-46080021D01*
X28305750Y-46057064D01*
X28330250Y-46050500D01*
X28339564Y-46050500D01*
X28390513Y-46036847D01*
X28415989Y-46030021D01*
X28484511Y-45990460D01*
X28484516Y-45990454D01*
X28485401Y-45989944D01*
X28497214Y-45985051D01*
X28515989Y-45980021D01*
X28584511Y-45940460D01*
X28584516Y-45940454D01*
X28585401Y-45939944D01*
X28597214Y-45935051D01*
X28615989Y-45930021D01*
X28684511Y-45890460D01*
X28740460Y-45834511D01*
X29130992Y-45443978D01*
X32874499Y-45443978D01*
X32874499Y-45556021D01*
X32903495Y-45664235D01*
X32903496Y-45664239D01*
X32958340Y-45759230D01*
X32959514Y-45761263D01*
X33038736Y-45840485D01*
X33074248Y-45860988D01*
X33135759Y-45896502D01*
X33135761Y-45896502D01*
X33135762Y-45896503D01*
X33221110Y-45919371D01*
X33243977Y-45925499D01*
X33243978Y-45925500D01*
X33243981Y-45925500D01*
X33356020Y-45925500D01*
X33356020Y-45925499D01*
X33464236Y-45896503D01*
X33561262Y-45840485D01*
X33628165Y-45773581D01*
X33662812Y-45759230D01*
X33697460Y-45773582D01*
X33711812Y-45808230D01*
X33705250Y-45832726D01*
X33703496Y-45835762D01*
X33703496Y-45835764D01*
X33674500Y-45943978D01*
X33674500Y-46056021D01*
X33703496Y-46164235D01*
X33703497Y-46164239D01*
X33747206Y-46239944D01*
X33759515Y-46261263D01*
X33838737Y-46340485D01*
X33874249Y-46360988D01*
X33935760Y-46396502D01*
X33935762Y-46396502D01*
X33935763Y-46396503D01*
X34021111Y-46419371D01*
X34043978Y-46425499D01*
X34043979Y-46425500D01*
X34043982Y-46425500D01*
X34156021Y-46425500D01*
X34156021Y-46425499D01*
X34264237Y-46396503D01*
X34361263Y-46340485D01*
X34440485Y-46261263D01*
X34496503Y-46164237D01*
X34525499Y-46056021D01*
X34525500Y-46056021D01*
X34525500Y-46019767D01*
X34539852Y-45985119D01*
X35180993Y-45343978D01*
X42974500Y-45343978D01*
X42974500Y-45456021D01*
X43003496Y-45564235D01*
X43003497Y-45564239D01*
X43058506Y-45659515D01*
X43059515Y-45661263D01*
X43138737Y-45740485D01*
X43171204Y-45759230D01*
X43235760Y-45796502D01*
X43235762Y-45796502D01*
X43235763Y-45796503D01*
X43321111Y-45819371D01*
X43343978Y-45825499D01*
X43343979Y-45825500D01*
X43343982Y-45825500D01*
X43456021Y-45825500D01*
X43456021Y-45825499D01*
X43564237Y-45796503D01*
X43661263Y-45740485D01*
X43740485Y-45661263D01*
X43793188Y-45569979D01*
X43796502Y-45564239D01*
X43796502Y-45564238D01*
X43796503Y-45564237D01*
X43825499Y-45456021D01*
X43825500Y-45456021D01*
X43825500Y-45343979D01*
X43825499Y-45343978D01*
X43803336Y-45261264D01*
X43796503Y-45235763D01*
X43796502Y-45235762D01*
X43796502Y-45235760D01*
X43760988Y-45174249D01*
X43740485Y-45138737D01*
X43661263Y-45059515D01*
X43655206Y-45056018D01*
X43564239Y-45003497D01*
X43564235Y-45003496D01*
X43456021Y-44974500D01*
X43456018Y-44974500D01*
X43343982Y-44974500D01*
X43343979Y-44974500D01*
X43235764Y-45003496D01*
X43235760Y-45003497D01*
X43138736Y-45059515D01*
X43138736Y-45059516D01*
X43059516Y-45138736D01*
X43059515Y-45138736D01*
X43003497Y-45235760D01*
X43003496Y-45235764D01*
X42974500Y-45343978D01*
X35180993Y-45343978D01*
X39690459Y-40834512D01*
X39690460Y-40834511D01*
X39730022Y-40765988D01*
X39750499Y-40689565D01*
X39750500Y-40689565D01*
X39750500Y-39930250D01*
X39757064Y-39905751D01*
X39780022Y-39865988D01*
X39785051Y-39847215D01*
X39789946Y-39835400D01*
X39790458Y-39834512D01*
X39790460Y-39834511D01*
X39830022Y-39765988D01*
X39834324Y-39749927D01*
X39847004Y-39727965D01*
X40390460Y-39184511D01*
X40398850Y-39169979D01*
X40418744Y-39135519D01*
X40448494Y-39112691D01*
X40485675Y-39117584D01*
X40535763Y-39146503D01*
X40608490Y-39165990D01*
X40643978Y-39175499D01*
X40643979Y-39175500D01*
X40643982Y-39175500D01*
X40756021Y-39175500D01*
X40756021Y-39175499D01*
X40864237Y-39146503D01*
X40961263Y-39090485D01*
X41028164Y-39023583D01*
X41062811Y-39009232D01*
X41097459Y-39023584D01*
X41111811Y-39058232D01*
X41105248Y-39082729D01*
X41103497Y-39085760D01*
X41103496Y-39085764D01*
X41074500Y-39193978D01*
X41074500Y-39306021D01*
X41103496Y-39414235D01*
X41103497Y-39414239D01*
X41105246Y-39417267D01*
X41110141Y-39454449D01*
X41087311Y-39484202D01*
X41050129Y-39489097D01*
X41028163Y-39476415D01*
X40961263Y-39409515D01*
X40864239Y-39353497D01*
X40864235Y-39353496D01*
X40756021Y-39324500D01*
X40756018Y-39324500D01*
X40643982Y-39324500D01*
X40643979Y-39324500D01*
X40535764Y-39353496D01*
X40535760Y-39353497D01*
X40438736Y-39409515D01*
X40438736Y-39409516D01*
X40359516Y-39488736D01*
X40359515Y-39488736D01*
X40303497Y-39585760D01*
X40303496Y-39585764D01*
X40274500Y-39693978D01*
X40274500Y-39806021D01*
X40303496Y-39914235D01*
X40303497Y-39914239D01*
X40354619Y-40002783D01*
X40359515Y-40011263D01*
X40438737Y-40090485D01*
X40449999Y-40096987D01*
X40535760Y-40146502D01*
X40535762Y-40146502D01*
X40535763Y-40146503D01*
X40608490Y-40165990D01*
X40643978Y-40175499D01*
X40643979Y-40175500D01*
X40643982Y-40175500D01*
X40756021Y-40175500D01*
X40756021Y-40175499D01*
X40864237Y-40146503D01*
X40961263Y-40090485D01*
X41028164Y-40023583D01*
X41062811Y-40009232D01*
X41097459Y-40023584D01*
X41111811Y-40058232D01*
X41105248Y-40082729D01*
X41103497Y-40085760D01*
X41103496Y-40085764D01*
X41074500Y-40193978D01*
X41074500Y-40306021D01*
X41103496Y-40414235D01*
X41103497Y-40414239D01*
X41105246Y-40417267D01*
X41110141Y-40454449D01*
X41087311Y-40484202D01*
X41050129Y-40489097D01*
X41028163Y-40476415D01*
X40961263Y-40409515D01*
X40864239Y-40353497D01*
X40864235Y-40353496D01*
X40756021Y-40324500D01*
X40756018Y-40324500D01*
X40643982Y-40324500D01*
X40643979Y-40324500D01*
X40535764Y-40353496D01*
X40535760Y-40353497D01*
X40438736Y-40409515D01*
X40438736Y-40409516D01*
X40359516Y-40488736D01*
X40359515Y-40488736D01*
X40303497Y-40585760D01*
X40303496Y-40585764D01*
X40274500Y-40693978D01*
X40274500Y-40806021D01*
X40303496Y-40914235D01*
X40303497Y-40914239D01*
X40359515Y-41011263D01*
X40438737Y-41090485D01*
X40474249Y-41110988D01*
X40535760Y-41146502D01*
X40535762Y-41146502D01*
X40535763Y-41146503D01*
X40570505Y-41155812D01*
X40643978Y-41175499D01*
X40643979Y-41175500D01*
X40643982Y-41175500D01*
X40756021Y-41175500D01*
X40756021Y-41175499D01*
X40864237Y-41146503D01*
X40961263Y-41090485D01*
X41040485Y-41011263D01*
X41096503Y-40914237D01*
X41125499Y-40806021D01*
X41125500Y-40806021D01*
X41125500Y-40693979D01*
X41125499Y-40693978D01*
X41104602Y-40615988D01*
X41096503Y-40585763D01*
X41094753Y-40582733D01*
X41089857Y-40545553D01*
X41112686Y-40515798D01*
X41149867Y-40510901D01*
X41171836Y-40523584D01*
X41238737Y-40590485D01*
X41269895Y-40608474D01*
X41335760Y-40646502D01*
X41335762Y-40646502D01*
X41335763Y-40646503D01*
X41421111Y-40669371D01*
X41443978Y-40675499D01*
X41443979Y-40675500D01*
X41443982Y-40675500D01*
X41556021Y-40675500D01*
X41556021Y-40675499D01*
X41664237Y-40646503D01*
X41761263Y-40590485D01*
X41786896Y-40564852D01*
X41821544Y-40550500D01*
X44505233Y-40550500D01*
X44539881Y-40564852D01*
X45915489Y-41940460D01*
X45955047Y-41963299D01*
X45984008Y-41980020D01*
X45984012Y-41980022D01*
X46002786Y-41985052D01*
X46014601Y-41989946D01*
X46015485Y-41990456D01*
X46015489Y-41990460D01*
X46084012Y-42030022D01*
X46102786Y-42035052D01*
X46114601Y-42039946D01*
X46115485Y-42040456D01*
X46115489Y-42040460D01*
X46184012Y-42080022D01*
X46203143Y-42085148D01*
X46260432Y-42100499D01*
X46260436Y-42100499D01*
X46260438Y-42100500D01*
X46260440Y-42100500D01*
X46261313Y-42100615D01*
X46261847Y-42100878D01*
X46263540Y-42101332D01*
X46263449Y-42101668D01*
X46289578Y-42114549D01*
X46688344Y-42513315D01*
X46702696Y-42547963D01*
X46688344Y-42582611D01*
X46666379Y-42595293D01*
X46635762Y-42603497D01*
X46635760Y-42603497D01*
X46538736Y-42659515D01*
X46538736Y-42659516D01*
X46459516Y-42738736D01*
X46459515Y-42738736D01*
X46403497Y-42835760D01*
X46403496Y-42835764D01*
X46374500Y-42943978D01*
X46374500Y-43056021D01*
X46403496Y-43164235D01*
X46403497Y-43164239D01*
X46459515Y-43261263D01*
X46538737Y-43340485D01*
X46574249Y-43360988D01*
X46635760Y-43396502D01*
X46635762Y-43396502D01*
X46635763Y-43396503D01*
X46721111Y-43419371D01*
X46743978Y-43425499D01*
X46743979Y-43425500D01*
X46743982Y-43425500D01*
X46856021Y-43425500D01*
X46856021Y-43425499D01*
X46964237Y-43396503D01*
X47061263Y-43340485D01*
X47140485Y-43261263D01*
X47196503Y-43164237D01*
X47225499Y-43056021D01*
X47225500Y-43056021D01*
X47225500Y-42943979D01*
X47225499Y-42943978D01*
X47196503Y-42835764D01*
X47196502Y-42835760D01*
X47160844Y-42774000D01*
X47155949Y-42736818D01*
X47178779Y-42707065D01*
X47203279Y-42700500D01*
X50278456Y-42700500D01*
X50313104Y-42714852D01*
X50338737Y-42740485D01*
X50374249Y-42760988D01*
X50435760Y-42796502D01*
X50435762Y-42796502D01*
X50435763Y-42796503D01*
X50521111Y-42819371D01*
X50543978Y-42825499D01*
X50543979Y-42825500D01*
X50543982Y-42825500D01*
X50656021Y-42825500D01*
X50656021Y-42825499D01*
X50764237Y-42796503D01*
X50861263Y-42740485D01*
X50940485Y-42661263D01*
X50996503Y-42564237D01*
X51025499Y-42456021D01*
X51025500Y-42456021D01*
X51025500Y-42343979D01*
X51025499Y-42343978D01*
X50996503Y-42235764D01*
X50996502Y-42235760D01*
X50940484Y-42138736D01*
X50861263Y-42059515D01*
X50764239Y-42003497D01*
X50764235Y-42003496D01*
X50656021Y-41974500D01*
X50656018Y-41974500D01*
X50543982Y-41974500D01*
X50543979Y-41974500D01*
X50435764Y-42003496D01*
X50435760Y-42003497D01*
X50338736Y-42059515D01*
X50338736Y-42059516D01*
X50313104Y-42085148D01*
X50278456Y-42099500D01*
X47144767Y-42099500D01*
X47110119Y-42085148D01*
X46713979Y-41689008D01*
X46699627Y-41654360D01*
X46713979Y-41619712D01*
X46724124Y-41611926D01*
X46761263Y-41590485D01*
X46840485Y-41511263D01*
X46896503Y-41414237D01*
X46925499Y-41306021D01*
X46925500Y-41306021D01*
X46925500Y-41193979D01*
X46925499Y-41193978D01*
X46896503Y-41085764D01*
X46896502Y-41085760D01*
X46840484Y-40988736D01*
X46795726Y-40943978D01*
X49974500Y-40943978D01*
X49974500Y-41056021D01*
X50003496Y-41164235D01*
X50003497Y-41164239D01*
X50052740Y-41249529D01*
X50059515Y-41261263D01*
X50138737Y-41340485D01*
X50174249Y-41360988D01*
X50235760Y-41396502D01*
X50235762Y-41396502D01*
X50235763Y-41396503D01*
X50301940Y-41414235D01*
X50343978Y-41425499D01*
X50343979Y-41425500D01*
X50343982Y-41425500D01*
X50456021Y-41425500D01*
X50456021Y-41425499D01*
X50564237Y-41396503D01*
X50661263Y-41340485D01*
X50740485Y-41261263D01*
X50796503Y-41164237D01*
X50825499Y-41056021D01*
X50825500Y-41056021D01*
X50825500Y-40943980D01*
X50816264Y-40909515D01*
X50808761Y-40881513D01*
X50813654Y-40844335D01*
X50830022Y-40815988D01*
X50835051Y-40797215D01*
X50839946Y-40785400D01*
X50840458Y-40784512D01*
X50840460Y-40784511D01*
X50880022Y-40715988D01*
X50885051Y-40697215D01*
X50889946Y-40685400D01*
X50890458Y-40684512D01*
X50890460Y-40684511D01*
X50930022Y-40615988D01*
X50935051Y-40597215D01*
X50939946Y-40585399D01*
X50940456Y-40584514D01*
X50940460Y-40584511D01*
X50980022Y-40515988D01*
X51000499Y-40439565D01*
X51000500Y-40439565D01*
X51000500Y-40430250D01*
X51007064Y-40405751D01*
X51030022Y-40365988D01*
X51035051Y-40347215D01*
X51039946Y-40335400D01*
X51040458Y-40334512D01*
X51040460Y-40334511D01*
X51080022Y-40265988D01*
X51085051Y-40247215D01*
X51089946Y-40235400D01*
X51090458Y-40234512D01*
X51090460Y-40234511D01*
X51130022Y-40165988D01*
X51135051Y-40147215D01*
X51139946Y-40135400D01*
X51140458Y-40134512D01*
X51140460Y-40134511D01*
X51180022Y-40065988D01*
X51185051Y-40047215D01*
X51189946Y-40035399D01*
X51190456Y-40034514D01*
X51190460Y-40034511D01*
X51230022Y-39965988D01*
X51250499Y-39889565D01*
X51250500Y-39889565D01*
X51250500Y-39880250D01*
X51257064Y-39855751D01*
X51280022Y-39815988D01*
X51285051Y-39797215D01*
X51289946Y-39785400D01*
X51290458Y-39784512D01*
X51290460Y-39784511D01*
X51330022Y-39715988D01*
X51335051Y-39697215D01*
X51339946Y-39685400D01*
X51340458Y-39684512D01*
X51340460Y-39684511D01*
X51380022Y-39615988D01*
X51385051Y-39597215D01*
X51389946Y-39585400D01*
X51390458Y-39584512D01*
X51390460Y-39584511D01*
X51430022Y-39515988D01*
X51435051Y-39497215D01*
X51439946Y-39485399D01*
X51440456Y-39484514D01*
X51440460Y-39484511D01*
X51480022Y-39415988D01*
X51500499Y-39339565D01*
X51500500Y-39339565D01*
X51500500Y-39330250D01*
X51507064Y-39305751D01*
X51530022Y-39265988D01*
X51535051Y-39247215D01*
X51539946Y-39235400D01*
X51540458Y-39234512D01*
X51540460Y-39234511D01*
X51580022Y-39165988D01*
X51585051Y-39147215D01*
X51589946Y-39135400D01*
X51590458Y-39134512D01*
X51590460Y-39134511D01*
X51630022Y-39065988D01*
X51635051Y-39047215D01*
X51639946Y-39035400D01*
X51640458Y-39034512D01*
X51640460Y-39034511D01*
X51680022Y-38965988D01*
X51685051Y-38947215D01*
X51686392Y-38943978D01*
X61574500Y-38943978D01*
X61574500Y-39056021D01*
X61603496Y-39164235D01*
X61603497Y-39164239D01*
X61644583Y-39235400D01*
X61659515Y-39261263D01*
X61738737Y-39340485D01*
X61771741Y-39359540D01*
X61835760Y-39396502D01*
X61835762Y-39396502D01*
X61835763Y-39396503D01*
X61913256Y-39417267D01*
X61943978Y-39425499D01*
X61943979Y-39425500D01*
X61943982Y-39425500D01*
X62056021Y-39425500D01*
X62056021Y-39425499D01*
X62164237Y-39396503D01*
X62261263Y-39340485D01*
X62340485Y-39261263D01*
X62393188Y-39169979D01*
X62396502Y-39164239D01*
X62396502Y-39164238D01*
X62396503Y-39164237D01*
X62425499Y-39056021D01*
X62425500Y-39056021D01*
X62425500Y-38943979D01*
X62425499Y-38943978D01*
X62401255Y-38853497D01*
X62396503Y-38835763D01*
X62396502Y-38835762D01*
X62396502Y-38835760D01*
X62360988Y-38774249D01*
X62340485Y-38738737D01*
X62261263Y-38659515D01*
X62234822Y-38644249D01*
X62164239Y-38603497D01*
X62164235Y-38603496D01*
X62056021Y-38574500D01*
X62056018Y-38574500D01*
X61943982Y-38574500D01*
X61943979Y-38574500D01*
X61835764Y-38603496D01*
X61835760Y-38603497D01*
X61738736Y-38659515D01*
X61738736Y-38659516D01*
X61659516Y-38738736D01*
X61659515Y-38738736D01*
X61603497Y-38835760D01*
X61603496Y-38835764D01*
X61574500Y-38943978D01*
X51686392Y-38943978D01*
X51689946Y-38935400D01*
X51690458Y-38934512D01*
X51690460Y-38934511D01*
X51730022Y-38865988D01*
X51750499Y-38789565D01*
X51750500Y-38789565D01*
X51750500Y-38780250D01*
X51757064Y-38755751D01*
X51780022Y-38715988D01*
X51785051Y-38697215D01*
X51789946Y-38685400D01*
X51790458Y-38684512D01*
X51790460Y-38684511D01*
X51830022Y-38615988D01*
X51835051Y-38597215D01*
X51839946Y-38585400D01*
X51840458Y-38584512D01*
X51840460Y-38584511D01*
X51880022Y-38515988D01*
X51885051Y-38497215D01*
X51889946Y-38485400D01*
X51890458Y-38484512D01*
X51890460Y-38484511D01*
X51930022Y-38415988D01*
X51935051Y-38397215D01*
X51939946Y-38385400D01*
X51940458Y-38384512D01*
X51940460Y-38384511D01*
X51980022Y-38315988D01*
X51985051Y-38297215D01*
X51989946Y-38285399D01*
X51990456Y-38284514D01*
X51990460Y-38284511D01*
X52030022Y-38215988D01*
X52050499Y-38139565D01*
X52050500Y-38139565D01*
X52050500Y-38130250D01*
X52057064Y-38105751D01*
X52080022Y-38065988D01*
X52085051Y-38047215D01*
X52089946Y-38035400D01*
X52090458Y-38034512D01*
X52090460Y-38034511D01*
X52130022Y-37965988D01*
X52135051Y-37947215D01*
X52139946Y-37935399D01*
X52140456Y-37934514D01*
X52140460Y-37934511D01*
X52180022Y-37865988D01*
X52200499Y-37789565D01*
X52200500Y-37789565D01*
X52200500Y-33543978D01*
X58174500Y-33543978D01*
X58174500Y-33656021D01*
X58203496Y-33764235D01*
X58203497Y-33764239D01*
X58241477Y-33830021D01*
X58259515Y-33861263D01*
X58338737Y-33940485D01*
X58374249Y-33960988D01*
X58435760Y-33996502D01*
X58435762Y-33996502D01*
X58435763Y-33996503D01*
X58521111Y-34019371D01*
X58543978Y-34025499D01*
X58543979Y-34025500D01*
X58543982Y-34025500D01*
X58656021Y-34025500D01*
X58656021Y-34025499D01*
X58764237Y-33996503D01*
X58861263Y-33940485D01*
X58940485Y-33861263D01*
X58996503Y-33764237D01*
X59025499Y-33656021D01*
X59025500Y-33656021D01*
X59025500Y-33543979D01*
X59025499Y-33543978D01*
X59008362Y-33480021D01*
X58996503Y-33435763D01*
X58996502Y-33435762D01*
X58996502Y-33435760D01*
X58952792Y-33360053D01*
X58940485Y-33338737D01*
X58861263Y-33259515D01*
X58828259Y-33240460D01*
X58764239Y-33203497D01*
X58764235Y-33203496D01*
X58656021Y-33174500D01*
X58656018Y-33174500D01*
X58543982Y-33174500D01*
X58543979Y-33174500D01*
X58435764Y-33203496D01*
X58435760Y-33203497D01*
X58338736Y-33259515D01*
X58338736Y-33259516D01*
X58259516Y-33338736D01*
X58259515Y-33338736D01*
X58203497Y-33435760D01*
X58203496Y-33435764D01*
X58174500Y-33543978D01*
X52200500Y-33543978D01*
X52200500Y-32694767D01*
X52214852Y-32660119D01*
X53162923Y-31712048D01*
X54330993Y-30543978D01*
X58974500Y-30543978D01*
X58974500Y-30656021D01*
X59003496Y-30764235D01*
X59003497Y-30764239D01*
X59048500Y-30842185D01*
X59059515Y-30861263D01*
X59138737Y-30940485D01*
X59174249Y-30960988D01*
X59235760Y-30996502D01*
X59235762Y-30996502D01*
X59235763Y-30996503D01*
X59321111Y-31019371D01*
X59343978Y-31025499D01*
X59343979Y-31025500D01*
X59343982Y-31025500D01*
X59456021Y-31025500D01*
X59456021Y-31025499D01*
X59564237Y-30996503D01*
X59661263Y-30940485D01*
X59740485Y-30861263D01*
X59796503Y-30764237D01*
X59825499Y-30656021D01*
X59825500Y-30656021D01*
X59825500Y-30543979D01*
X59825499Y-30543978D01*
X59819371Y-30521111D01*
X59796503Y-30435763D01*
X59796502Y-30435762D01*
X59796502Y-30435760D01*
X59741494Y-30340485D01*
X59740485Y-30338737D01*
X59661263Y-30259515D01*
X59564239Y-30203497D01*
X59564235Y-30203496D01*
X59456021Y-30174500D01*
X59456018Y-30174500D01*
X59343982Y-30174500D01*
X59343979Y-30174500D01*
X59235764Y-30203496D01*
X59235760Y-30203497D01*
X59138736Y-30259515D01*
X59138736Y-30259516D01*
X59059516Y-30338736D01*
X59059515Y-30338736D01*
X59003497Y-30435760D01*
X59003496Y-30435764D01*
X58974500Y-30543978D01*
X54330993Y-30543978D01*
X55802749Y-29072221D01*
X55837396Y-29057870D01*
X55872044Y-29072222D01*
X55884726Y-29094187D01*
X55903497Y-29164237D01*
X55903497Y-29164239D01*
X55958342Y-29259232D01*
X55959515Y-29261263D01*
X56038737Y-29340485D01*
X56074249Y-29360988D01*
X56135760Y-29396502D01*
X56135762Y-29396502D01*
X56135763Y-29396503D01*
X56221111Y-29419371D01*
X56243978Y-29425499D01*
X56243979Y-29425500D01*
X56243982Y-29425500D01*
X56356021Y-29425500D01*
X56356021Y-29425499D01*
X56464237Y-29396503D01*
X56561263Y-29340485D01*
X56628164Y-29273583D01*
X56662811Y-29259232D01*
X56697459Y-29273584D01*
X56711811Y-29308232D01*
X56705248Y-29332729D01*
X56703497Y-29335760D01*
X56703496Y-29335764D01*
X56674500Y-29443978D01*
X56674500Y-29556021D01*
X56703496Y-29664235D01*
X56703497Y-29664239D01*
X56705246Y-29667267D01*
X56710141Y-29704449D01*
X56687311Y-29734202D01*
X56650129Y-29739097D01*
X56628163Y-29726415D01*
X56561263Y-29659515D01*
X56464239Y-29603497D01*
X56464235Y-29603496D01*
X56356021Y-29574500D01*
X56356018Y-29574500D01*
X56243982Y-29574500D01*
X56243979Y-29574500D01*
X56135764Y-29603496D01*
X56135760Y-29603497D01*
X56038736Y-29659515D01*
X56038736Y-29659516D01*
X55959516Y-29738736D01*
X55959515Y-29738736D01*
X55903497Y-29835760D01*
X55903496Y-29835764D01*
X55874500Y-29943978D01*
X55874500Y-30056021D01*
X55903496Y-30164235D01*
X55903497Y-30164239D01*
X55958506Y-30259515D01*
X55959515Y-30261263D01*
X56038737Y-30340485D01*
X56074249Y-30360988D01*
X56135760Y-30396502D01*
X56135762Y-30396502D01*
X56135763Y-30396503D01*
X56221111Y-30419371D01*
X56243978Y-30425499D01*
X56243979Y-30425500D01*
X56243982Y-30425500D01*
X56356021Y-30425500D01*
X56356021Y-30425499D01*
X56464237Y-30396503D01*
X56561263Y-30340485D01*
X56640485Y-30261263D01*
X56696503Y-30164237D01*
X56725499Y-30056021D01*
X56725500Y-30056021D01*
X56725500Y-29943979D01*
X56725499Y-29943978D01*
X56696503Y-29835764D01*
X56696503Y-29835763D01*
X56694754Y-29832734D01*
X56689857Y-29795553D01*
X56712686Y-29765798D01*
X56749867Y-29760901D01*
X56771836Y-29773584D01*
X56838737Y-29840485D01*
X56874249Y-29860988D01*
X56935760Y-29896502D01*
X56935762Y-29896502D01*
X56935763Y-29896503D01*
X57021111Y-29919371D01*
X57043978Y-29925499D01*
X57043979Y-29925500D01*
X57043982Y-29925500D01*
X57156021Y-29925500D01*
X57156021Y-29925499D01*
X57264237Y-29896503D01*
X57361263Y-29840485D01*
X57440485Y-29761263D01*
X57496503Y-29664237D01*
X57525499Y-29556021D01*
X57525500Y-29556021D01*
X57525500Y-29443979D01*
X57525499Y-29443978D01*
X57496503Y-29335764D01*
X57496502Y-29335760D01*
X57446699Y-29249500D01*
X57440485Y-29238737D01*
X57361263Y-29159515D01*
X57343714Y-29149383D01*
X57264239Y-29103497D01*
X57264235Y-29103496D01*
X57156021Y-29074500D01*
X57156018Y-29074500D01*
X57043982Y-29074500D01*
X57043979Y-29074500D01*
X56935764Y-29103496D01*
X56935760Y-29103497D01*
X56838736Y-29159515D01*
X56771836Y-29226415D01*
X56737188Y-29240767D01*
X56702540Y-29226415D01*
X56688188Y-29191767D01*
X56694755Y-29167264D01*
X56696503Y-29164237D01*
X56725499Y-29056021D01*
X56725500Y-29056021D01*
X56725500Y-28943979D01*
X56725499Y-28943978D01*
X56696503Y-28835764D01*
X56696502Y-28835760D01*
X56660988Y-28774249D01*
X56640485Y-28738737D01*
X56561263Y-28659515D01*
X56464238Y-28603497D01*
X56394187Y-28584726D01*
X56364434Y-28561895D01*
X56359540Y-28524713D01*
X56372221Y-28502749D01*
X56390460Y-28484511D01*
X56426921Y-28421357D01*
X56456671Y-28398529D01*
X56464237Y-28396503D01*
X56561263Y-28340485D01*
X56640485Y-28261263D01*
X56696503Y-28164237D01*
X56725499Y-28056021D01*
X56725500Y-28056021D01*
X56725500Y-28012012D01*
X56739852Y-27977364D01*
X56774500Y-27963012D01*
X56809148Y-27977364D01*
X56816934Y-27987511D01*
X56859515Y-28061263D01*
X56938737Y-28140485D01*
X56971698Y-28159515D01*
X57035760Y-28196502D01*
X57035762Y-28196502D01*
X57035763Y-28196503D01*
X57121111Y-28219371D01*
X57143978Y-28225499D01*
X57143979Y-28225500D01*
X57143982Y-28225500D01*
X57256021Y-28225500D01*
X57256021Y-28225499D01*
X57364237Y-28196503D01*
X57461263Y-28140485D01*
X57540485Y-28061263D01*
X57596503Y-27964237D01*
X57625499Y-27856021D01*
X57625500Y-27856021D01*
X57625500Y-27743979D01*
X57625499Y-27743978D01*
X57611677Y-27692394D01*
X57596503Y-27635763D01*
X57596502Y-27635762D01*
X57596502Y-27635760D01*
X57540484Y-27538736D01*
X57461263Y-27459515D01*
X57364239Y-27403497D01*
X57364235Y-27403496D01*
X57256021Y-27374500D01*
X57256018Y-27374500D01*
X57143982Y-27374500D01*
X57143979Y-27374500D01*
X57035764Y-27403496D01*
X57035760Y-27403497D01*
X56938736Y-27459515D01*
X56938736Y-27459516D01*
X56859516Y-27538736D01*
X56859515Y-27538736D01*
X56803497Y-27635760D01*
X56803496Y-27635764D01*
X56774500Y-27743978D01*
X56774500Y-27787987D01*
X56760148Y-27822635D01*
X56725500Y-27836987D01*
X56690852Y-27822635D01*
X56683065Y-27812487D01*
X56640484Y-27738736D01*
X56561263Y-27659515D01*
X56464239Y-27603497D01*
X56464235Y-27603496D01*
X56356021Y-27574500D01*
X56356018Y-27574500D01*
X56243982Y-27574500D01*
X56243979Y-27574500D01*
X56135764Y-27603496D01*
X56135760Y-27603497D01*
X56038736Y-27659515D01*
X56038736Y-27659516D01*
X55959516Y-27738736D01*
X55959515Y-27738736D01*
X55903497Y-27835760D01*
X55903496Y-27835764D01*
X55874500Y-27943978D01*
X55874500Y-28059229D01*
X55874064Y-28059229D01*
X55871185Y-28081098D01*
X55869979Y-28084010D01*
X55849500Y-28160436D01*
X55849383Y-28161325D01*
X55849117Y-28161863D01*
X55848668Y-28163541D01*
X55848334Y-28163451D01*
X55835450Y-28189578D01*
X51715489Y-32309540D01*
X51659541Y-32365488D01*
X51659540Y-32365488D01*
X51619979Y-32434008D01*
X51619979Y-32434010D01*
X51599500Y-32510436D01*
X51599500Y-37619749D01*
X51592935Y-37644249D01*
X51569980Y-37684008D01*
X51569978Y-37684011D01*
X51564948Y-37702783D01*
X51560053Y-37714599D01*
X51519980Y-37784008D01*
X51519978Y-37784013D01*
X51514948Y-37802783D01*
X51510053Y-37814599D01*
X51469979Y-37884008D01*
X51469979Y-37884010D01*
X51449500Y-37960436D01*
X51449500Y-37969749D01*
X51442935Y-37994249D01*
X51419980Y-38034008D01*
X51419978Y-38034011D01*
X51414948Y-38052783D01*
X51410053Y-38064599D01*
X51369980Y-38134008D01*
X51369978Y-38134013D01*
X51364948Y-38152783D01*
X51360053Y-38164599D01*
X51319980Y-38234008D01*
X51319978Y-38234013D01*
X51314948Y-38252783D01*
X51310053Y-38264599D01*
X51269980Y-38334008D01*
X51269978Y-38334013D01*
X51264948Y-38352783D01*
X51260053Y-38364599D01*
X51219980Y-38434008D01*
X51219978Y-38434013D01*
X51214948Y-38452783D01*
X51210053Y-38464599D01*
X51169979Y-38534008D01*
X51169979Y-38534010D01*
X51149500Y-38610436D01*
X51149500Y-38619749D01*
X51142935Y-38644249D01*
X51119980Y-38684008D01*
X51119978Y-38684011D01*
X51114948Y-38702783D01*
X51110053Y-38714599D01*
X51069980Y-38784008D01*
X51069978Y-38784013D01*
X51064948Y-38802783D01*
X51060053Y-38814599D01*
X51019980Y-38884008D01*
X51019978Y-38884013D01*
X51014948Y-38902783D01*
X51010053Y-38914599D01*
X50969980Y-38984008D01*
X50969978Y-38984013D01*
X50964948Y-39002783D01*
X50960053Y-39014599D01*
X50919979Y-39084008D01*
X50919979Y-39084010D01*
X50899500Y-39160436D01*
X50899500Y-39169749D01*
X50892935Y-39194249D01*
X50869980Y-39234008D01*
X50869978Y-39234011D01*
X50864948Y-39252783D01*
X50860053Y-39264599D01*
X50819980Y-39334008D01*
X50819978Y-39334013D01*
X50814948Y-39352783D01*
X50810053Y-39364599D01*
X50769980Y-39434008D01*
X50769978Y-39434013D01*
X50764948Y-39452783D01*
X50760053Y-39464599D01*
X50719980Y-39534008D01*
X50719978Y-39534013D01*
X50714948Y-39552783D01*
X50710053Y-39564599D01*
X50669979Y-39634008D01*
X50669979Y-39634010D01*
X50649500Y-39710436D01*
X50649500Y-39719749D01*
X50642935Y-39744249D01*
X50619980Y-39784008D01*
X50619978Y-39784011D01*
X50614948Y-39802783D01*
X50610053Y-39814599D01*
X50569980Y-39884008D01*
X50569978Y-39884013D01*
X50564948Y-39902783D01*
X50560053Y-39914599D01*
X50519980Y-39984008D01*
X50519978Y-39984013D01*
X50514948Y-40002783D01*
X50510053Y-40014599D01*
X50469980Y-40084008D01*
X50469978Y-40084013D01*
X50464948Y-40102783D01*
X50460053Y-40114599D01*
X50419979Y-40184008D01*
X50419979Y-40184010D01*
X50399500Y-40260436D01*
X50399500Y-40269749D01*
X50392935Y-40294249D01*
X50369980Y-40334008D01*
X50369978Y-40334011D01*
X50364948Y-40352783D01*
X50360053Y-40364599D01*
X50319980Y-40434008D01*
X50319978Y-40434013D01*
X50314948Y-40452783D01*
X50310053Y-40464599D01*
X50269980Y-40534008D01*
X50269975Y-40534019D01*
X50264946Y-40552785D01*
X50260051Y-40564601D01*
X50245074Y-40590540D01*
X50227141Y-40608474D01*
X50138734Y-40659517D01*
X50059516Y-40738736D01*
X50059515Y-40738736D01*
X50003497Y-40835760D01*
X50003496Y-40835764D01*
X49974500Y-40943978D01*
X46795726Y-40943978D01*
X46761263Y-40909515D01*
X46664239Y-40853497D01*
X46664235Y-40853496D01*
X46556021Y-40824500D01*
X46556018Y-40824500D01*
X46443982Y-40824500D01*
X46443979Y-40824500D01*
X46335764Y-40853496D01*
X46335760Y-40853497D01*
X46238736Y-40909515D01*
X46238736Y-40909516D01*
X46159516Y-40988736D01*
X46159515Y-40988736D01*
X46103497Y-41085760D01*
X46103497Y-41085762D01*
X46084726Y-41155812D01*
X46061895Y-41185565D01*
X46024713Y-41190459D01*
X46002748Y-41177777D01*
X44834513Y-40009542D01*
X44834507Y-40009537D01*
X44814008Y-39997703D01*
X44801463Y-39990460D01*
X44790297Y-39984013D01*
X44765991Y-39969979D01*
X44765987Y-39969978D01*
X44689564Y-39949500D01*
X44689562Y-39949500D01*
X41821544Y-39949500D01*
X41786896Y-39935148D01*
X41761263Y-39909515D01*
X41664239Y-39853497D01*
X41664235Y-39853496D01*
X41556021Y-39824500D01*
X41556018Y-39824500D01*
X41443982Y-39824500D01*
X41443979Y-39824500D01*
X41335764Y-39853496D01*
X41335760Y-39853497D01*
X41238736Y-39909515D01*
X41171836Y-39976415D01*
X41137188Y-39990767D01*
X41102540Y-39976415D01*
X41088188Y-39941767D01*
X41094755Y-39917264D01*
X41096503Y-39914237D01*
X41125499Y-39806021D01*
X41125500Y-39806021D01*
X41125500Y-39693979D01*
X41125499Y-39693978D01*
X41104468Y-39615489D01*
X41096503Y-39585763D01*
X41094753Y-39582733D01*
X41089857Y-39545553D01*
X41112686Y-39515798D01*
X41149867Y-39510901D01*
X41171836Y-39523584D01*
X41238737Y-39590485D01*
X41250401Y-39597219D01*
X41335760Y-39646502D01*
X41335762Y-39646502D01*
X41335763Y-39646503D01*
X41421111Y-39669371D01*
X41443978Y-39675499D01*
X41443979Y-39675500D01*
X41443982Y-39675500D01*
X41556021Y-39675500D01*
X41556021Y-39675499D01*
X41664237Y-39646503D01*
X41761263Y-39590485D01*
X41840485Y-39511263D01*
X41896503Y-39414237D01*
X41925499Y-39306021D01*
X41925500Y-39306021D01*
X41925500Y-39193979D01*
X41925499Y-39193978D01*
X41905030Y-39117586D01*
X41896503Y-39085763D01*
X41896502Y-39085762D01*
X41896502Y-39085760D01*
X41840484Y-38988736D01*
X41761263Y-38909515D01*
X41664239Y-38853497D01*
X41664235Y-38853496D01*
X41556021Y-38824500D01*
X41556018Y-38824500D01*
X41443982Y-38824500D01*
X41443979Y-38824500D01*
X41335764Y-38853496D01*
X41335760Y-38853497D01*
X41238736Y-38909515D01*
X41171836Y-38976415D01*
X41137188Y-38990767D01*
X41102540Y-38976415D01*
X41088188Y-38941767D01*
X41094755Y-38917264D01*
X41096503Y-38914237D01*
X41125499Y-38806021D01*
X41125500Y-38806021D01*
X41125500Y-38693979D01*
X41125499Y-38693978D01*
X41104602Y-38615988D01*
X41096503Y-38585763D01*
X41096502Y-38585762D01*
X41096502Y-38585760D01*
X41061369Y-38524910D01*
X41042875Y-38492878D01*
X41037981Y-38455697D01*
X41060811Y-38425944D01*
X41072629Y-38421049D01*
X41164237Y-38396503D01*
X41261263Y-38340485D01*
X41340485Y-38261263D01*
X41396503Y-38164237D01*
X41425499Y-38056021D01*
X41425500Y-38056021D01*
X41425500Y-37943979D01*
X41425499Y-37943978D01*
X41404601Y-37865986D01*
X41396503Y-37835763D01*
X41396502Y-37835762D01*
X41396502Y-37835760D01*
X41340484Y-37738736D01*
X41261263Y-37659515D01*
X41164238Y-37603497D01*
X41094187Y-37584726D01*
X41064434Y-37561895D01*
X41059540Y-37524713D01*
X41072220Y-37502750D01*
X43430992Y-35143978D01*
X43774500Y-35143978D01*
X43774500Y-35256021D01*
X43803496Y-35364235D01*
X43803497Y-35364239D01*
X43859515Y-35461263D01*
X43938737Y-35540485D01*
X43972794Y-35560148D01*
X44035760Y-35596502D01*
X44035762Y-35596502D01*
X44035763Y-35596503D01*
X44057559Y-35602343D01*
X44084693Y-35609614D01*
X44114446Y-35632444D01*
X44119341Y-35669626D01*
X44106660Y-35691592D01*
X44059514Y-35738738D01*
X44003497Y-35835760D01*
X44003496Y-35835764D01*
X43974500Y-35943978D01*
X43974500Y-36056021D01*
X44003496Y-36164235D01*
X44003497Y-36164239D01*
X44059515Y-36261263D01*
X44138737Y-36340485D01*
X44174249Y-36360988D01*
X44235760Y-36396502D01*
X44235762Y-36396502D01*
X44235763Y-36396503D01*
X44321111Y-36419371D01*
X44343978Y-36425499D01*
X44343979Y-36425500D01*
X44343982Y-36425500D01*
X44456021Y-36425500D01*
X44456021Y-36425499D01*
X44564237Y-36396503D01*
X44661263Y-36340485D01*
X44740485Y-36261263D01*
X44796503Y-36164237D01*
X44805745Y-36129741D01*
X44815273Y-36094188D01*
X44838103Y-36064435D01*
X44875285Y-36059540D01*
X44897251Y-36072222D01*
X45835148Y-37010119D01*
X45849500Y-37044767D01*
X45849500Y-37339563D01*
X45869979Y-37415989D01*
X45869979Y-37415991D01*
X45895546Y-37460273D01*
X45909251Y-37484011D01*
X45909540Y-37484511D01*
X45909542Y-37484514D01*
X46691049Y-38266021D01*
X46705401Y-38300669D01*
X46691049Y-38335317D01*
X46656401Y-38349669D01*
X46643719Y-38347999D01*
X46556021Y-38324500D01*
X46556018Y-38324500D01*
X46443982Y-38324500D01*
X46443979Y-38324500D01*
X46335764Y-38353496D01*
X46335760Y-38353497D01*
X46238736Y-38409515D01*
X46238736Y-38409516D01*
X46159516Y-38488736D01*
X46159515Y-38488736D01*
X46103497Y-38585760D01*
X46103496Y-38585764D01*
X46074500Y-38693978D01*
X46074500Y-38806021D01*
X46103496Y-38914235D01*
X46103497Y-38914239D01*
X46154619Y-39002783D01*
X46159515Y-39011263D01*
X46238737Y-39090485D01*
X46274249Y-39110988D01*
X46335760Y-39146502D01*
X46335762Y-39146502D01*
X46335763Y-39146503D01*
X46408490Y-39165990D01*
X46443978Y-39175499D01*
X46443979Y-39175500D01*
X46443982Y-39175500D01*
X46556021Y-39175500D01*
X46556021Y-39175499D01*
X46664237Y-39146503D01*
X46761263Y-39090485D01*
X46840485Y-39011263D01*
X46896503Y-38914237D01*
X46925499Y-38806021D01*
X46925500Y-38806021D01*
X46925500Y-38693980D01*
X46904602Y-38615990D01*
X46902000Y-38606279D01*
X46906894Y-38569098D01*
X46936647Y-38546268D01*
X46973830Y-38551162D01*
X46983978Y-38558950D01*
X47660148Y-39235119D01*
X47674500Y-39269767D01*
X47674500Y-39306021D01*
X47703496Y-39414235D01*
X47703497Y-39414239D01*
X47705246Y-39417267D01*
X47710141Y-39454449D01*
X47687311Y-39484202D01*
X47650129Y-39489097D01*
X47628163Y-39476415D01*
X47561263Y-39409515D01*
X47464239Y-39353497D01*
X47464235Y-39353496D01*
X47356021Y-39324500D01*
X47356018Y-39324500D01*
X47243982Y-39324500D01*
X47243979Y-39324500D01*
X47135764Y-39353496D01*
X47135760Y-39353497D01*
X47074500Y-39388866D01*
X47037317Y-39393761D01*
X47025500Y-39388866D01*
X46964239Y-39353497D01*
X46964235Y-39353496D01*
X46856021Y-39324500D01*
X46856018Y-39324500D01*
X46743982Y-39324500D01*
X46743979Y-39324500D01*
X46635764Y-39353496D01*
X46635760Y-39353497D01*
X46538736Y-39409515D01*
X46538736Y-39409516D01*
X46459516Y-39488736D01*
X46459515Y-39488736D01*
X46403497Y-39585760D01*
X46403496Y-39585764D01*
X46374500Y-39693978D01*
X46374500Y-39805518D01*
X46360148Y-39840166D01*
X46338185Y-39852848D01*
X46335762Y-39853497D01*
X46335760Y-39853497D01*
X46238736Y-39909515D01*
X46238736Y-39909516D01*
X46159516Y-39988736D01*
X46159515Y-39988736D01*
X46103497Y-40085760D01*
X46103496Y-40085764D01*
X46074500Y-40193978D01*
X46074500Y-40306021D01*
X46103496Y-40414235D01*
X46103497Y-40414239D01*
X46146717Y-40489097D01*
X46159515Y-40511263D01*
X46238737Y-40590485D01*
X46269895Y-40608474D01*
X46335760Y-40646502D01*
X46335762Y-40646502D01*
X46335763Y-40646503D01*
X46421111Y-40669371D01*
X46443978Y-40675499D01*
X46443979Y-40675500D01*
X46443982Y-40675500D01*
X46556021Y-40675500D01*
X46556021Y-40675499D01*
X46664237Y-40646503D01*
X46761263Y-40590485D01*
X46840485Y-40511263D01*
X46896503Y-40414237D01*
X46925499Y-40306021D01*
X46925500Y-40306021D01*
X46925500Y-40194481D01*
X46939852Y-40159833D01*
X46961819Y-40147150D01*
X46964237Y-40146503D01*
X47025500Y-40111131D01*
X47062681Y-40106236D01*
X47074495Y-40111129D01*
X47135763Y-40146503D01*
X47208490Y-40165990D01*
X47243978Y-40175499D01*
X47243979Y-40175500D01*
X47243982Y-40175500D01*
X47356021Y-40175500D01*
X47356021Y-40175499D01*
X47464237Y-40146503D01*
X47561263Y-40090485D01*
X47640485Y-40011263D01*
X47696503Y-39914237D01*
X47725499Y-39806021D01*
X47725500Y-39806021D01*
X47725500Y-39693979D01*
X47725499Y-39693978D01*
X47704468Y-39615489D01*
X47696503Y-39585763D01*
X47694753Y-39582733D01*
X47689857Y-39545553D01*
X47712686Y-39515798D01*
X47749867Y-39510901D01*
X47771836Y-39523584D01*
X47838737Y-39590485D01*
X47850401Y-39597219D01*
X47935760Y-39646502D01*
X47935762Y-39646502D01*
X47935763Y-39646503D01*
X48021111Y-39669371D01*
X48043978Y-39675499D01*
X48043979Y-39675500D01*
X48043982Y-39675500D01*
X48156021Y-39675500D01*
X48156021Y-39675499D01*
X48264237Y-39646503D01*
X48361263Y-39590485D01*
X48440485Y-39511263D01*
X48496503Y-39414237D01*
X48525499Y-39306021D01*
X48525500Y-39306021D01*
X48525500Y-39193979D01*
X48525499Y-39193978D01*
X48505030Y-39117586D01*
X48496503Y-39085763D01*
X48496502Y-39085762D01*
X48496502Y-39085760D01*
X48440484Y-38988736D01*
X48361263Y-38909515D01*
X48264239Y-38853497D01*
X48264235Y-38853496D01*
X48156021Y-38824500D01*
X48156018Y-38824500D01*
X48119767Y-38824500D01*
X48085119Y-38810148D01*
X46464852Y-37189881D01*
X46450500Y-37155233D01*
X46450500Y-36860436D01*
X46441843Y-36828134D01*
X46430021Y-36784011D01*
X46430020Y-36784009D01*
X46430020Y-36784008D01*
X46390459Y-36715488D01*
X44984511Y-35309540D01*
X44915990Y-35269979D01*
X44897217Y-35264948D01*
X44885405Y-35260055D01*
X44867124Y-35249502D01*
X44867121Y-35249500D01*
X44815990Y-35219979D01*
X44797217Y-35214948D01*
X44785405Y-35210055D01*
X44767124Y-35199502D01*
X44767121Y-35199500D01*
X44715991Y-35169979D01*
X44715987Y-35169978D01*
X44653330Y-35153188D01*
X44623577Y-35130357D01*
X44618683Y-35118540D01*
X44596503Y-35035763D01*
X44596502Y-35035760D01*
X44540484Y-34938736D01*
X44461263Y-34859515D01*
X44364239Y-34803497D01*
X44364235Y-34803496D01*
X44256021Y-34774500D01*
X44256018Y-34774500D01*
X44143982Y-34774500D01*
X44143979Y-34774500D01*
X44035764Y-34803496D01*
X44035760Y-34803497D01*
X43938736Y-34859515D01*
X43938736Y-34859516D01*
X43859516Y-34938736D01*
X43859515Y-34938736D01*
X43803497Y-35035760D01*
X43803496Y-35035764D01*
X43774500Y-35143978D01*
X43430992Y-35143978D01*
X48710119Y-29864852D01*
X48744767Y-29850500D01*
X49235690Y-29850500D01*
X49270338Y-29864852D01*
X49284690Y-29899500D01*
X49283020Y-29912182D01*
X49274500Y-29943978D01*
X49274500Y-30056021D01*
X49303496Y-30164235D01*
X49303497Y-30164239D01*
X49358506Y-30259515D01*
X49359515Y-30261263D01*
X49438737Y-30340485D01*
X49474249Y-30360988D01*
X49535760Y-30396502D01*
X49535762Y-30396502D01*
X49535763Y-30396503D01*
X49621111Y-30419371D01*
X49643978Y-30425499D01*
X49643979Y-30425500D01*
X49643982Y-30425500D01*
X49756021Y-30425500D01*
X49756021Y-30425499D01*
X49864237Y-30396503D01*
X49961263Y-30340485D01*
X50040485Y-30261263D01*
X50096503Y-30164237D01*
X50125499Y-30056021D01*
X50125500Y-30056021D01*
X50125500Y-29943979D01*
X50125499Y-29943978D01*
X50096503Y-29835764D01*
X50096502Y-29835760D01*
X50053281Y-29760901D01*
X50040485Y-29738737D01*
X49961263Y-29659515D01*
X49961259Y-29659513D01*
X49961257Y-29659511D01*
X49940372Y-29647453D01*
X49924125Y-29638073D01*
X49901296Y-29608321D01*
X49906191Y-29571139D01*
X49913974Y-29560995D01*
X56130991Y-23343978D01*
X59574500Y-23343978D01*
X59574500Y-23456021D01*
X59603496Y-23564235D01*
X59603497Y-23564239D01*
X59659515Y-23661263D01*
X59738737Y-23740485D01*
X59774249Y-23760988D01*
X59835760Y-23796502D01*
X59835762Y-23796502D01*
X59835763Y-23796503D01*
X59864769Y-23804275D01*
X59943978Y-23825499D01*
X59943979Y-23825500D01*
X59943982Y-23825500D01*
X60056021Y-23825500D01*
X60056021Y-23825499D01*
X60164237Y-23796503D01*
X60261263Y-23740485D01*
X60340485Y-23661263D01*
X60396503Y-23564237D01*
X60425499Y-23456021D01*
X60425500Y-23456021D01*
X60425500Y-23343979D01*
X60425499Y-23343978D01*
X60403336Y-23261264D01*
X60396503Y-23235763D01*
X60396502Y-23235762D01*
X60396502Y-23235760D01*
X60360988Y-23174249D01*
X60340485Y-23138737D01*
X60261263Y-23059515D01*
X60228259Y-23040460D01*
X60164239Y-23003497D01*
X60164235Y-23003496D01*
X60056021Y-22974500D01*
X60056018Y-22974500D01*
X59943982Y-22974500D01*
X59943979Y-22974500D01*
X59835764Y-23003496D01*
X59835760Y-23003497D01*
X59738736Y-23059515D01*
X59738736Y-23059516D01*
X59659516Y-23138736D01*
X59659515Y-23138736D01*
X59603497Y-23235760D01*
X59603496Y-23235764D01*
X59574500Y-23343978D01*
X56130991Y-23343978D01*
X56377966Y-23097003D01*
X56399929Y-23084324D01*
X56415989Y-23080021D01*
X56484511Y-23040460D01*
X56484516Y-23040454D01*
X56485401Y-23039944D01*
X56497214Y-23035051D01*
X56515989Y-23030021D01*
X56584511Y-22990460D01*
X56584516Y-22990454D01*
X56585401Y-22989944D01*
X56597214Y-22985051D01*
X56615989Y-22980021D01*
X56684511Y-22940460D01*
X56684516Y-22940454D01*
X56685401Y-22939944D01*
X56697214Y-22935051D01*
X56715989Y-22930021D01*
X56784511Y-22890460D01*
X56784516Y-22890454D01*
X56785401Y-22889944D01*
X56797214Y-22885051D01*
X56815989Y-22880021D01*
X56855750Y-22857064D01*
X56880250Y-22850500D01*
X56889564Y-22850500D01*
X56944571Y-22835760D01*
X56965989Y-22830021D01*
X57034511Y-22790460D01*
X57034516Y-22790454D01*
X57035401Y-22789944D01*
X57047214Y-22785051D01*
X57065989Y-22780021D01*
X57134511Y-22740460D01*
X57134516Y-22740454D01*
X57135401Y-22739944D01*
X57147214Y-22735051D01*
X57165989Y-22730021D01*
X57234511Y-22690460D01*
X57234516Y-22690454D01*
X57235401Y-22689944D01*
X57247214Y-22685051D01*
X57265989Y-22680021D01*
X57334511Y-22640460D01*
X57334516Y-22640454D01*
X57335401Y-22639944D01*
X57347214Y-22635051D01*
X57365989Y-22630021D01*
X57434511Y-22590460D01*
X57434516Y-22590454D01*
X57435401Y-22589944D01*
X57447214Y-22585051D01*
X57465989Y-22580021D01*
X57505750Y-22557064D01*
X57530250Y-22550500D01*
X57539564Y-22550500D01*
X57590513Y-22536847D01*
X57615989Y-22530021D01*
X57684511Y-22490460D01*
X57684516Y-22490454D01*
X57685401Y-22489944D01*
X57697214Y-22485051D01*
X57715989Y-22480021D01*
X57784511Y-22440460D01*
X57784516Y-22440454D01*
X57785401Y-22439944D01*
X57797214Y-22435051D01*
X57815989Y-22430021D01*
X57884511Y-22390460D01*
X57884516Y-22390454D01*
X57885401Y-22389944D01*
X57897214Y-22385051D01*
X57915989Y-22380021D01*
X57984511Y-22340460D01*
X57984516Y-22340454D01*
X57985401Y-22339944D01*
X57997214Y-22335051D01*
X58015989Y-22330021D01*
X58055750Y-22307064D01*
X58080250Y-22300500D01*
X58089564Y-22300500D01*
X58140513Y-22286847D01*
X58165989Y-22280021D01*
X58234511Y-22240460D01*
X58234516Y-22240454D01*
X58235401Y-22239944D01*
X58247214Y-22235051D01*
X58265989Y-22230021D01*
X58334511Y-22190460D01*
X58334516Y-22190454D01*
X58335401Y-22189944D01*
X58347214Y-22185051D01*
X58365989Y-22180021D01*
X58428418Y-22143978D01*
X59374500Y-22143978D01*
X59374500Y-22256021D01*
X59403496Y-22364235D01*
X59403497Y-22364239D01*
X59447206Y-22439944D01*
X59459515Y-22461263D01*
X59538737Y-22540485D01*
X59571741Y-22559540D01*
X59635760Y-22596502D01*
X59635762Y-22596502D01*
X59635763Y-22596503D01*
X59721111Y-22619371D01*
X59743978Y-22625499D01*
X59743979Y-22625500D01*
X59743982Y-22625500D01*
X59856021Y-22625500D01*
X59856021Y-22625499D01*
X59964237Y-22596503D01*
X60061263Y-22540485D01*
X60140485Y-22461263D01*
X60193188Y-22369979D01*
X60196502Y-22364239D01*
X60196502Y-22364238D01*
X60196503Y-22364237D01*
X60225499Y-22256021D01*
X60225500Y-22256021D01*
X60225500Y-22143979D01*
X60225499Y-22143978D01*
X60208362Y-22080021D01*
X60196503Y-22035763D01*
X60196502Y-22035762D01*
X60196502Y-22035760D01*
X60146699Y-21949500D01*
X60140485Y-21938737D01*
X60061263Y-21859515D01*
X60028259Y-21840460D01*
X59964239Y-21803497D01*
X59964235Y-21803496D01*
X59856021Y-21774500D01*
X59856018Y-21774500D01*
X59743982Y-21774500D01*
X59743979Y-21774500D01*
X59635764Y-21803496D01*
X59635760Y-21803497D01*
X59538736Y-21859515D01*
X59538736Y-21859516D01*
X59459516Y-21938736D01*
X59459515Y-21938736D01*
X59403497Y-22035760D01*
X59403496Y-22035764D01*
X59374500Y-22143978D01*
X58428418Y-22143978D01*
X58434511Y-22140460D01*
X58434516Y-22140454D01*
X58435401Y-22139944D01*
X58438453Y-22138323D01*
X58442673Y-22136268D01*
X58465989Y-22130021D01*
X58534511Y-22090460D01*
X58534516Y-22090454D01*
X58535401Y-22089944D01*
X58547214Y-22085051D01*
X58565989Y-22080021D01*
X58605750Y-22057064D01*
X58630250Y-22050500D01*
X58639564Y-22050500D01*
X58694571Y-22035760D01*
X58715989Y-22030021D01*
X58784511Y-21990460D01*
X58784516Y-21990454D01*
X58785401Y-21989944D01*
X58797214Y-21985051D01*
X58815989Y-21980021D01*
X58884511Y-21940460D01*
X58884516Y-21940454D01*
X58885401Y-21939944D01*
X58897214Y-21935051D01*
X58915989Y-21930021D01*
X58984511Y-21890460D01*
X58984516Y-21890454D01*
X58985401Y-21889944D01*
X58997214Y-21885051D01*
X59015989Y-21880021D01*
X59084511Y-21840460D01*
X59084516Y-21840454D01*
X59085401Y-21839944D01*
X59097214Y-21835051D01*
X59115989Y-21830021D01*
X59155750Y-21807064D01*
X59180250Y-21800500D01*
X59189564Y-21800500D01*
X59240513Y-21786847D01*
X59265989Y-21780021D01*
X59334511Y-21740460D01*
X59334516Y-21740454D01*
X59335401Y-21739944D01*
X59347214Y-21735051D01*
X59365989Y-21730021D01*
X59434511Y-21690460D01*
X59434516Y-21690454D01*
X59435401Y-21689944D01*
X59447214Y-21685051D01*
X59465989Y-21680021D01*
X59534511Y-21640460D01*
X59534516Y-21640454D01*
X59535401Y-21639944D01*
X59547214Y-21635051D01*
X59565989Y-21630021D01*
X59610182Y-21604505D01*
X59647359Y-21599610D01*
X59684418Y-21609540D01*
X59743980Y-21625500D01*
X59743982Y-21625500D01*
X59856021Y-21625500D01*
X59856021Y-21625499D01*
X59964237Y-21596503D01*
X60061263Y-21540485D01*
X60140485Y-21461263D01*
X60193188Y-21369979D01*
X60196502Y-21364239D01*
X60196502Y-21364238D01*
X60196503Y-21364237D01*
X60225499Y-21256021D01*
X60225500Y-21256021D01*
X60225500Y-21143979D01*
X60225499Y-21143978D01*
X60205671Y-21069978D01*
X60196503Y-21035763D01*
X60196502Y-21035762D01*
X60196502Y-21035760D01*
X60160988Y-20974249D01*
X60140485Y-20938737D01*
X60061263Y-20859515D01*
X59964239Y-20803497D01*
X59964235Y-20803496D01*
X59856021Y-20774500D01*
X59856018Y-20774500D01*
X59743982Y-20774500D01*
X59743979Y-20774500D01*
X59635764Y-20803496D01*
X59635760Y-20803497D01*
X59538736Y-20859515D01*
X59538736Y-20859516D01*
X59459518Y-20938733D01*
X59459509Y-20938745D01*
X59427989Y-20993336D01*
X59398240Y-21016165D01*
X59384010Y-21019978D01*
X59384009Y-21019979D01*
X59314599Y-21060053D01*
X59302782Y-21064948D01*
X59284013Y-21069977D01*
X59284009Y-21069979D01*
X59214599Y-21110053D01*
X59202782Y-21114948D01*
X59184013Y-21119977D01*
X59184009Y-21119979D01*
X59114599Y-21160053D01*
X59102782Y-21164948D01*
X59084013Y-21169977D01*
X59069107Y-21178583D01*
X59044248Y-21192935D01*
X59019750Y-21199500D01*
X59010435Y-21199500D01*
X58934013Y-21219977D01*
X58934009Y-21219978D01*
X58864599Y-21260053D01*
X58852782Y-21264948D01*
X58834013Y-21269977D01*
X58834009Y-21269979D01*
X58764599Y-21310053D01*
X58752782Y-21314948D01*
X58734013Y-21319977D01*
X58734009Y-21319979D01*
X58664599Y-21360053D01*
X58652782Y-21364948D01*
X58634013Y-21369977D01*
X58634009Y-21369979D01*
X58564599Y-21410053D01*
X58552782Y-21414948D01*
X58534013Y-21419977D01*
X58519107Y-21428583D01*
X58494248Y-21442935D01*
X58469750Y-21449500D01*
X58460435Y-21449500D01*
X58384013Y-21469977D01*
X58384009Y-21469978D01*
X58314599Y-21510053D01*
X58302782Y-21514948D01*
X58284013Y-21519977D01*
X58284009Y-21519979D01*
X58214599Y-21560053D01*
X58202782Y-21564948D01*
X58184013Y-21569977D01*
X58184009Y-21569979D01*
X58114599Y-21610053D01*
X58102782Y-21614948D01*
X58084013Y-21619977D01*
X58084009Y-21619979D01*
X58014599Y-21660053D01*
X58002782Y-21664948D01*
X57984013Y-21669977D01*
X57969107Y-21678583D01*
X57944248Y-21692935D01*
X57919750Y-21699500D01*
X57910435Y-21699500D01*
X57834013Y-21719977D01*
X57834009Y-21719978D01*
X57764599Y-21760053D01*
X57752782Y-21764948D01*
X57734013Y-21769977D01*
X57734009Y-21769979D01*
X57664599Y-21810053D01*
X57652782Y-21814948D01*
X57634013Y-21819977D01*
X57634009Y-21819979D01*
X57564599Y-21860053D01*
X57552782Y-21864948D01*
X57534013Y-21869977D01*
X57534009Y-21869979D01*
X57464599Y-21910053D01*
X57452782Y-21914948D01*
X57434013Y-21919977D01*
X57420379Y-21927849D01*
X57394248Y-21942935D01*
X57369750Y-21949500D01*
X57360435Y-21949500D01*
X57284013Y-21969977D01*
X57284009Y-21969978D01*
X57214599Y-22010053D01*
X57202782Y-22014948D01*
X57184013Y-22019977D01*
X57184009Y-22019979D01*
X57114599Y-22060053D01*
X57102782Y-22064948D01*
X57084013Y-22069977D01*
X57084009Y-22069979D01*
X57014599Y-22110053D01*
X57002782Y-22114948D01*
X56984013Y-22119977D01*
X56984009Y-22119979D01*
X56914599Y-22160053D01*
X56902782Y-22164948D01*
X56884013Y-22169977D01*
X56884009Y-22169979D01*
X56814599Y-22210053D01*
X56802782Y-22214948D01*
X56784013Y-22219977D01*
X56769107Y-22228583D01*
X56744248Y-22242935D01*
X56719750Y-22249500D01*
X56710435Y-22249500D01*
X56634013Y-22269977D01*
X56634009Y-22269978D01*
X56564599Y-22310053D01*
X56552782Y-22314948D01*
X56534013Y-22319977D01*
X56534009Y-22319979D01*
X56464599Y-22360053D01*
X56452782Y-22364948D01*
X56434013Y-22369977D01*
X56434009Y-22369979D01*
X56364599Y-22410053D01*
X56352782Y-22414948D01*
X56334013Y-22419977D01*
X56334009Y-22419979D01*
X56264599Y-22460053D01*
X56252782Y-22464948D01*
X56234013Y-22469977D01*
X56234009Y-22469979D01*
X56164599Y-22510053D01*
X56152783Y-22514948D01*
X56134013Y-22519978D01*
X56134008Y-22519980D01*
X56065488Y-22559540D01*
X50197251Y-28427777D01*
X50162603Y-28442129D01*
X50127955Y-28427777D01*
X50115273Y-28405811D01*
X50097698Y-28340222D01*
X50096503Y-28335763D01*
X50096502Y-28335762D01*
X50096502Y-28335760D01*
X50040484Y-28238736D01*
X49961263Y-28159515D01*
X49864239Y-28103497D01*
X49864235Y-28103496D01*
X49756021Y-28074500D01*
X49756018Y-28074500D01*
X49643982Y-28074500D01*
X49643979Y-28074500D01*
X49535764Y-28103496D01*
X49535760Y-28103497D01*
X49438736Y-28159515D01*
X49438736Y-28159516D01*
X49359516Y-28238736D01*
X49359515Y-28238736D01*
X49303497Y-28335760D01*
X49303496Y-28335764D01*
X49274500Y-28443978D01*
X49274500Y-28556021D01*
X49303496Y-28664235D01*
X49303497Y-28664239D01*
X49359515Y-28761263D01*
X49438737Y-28840485D01*
X49474249Y-28860988D01*
X49535760Y-28896502D01*
X49535762Y-28896502D01*
X49535763Y-28896503D01*
X49553010Y-28901124D01*
X49605811Y-28915273D01*
X49635564Y-28938103D01*
X49640459Y-28975285D01*
X49627777Y-28997251D01*
X49489578Y-29135450D01*
X49463451Y-29148334D01*
X49463541Y-29148668D01*
X49461863Y-29149117D01*
X49461325Y-29149383D01*
X49460436Y-29149500D01*
X49384010Y-29169979D01*
X49384008Y-29169979D01*
X49314599Y-29210053D01*
X49302783Y-29214948D01*
X49284013Y-29219978D01*
X49284008Y-29219980D01*
X49244250Y-29242935D01*
X49219750Y-29249500D01*
X48560436Y-29249500D01*
X48484012Y-29269978D01*
X48477767Y-29273584D01*
X48466618Y-29280021D01*
X48453835Y-29287400D01*
X48415492Y-29309537D01*
X48415486Y-29309542D01*
X45035257Y-32689771D01*
X45000609Y-32704123D01*
X44965961Y-32689771D01*
X44951609Y-32655123D01*
X44958172Y-32630627D01*
X44996503Y-32564237D01*
X45025499Y-32456021D01*
X45025500Y-32456021D01*
X45025500Y-32343979D01*
X45025499Y-32343978D01*
X45005671Y-32269978D01*
X44996503Y-32235763D01*
X44996502Y-32235762D01*
X44996502Y-32235760D01*
X44952791Y-32160052D01*
X44940485Y-32138737D01*
X44861263Y-32059515D01*
X44861261Y-32059514D01*
X44764239Y-32003497D01*
X44764235Y-32003496D01*
X44656021Y-31974500D01*
X44656018Y-31974500D01*
X44543982Y-31974500D01*
X44543979Y-31974500D01*
X44435764Y-32003496D01*
X44435760Y-32003497D01*
X44338738Y-32059514D01*
X44274997Y-32123254D01*
X44264849Y-32131040D01*
X44214600Y-32160052D01*
X44202784Y-32164947D01*
X44184012Y-32169977D01*
X44184009Y-32169979D01*
X44114599Y-32210053D01*
X44102782Y-32214948D01*
X44084013Y-32219977D01*
X44069107Y-32228583D01*
X44044248Y-32242935D01*
X44019750Y-32249500D01*
X44010435Y-32249500D01*
X43934013Y-32269977D01*
X43934009Y-32269978D01*
X43864599Y-32310053D01*
X43852782Y-32314948D01*
X43834013Y-32319977D01*
X43834009Y-32319979D01*
X43764599Y-32360053D01*
X43752782Y-32364948D01*
X43734013Y-32369977D01*
X43734009Y-32369979D01*
X43664599Y-32410053D01*
X43652782Y-32414948D01*
X43634013Y-32419977D01*
X43634009Y-32419979D01*
X43564599Y-32460053D01*
X43552782Y-32464948D01*
X43534013Y-32469977D01*
X43519107Y-32478583D01*
X43494248Y-32492935D01*
X43469750Y-32499500D01*
X43460435Y-32499500D01*
X43384013Y-32519977D01*
X43384009Y-32519978D01*
X43314599Y-32560053D01*
X43302782Y-32564948D01*
X43284013Y-32569977D01*
X43284009Y-32569979D01*
X43214599Y-32610053D01*
X43202782Y-32614948D01*
X43184013Y-32619977D01*
X43184009Y-32619979D01*
X43114599Y-32660053D01*
X43102782Y-32664948D01*
X43084013Y-32669977D01*
X43084009Y-32669979D01*
X43014599Y-32710053D01*
X43002782Y-32714948D01*
X42984013Y-32719977D01*
X42969107Y-32728583D01*
X42944248Y-32742935D01*
X42919750Y-32749500D01*
X42910435Y-32749500D01*
X42834013Y-32769977D01*
X42834009Y-32769978D01*
X42764599Y-32810053D01*
X42752782Y-32814948D01*
X42734013Y-32819977D01*
X42734009Y-32819979D01*
X42664599Y-32860053D01*
X42652782Y-32864948D01*
X42634013Y-32869977D01*
X42634009Y-32869979D01*
X42564599Y-32910053D01*
X42552782Y-32914948D01*
X42534013Y-32919977D01*
X42534009Y-32919979D01*
X42464599Y-32960053D01*
X42452782Y-32964948D01*
X42434013Y-32969977D01*
X42419107Y-32978583D01*
X42394248Y-32992935D01*
X42369750Y-32999500D01*
X42360435Y-32999500D01*
X42284013Y-33019977D01*
X42284009Y-33019978D01*
X42214599Y-33060053D01*
X42202782Y-33064948D01*
X42184013Y-33069977D01*
X42184009Y-33069979D01*
X42114599Y-33110053D01*
X42102782Y-33114948D01*
X42084013Y-33119977D01*
X42084009Y-33119979D01*
X42014599Y-33160053D01*
X42002782Y-33164948D01*
X41984013Y-33169977D01*
X41984009Y-33169979D01*
X41914599Y-33210053D01*
X41902782Y-33214948D01*
X41884013Y-33219977D01*
X41869107Y-33228583D01*
X41844248Y-33242935D01*
X41819750Y-33249500D01*
X41810435Y-33249500D01*
X41734013Y-33269977D01*
X41734009Y-33269978D01*
X41664599Y-33310053D01*
X41652782Y-33314948D01*
X41634013Y-33319977D01*
X41634009Y-33319979D01*
X41564599Y-33360053D01*
X41552782Y-33364948D01*
X41534013Y-33369977D01*
X41534009Y-33369979D01*
X41464599Y-33410053D01*
X41452783Y-33414948D01*
X41434013Y-33419978D01*
X41434008Y-33419980D01*
X41381147Y-33450500D01*
X41377232Y-33452760D01*
X41365492Y-33459537D01*
X41365486Y-33459542D01*
X41322033Y-33502994D01*
X41300070Y-33515675D01*
X41284013Y-33519978D01*
X41284008Y-33519980D01*
X41231147Y-33550500D01*
X41227232Y-33552760D01*
X41215492Y-33559537D01*
X41215486Y-33559542D01*
X39214881Y-35560148D01*
X39180233Y-35574500D01*
X39143979Y-35574500D01*
X39035764Y-35603496D01*
X39035760Y-35603497D01*
X38938736Y-35659515D01*
X38938736Y-35659516D01*
X38859516Y-35738736D01*
X38859515Y-35738736D01*
X38803497Y-35835760D01*
X38803496Y-35835764D01*
X38774500Y-35943978D01*
X38774500Y-36056021D01*
X38803496Y-36164235D01*
X38803497Y-36164239D01*
X38859515Y-36261263D01*
X38938737Y-36340485D01*
X38974249Y-36360988D01*
X39035760Y-36396502D01*
X39035762Y-36396502D01*
X39035763Y-36396503D01*
X39121111Y-36419371D01*
X39143978Y-36425499D01*
X39143979Y-36425500D01*
X39143982Y-36425500D01*
X39256021Y-36425500D01*
X39256021Y-36425499D01*
X39364237Y-36396503D01*
X39461263Y-36340485D01*
X39540485Y-36261263D01*
X39596503Y-36164237D01*
X39625499Y-36056021D01*
X39625500Y-36056021D01*
X39625500Y-36019766D01*
X39639851Y-35985119D01*
X41527966Y-34097003D01*
X41549929Y-34084324D01*
X41565989Y-34080021D01*
X41634511Y-34040460D01*
X41677964Y-33997005D01*
X41699929Y-33984324D01*
X41715989Y-33980021D01*
X41784511Y-33940460D01*
X41784516Y-33940454D01*
X41785401Y-33939944D01*
X41797214Y-33935051D01*
X41815989Y-33930021D01*
X41884511Y-33890460D01*
X41884516Y-33890454D01*
X41885401Y-33889944D01*
X41897214Y-33885051D01*
X41915989Y-33880021D01*
X41955750Y-33857064D01*
X41980250Y-33850500D01*
X41989564Y-33850500D01*
X42040513Y-33836847D01*
X42065989Y-33830021D01*
X42134511Y-33790460D01*
X42134516Y-33790454D01*
X42135401Y-33789944D01*
X42147214Y-33785051D01*
X42165989Y-33780021D01*
X42234511Y-33740460D01*
X42234516Y-33740454D01*
X42235401Y-33739944D01*
X42247214Y-33735051D01*
X42265989Y-33730021D01*
X42334511Y-33690460D01*
X42334516Y-33690454D01*
X42335401Y-33689944D01*
X42347214Y-33685051D01*
X42365989Y-33680021D01*
X42434511Y-33640460D01*
X42434516Y-33640454D01*
X42435401Y-33639944D01*
X42447214Y-33635051D01*
X42465989Y-33630021D01*
X42505750Y-33607064D01*
X42530250Y-33600500D01*
X42539564Y-33600500D01*
X42590513Y-33586847D01*
X42615989Y-33580021D01*
X42684511Y-33540460D01*
X42684516Y-33540454D01*
X42685401Y-33539944D01*
X42697214Y-33535051D01*
X42715989Y-33530021D01*
X42784511Y-33490460D01*
X42784516Y-33490454D01*
X42785401Y-33489944D01*
X42797214Y-33485051D01*
X42815989Y-33480021D01*
X42884511Y-33440460D01*
X42884516Y-33440454D01*
X42885401Y-33439944D01*
X42897214Y-33435051D01*
X42915989Y-33430021D01*
X42984511Y-33390460D01*
X42984516Y-33390454D01*
X42985401Y-33389944D01*
X42997214Y-33385051D01*
X43015989Y-33380021D01*
X43055750Y-33357064D01*
X43080250Y-33350500D01*
X43089564Y-33350500D01*
X43140513Y-33336847D01*
X43165989Y-33330021D01*
X43234511Y-33290460D01*
X43234516Y-33290454D01*
X43235401Y-33289944D01*
X43247214Y-33285051D01*
X43265989Y-33280021D01*
X43334511Y-33240460D01*
X43334516Y-33240454D01*
X43335401Y-33239944D01*
X43347214Y-33235051D01*
X43365989Y-33230021D01*
X43434511Y-33190460D01*
X43434516Y-33190454D01*
X43435401Y-33189944D01*
X43447214Y-33185051D01*
X43465989Y-33180021D01*
X43534511Y-33140460D01*
X43534516Y-33140454D01*
X43535401Y-33139944D01*
X43547214Y-33135051D01*
X43565989Y-33130021D01*
X43605750Y-33107064D01*
X43630250Y-33100500D01*
X43639564Y-33100500D01*
X43690513Y-33086847D01*
X43715989Y-33080021D01*
X43784511Y-33040460D01*
X43784516Y-33040454D01*
X43785401Y-33039944D01*
X43797214Y-33035051D01*
X43815989Y-33030021D01*
X43884511Y-32990460D01*
X43884516Y-32990454D01*
X43885401Y-32989944D01*
X43897214Y-32985051D01*
X43915989Y-32980021D01*
X43984511Y-32940460D01*
X43984516Y-32940454D01*
X43985401Y-32939944D01*
X43997214Y-32935051D01*
X44015989Y-32930021D01*
X44084511Y-32890460D01*
X44084516Y-32890454D01*
X44085401Y-32889944D01*
X44097214Y-32885051D01*
X44115989Y-32880021D01*
X44155750Y-32857064D01*
X44180250Y-32850500D01*
X44189564Y-32850500D01*
X44246448Y-32835257D01*
X44265989Y-32830021D01*
X44334511Y-32790460D01*
X44334516Y-32790454D01*
X44335401Y-32789944D01*
X44347214Y-32785051D01*
X44365989Y-32780021D01*
X44365995Y-32780017D01*
X44367667Y-32779325D01*
X44368586Y-32779324D01*
X44369094Y-32779189D01*
X44369130Y-32779324D01*
X44405170Y-32779324D01*
X44410920Y-32782160D01*
X44435763Y-32796503D01*
X44504601Y-32814948D01*
X44543978Y-32825499D01*
X44543979Y-32825500D01*
X44543982Y-32825500D01*
X44656021Y-32825500D01*
X44656021Y-32825499D01*
X44764237Y-32796503D01*
X44830625Y-32758173D01*
X44867804Y-32753278D01*
X44897558Y-32776108D01*
X44902454Y-32813290D01*
X44889771Y-32835257D01*
X40365489Y-37359540D01*
X40309541Y-37415488D01*
X40309540Y-37415488D01*
X40269980Y-37484008D01*
X40269978Y-37484013D01*
X40264948Y-37502783D01*
X40260053Y-37514599D01*
X40219980Y-37584008D01*
X40219978Y-37584013D01*
X40214948Y-37602783D01*
X40210053Y-37614599D01*
X40169979Y-37684008D01*
X40169979Y-37684010D01*
X40149500Y-37760436D01*
X40149500Y-38005233D01*
X40135148Y-38039881D01*
X40009541Y-38165488D01*
X40009540Y-38165488D01*
X39969980Y-38234008D01*
X39969978Y-38234013D01*
X39964948Y-38252783D01*
X39960053Y-38264599D01*
X39919980Y-38334008D01*
X39919978Y-38334013D01*
X39914948Y-38352783D01*
X39910053Y-38364599D01*
X39869979Y-38434008D01*
X39869979Y-38434010D01*
X39849500Y-38510436D01*
X39849500Y-38855233D01*
X39835148Y-38889881D01*
X39309541Y-39415488D01*
X39309540Y-39415488D01*
X39269980Y-39484008D01*
X39269978Y-39484013D01*
X39264948Y-39502783D01*
X39260053Y-39514599D01*
X39219980Y-39584008D01*
X39219978Y-39584013D01*
X39214948Y-39602783D01*
X39210053Y-39614599D01*
X39169979Y-39684008D01*
X39169979Y-39684010D01*
X39149500Y-39760436D01*
X39149500Y-40505233D01*
X39135148Y-40539881D01*
X34114881Y-45560148D01*
X34080233Y-45574500D01*
X34043979Y-45574500D01*
X33935764Y-45603496D01*
X33935760Y-45603497D01*
X33838736Y-45659515D01*
X33771834Y-45726417D01*
X33737186Y-45740769D01*
X33702538Y-45726417D01*
X33688186Y-45691769D01*
X33694751Y-45667268D01*
X33696502Y-45664237D01*
X33725498Y-45556021D01*
X33725499Y-45556021D01*
X33725499Y-45443979D01*
X33725498Y-45443978D01*
X33716270Y-45409540D01*
X33696502Y-45335763D01*
X33696501Y-45335762D01*
X33696501Y-45335760D01*
X33640483Y-45238736D01*
X33561262Y-45159515D01*
X33464238Y-45103497D01*
X33464234Y-45103496D01*
X33356020Y-45074500D01*
X33356017Y-45074500D01*
X33243981Y-45074500D01*
X33243978Y-45074500D01*
X33135763Y-45103496D01*
X33135759Y-45103497D01*
X33038735Y-45159515D01*
X33038735Y-45159516D01*
X32959515Y-45238736D01*
X32959514Y-45238736D01*
X32903496Y-45335760D01*
X32903495Y-45335764D01*
X32874499Y-45443978D01*
X29130992Y-45443978D01*
X29727966Y-44847003D01*
X29749929Y-44834324D01*
X29765989Y-44830021D01*
X29834511Y-44790460D01*
X29834516Y-44790454D01*
X29835401Y-44789944D01*
X29847214Y-44785051D01*
X29865989Y-44780021D01*
X29905750Y-44757064D01*
X29930250Y-44750500D01*
X30628456Y-44750500D01*
X30663104Y-44764852D01*
X30738737Y-44840485D01*
X30750030Y-44847005D01*
X30835760Y-44896502D01*
X30835762Y-44896502D01*
X30835763Y-44896503D01*
X30921111Y-44919371D01*
X30943978Y-44925499D01*
X30943979Y-44925500D01*
X30943982Y-44925500D01*
X31056021Y-44925500D01*
X31056021Y-44925499D01*
X31164237Y-44896503D01*
X31261263Y-44840485D01*
X31340485Y-44761263D01*
X31396503Y-44664237D01*
X31425499Y-44556021D01*
X31425500Y-44556021D01*
X31425500Y-44443979D01*
X31425499Y-44443978D01*
X31396503Y-44335764D01*
X31396502Y-44335760D01*
X31352792Y-44260053D01*
X31340485Y-44238737D01*
X31261263Y-44159515D01*
X31232546Y-44142935D01*
X31164239Y-44103497D01*
X31164235Y-44103496D01*
X31056021Y-44074500D01*
X31056018Y-44074500D01*
X30943982Y-44074500D01*
X30943979Y-44074500D01*
X30835764Y-44103496D01*
X30835760Y-44103497D01*
X30767454Y-44142935D01*
X30742954Y-44149500D01*
X29760435Y-44149500D01*
X29684013Y-44169977D01*
X29684009Y-44169978D01*
X29614599Y-44210053D01*
X29602782Y-44214948D01*
X29584013Y-44219977D01*
X29584009Y-44219979D01*
X29514599Y-44260053D01*
X29502783Y-44264948D01*
X29484013Y-44269978D01*
X29484008Y-44269980D01*
X29415488Y-44309540D01*
X29415487Y-44309541D01*
X28372035Y-45352992D01*
X28350072Y-45365674D01*
X28334010Y-45369978D01*
X28334009Y-45369979D01*
X28264599Y-45410053D01*
X28252782Y-45414948D01*
X28234013Y-45419977D01*
X28219107Y-45428583D01*
X28194248Y-45442935D01*
X28169750Y-45449500D01*
X28160435Y-45449500D01*
X28084013Y-45469977D01*
X28084009Y-45469978D01*
X28014599Y-45510053D01*
X28002782Y-45514948D01*
X27984013Y-45519977D01*
X27984009Y-45519979D01*
X27914599Y-45560053D01*
X27902782Y-45564948D01*
X27884013Y-45569977D01*
X27884009Y-45569979D01*
X27814599Y-45610053D01*
X27802782Y-45614948D01*
X27784013Y-45619977D01*
X27784009Y-45619979D01*
X27714599Y-45660053D01*
X27702782Y-45664948D01*
X27684013Y-45669977D01*
X27669107Y-45678583D01*
X27644248Y-45692935D01*
X27619750Y-45699500D01*
X27610435Y-45699500D01*
X27534013Y-45719977D01*
X27534010Y-45719979D01*
X27494248Y-45742935D01*
X27469750Y-45749500D01*
X26730250Y-45749500D01*
X26705750Y-45742935D01*
X26665991Y-45719979D01*
X26665987Y-45719978D01*
X26589564Y-45699500D01*
X26589562Y-45699500D01*
X26221544Y-45699500D01*
X26186896Y-45685148D01*
X26161263Y-45659515D01*
X26064239Y-45603497D01*
X26064235Y-45603496D01*
X25956021Y-45574500D01*
X25956018Y-45574500D01*
X25843982Y-45574500D01*
X25843979Y-45574500D01*
X25735764Y-45603496D01*
X25735760Y-45603497D01*
X25638736Y-45659515D01*
X25638736Y-45659516D01*
X25559516Y-45738736D01*
X25559515Y-45738736D01*
X25503497Y-45835760D01*
X25503496Y-45835764D01*
X25474500Y-45943978D01*
X300000Y-45943978D01*
X300000Y-44943978D01*
X25474500Y-44943978D01*
X25474500Y-45056021D01*
X25503496Y-45164235D01*
X25503497Y-45164239D01*
X25559515Y-45261263D01*
X25638737Y-45340485D01*
X25660400Y-45352992D01*
X25735760Y-45396502D01*
X25735762Y-45396502D01*
X25735763Y-45396503D01*
X25786333Y-45410053D01*
X25843978Y-45425499D01*
X25843979Y-45425500D01*
X25843982Y-45425500D01*
X25956021Y-45425500D01*
X25956021Y-45425499D01*
X26064237Y-45396503D01*
X26161263Y-45340485D01*
X26240485Y-45261263D01*
X26296503Y-45164237D01*
X26325499Y-45056021D01*
X26325500Y-45056021D01*
X26325500Y-44943979D01*
X26325499Y-44943978D01*
X26296503Y-44835764D01*
X26296503Y-44835763D01*
X26294754Y-44832734D01*
X26289857Y-44795553D01*
X26312686Y-44765798D01*
X26349867Y-44760901D01*
X26371836Y-44773584D01*
X26438737Y-44840485D01*
X26450030Y-44847005D01*
X26535760Y-44896502D01*
X26535762Y-44896502D01*
X26535763Y-44896503D01*
X26621111Y-44919371D01*
X26643978Y-44925499D01*
X26643979Y-44925500D01*
X26643982Y-44925500D01*
X26756021Y-44925500D01*
X26756021Y-44925499D01*
X26864237Y-44896503D01*
X26961263Y-44840485D01*
X27040485Y-44761263D01*
X27096503Y-44664237D01*
X27125499Y-44556021D01*
X27125500Y-44556021D01*
X27125500Y-44443979D01*
X27125499Y-44443978D01*
X27096503Y-44335764D01*
X27096502Y-44335760D01*
X27052792Y-44260053D01*
X27040485Y-44238737D01*
X26961263Y-44159515D01*
X26932546Y-44142935D01*
X26864239Y-44103497D01*
X26864235Y-44103496D01*
X26756021Y-44074500D01*
X26756018Y-44074500D01*
X26643982Y-44074500D01*
X26643979Y-44074500D01*
X26535764Y-44103496D01*
X26535760Y-44103497D01*
X26438736Y-44159515D01*
X26438736Y-44159516D01*
X26359516Y-44238736D01*
X26359515Y-44238736D01*
X26303497Y-44335760D01*
X26303496Y-44335764D01*
X26274500Y-44443978D01*
X26274500Y-44556021D01*
X26303496Y-44664235D01*
X26303497Y-44664239D01*
X26305246Y-44667267D01*
X26310141Y-44704449D01*
X26287311Y-44734202D01*
X26250129Y-44739097D01*
X26228163Y-44726415D01*
X26161263Y-44659515D01*
X26064239Y-44603497D01*
X26064235Y-44603496D01*
X25956021Y-44574500D01*
X25956018Y-44574500D01*
X25843982Y-44574500D01*
X25843979Y-44574500D01*
X25735764Y-44603496D01*
X25735760Y-44603497D01*
X25638736Y-44659515D01*
X25638736Y-44659516D01*
X25559516Y-44738736D01*
X25559515Y-44738736D01*
X25503497Y-44835760D01*
X25503496Y-44835764D01*
X25474500Y-44943978D01*
X300000Y-44943978D01*
X300000Y-38943978D01*
X36774500Y-38943978D01*
X36774500Y-39056021D01*
X36803496Y-39164235D01*
X36803497Y-39164239D01*
X36844583Y-39235400D01*
X36859515Y-39261263D01*
X36938737Y-39340485D01*
X36971741Y-39359540D01*
X37035760Y-39396502D01*
X37035762Y-39396502D01*
X37035763Y-39396503D01*
X37113256Y-39417267D01*
X37143978Y-39425499D01*
X37143979Y-39425500D01*
X37143982Y-39425500D01*
X37256021Y-39425500D01*
X37256021Y-39425499D01*
X37364237Y-39396503D01*
X37461263Y-39340485D01*
X37540485Y-39261263D01*
X37593188Y-39169979D01*
X37596502Y-39164239D01*
X37596502Y-39164238D01*
X37596503Y-39164237D01*
X37625499Y-39056021D01*
X37625500Y-39056021D01*
X37625500Y-38943979D01*
X37625499Y-38943978D01*
X37601255Y-38853497D01*
X37596503Y-38835763D01*
X37596502Y-38835762D01*
X37596502Y-38835760D01*
X37560988Y-38774249D01*
X37540485Y-38738737D01*
X37461263Y-38659515D01*
X37434822Y-38644249D01*
X37364239Y-38603497D01*
X37364235Y-38603496D01*
X37256021Y-38574500D01*
X37256018Y-38574500D01*
X37143982Y-38574500D01*
X37143979Y-38574500D01*
X37035764Y-38603496D01*
X37035760Y-38603497D01*
X36938736Y-38659515D01*
X36938736Y-38659516D01*
X36859516Y-38738736D01*
X36859515Y-38738736D01*
X36803497Y-38835760D01*
X36803496Y-38835764D01*
X36774500Y-38943978D01*
X300000Y-38943978D01*
X300000Y-38143978D01*
X35774500Y-38143978D01*
X35774500Y-38256021D01*
X35803496Y-38364235D01*
X35803497Y-38364239D01*
X35843779Y-38434008D01*
X35859515Y-38461263D01*
X35938737Y-38540485D01*
X35957230Y-38551162D01*
X36035760Y-38596502D01*
X36035762Y-38596502D01*
X36035763Y-38596503D01*
X36108490Y-38615990D01*
X36143978Y-38625499D01*
X36143979Y-38625500D01*
X36143982Y-38625500D01*
X36256021Y-38625500D01*
X36256021Y-38625499D01*
X36364237Y-38596503D01*
X36461263Y-38540485D01*
X36540485Y-38461263D01*
X36596503Y-38364237D01*
X36625499Y-38256021D01*
X36625500Y-38256021D01*
X36625500Y-38143979D01*
X36625499Y-38143978D01*
X36604468Y-38065489D01*
X36596503Y-38035763D01*
X36596502Y-38035762D01*
X36596502Y-38035760D01*
X36558390Y-37969749D01*
X36540485Y-37938737D01*
X36461263Y-37859515D01*
X36364239Y-37803497D01*
X36364235Y-37803496D01*
X36256021Y-37774500D01*
X36256018Y-37774500D01*
X36143982Y-37774500D01*
X36143979Y-37774500D01*
X36035764Y-37803496D01*
X36035760Y-37803497D01*
X35938736Y-37859515D01*
X35938736Y-37859516D01*
X35859516Y-37938736D01*
X35859515Y-37938736D01*
X35803497Y-38035760D01*
X35803496Y-38035764D01*
X35774500Y-38143978D01*
X300000Y-38143978D01*
X300000Y-31929778D01*
X22979500Y-31929778D01*
X22979500Y-32150221D01*
X23013984Y-32367948D01*
X23013985Y-32367951D01*
X23079626Y-32569978D01*
X23082105Y-32577606D01*
X23182185Y-32774022D01*
X23302734Y-32939944D01*
X23311759Y-32952366D01*
X23311763Y-32952371D01*
X23467629Y-33108237D01*
X23467633Y-33108240D01*
X23467635Y-33108242D01*
X23645978Y-33237815D01*
X23842394Y-33337895D01*
X24052049Y-33406015D01*
X24269778Y-33440500D01*
X24269779Y-33440500D01*
X24490221Y-33440500D01*
X24490222Y-33440500D01*
X24707951Y-33406015D01*
X24917606Y-33337895D01*
X25114022Y-33237815D01*
X25292365Y-33108242D01*
X25292368Y-33108238D01*
X25292371Y-33108237D01*
X25448237Y-32952371D01*
X25448238Y-32952368D01*
X25448242Y-32952365D01*
X25577815Y-32774022D01*
X25677895Y-32577606D01*
X25746015Y-32367951D01*
X25780500Y-32150222D01*
X25780500Y-31929778D01*
X25746015Y-31712049D01*
X25677895Y-31502394D01*
X25577815Y-31305978D01*
X25448242Y-31127635D01*
X25448240Y-31127633D01*
X25448237Y-31127629D01*
X25292371Y-30971763D01*
X25292366Y-30971759D01*
X25249321Y-30940485D01*
X25114022Y-30842185D01*
X24917606Y-30742105D01*
X24917605Y-30742104D01*
X24917604Y-30742104D01*
X24707951Y-30673985D01*
X24707948Y-30673984D01*
X24540694Y-30647494D01*
X24490222Y-30639500D01*
X24269778Y-30639500D01*
X24228804Y-30645989D01*
X24052051Y-30673984D01*
X24052048Y-30673985D01*
X23842395Y-30742104D01*
X23645978Y-30842185D01*
X23467633Y-30971759D01*
X23311759Y-31127633D01*
X23182185Y-31305978D01*
X23082104Y-31502395D01*
X23013985Y-31712048D01*
X23013984Y-31712051D01*
X22979500Y-31929778D01*
X300000Y-31929778D01*
X300000Y-28119778D01*
X35039500Y-28119778D01*
X35039500Y-28340222D01*
X35039542Y-28340485D01*
X35073984Y-28557948D01*
X35073985Y-28557951D01*
X35132724Y-28738736D01*
X35142105Y-28767606D01*
X35242185Y-28964022D01*
X35343519Y-29103497D01*
X35371759Y-29142366D01*
X35371763Y-29142371D01*
X35527629Y-29298237D01*
X35527633Y-29298240D01*
X35527635Y-29298242D01*
X35705978Y-29427815D01*
X35902394Y-29527895D01*
X36112049Y-29596015D01*
X36329778Y-29630500D01*
X36329779Y-29630500D01*
X36550221Y-29630500D01*
X36550222Y-29630500D01*
X36767951Y-29596015D01*
X36977606Y-29527895D01*
X37174022Y-29427815D01*
X37352365Y-29298242D01*
X37352368Y-29298238D01*
X37352371Y-29298237D01*
X37508237Y-29142371D01*
X37508238Y-29142368D01*
X37508242Y-29142365D01*
X37637815Y-28964022D01*
X37737895Y-28767606D01*
X37806015Y-28557951D01*
X37840500Y-28340222D01*
X37840500Y-28119778D01*
X37806015Y-27902049D01*
X37737895Y-27692394D01*
X37637815Y-27495978D01*
X37508242Y-27317635D01*
X37508240Y-27317633D01*
X37508237Y-27317629D01*
X37352371Y-27161763D01*
X37352366Y-27161759D01*
X37352365Y-27161758D01*
X37174022Y-27032185D01*
X36977606Y-26932105D01*
X36977605Y-26932104D01*
X36977604Y-26932104D01*
X36767951Y-26863985D01*
X36767948Y-26863984D01*
X36589746Y-26835760D01*
X36550222Y-26829500D01*
X36329778Y-26829500D01*
X36290254Y-26835760D01*
X36112051Y-26863984D01*
X36112048Y-26863985D01*
X35902395Y-26932104D01*
X35705978Y-27032185D01*
X35527633Y-27161759D01*
X35371759Y-27317633D01*
X35242185Y-27495978D01*
X35142104Y-27692395D01*
X35073985Y-27902048D01*
X35073984Y-27902051D01*
X35046671Y-28074500D01*
X35039500Y-28119778D01*
X300000Y-28119778D01*
X300000Y-26943978D01*
X13174500Y-26943978D01*
X13174500Y-27056021D01*
X13203496Y-27164235D01*
X13203497Y-27164239D01*
X13259515Y-27261263D01*
X13338737Y-27340485D01*
X13374249Y-27360988D01*
X13435760Y-27396502D01*
X13435762Y-27396502D01*
X13435763Y-27396503D01*
X13521111Y-27419371D01*
X13543978Y-27425499D01*
X13543979Y-27425500D01*
X13543982Y-27425500D01*
X13656021Y-27425500D01*
X13656021Y-27425499D01*
X13764237Y-27396503D01*
X13861263Y-27340485D01*
X13940485Y-27261263D01*
X13996503Y-27164237D01*
X14025499Y-27056021D01*
X14025500Y-27056021D01*
X14025500Y-26943979D01*
X14025499Y-26943978D01*
X13996503Y-26835764D01*
X13996502Y-26835760D01*
X13940484Y-26738736D01*
X13861263Y-26659515D01*
X13764239Y-26603497D01*
X13764235Y-26603496D01*
X13656021Y-26574500D01*
X13656018Y-26574500D01*
X13543982Y-26574500D01*
X13543979Y-26574500D01*
X13435764Y-26603496D01*
X13435760Y-26603497D01*
X13338736Y-26659515D01*
X13338736Y-26659516D01*
X13259516Y-26738736D01*
X13259515Y-26738736D01*
X13203497Y-26835760D01*
X13203496Y-26835764D01*
X13174500Y-26943978D01*
X300000Y-26943978D01*
X300000Y-24309778D01*
X7099500Y-24309778D01*
X7099500Y-24530221D01*
X7133984Y-24747948D01*
X7133985Y-24747951D01*
X7202105Y-24957606D01*
X7302185Y-25154022D01*
X7431758Y-25332365D01*
X7431759Y-25332366D01*
X7431763Y-25332371D01*
X7587629Y-25488237D01*
X7587633Y-25488240D01*
X7587635Y-25488242D01*
X7765978Y-25617815D01*
X7962394Y-25717895D01*
X8172049Y-25786015D01*
X8389778Y-25820500D01*
X8389779Y-25820500D01*
X8610221Y-25820500D01*
X8610222Y-25820500D01*
X8827951Y-25786015D01*
X9037606Y-25717895D01*
X9234022Y-25617815D01*
X9412365Y-25488242D01*
X9412368Y-25488238D01*
X9412371Y-25488237D01*
X9568237Y-25332371D01*
X9568238Y-25332368D01*
X9568242Y-25332365D01*
X9697815Y-25154022D01*
X9797895Y-24957606D01*
X9866015Y-24747951D01*
X9900500Y-24530222D01*
X9900500Y-24309778D01*
X35039500Y-24309778D01*
X35039500Y-24530221D01*
X35073984Y-24747948D01*
X35073985Y-24747951D01*
X35142105Y-24957606D01*
X35242185Y-25154022D01*
X35371758Y-25332365D01*
X35371759Y-25332366D01*
X35371763Y-25332371D01*
X35527629Y-25488237D01*
X35527633Y-25488240D01*
X35527635Y-25488242D01*
X35705978Y-25617815D01*
X35902394Y-25717895D01*
X36112049Y-25786015D01*
X36329778Y-25820500D01*
X36329779Y-25820500D01*
X36550221Y-25820500D01*
X36550222Y-25820500D01*
X36767951Y-25786015D01*
X36977606Y-25717895D01*
X37174022Y-25617815D01*
X37352365Y-25488242D01*
X37352368Y-25488238D01*
X37352371Y-25488237D01*
X37508237Y-25332371D01*
X37508238Y-25332368D01*
X37508242Y-25332365D01*
X37637815Y-25154022D01*
X37737895Y-24957606D01*
X37806015Y-24747951D01*
X37840500Y-24530222D01*
X37840500Y-24309778D01*
X37806015Y-24092049D01*
X37737895Y-23882394D01*
X37637815Y-23685978D01*
X37508242Y-23507635D01*
X37508240Y-23507633D01*
X37508237Y-23507629D01*
X37352371Y-23351763D01*
X37352366Y-23351759D01*
X37341658Y-23343979D01*
X37174022Y-23222185D01*
X36977606Y-23122105D01*
X36977605Y-23122104D01*
X36977604Y-23122104D01*
X36767951Y-23053985D01*
X36767948Y-23053984D01*
X36600694Y-23027494D01*
X36550222Y-23019500D01*
X36329778Y-23019500D01*
X36288804Y-23025989D01*
X36112051Y-23053984D01*
X36112048Y-23053985D01*
X35902395Y-23122104D01*
X35705978Y-23222185D01*
X35527633Y-23351759D01*
X35371759Y-23507633D01*
X35242185Y-23685978D01*
X35142104Y-23882395D01*
X35073985Y-24092048D01*
X35073984Y-24092051D01*
X35039500Y-24309778D01*
X9900500Y-24309778D01*
X9866015Y-24092049D01*
X9797895Y-23882394D01*
X9697815Y-23685978D01*
X9568242Y-23507635D01*
X9568240Y-23507633D01*
X9568237Y-23507629D01*
X9412371Y-23351763D01*
X9412366Y-23351759D01*
X9401658Y-23343979D01*
X9234022Y-23222185D01*
X9037606Y-23122105D01*
X9037605Y-23122104D01*
X9037604Y-23122104D01*
X8827951Y-23053985D01*
X8827948Y-23053984D01*
X8660694Y-23027494D01*
X8610222Y-23019500D01*
X8389778Y-23019500D01*
X8348804Y-23025989D01*
X8172051Y-23053984D01*
X8172048Y-23053985D01*
X7962395Y-23122104D01*
X7765978Y-23222185D01*
X7587633Y-23351759D01*
X7431759Y-23507633D01*
X7302185Y-23685978D01*
X7202104Y-23882395D01*
X7133985Y-24092048D01*
X7133984Y-24092051D01*
X7099500Y-24309778D01*
X300000Y-24309778D01*
X300000Y-22943978D01*
X13174500Y-22943978D01*
X13174500Y-23056021D01*
X13203496Y-23164235D01*
X13203497Y-23164239D01*
X13244793Y-23235764D01*
X13259515Y-23261263D01*
X13338737Y-23340485D01*
X13358264Y-23351759D01*
X13435760Y-23396502D01*
X13435762Y-23396502D01*
X13435763Y-23396503D01*
X13521111Y-23419371D01*
X13543978Y-23425499D01*
X13543979Y-23425500D01*
X13543982Y-23425500D01*
X13656021Y-23425500D01*
X13656021Y-23425499D01*
X13764237Y-23396503D01*
X13861263Y-23340485D01*
X13940485Y-23261263D01*
X13996503Y-23164237D01*
X14025499Y-23056021D01*
X14025500Y-23056021D01*
X14025500Y-22943979D01*
X14025499Y-22943978D01*
X14008362Y-22880021D01*
X13996503Y-22835763D01*
X13996502Y-22835762D01*
X13996502Y-22835760D01*
X13960988Y-22774249D01*
X13940485Y-22738737D01*
X13861263Y-22659515D01*
X13828259Y-22640460D01*
X13764239Y-22603497D01*
X13764235Y-22603496D01*
X13656021Y-22574500D01*
X13656018Y-22574500D01*
X13543982Y-22574500D01*
X13543979Y-22574500D01*
X13435764Y-22603496D01*
X13435760Y-22603497D01*
X13338736Y-22659515D01*
X13338736Y-22659516D01*
X13259516Y-22738736D01*
X13259515Y-22738736D01*
X13203497Y-22835760D01*
X13203496Y-22835764D01*
X13174500Y-22943978D01*
X300000Y-22943978D01*
X300000Y-22195724D01*
X45799500Y-22195724D01*
X45799500Y-23804275D01*
X45802353Y-23834698D01*
X45802353Y-23834699D01*
X45847204Y-23962876D01*
X45847208Y-23962885D01*
X45927849Y-24072150D01*
X46037114Y-24152791D01*
X46037117Y-24152792D01*
X46037118Y-24152793D01*
X46037120Y-24152793D01*
X46037123Y-24152795D01*
X46165301Y-24197646D01*
X46195734Y-24200500D01*
X46195744Y-24200500D01*
X47804256Y-24200500D01*
X47804266Y-24200500D01*
X47834699Y-24197646D01*
X47962882Y-24152793D01*
X48072150Y-24072150D01*
X48152793Y-23962882D01*
X48197646Y-23834699D01*
X48200500Y-23804266D01*
X48200500Y-22195734D01*
X48197646Y-22165301D01*
X48197522Y-22164948D01*
X48152795Y-22037123D01*
X48152791Y-22037114D01*
X48072150Y-21927849D01*
X47962885Y-21847208D01*
X47962876Y-21847204D01*
X47834698Y-21802353D01*
X47804275Y-21799500D01*
X47804266Y-21799500D01*
X46195734Y-21799500D01*
X46195724Y-21799500D01*
X46165301Y-21802353D01*
X46165300Y-21802353D01*
X46037123Y-21847204D01*
X46037114Y-21847208D01*
X45927849Y-21927849D01*
X45847208Y-22037114D01*
X45847204Y-22037123D01*
X45802353Y-22165300D01*
X45802353Y-22165301D01*
X45799500Y-22195724D01*
X300000Y-22195724D01*
X300000Y-20499778D01*
X35039500Y-20499778D01*
X35039500Y-20720221D01*
X35073984Y-20937948D01*
X35073985Y-20937951D01*
X35140927Y-21143982D01*
X35142105Y-21147606D01*
X35242185Y-21344022D01*
X35371758Y-21522365D01*
X35371759Y-21522366D01*
X35371763Y-21522371D01*
X35527629Y-21678237D01*
X35527633Y-21678240D01*
X35527635Y-21678242D01*
X35705978Y-21807815D01*
X35902394Y-21907895D01*
X36112049Y-21976015D01*
X36329778Y-22010500D01*
X36329779Y-22010500D01*
X36550221Y-22010500D01*
X36550222Y-22010500D01*
X36767951Y-21976015D01*
X36977606Y-21907895D01*
X37174022Y-21807815D01*
X37352365Y-21678242D01*
X37352368Y-21678238D01*
X37352371Y-21678237D01*
X37508237Y-21522371D01*
X37508238Y-21522368D01*
X37508242Y-21522365D01*
X37637815Y-21344022D01*
X37737895Y-21147606D01*
X37806015Y-20937951D01*
X37840500Y-20720222D01*
X37840500Y-20499778D01*
X37806015Y-20282049D01*
X37737895Y-20072394D01*
X37637815Y-19875978D01*
X37508242Y-19697635D01*
X37508240Y-19697633D01*
X37508237Y-19697629D01*
X37352371Y-19541763D01*
X37352366Y-19541759D01*
X37352365Y-19541758D01*
X37174022Y-19412185D01*
X36977606Y-19312105D01*
X36977605Y-19312104D01*
X36977604Y-19312104D01*
X36767951Y-19243985D01*
X36767948Y-19243984D01*
X36600694Y-19217494D01*
X36550222Y-19209500D01*
X36329778Y-19209500D01*
X36288804Y-19215989D01*
X36112051Y-19243984D01*
X36112048Y-19243985D01*
X35902395Y-19312104D01*
X35705978Y-19412185D01*
X35527633Y-19541759D01*
X35371759Y-19697633D01*
X35242185Y-19875978D01*
X35142104Y-20072395D01*
X35073985Y-20282048D01*
X35073984Y-20282051D01*
X35039500Y-20499778D01*
X300000Y-20499778D01*
X300000Y-18943978D01*
X13174500Y-18943978D01*
X13174500Y-19056021D01*
X13203496Y-19164235D01*
X13203497Y-19164239D01*
X13259515Y-19261263D01*
X13338737Y-19340485D01*
X13374249Y-19360988D01*
X13435760Y-19396502D01*
X13435762Y-19396502D01*
X13435763Y-19396503D01*
X13521111Y-19419371D01*
X13543978Y-19425499D01*
X13543979Y-19425500D01*
X13543982Y-19425500D01*
X13656021Y-19425500D01*
X13656021Y-19425499D01*
X13764237Y-19396503D01*
X13861263Y-19340485D01*
X13940485Y-19261263D01*
X13996503Y-19164237D01*
X14025499Y-19056021D01*
X14025500Y-19056021D01*
X14025500Y-18943979D01*
X14025499Y-18943978D01*
X13996503Y-18835764D01*
X13996502Y-18835760D01*
X13940484Y-18738736D01*
X13861263Y-18659515D01*
X13764239Y-18603497D01*
X13764235Y-18603496D01*
X13656021Y-18574500D01*
X13656018Y-18574500D01*
X13543982Y-18574500D01*
X13543979Y-18574500D01*
X13435764Y-18603496D01*
X13435760Y-18603497D01*
X13338736Y-18659515D01*
X13338736Y-18659516D01*
X13259516Y-18738736D01*
X13259515Y-18738736D01*
X13203497Y-18835760D01*
X13203496Y-18835764D01*
X13174500Y-18943978D01*
X300000Y-18943978D01*
X300000Y-16689778D01*
X7099500Y-16689778D01*
X7099500Y-16910221D01*
X7133984Y-17127948D01*
X7133985Y-17127951D01*
X7202105Y-17337606D01*
X7302185Y-17534022D01*
X7348704Y-17598050D01*
X7431759Y-17712366D01*
X7431763Y-17712371D01*
X7587629Y-17868237D01*
X7587633Y-17868240D01*
X7587635Y-17868242D01*
X7765978Y-17997815D01*
X7962394Y-18097895D01*
X8172049Y-18166015D01*
X8389778Y-18200500D01*
X8389779Y-18200500D01*
X8610221Y-18200500D01*
X8610222Y-18200500D01*
X8827951Y-18166015D01*
X9037606Y-18097895D01*
X9234022Y-17997815D01*
X9412365Y-17868242D01*
X9412368Y-17868238D01*
X9412371Y-17868237D01*
X9568237Y-17712371D01*
X9568238Y-17712368D01*
X9568242Y-17712365D01*
X9697815Y-17534022D01*
X9797895Y-17337606D01*
X9866015Y-17127951D01*
X9900500Y-16910222D01*
X9900500Y-16689778D01*
X9899266Y-16681989D01*
X34639500Y-16681989D01*
X34639500Y-16918011D01*
X34670307Y-17152014D01*
X34670308Y-17152018D01*
X34670309Y-17152025D01*
X34731391Y-17379986D01*
X34731395Y-17379996D01*
X34821716Y-17598050D01*
X34939725Y-17802447D01*
X34939735Y-17802462D01*
X35083403Y-17989693D01*
X35083413Y-17989705D01*
X35250294Y-18156586D01*
X35250306Y-18156596D01*
X35437537Y-18300264D01*
X35437546Y-18300270D01*
X35437550Y-18300273D01*
X35641951Y-18418284D01*
X35860007Y-18508606D01*
X35860010Y-18508606D01*
X35860013Y-18508608D01*
X36087974Y-18569690D01*
X36087975Y-18569690D01*
X36087986Y-18569693D01*
X36321989Y-18600500D01*
X36321993Y-18600500D01*
X36558007Y-18600500D01*
X36558011Y-18600500D01*
X36792014Y-18569693D01*
X37019993Y-18508606D01*
X37238049Y-18418284D01*
X37442450Y-18300273D01*
X37629699Y-18156592D01*
X37642313Y-18143978D01*
X59374500Y-18143978D01*
X59374500Y-18256021D01*
X59403496Y-18364235D01*
X59403497Y-18364239D01*
X59434700Y-18418283D01*
X59459515Y-18461263D01*
X59538737Y-18540485D01*
X59574249Y-18560988D01*
X59635760Y-18596502D01*
X59635762Y-18596502D01*
X59635763Y-18596503D01*
X59721111Y-18619371D01*
X59743978Y-18625499D01*
X59743979Y-18625500D01*
X59743982Y-18625500D01*
X59856021Y-18625500D01*
X59856021Y-18625499D01*
X59964237Y-18596503D01*
X60061263Y-18540485D01*
X60140485Y-18461263D01*
X60196503Y-18364237D01*
X60225499Y-18256021D01*
X60225500Y-18256021D01*
X60225500Y-18143979D01*
X60225499Y-18143978D01*
X60219371Y-18121111D01*
X60196503Y-18035763D01*
X60196502Y-18035762D01*
X60196502Y-18035760D01*
X60140484Y-17938736D01*
X60061263Y-17859515D01*
X59964239Y-17803497D01*
X59964235Y-17803496D01*
X59856021Y-17774500D01*
X59856018Y-17774500D01*
X59743982Y-17774500D01*
X59743979Y-17774500D01*
X59635764Y-17803496D01*
X59635760Y-17803497D01*
X59538736Y-17859515D01*
X59538736Y-17859516D01*
X59459516Y-17938736D01*
X59459515Y-17938736D01*
X59403497Y-18035760D01*
X59403496Y-18035764D01*
X59374500Y-18143978D01*
X37642313Y-18143978D01*
X37680170Y-18106122D01*
X37796586Y-17989705D01*
X37796592Y-17989699D01*
X37939470Y-17803497D01*
X37940264Y-17802462D01*
X37940265Y-17802459D01*
X37940273Y-17802450D01*
X38058284Y-17598049D01*
X38148606Y-17379993D01*
X38209693Y-17152014D01*
X38240500Y-16918011D01*
X38240500Y-16681989D01*
X38209693Y-16447986D01*
X38148606Y-16220007D01*
X38058284Y-16001951D01*
X37940273Y-15797550D01*
X37940270Y-15797546D01*
X37940264Y-15797537D01*
X37796596Y-15610306D01*
X37796586Y-15610294D01*
X37629705Y-15443413D01*
X37629693Y-15443403D01*
X37442462Y-15299735D01*
X37442447Y-15299725D01*
X37238050Y-15181716D01*
X37019996Y-15091395D01*
X37019986Y-15091391D01*
X36792025Y-15030309D01*
X36792018Y-15030308D01*
X36792014Y-15030307D01*
X36558011Y-14999500D01*
X36321989Y-14999500D01*
X36087986Y-15030307D01*
X36087982Y-15030307D01*
X36087974Y-15030309D01*
X35860013Y-15091391D01*
X35860003Y-15091395D01*
X35641949Y-15181716D01*
X35437552Y-15299725D01*
X35437537Y-15299735D01*
X35250306Y-15443403D01*
X35250294Y-15443413D01*
X35083413Y-15610294D01*
X35083403Y-15610306D01*
X34939735Y-15797537D01*
X34939725Y-15797552D01*
X34821716Y-16001949D01*
X34731395Y-16220003D01*
X34731391Y-16220013D01*
X34670309Y-16447974D01*
X34670307Y-16447982D01*
X34670307Y-16447986D01*
X34639500Y-16681989D01*
X9899266Y-16681989D01*
X9866015Y-16472049D01*
X9797895Y-16262394D01*
X9697815Y-16065978D01*
X9568242Y-15887635D01*
X9568240Y-15887633D01*
X9568237Y-15887629D01*
X9412371Y-15731763D01*
X9412366Y-15731759D01*
X9412365Y-15731758D01*
X9234022Y-15602185D01*
X9037606Y-15502105D01*
X9037605Y-15502104D01*
X9037604Y-15502104D01*
X8827951Y-15433985D01*
X8827948Y-15433984D01*
X8660694Y-15407494D01*
X8610222Y-15399500D01*
X8389778Y-15399500D01*
X8348804Y-15405989D01*
X8172051Y-15433984D01*
X8172048Y-15433985D01*
X7962395Y-15502104D01*
X7765978Y-15602185D01*
X7587633Y-15731759D01*
X7431759Y-15887633D01*
X7302185Y-16065978D01*
X7202104Y-16262395D01*
X7133985Y-16472048D01*
X7133984Y-16472051D01*
X7099500Y-16689778D01*
X300000Y-16689778D01*
X300000Y-8743978D01*
X13374500Y-8743978D01*
X13374500Y-8856021D01*
X13403496Y-8964235D01*
X13403497Y-8964239D01*
X13459515Y-9061263D01*
X13538737Y-9140485D01*
X13574249Y-9160988D01*
X13635760Y-9196502D01*
X13635762Y-9196502D01*
X13635763Y-9196503D01*
X13721111Y-9219371D01*
X13743978Y-9225499D01*
X13743979Y-9225500D01*
X13743982Y-9225500D01*
X13856021Y-9225500D01*
X13856021Y-9225499D01*
X13964237Y-9196503D01*
X13965554Y-9195743D01*
X14018280Y-9165301D01*
X14061263Y-9140485D01*
X14140485Y-9061263D01*
X14196503Y-8964237D01*
X14225499Y-8856021D01*
X14225500Y-8856021D01*
X14225500Y-8743979D01*
X14225499Y-8743978D01*
X14196503Y-8635764D01*
X14196502Y-8635760D01*
X14140484Y-8538736D01*
X14061263Y-8459515D01*
X13964239Y-8403497D01*
X13964235Y-8403496D01*
X13856021Y-8374500D01*
X13856018Y-8374500D01*
X13743982Y-8374500D01*
X13743979Y-8374500D01*
X13635764Y-8403496D01*
X13635760Y-8403497D01*
X13538736Y-8459515D01*
X13538736Y-8459516D01*
X13459516Y-8538736D01*
X13459515Y-8538736D01*
X13403497Y-8635760D01*
X13403496Y-8635764D01*
X13374500Y-8743978D01*
X300000Y-8743978D01*
X300000Y-7143978D01*
X7974500Y-7143978D01*
X7974500Y-7256021D01*
X8003496Y-7364235D01*
X8003497Y-7364239D01*
X8059515Y-7461263D01*
X8138737Y-7540485D01*
X8174249Y-7560988D01*
X8235760Y-7596502D01*
X8235762Y-7596502D01*
X8235763Y-7596503D01*
X8321111Y-7619371D01*
X8343978Y-7625499D01*
X8343979Y-7625500D01*
X8343982Y-7625500D01*
X8456021Y-7625500D01*
X8456021Y-7625499D01*
X8564237Y-7596503D01*
X8661263Y-7540485D01*
X8740485Y-7461263D01*
X8796503Y-7364237D01*
X8825499Y-7256021D01*
X8825500Y-7256021D01*
X8825500Y-7143979D01*
X8825499Y-7143978D01*
X8796503Y-7035764D01*
X8796502Y-7035760D01*
X8760988Y-6974249D01*
X8740485Y-6938737D01*
X8661263Y-6859515D01*
X8657839Y-6857538D01*
X8564239Y-6803497D01*
X8564235Y-6803496D01*
X8456021Y-6774500D01*
X8456018Y-6774500D01*
X8343982Y-6774500D01*
X8343979Y-6774500D01*
X8235764Y-6803496D01*
X8235760Y-6803497D01*
X8138736Y-6859515D01*
X8138736Y-6859516D01*
X8059516Y-6938736D01*
X8059515Y-6938736D01*
X8003497Y-7035760D01*
X8003496Y-7035764D01*
X7974500Y-7143978D01*
X300000Y-7143978D01*
X300000Y-5943978D01*
X14574500Y-5943978D01*
X14574500Y-6056021D01*
X14603496Y-6164235D01*
X14603497Y-6164239D01*
X14659515Y-6261263D01*
X14685148Y-6286896D01*
X14699500Y-6321544D01*
X14699500Y-6839563D01*
X14719979Y-6915989D01*
X14719979Y-6915991D01*
X14745123Y-6959540D01*
X14759540Y-6984511D01*
X18360148Y-10585119D01*
X18374500Y-10619767D01*
X18374500Y-10656021D01*
X18403496Y-10764235D01*
X18403497Y-10764239D01*
X18444178Y-10834699D01*
X18459515Y-10861263D01*
X18538737Y-10940485D01*
X18574249Y-10960988D01*
X18635760Y-10996502D01*
X18635762Y-10996502D01*
X18635763Y-10996503D01*
X18721111Y-11019371D01*
X18743978Y-11025499D01*
X18743979Y-11025500D01*
X18743982Y-11025500D01*
X18856021Y-11025500D01*
X18856021Y-11025499D01*
X18964237Y-10996503D01*
X19061263Y-10940485D01*
X19136896Y-10864852D01*
X19171544Y-10850500D01*
X26239564Y-10850500D01*
X26298531Y-10834699D01*
X26315989Y-10830021D01*
X26384511Y-10790460D01*
X26384516Y-10790454D01*
X26385401Y-10789944D01*
X26397214Y-10785051D01*
X26415989Y-10780021D01*
X26484511Y-10740460D01*
X26484516Y-10740454D01*
X26485401Y-10739944D01*
X26497214Y-10735051D01*
X26515989Y-10730021D01*
X26584511Y-10690460D01*
X26640460Y-10634511D01*
X30228257Y-7046713D01*
X30262904Y-7032362D01*
X30297552Y-7046714D01*
X30311904Y-7081362D01*
X30310234Y-7094044D01*
X30299500Y-7134104D01*
X30299500Y-7265895D01*
X30333607Y-7393184D01*
X30333608Y-7393188D01*
X30399500Y-7507314D01*
X30457538Y-7565352D01*
X30471890Y-7600000D01*
X30457538Y-7634648D01*
X30399501Y-7692685D01*
X30399500Y-7692685D01*
X30333608Y-7806811D01*
X30333607Y-7806815D01*
X30299500Y-7934104D01*
X30299500Y-8065895D01*
X30333607Y-8193184D01*
X30333608Y-8193188D01*
X30399500Y-8307314D01*
X30457538Y-8365352D01*
X30471890Y-8400000D01*
X30457538Y-8434648D01*
X30399501Y-8492685D01*
X30399500Y-8492685D01*
X30333608Y-8606811D01*
X30333607Y-8606815D01*
X30299500Y-8734104D01*
X30299500Y-8865895D01*
X30333607Y-8993184D01*
X30333608Y-8993188D01*
X30399500Y-9107314D01*
X30492686Y-9200500D01*
X30534457Y-9224617D01*
X30606811Y-9266391D01*
X30606813Y-9266391D01*
X30606814Y-9266392D01*
X30707207Y-9293292D01*
X30734104Y-9300499D01*
X30734105Y-9300500D01*
X30734108Y-9300500D01*
X30865895Y-9300500D01*
X30865895Y-9300499D01*
X30993186Y-9266392D01*
X31107314Y-9200500D01*
X31165352Y-9142462D01*
X31200000Y-9128110D01*
X31234648Y-9142462D01*
X31292686Y-9200500D01*
X31334457Y-9224617D01*
X31406811Y-9266391D01*
X31406813Y-9266391D01*
X31406814Y-9266392D01*
X31507207Y-9293292D01*
X31534104Y-9300499D01*
X31534105Y-9300500D01*
X31534108Y-9300500D01*
X31665895Y-9300500D01*
X31665895Y-9300499D01*
X31793186Y-9266392D01*
X31907314Y-9200500D01*
X31965352Y-9142462D01*
X32000000Y-9128110D01*
X32034648Y-9142462D01*
X32092686Y-9200500D01*
X32134457Y-9224617D01*
X32206811Y-9266391D01*
X32206813Y-9266391D01*
X32206814Y-9266392D01*
X32307207Y-9293292D01*
X32334104Y-9300499D01*
X32334105Y-9300500D01*
X32334108Y-9300500D01*
X32465895Y-9300500D01*
X32465895Y-9300499D01*
X32593186Y-9266392D01*
X32707314Y-9200500D01*
X32765352Y-9142462D01*
X32800000Y-9128110D01*
X32834648Y-9142462D01*
X32892686Y-9200500D01*
X32934457Y-9224617D01*
X33006811Y-9266391D01*
X33006813Y-9266391D01*
X33006814Y-9266392D01*
X33107207Y-9293292D01*
X33134104Y-9300499D01*
X33134105Y-9300500D01*
X33134108Y-9300500D01*
X33265895Y-9300500D01*
X33265895Y-9300499D01*
X33393186Y-9266392D01*
X33507314Y-9200500D01*
X33512090Y-9195724D01*
X45799500Y-9195724D01*
X45799500Y-10804275D01*
X45802353Y-10834698D01*
X45802353Y-10834699D01*
X45847204Y-10962876D01*
X45847208Y-10962885D01*
X45927849Y-11072150D01*
X46037114Y-11152791D01*
X46037117Y-11152792D01*
X46037118Y-11152793D01*
X46037120Y-11152793D01*
X46037123Y-11152795D01*
X46165301Y-11197646D01*
X46195734Y-11200500D01*
X46195744Y-11200500D01*
X47804256Y-11200500D01*
X47804266Y-11200500D01*
X47834699Y-11197646D01*
X47962882Y-11152793D01*
X48072150Y-11072150D01*
X48127980Y-10996503D01*
X48152791Y-10962885D01*
X48152791Y-10962884D01*
X48152793Y-10962882D01*
X48197646Y-10834699D01*
X48200500Y-10804266D01*
X48200500Y-9195734D01*
X48197646Y-9165301D01*
X48189654Y-9142462D01*
X48152795Y-9037123D01*
X48152791Y-9037114D01*
X48072150Y-8927849D01*
X47962885Y-8847208D01*
X47962876Y-8847204D01*
X47834698Y-8802353D01*
X47804275Y-8799500D01*
X47804266Y-8799500D01*
X46195734Y-8799500D01*
X46195724Y-8799500D01*
X46165301Y-8802353D01*
X46165300Y-8802353D01*
X46037123Y-8847204D01*
X46037114Y-8847208D01*
X45927849Y-8927849D01*
X45847208Y-9037114D01*
X45847204Y-9037123D01*
X45802353Y-9165300D01*
X45802353Y-9165301D01*
X45799500Y-9195724D01*
X33512090Y-9195724D01*
X33600500Y-9107314D01*
X33666392Y-8993186D01*
X33700499Y-8865895D01*
X33700500Y-8865895D01*
X33700500Y-8734105D01*
X33700499Y-8734104D01*
X33666392Y-8606815D01*
X33666391Y-8606811D01*
X33600499Y-8492685D01*
X33542462Y-8434648D01*
X33528110Y-8400000D01*
X33542462Y-8365352D01*
X33600499Y-8307315D01*
X33600500Y-8307314D01*
X33666392Y-8193186D01*
X33700499Y-8065895D01*
X33700500Y-8065895D01*
X33700500Y-7934105D01*
X33700499Y-7934104D01*
X33666392Y-7806815D01*
X33666391Y-7806811D01*
X33600499Y-7692685D01*
X33542462Y-7634648D01*
X33528110Y-7600000D01*
X33542462Y-7565352D01*
X33600499Y-7507315D01*
X33600500Y-7507314D01*
X33666392Y-7393186D01*
X33700499Y-7265895D01*
X33700500Y-7265895D01*
X33700500Y-7134105D01*
X33700499Y-7134104D01*
X33674148Y-7035760D01*
X33666392Y-7006814D01*
X33666391Y-7006813D01*
X33666391Y-7006811D01*
X33600499Y-6892685D01*
X33507314Y-6799500D01*
X33393188Y-6733608D01*
X33393184Y-6733607D01*
X33265895Y-6699500D01*
X33265892Y-6699500D01*
X33134108Y-6699500D01*
X33134105Y-6699500D01*
X33006815Y-6733607D01*
X33006811Y-6733608D01*
X32892685Y-6799500D01*
X32892685Y-6799501D01*
X32834648Y-6857538D01*
X32800000Y-6871890D01*
X32765352Y-6857538D01*
X32707314Y-6799500D01*
X32593188Y-6733608D01*
X32593184Y-6733607D01*
X32465895Y-6699500D01*
X32465892Y-6699500D01*
X32334108Y-6699500D01*
X32334105Y-6699500D01*
X32206815Y-6733607D01*
X32206811Y-6733608D01*
X32092685Y-6799500D01*
X32092685Y-6799501D01*
X32034648Y-6857538D01*
X32000000Y-6871890D01*
X31965352Y-6857538D01*
X31907314Y-6799500D01*
X31807609Y-6741935D01*
X31784779Y-6712182D01*
X31789674Y-6675000D01*
X31819427Y-6652170D01*
X31832109Y-6650500D01*
X31939564Y-6650500D01*
X31966230Y-6643354D01*
X32015989Y-6630021D01*
X32084511Y-6590460D01*
X32140460Y-6534511D01*
X34849439Y-3825530D01*
X34884086Y-3811179D01*
X34896769Y-3812849D01*
X34943980Y-3825500D01*
X34943982Y-3825500D01*
X35056021Y-3825500D01*
X35056021Y-3825499D01*
X35164237Y-3796503D01*
X35261263Y-3740485D01*
X35340485Y-3661263D01*
X35361422Y-3625000D01*
X35391175Y-3602170D01*
X35403857Y-3600500D01*
X36539564Y-3600500D01*
X36566230Y-3593354D01*
X36615989Y-3580021D01*
X36684511Y-3540460D01*
X36740460Y-3484511D01*
X38327966Y-1897003D01*
X38349929Y-1884324D01*
X38365989Y-1880021D01*
X38365993Y-1880019D01*
X38392096Y-1864948D01*
X38434511Y-1840460D01*
X38490460Y-1784511D01*
X38886511Y-1388459D01*
X38921158Y-1374108D01*
X38955806Y-1388460D01*
X38968488Y-1410426D01*
X38969977Y-1415986D01*
X38969978Y-1415987D01*
X38969979Y-1415989D01*
X38978081Y-1430022D01*
X39010053Y-1485399D01*
X39014948Y-1497216D01*
X39019978Y-1515987D01*
X39019979Y-1515991D01*
X39060053Y-1585399D01*
X39064948Y-1597216D01*
X39069978Y-1615987D01*
X39069979Y-1615991D01*
X39092935Y-1655750D01*
X39099500Y-1680250D01*
X39099500Y-1989562D01*
X39119978Y-2065986D01*
X39119979Y-2065990D01*
X39141247Y-2102825D01*
X39151151Y-2119979D01*
X39159537Y-2134506D01*
X39159542Y-2134512D01*
X41252993Y-4227964D01*
X41265675Y-4249929D01*
X41268712Y-4261263D01*
X41269979Y-4265989D01*
X41280384Y-4284011D01*
X41309540Y-4334511D01*
X41360148Y-4385119D01*
X41374500Y-4419767D01*
X41374500Y-4456021D01*
X41403496Y-4564235D01*
X41403497Y-4564239D01*
X41443338Y-4633244D01*
X41459515Y-4661263D01*
X41538737Y-4740485D01*
X41574249Y-4760988D01*
X41635760Y-4796502D01*
X41635762Y-4796502D01*
X41635763Y-4796503D01*
X41721111Y-4819371D01*
X41743978Y-4825499D01*
X41743979Y-4825500D01*
X41743982Y-4825500D01*
X41856021Y-4825500D01*
X41856021Y-4825499D01*
X41964237Y-4796503D01*
X42061263Y-4740485D01*
X42140485Y-4661263D01*
X42196503Y-4564237D01*
X42225499Y-4456021D01*
X42225500Y-4456021D01*
X42225500Y-4343979D01*
X42225499Y-4343978D01*
X42204601Y-4265987D01*
X42196503Y-4235763D01*
X42196502Y-4235762D01*
X42196502Y-4235760D01*
X42157467Y-4168150D01*
X42140485Y-4138737D01*
X42061263Y-4059515D01*
X42055206Y-4056018D01*
X41964239Y-4003497D01*
X41964235Y-4003496D01*
X41856021Y-3974500D01*
X41856018Y-3974500D01*
X41852820Y-3974500D01*
X41818172Y-3960148D01*
X41810385Y-3950000D01*
X41790459Y-3915488D01*
X40808490Y-2933519D01*
X40775767Y-2900796D01*
X60739500Y-2900796D01*
X60739500Y-3099203D01*
X60770536Y-3295165D01*
X60770537Y-3295168D01*
X60831849Y-3483865D01*
X60921347Y-3659516D01*
X60921923Y-3660646D01*
X61030179Y-3809648D01*
X61038545Y-3821162D01*
X61038549Y-3821167D01*
X61178833Y-3961451D01*
X61178837Y-3961454D01*
X61178839Y-3961456D01*
X61339354Y-4078077D01*
X61516136Y-4168151D01*
X61704832Y-4229463D01*
X61900796Y-4260500D01*
X61900797Y-4260500D01*
X62099203Y-4260500D01*
X62099204Y-4260500D01*
X62295168Y-4229463D01*
X62483864Y-4168151D01*
X62660646Y-4078077D01*
X62821161Y-3961456D01*
X62821164Y-3961452D01*
X62821167Y-3961451D01*
X62961451Y-3821167D01*
X62961452Y-3821164D01*
X62961456Y-3821161D01*
X63078077Y-3660646D01*
X63168151Y-3483864D01*
X63229463Y-3295168D01*
X63260500Y-3099204D01*
X63260500Y-2900796D01*
X63229463Y-2704832D01*
X63168151Y-2516136D01*
X63078077Y-2339354D01*
X62961456Y-2178839D01*
X62961454Y-2178837D01*
X62961451Y-2178833D01*
X62821167Y-2038549D01*
X62821162Y-2038545D01*
X62795605Y-2019977D01*
X62660646Y-1921923D01*
X62660645Y-1921922D01*
X62660643Y-1921921D01*
X62483865Y-1831849D01*
X62295168Y-1770537D01*
X62295165Y-1770536D01*
X62144628Y-1746694D01*
X62099204Y-1739500D01*
X61900796Y-1739500D01*
X61872516Y-1743979D01*
X61704834Y-1770536D01*
X61704831Y-1770537D01*
X61516134Y-1831849D01*
X61339356Y-1921921D01*
X61178837Y-2038545D01*
X61038545Y-2178837D01*
X60921921Y-2339356D01*
X60831849Y-2516134D01*
X60770537Y-2704831D01*
X60770536Y-2704834D01*
X60739500Y-2900796D01*
X40775767Y-2900796D01*
X40710735Y-2835764D01*
X39714852Y-1839880D01*
X39700500Y-1805232D01*
X39700500Y-1510437D01*
X39697569Y-1499501D01*
X39697569Y-1499499D01*
X39680022Y-1434013D01*
X39680022Y-1434012D01*
X39640460Y-1365489D01*
X39640456Y-1365485D01*
X39639946Y-1364601D01*
X39635052Y-1352786D01*
X39630021Y-1334010D01*
X39630020Y-1334009D01*
X39630020Y-1334007D01*
X39607719Y-1295381D01*
X39590460Y-1265488D01*
X39590458Y-1265486D01*
X39589945Y-1264597D01*
X39585052Y-1252785D01*
X39580022Y-1234012D01*
X39540460Y-1165489D01*
X39540457Y-1165486D01*
X39539945Y-1164599D01*
X39535049Y-1152776D01*
X39534038Y-1149003D01*
X39529088Y-1130530D01*
X39533983Y-1093347D01*
X39541766Y-1083203D01*
X39785119Y-839852D01*
X39819767Y-825500D01*
X39856021Y-825500D01*
X39856021Y-825499D01*
X39964237Y-796503D01*
X40061263Y-740485D01*
X40140485Y-661263D01*
X40196503Y-564237D01*
X40225499Y-456021D01*
X40225500Y-456021D01*
X40225500Y-343979D01*
X40225499Y-343978D01*
X40196503Y-235764D01*
X40196502Y-235760D01*
X40140484Y-138736D01*
X40061263Y-59515D01*
X39964239Y-3497D01*
X39964235Y-3496D01*
X39856021Y25500D01*
X39856018Y25500D01*
X39743982Y25500D01*
X39743979Y25500D01*
X39635764Y-3496D01*
X39635760Y-3497D01*
X39538736Y-59515D01*
X39538736Y-59516D01*
X39459516Y-138736D01*
X39459515Y-138736D01*
X39403497Y-235760D01*
X39403496Y-235764D01*
X39374500Y-343978D01*
X39374500Y-380233D01*
X39360148Y-414881D01*
X39039881Y-735148D01*
X39005233Y-749500D01*
X38760436Y-749500D01*
X38684012Y-769978D01*
X38684008Y-769979D01*
X38638072Y-796502D01*
X38638070Y-796503D01*
X38632424Y-799762D01*
X38615492Y-809537D01*
X38615486Y-809542D01*
X38122035Y-1302992D01*
X38100073Y-1315673D01*
X38084017Y-1319976D01*
X38084008Y-1319980D01*
X38031147Y-1350500D01*
X38027232Y-1352760D01*
X38015492Y-1359537D01*
X38015486Y-1359542D01*
X36389881Y-2985148D01*
X36355233Y-2999500D01*
X35155770Y-2999500D01*
X35143088Y-2997830D01*
X35056021Y-2974500D01*
X35056018Y-2974500D01*
X34943982Y-2974500D01*
X34943979Y-2974500D01*
X34835764Y-3003496D01*
X34835760Y-3003497D01*
X34738736Y-3059515D01*
X34738736Y-3059516D01*
X34659518Y-3138733D01*
X34659513Y-3138740D01*
X34626161Y-3196506D01*
X34618374Y-3206653D01*
X31789881Y-6035148D01*
X31755233Y-6049500D01*
X30493765Y-6049500D01*
X30459117Y-6035148D01*
X30444765Y-6000500D01*
X30459117Y-5965852D01*
X31480991Y-4943978D01*
X32677964Y-3747004D01*
X32699927Y-3734324D01*
X32715985Y-3730022D01*
X32715987Y-3730020D01*
X32716157Y-3729975D01*
X32717342Y-3729239D01*
X32740280Y-3715996D01*
X32740280Y-3715995D01*
X32740292Y-3715989D01*
X32784509Y-3690461D01*
X32784509Y-3690460D01*
X32785404Y-3689944D01*
X32797221Y-3685050D01*
X32807224Y-3682369D01*
X32815989Y-3680021D01*
X32855750Y-3657064D01*
X32880250Y-3650500D01*
X32889564Y-3650500D01*
X32940513Y-3636847D01*
X32965989Y-3630021D01*
X33034511Y-3590460D01*
X33034516Y-3590454D01*
X33035401Y-3589944D01*
X33047214Y-3585051D01*
X33065989Y-3580021D01*
X33134511Y-3540460D01*
X33134516Y-3540454D01*
X33135401Y-3539944D01*
X33147214Y-3535051D01*
X33165989Y-3530021D01*
X33234511Y-3490460D01*
X33234516Y-3490454D01*
X33235401Y-3489944D01*
X33247217Y-3485050D01*
X33265985Y-3480022D01*
X33265987Y-3480020D01*
X33266153Y-3479976D01*
X33267322Y-3479250D01*
X33298479Y-3461262D01*
X33334509Y-3440461D01*
X33334509Y-3440460D01*
X33335404Y-3439944D01*
X33347221Y-3435050D01*
X33357224Y-3432369D01*
X33365989Y-3430021D01*
X33405750Y-3407064D01*
X33430250Y-3400500D01*
X33439564Y-3400500D01*
X33490513Y-3386847D01*
X33515989Y-3380021D01*
X33584511Y-3340460D01*
X33584516Y-3340454D01*
X33585401Y-3339944D01*
X33597214Y-3335051D01*
X33615989Y-3330021D01*
X33684511Y-3290460D01*
X33684516Y-3290454D01*
X33685401Y-3289944D01*
X33697214Y-3285051D01*
X33715989Y-3280021D01*
X33784511Y-3240460D01*
X33784516Y-3240454D01*
X33785401Y-3239944D01*
X33797217Y-3235050D01*
X33815985Y-3230022D01*
X33815987Y-3230020D01*
X33816153Y-3229976D01*
X33817322Y-3229250D01*
X33849901Y-3210441D01*
X33884509Y-3190461D01*
X33884509Y-3190460D01*
X33885404Y-3189944D01*
X33897221Y-3185050D01*
X33907224Y-3182369D01*
X33915989Y-3180021D01*
X33984511Y-3140460D01*
X33984516Y-3140454D01*
X33985401Y-3139944D01*
X33997214Y-3135051D01*
X34015989Y-3130021D01*
X34015993Y-3130019D01*
X34055750Y-3107065D01*
X34080250Y-3100500D01*
X34089564Y-3100500D01*
X34140513Y-3086847D01*
X34165989Y-3080021D01*
X34234511Y-3040460D01*
X34234516Y-3040454D01*
X34235401Y-3039944D01*
X34247214Y-3035051D01*
X34265989Y-3030021D01*
X34334511Y-2990460D01*
X34334516Y-2990454D01*
X34335401Y-2989944D01*
X34347217Y-2985050D01*
X34365985Y-2980022D01*
X34365987Y-2980020D01*
X34366153Y-2979976D01*
X34367322Y-2979250D01*
X34399901Y-2960441D01*
X34434509Y-2940461D01*
X34434509Y-2940460D01*
X34435404Y-2939944D01*
X34447221Y-2935050D01*
X34457224Y-2932369D01*
X34465989Y-2930021D01*
X34534511Y-2890460D01*
X34534516Y-2890454D01*
X34535401Y-2889944D01*
X34547214Y-2885051D01*
X34565989Y-2880021D01*
X34565993Y-2880019D01*
X34601463Y-2859540D01*
X34605750Y-2857064D01*
X34630250Y-2850500D01*
X34639564Y-2850500D01*
X34694571Y-2835760D01*
X34715989Y-2830021D01*
X34784511Y-2790460D01*
X34784516Y-2790454D01*
X34785401Y-2789944D01*
X34797214Y-2785051D01*
X34815989Y-2780021D01*
X34884511Y-2740460D01*
X34884516Y-2740454D01*
X34885401Y-2739944D01*
X34897217Y-2735050D01*
X34915985Y-2730022D01*
X34915987Y-2730020D01*
X34916153Y-2729976D01*
X34917322Y-2729250D01*
X34949901Y-2710441D01*
X34984509Y-2690461D01*
X34984509Y-2690460D01*
X34985404Y-2689944D01*
X34997221Y-2685050D01*
X35007224Y-2682369D01*
X35015989Y-2680021D01*
X35084511Y-2640460D01*
X35084516Y-2640454D01*
X35085401Y-2639944D01*
X35097214Y-2635051D01*
X35115989Y-2630021D01*
X35115993Y-2630019D01*
X35155750Y-2607065D01*
X35180250Y-2600500D01*
X35189564Y-2600500D01*
X35240513Y-2586847D01*
X35265989Y-2580021D01*
X35334511Y-2540460D01*
X35334516Y-2540454D01*
X35335401Y-2539944D01*
X35347214Y-2535051D01*
X35365989Y-2530021D01*
X35434511Y-2490460D01*
X35434516Y-2490454D01*
X35435401Y-2489944D01*
X35447217Y-2485050D01*
X35465985Y-2480022D01*
X35465987Y-2480020D01*
X35466153Y-2479976D01*
X35467322Y-2479250D01*
X35499901Y-2460441D01*
X35534509Y-2440461D01*
X35534509Y-2440460D01*
X35535404Y-2439944D01*
X35547221Y-2435050D01*
X35557224Y-2432369D01*
X35565989Y-2430021D01*
X35634511Y-2390460D01*
X35634516Y-2390454D01*
X35635401Y-2389944D01*
X35647214Y-2385051D01*
X35665989Y-2380021D01*
X35665993Y-2380019D01*
X35705750Y-2357065D01*
X35730250Y-2350500D01*
X35739564Y-2350500D01*
X35790513Y-2336847D01*
X35815989Y-2330021D01*
X35884511Y-2290460D01*
X35884516Y-2290454D01*
X35885401Y-2289944D01*
X35897214Y-2285051D01*
X35915989Y-2280021D01*
X35984511Y-2240460D01*
X35984516Y-2240454D01*
X35985401Y-2239944D01*
X35997217Y-2235050D01*
X36015985Y-2230022D01*
X36015987Y-2230020D01*
X36016153Y-2229976D01*
X36017322Y-2229250D01*
X36049901Y-2210441D01*
X36084509Y-2190461D01*
X36084509Y-2190460D01*
X36085404Y-2189944D01*
X36097221Y-2185050D01*
X36107224Y-2182369D01*
X36115989Y-2180021D01*
X36184511Y-2140460D01*
X36184516Y-2140454D01*
X36185401Y-2139944D01*
X36197214Y-2135051D01*
X36215989Y-2130021D01*
X36254614Y-2107720D01*
X36291793Y-2102825D01*
X36313760Y-2115508D01*
X36338737Y-2140485D01*
X36371738Y-2159538D01*
X36435760Y-2196502D01*
X36435762Y-2196502D01*
X36435763Y-2196503D01*
X36504624Y-2214954D01*
X36543978Y-2225499D01*
X36543979Y-2225500D01*
X36543982Y-2225500D01*
X36656021Y-2225500D01*
X36656021Y-2225499D01*
X36764237Y-2196503D01*
X36861263Y-2140485D01*
X36940485Y-2061263D01*
X36988997Y-1977237D01*
X36996502Y-1964239D01*
X36996502Y-1964238D01*
X36996503Y-1964237D01*
X37025499Y-1856021D01*
X37025500Y-1856021D01*
X37025500Y-1743979D01*
X37025499Y-1743978D01*
X36996503Y-1635764D01*
X36996502Y-1635760D01*
X36952792Y-1560053D01*
X36940485Y-1538737D01*
X36861263Y-1459515D01*
X36764239Y-1403497D01*
X36764235Y-1403496D01*
X36656021Y-1374500D01*
X36656018Y-1374500D01*
X36543982Y-1374500D01*
X36543979Y-1374500D01*
X36435764Y-1403496D01*
X36435760Y-1403497D01*
X36338736Y-1459515D01*
X36338736Y-1459516D01*
X36313104Y-1485148D01*
X36278456Y-1499500D01*
X36110435Y-1499500D01*
X36034013Y-1519977D01*
X36034009Y-1519978D01*
X35964599Y-1560053D01*
X35952782Y-1564948D01*
X35934013Y-1569977D01*
X35934009Y-1569979D01*
X35864598Y-1610053D01*
X35852782Y-1614948D01*
X35843862Y-1617338D01*
X35834403Y-1619872D01*
X35833635Y-1620072D01*
X35830118Y-1620951D01*
X35825753Y-1624747D01*
X35816616Y-1630022D01*
X35764597Y-1660053D01*
X35752783Y-1664947D01*
X35734009Y-1669978D01*
X35734008Y-1669978D01*
X35665682Y-1709428D01*
X35665464Y-1709553D01*
X35664358Y-1710184D01*
X35652760Y-1714954D01*
X35634012Y-1719978D01*
X35594248Y-1742935D01*
X35569750Y-1749500D01*
X35560435Y-1749500D01*
X35484013Y-1769977D01*
X35484009Y-1769978D01*
X35414599Y-1810053D01*
X35402782Y-1814948D01*
X35384013Y-1819977D01*
X35384009Y-1819979D01*
X35314598Y-1860053D01*
X35302782Y-1864948D01*
X35293862Y-1867338D01*
X35284403Y-1869872D01*
X35283635Y-1870072D01*
X35280118Y-1870951D01*
X35275755Y-1874745D01*
X35266621Y-1880019D01*
X35266618Y-1880021D01*
X35214597Y-1910053D01*
X35202783Y-1914947D01*
X35184009Y-1919978D01*
X35184008Y-1919978D01*
X35115682Y-1959428D01*
X35115464Y-1959553D01*
X35114358Y-1960184D01*
X35102760Y-1964954D01*
X35084012Y-1969978D01*
X35044248Y-1992935D01*
X35019750Y-1999500D01*
X35010435Y-1999500D01*
X34934013Y-2019977D01*
X34934009Y-2019978D01*
X34864599Y-2060053D01*
X34852782Y-2064948D01*
X34834013Y-2069977D01*
X34834009Y-2069979D01*
X34764598Y-2110053D01*
X34752782Y-2114948D01*
X34743862Y-2117338D01*
X34734403Y-2119872D01*
X34733635Y-2120072D01*
X34730118Y-2120951D01*
X34725755Y-2124745D01*
X34716621Y-2130019D01*
X34716618Y-2130021D01*
X34664597Y-2160053D01*
X34652783Y-2164947D01*
X34634009Y-2169978D01*
X34634008Y-2169978D01*
X34565682Y-2209428D01*
X34565464Y-2209553D01*
X34564358Y-2210184D01*
X34552760Y-2214954D01*
X34534012Y-2219978D01*
X34494248Y-2242935D01*
X34469750Y-2249500D01*
X34460435Y-2249500D01*
X34384013Y-2269977D01*
X34384009Y-2269978D01*
X34314599Y-2310053D01*
X34302782Y-2314948D01*
X34284013Y-2319977D01*
X34284009Y-2319979D01*
X34214598Y-2360053D01*
X34202782Y-2364948D01*
X34193862Y-2367338D01*
X34184403Y-2369872D01*
X34183635Y-2370072D01*
X34180118Y-2370951D01*
X34175755Y-2374745D01*
X34166621Y-2380019D01*
X34166618Y-2380021D01*
X34114597Y-2410053D01*
X34102783Y-2414947D01*
X34084009Y-2419978D01*
X34084008Y-2419978D01*
X34015682Y-2459428D01*
X34015464Y-2459553D01*
X34014358Y-2460184D01*
X34002760Y-2464954D01*
X33984012Y-2469978D01*
X33944248Y-2492935D01*
X33919750Y-2499500D01*
X33910435Y-2499500D01*
X33834013Y-2519977D01*
X33834009Y-2519978D01*
X33764599Y-2560053D01*
X33752782Y-2564948D01*
X33734013Y-2569977D01*
X33734009Y-2569979D01*
X33664598Y-2610053D01*
X33652782Y-2614948D01*
X33643862Y-2617338D01*
X33634403Y-2619872D01*
X33633635Y-2620072D01*
X33630118Y-2620951D01*
X33625755Y-2624745D01*
X33616621Y-2630019D01*
X33616618Y-2630021D01*
X33564597Y-2660053D01*
X33552783Y-2664947D01*
X33534009Y-2669978D01*
X33534008Y-2669978D01*
X33465682Y-2709428D01*
X33465464Y-2709553D01*
X33464358Y-2710184D01*
X33452760Y-2714954D01*
X33434010Y-2719978D01*
X33434009Y-2719978D01*
X33364599Y-2760053D01*
X33352782Y-2764948D01*
X33334013Y-2769977D01*
X33326181Y-2774499D01*
X33294248Y-2792935D01*
X33269750Y-2799500D01*
X33260435Y-2799500D01*
X33184013Y-2819977D01*
X33184009Y-2819978D01*
X33114598Y-2860053D01*
X33102782Y-2864948D01*
X33093862Y-2867338D01*
X33084403Y-2869872D01*
X33083635Y-2870072D01*
X33080118Y-2870951D01*
X33075755Y-2874745D01*
X33066621Y-2880019D01*
X33066618Y-2880021D01*
X33014597Y-2910053D01*
X33002783Y-2914947D01*
X32984009Y-2919978D01*
X32984008Y-2919978D01*
X32915682Y-2959428D01*
X32915464Y-2959553D01*
X32914358Y-2960184D01*
X32902760Y-2964954D01*
X32884010Y-2969978D01*
X32884009Y-2969978D01*
X32814599Y-3010053D01*
X32802782Y-3014948D01*
X32784013Y-3019977D01*
X32780449Y-3022035D01*
X32744248Y-3042935D01*
X32719750Y-3049500D01*
X32710435Y-3049500D01*
X32634013Y-3069977D01*
X32634009Y-3069978D01*
X32564598Y-3110053D01*
X32552782Y-3114948D01*
X32543862Y-3117338D01*
X32534403Y-3119872D01*
X32533635Y-3120072D01*
X32530118Y-3120951D01*
X32525755Y-3124745D01*
X32516621Y-3130019D01*
X32516618Y-3130021D01*
X32464602Y-3160051D01*
X32452787Y-3164945D01*
X32434014Y-3169975D01*
X32434009Y-3169978D01*
X32365488Y-3209539D01*
X26014881Y-9560148D01*
X25980233Y-9574500D01*
X25943979Y-9574500D01*
X25835764Y-9603496D01*
X25835760Y-9603497D01*
X25738736Y-9659515D01*
X25738736Y-9659516D01*
X25659516Y-9738736D01*
X25659515Y-9738736D01*
X25603497Y-9835760D01*
X25603496Y-9835764D01*
X25574500Y-9943978D01*
X25574500Y-10056021D01*
X25603496Y-10164235D01*
X25603497Y-10164239D01*
X25610288Y-10176000D01*
X25615183Y-10213182D01*
X25592353Y-10242935D01*
X25567853Y-10249500D01*
X22632147Y-10249500D01*
X22597499Y-10235148D01*
X22583147Y-10200500D01*
X22589712Y-10176000D01*
X22596502Y-10164239D01*
X22596502Y-10164238D01*
X22596503Y-10164237D01*
X22625499Y-10056021D01*
X22625500Y-10056021D01*
X22625500Y-9943979D01*
X22625499Y-9943978D01*
X22596503Y-9835764D01*
X22596502Y-9835760D01*
X22540484Y-9738736D01*
X22461263Y-9659515D01*
X22364239Y-9603497D01*
X22364235Y-9603496D01*
X22336817Y-9596149D01*
X22307064Y-9573318D01*
X22300500Y-9548819D01*
X22300500Y-6321544D01*
X22314852Y-6286896D01*
X22340484Y-6261264D01*
X22340485Y-6261263D01*
X22396503Y-6164237D01*
X22425499Y-6056021D01*
X22425500Y-6056021D01*
X22425500Y-5943979D01*
X22425499Y-5943978D01*
X22396503Y-5835764D01*
X22396502Y-5835760D01*
X22340484Y-5738736D01*
X22261263Y-5659515D01*
X22164239Y-5603497D01*
X22164235Y-5603496D01*
X22056021Y-5574500D01*
X22056018Y-5574500D01*
X21943982Y-5574500D01*
X21943979Y-5574500D01*
X21835764Y-5603496D01*
X21835760Y-5603497D01*
X21738736Y-5659515D01*
X21738736Y-5659516D01*
X21659516Y-5738736D01*
X21659515Y-5738736D01*
X21603497Y-5835760D01*
X21603496Y-5835764D01*
X21574500Y-5943978D01*
X21574500Y-6056021D01*
X21603496Y-6164235D01*
X21603497Y-6164239D01*
X21659515Y-6261263D01*
X21685148Y-6286896D01*
X21699500Y-6321544D01*
X21699500Y-9839563D01*
X21719978Y-9915987D01*
X21719979Y-9915991D01*
X21728646Y-9931002D01*
X21728651Y-9931008D01*
X21759537Y-9984507D01*
X21759542Y-9984513D01*
X21760148Y-9985119D01*
X21760313Y-9985517D01*
X21761493Y-9987055D01*
X21761080Y-9987371D01*
X21774500Y-10019767D01*
X21774500Y-10056021D01*
X21803496Y-10164235D01*
X21803497Y-10164239D01*
X21810288Y-10176000D01*
X21815183Y-10213182D01*
X21792353Y-10242935D01*
X21767853Y-10249500D01*
X19057046Y-10249500D01*
X19032546Y-10242935D01*
X18964239Y-10203497D01*
X18964235Y-10203496D01*
X18856021Y-10174500D01*
X18856018Y-10174500D01*
X18819767Y-10174500D01*
X18785119Y-10160148D01*
X15314852Y-6689881D01*
X15300500Y-6655233D01*
X15300500Y-6321544D01*
X15314852Y-6286896D01*
X15340484Y-6261264D01*
X15340485Y-6261263D01*
X15396503Y-6164237D01*
X15425499Y-6056021D01*
X15425500Y-6056021D01*
X15425500Y-5943979D01*
X15425499Y-5943978D01*
X15396503Y-5835764D01*
X15396502Y-5835760D01*
X15340484Y-5738736D01*
X15261263Y-5659515D01*
X15164239Y-5603497D01*
X15164235Y-5603496D01*
X15056021Y-5574500D01*
X15056018Y-5574500D01*
X14943982Y-5574500D01*
X14943979Y-5574500D01*
X14835764Y-5603496D01*
X14835760Y-5603497D01*
X14738736Y-5659515D01*
X14738736Y-5659516D01*
X14659516Y-5738736D01*
X14659515Y-5738736D01*
X14603497Y-5835760D01*
X14603496Y-5835764D01*
X14574500Y-5943978D01*
X300000Y-5943978D01*
X300000Y-2900796D01*
X1739500Y-2900796D01*
X1739500Y-3099203D01*
X1770536Y-3295165D01*
X1770537Y-3295168D01*
X1831849Y-3483865D01*
X1921347Y-3659516D01*
X1921923Y-3660646D01*
X2030179Y-3809648D01*
X2038545Y-3821162D01*
X2038549Y-3821167D01*
X2178833Y-3961451D01*
X2178837Y-3961454D01*
X2178839Y-3961456D01*
X2339354Y-4078077D01*
X2516136Y-4168151D01*
X2704832Y-4229463D01*
X2900796Y-4260500D01*
X2900797Y-4260500D01*
X3099203Y-4260500D01*
X3099204Y-4260500D01*
X3295168Y-4229463D01*
X3483864Y-4168151D01*
X3660646Y-4078077D01*
X3821161Y-3961456D01*
X3821164Y-3961452D01*
X3821167Y-3961451D01*
X3961451Y-3821167D01*
X3961452Y-3821164D01*
X3961456Y-3821161D01*
X4078077Y-3660646D01*
X4168151Y-3483864D01*
X4229463Y-3295168D01*
X4253408Y-3143977D01*
X8174500Y-3143977D01*
X8174500Y-3256020D01*
X8203496Y-3364234D01*
X8203497Y-3364238D01*
X8249536Y-3443978D01*
X8259515Y-3461262D01*
X8338737Y-3540484D01*
X8344789Y-3543978D01*
X8435760Y-3596501D01*
X8435762Y-3596501D01*
X8435763Y-3596502D01*
X8521111Y-3619370D01*
X8543978Y-3625498D01*
X8543979Y-3625499D01*
X8543982Y-3625499D01*
X8656021Y-3625499D01*
X8656021Y-3625498D01*
X8764237Y-3596502D01*
X8855211Y-3543978D01*
X18774500Y-3543978D01*
X18774500Y-3656021D01*
X18803496Y-3764235D01*
X18803497Y-3764239D01*
X18844793Y-3835764D01*
X18859515Y-3861263D01*
X18938737Y-3940485D01*
X18972794Y-3960148D01*
X19035760Y-3996502D01*
X19035762Y-3996502D01*
X19035763Y-3996503D01*
X19121111Y-4019371D01*
X19143978Y-4025499D01*
X19143979Y-4025500D01*
X19143982Y-4025500D01*
X19256021Y-4025500D01*
X19256021Y-4025499D01*
X19364237Y-3996503D01*
X19455213Y-3943978D01*
X22274500Y-3943978D01*
X22274500Y-4056021D01*
X22303496Y-4164235D01*
X22303497Y-4164239D01*
X22352971Y-4249929D01*
X22359515Y-4261263D01*
X22438737Y-4340485D01*
X22474249Y-4360988D01*
X22535760Y-4396502D01*
X22535762Y-4396502D01*
X22535763Y-4396503D01*
X22621111Y-4419371D01*
X22643978Y-4425499D01*
X22643979Y-4425500D01*
X22731233Y-4425500D01*
X22765881Y-4439852D01*
X22780233Y-4474500D01*
X22765881Y-4509148D01*
X22714881Y-4560148D01*
X22680233Y-4574500D01*
X22643979Y-4574500D01*
X22535764Y-4603496D01*
X22535760Y-4603497D01*
X22438736Y-4659515D01*
X22438736Y-4659516D01*
X22359516Y-4738736D01*
X22359515Y-4738736D01*
X22303497Y-4835760D01*
X22303496Y-4835764D01*
X22274500Y-4943978D01*
X22274500Y-5056021D01*
X22303496Y-5164235D01*
X22303497Y-5164239D01*
X22347206Y-5239944D01*
X22359515Y-5261263D01*
X22438737Y-5340485D01*
X22469375Y-5358174D01*
X22535760Y-5396502D01*
X22535762Y-5396502D01*
X22535763Y-5396503D01*
X22561440Y-5403383D01*
X22643978Y-5425499D01*
X22643979Y-5425500D01*
X22643982Y-5425500D01*
X22756021Y-5425500D01*
X22756021Y-5425499D01*
X22864237Y-5396503D01*
X22864241Y-5396501D01*
X22881012Y-5386818D01*
X22961263Y-5340485D01*
X23040485Y-5261263D01*
X23096503Y-5164237D01*
X23125499Y-5056021D01*
X23125500Y-5056021D01*
X23125500Y-5019767D01*
X23139852Y-4985119D01*
X23890352Y-4234619D01*
X23925000Y-4220267D01*
X23959648Y-4234619D01*
X26015489Y-6290460D01*
X26055047Y-6313299D01*
X26084008Y-6330020D01*
X26084012Y-6330022D01*
X26102786Y-6335052D01*
X26114601Y-6339946D01*
X26115485Y-6340456D01*
X26115489Y-6340460D01*
X26184012Y-6380022D01*
X26202786Y-6385052D01*
X26214601Y-6389946D01*
X26215485Y-6390456D01*
X26215489Y-6390460D01*
X26284012Y-6430022D01*
X26344286Y-6446172D01*
X26360434Y-6450499D01*
X26360435Y-6450500D01*
X26360438Y-6450500D01*
X26839564Y-6450500D01*
X26866230Y-6443354D01*
X26915989Y-6430021D01*
X26980404Y-6392830D01*
X27017585Y-6387936D01*
X27029404Y-6392831D01*
X27035763Y-6396503D01*
X27121111Y-6419371D01*
X27143978Y-6425499D01*
X27143979Y-6425500D01*
X27143982Y-6425500D01*
X27256021Y-6425500D01*
X27256021Y-6425499D01*
X27364237Y-6396503D01*
X27461263Y-6340485D01*
X27540485Y-6261263D01*
X27596503Y-6164237D01*
X27625499Y-6056021D01*
X27625500Y-6056021D01*
X27625500Y-5943979D01*
X27625499Y-5943978D01*
X27596503Y-5835764D01*
X27596502Y-5835760D01*
X27540484Y-5738736D01*
X27461263Y-5659515D01*
X27364239Y-5603497D01*
X27364235Y-5603496D01*
X27256021Y-5574500D01*
X27256018Y-5574500D01*
X27143982Y-5574500D01*
X27121615Y-5580493D01*
X27087182Y-5589719D01*
X27050000Y-5584823D01*
X27027169Y-5555070D01*
X27026124Y-5547135D01*
X27025919Y-5547163D01*
X27025499Y-5543978D01*
X26996503Y-5435764D01*
X26996502Y-5435760D01*
X26989712Y-5424000D01*
X26984817Y-5386818D01*
X27007647Y-5357065D01*
X27032147Y-5350500D01*
X27239564Y-5350500D01*
X27290513Y-5336847D01*
X27315989Y-5330021D01*
X27384511Y-5290460D01*
X27384516Y-5290454D01*
X27385401Y-5289944D01*
X27397214Y-5285051D01*
X27415989Y-5280021D01*
X27484511Y-5240460D01*
X27484516Y-5240454D01*
X27485401Y-5239944D01*
X27497214Y-5235051D01*
X27515989Y-5230021D01*
X27584511Y-5190460D01*
X27640460Y-5134511D01*
X33230991Y456020D01*
X37574500Y456020D01*
X37574500Y343977D01*
X37603496Y235763D01*
X37603497Y235759D01*
X37659515Y138735D01*
X37738736Y59515D01*
X37738736Y59514D01*
X37835760Y3496D01*
X37835764Y3495D01*
X37943978Y-25500D01*
X37943979Y-25501D01*
X37943982Y-25501D01*
X38056021Y-25501D01*
X38056021Y-25500D01*
X38088170Y-16885D01*
X38164235Y3495D01*
X38164239Y3496D01*
X38261263Y59514D01*
X38340484Y138735D01*
X38396502Y235759D01*
X38396503Y235763D01*
X38425499Y343977D01*
X38425500Y343978D01*
X38425500Y456020D01*
X38408101Y520948D01*
X38396503Y564236D01*
X38340485Y661262D01*
X38261263Y740484D01*
X38164237Y796502D01*
X38120949Y808100D01*
X38056021Y825499D01*
X38056018Y825499D01*
X37943982Y825499D01*
X37943979Y825499D01*
X37862817Y803751D01*
X37835763Y796502D01*
X37835762Y796501D01*
X37835760Y796501D01*
X37774249Y760987D01*
X37738737Y740484D01*
X37738736Y740483D01*
X37659515Y661262D01*
X37603497Y564238D01*
X37603496Y564234D01*
X37574500Y456020D01*
X33230991Y456020D01*
X34430991Y1656020D01*
X40774500Y1656020D01*
X40774500Y1543977D01*
X40803496Y1435763D01*
X40803497Y1435759D01*
X40859515Y1338735D01*
X40938736Y1259515D01*
X40938736Y1259514D01*
X41035760Y1203496D01*
X41035764Y1203495D01*
X41143978Y1174499D01*
X41143982Y1174499D01*
X41256021Y1174499D01*
X41364235Y1203495D01*
X41364239Y1203496D01*
X41461263Y1259514D01*
X41540484Y1338735D01*
X41596502Y1435759D01*
X41596503Y1435763D01*
X41625499Y1543977D01*
X41625500Y1543978D01*
X41625500Y1656020D01*
X41608101Y1720948D01*
X41596503Y1764236D01*
X41540485Y1861262D01*
X41461263Y1940484D01*
X41364237Y1996502D01*
X41320949Y2008100D01*
X41256021Y2025499D01*
X41256018Y2025499D01*
X41143982Y2025499D01*
X41143979Y2025499D01*
X41062817Y2003751D01*
X41035763Y1996502D01*
X41035762Y1996501D01*
X41035760Y1996501D01*
X40974249Y1960987D01*
X40938737Y1940484D01*
X40938736Y1940483D01*
X40859515Y1861262D01*
X40803497Y1764238D01*
X40803496Y1764234D01*
X40774500Y1656020D01*
X34430991Y1656020D01*
X35030992Y2256021D01*
X42774500Y2256021D01*
X42774500Y2143978D01*
X42803496Y2035764D01*
X42803497Y2035760D01*
X42859515Y1938736D01*
X42938736Y1859516D01*
X42938736Y1859515D01*
X43035760Y1803497D01*
X43035764Y1803496D01*
X43143978Y1774500D01*
X43143982Y1774500D01*
X43256021Y1774500D01*
X43364235Y1803496D01*
X43364239Y1803497D01*
X43461263Y1859515D01*
X43540484Y1938736D01*
X43541494Y1940484D01*
X43573836Y1996502D01*
X43596502Y2035760D01*
X43596503Y2035764D01*
X43625499Y2143978D01*
X43625500Y2143979D01*
X43625500Y2256021D01*
X43774500Y2256021D01*
X43774500Y2143978D01*
X43803496Y2035764D01*
X43803497Y2035760D01*
X43859515Y1938736D01*
X43938736Y1859516D01*
X43938736Y1859515D01*
X44035760Y1803497D01*
X44035764Y1803496D01*
X44143978Y1774500D01*
X44143982Y1774500D01*
X44256021Y1774500D01*
X44364235Y1803496D01*
X44364239Y1803497D01*
X44461263Y1859515D01*
X44540484Y1938736D01*
X44541494Y1940484D01*
X44573836Y1996502D01*
X44596502Y2035760D01*
X44596503Y2035764D01*
X44625499Y2143978D01*
X44625500Y2143979D01*
X44625500Y2256021D01*
X44774500Y2256021D01*
X44774500Y2143978D01*
X44803496Y2035764D01*
X44803497Y2035760D01*
X44859515Y1938736D01*
X44938736Y1859516D01*
X44938736Y1859515D01*
X45035760Y1803497D01*
X45035764Y1803496D01*
X45143978Y1774500D01*
X45143982Y1774500D01*
X45256021Y1774500D01*
X45364235Y1803496D01*
X45364239Y1803497D01*
X45461263Y1859515D01*
X45540484Y1938736D01*
X45541494Y1940484D01*
X45573836Y1996502D01*
X45596502Y2035760D01*
X45596503Y2035764D01*
X45625499Y2143978D01*
X45625500Y2143979D01*
X45625500Y2256021D01*
X45608101Y2320949D01*
X45596503Y2364237D01*
X45540485Y2461263D01*
X45461263Y2540485D01*
X45364237Y2596503D01*
X45320949Y2608101D01*
X45256021Y2625500D01*
X45256018Y2625500D01*
X45143982Y2625500D01*
X45143979Y2625500D01*
X45062817Y2603752D01*
X45035763Y2596503D01*
X45035762Y2596502D01*
X45035760Y2596502D01*
X44974249Y2560988D01*
X44938737Y2540485D01*
X44938736Y2540484D01*
X44859515Y2461263D01*
X44803497Y2364239D01*
X44803496Y2364235D01*
X44774500Y2256021D01*
X44625500Y2256021D01*
X44608101Y2320949D01*
X44596503Y2364237D01*
X44540485Y2461263D01*
X44461263Y2540485D01*
X44364237Y2596503D01*
X44320949Y2608101D01*
X44256021Y2625500D01*
X44256018Y2625500D01*
X44143982Y2625500D01*
X44143979Y2625500D01*
X44062817Y2603752D01*
X44035763Y2596503D01*
X44035762Y2596502D01*
X44035760Y2596502D01*
X43974249Y2560988D01*
X43938737Y2540485D01*
X43938736Y2540484D01*
X43859515Y2461263D01*
X43803497Y2364239D01*
X43803496Y2364235D01*
X43774500Y2256021D01*
X43625500Y2256021D01*
X43608101Y2320949D01*
X43596503Y2364237D01*
X43540485Y2461263D01*
X43461263Y2540485D01*
X43364237Y2596503D01*
X43320949Y2608101D01*
X43256021Y2625500D01*
X43256018Y2625500D01*
X43143982Y2625500D01*
X43143979Y2625500D01*
X43062817Y2603752D01*
X43035763Y2596503D01*
X43035762Y2596502D01*
X43035760Y2596502D01*
X42974249Y2560988D01*
X42938737Y2540485D01*
X42938736Y2540484D01*
X42859515Y2461263D01*
X42803497Y2364239D01*
X42803496Y2364235D01*
X42774500Y2256021D01*
X35030992Y2256021D01*
X36330992Y3556021D01*
X42774500Y3556021D01*
X42774500Y3443978D01*
X42803496Y3335764D01*
X42803497Y3335760D01*
X42859515Y3238736D01*
X42938736Y3159516D01*
X42938736Y3159515D01*
X43035760Y3103497D01*
X43035764Y3103496D01*
X43143978Y3074500D01*
X43143982Y3074500D01*
X43256021Y3074500D01*
X43364235Y3103496D01*
X43364239Y3103497D01*
X43461263Y3159515D01*
X43540484Y3238736D01*
X43596502Y3335760D01*
X43596503Y3335764D01*
X43625499Y3443978D01*
X43625500Y3443979D01*
X43625500Y3556021D01*
X43774500Y3556021D01*
X43774500Y3443978D01*
X43803496Y3335764D01*
X43803497Y3335760D01*
X43859515Y3238736D01*
X43938736Y3159516D01*
X43938736Y3159515D01*
X44035760Y3103497D01*
X44035764Y3103496D01*
X44143978Y3074500D01*
X44143982Y3074500D01*
X44256021Y3074500D01*
X44364235Y3103496D01*
X44364239Y3103497D01*
X44461263Y3159515D01*
X44540484Y3238736D01*
X44596502Y3335760D01*
X44596503Y3335764D01*
X44625499Y3443978D01*
X44625500Y3443979D01*
X44625500Y3556021D01*
X44774500Y3556021D01*
X44774500Y3443978D01*
X44803496Y3335764D01*
X44803497Y3335760D01*
X44859515Y3238736D01*
X44938736Y3159516D01*
X44938736Y3159515D01*
X45035760Y3103497D01*
X45035764Y3103496D01*
X45143978Y3074500D01*
X45143982Y3074500D01*
X45256021Y3074500D01*
X45364235Y3103496D01*
X45364239Y3103497D01*
X45461263Y3159515D01*
X45540484Y3238736D01*
X45596502Y3335760D01*
X45596503Y3335764D01*
X45625499Y3443978D01*
X45625500Y3443979D01*
X45625500Y3556021D01*
X45608101Y3620949D01*
X45596503Y3664237D01*
X45540485Y3761263D01*
X45461263Y3840485D01*
X45364237Y3896503D01*
X45320949Y3908101D01*
X45256021Y3925500D01*
X45256018Y3925500D01*
X45143982Y3925500D01*
X45143979Y3925500D01*
X45062817Y3903752D01*
X45035763Y3896503D01*
X45035762Y3896502D01*
X45035760Y3896502D01*
X44974249Y3860988D01*
X44938737Y3840485D01*
X44938736Y3840484D01*
X44859515Y3761263D01*
X44803497Y3664239D01*
X44803496Y3664235D01*
X44774500Y3556021D01*
X44625500Y3556021D01*
X44608101Y3620949D01*
X44596503Y3664237D01*
X44540485Y3761263D01*
X44461263Y3840485D01*
X44364237Y3896503D01*
X44320949Y3908101D01*
X44256021Y3925500D01*
X44256018Y3925500D01*
X44143982Y3925500D01*
X44143979Y3925500D01*
X44062817Y3903752D01*
X44035763Y3896503D01*
X44035762Y3896502D01*
X44035760Y3896502D01*
X43974249Y3860988D01*
X43938737Y3840485D01*
X43938736Y3840484D01*
X43859515Y3761263D01*
X43803497Y3664239D01*
X43803496Y3664235D01*
X43774500Y3556021D01*
X43625500Y3556021D01*
X43608101Y3620949D01*
X43596503Y3664237D01*
X43540485Y3761263D01*
X43461263Y3840485D01*
X43364237Y3896503D01*
X43320949Y3908101D01*
X43256021Y3925500D01*
X43256018Y3925500D01*
X43143982Y3925500D01*
X43143979Y3925500D01*
X43062817Y3903752D01*
X43035763Y3896503D01*
X43035762Y3896502D01*
X43035760Y3896502D01*
X42974249Y3860988D01*
X42938737Y3840485D01*
X42938736Y3840484D01*
X42859515Y3761263D01*
X42803497Y3664239D01*
X42803496Y3664235D01*
X42774500Y3556021D01*
X36330992Y3556021D01*
X37630992Y4856021D01*
X42774500Y4856021D01*
X42774500Y4743978D01*
X42803496Y4635764D01*
X42803497Y4635760D01*
X42859515Y4538736D01*
X42938736Y4459516D01*
X42938736Y4459515D01*
X43035760Y4403497D01*
X43035764Y4403496D01*
X43143978Y4374500D01*
X43143982Y4374500D01*
X43256021Y4374500D01*
X43364235Y4403496D01*
X43364239Y4403497D01*
X43461263Y4459515D01*
X43540484Y4538736D01*
X43596502Y4635760D01*
X43596503Y4635764D01*
X43601778Y4655448D01*
X43625499Y4743978D01*
X43625500Y4743979D01*
X43625500Y4856021D01*
X43774500Y4856021D01*
X43774500Y4743978D01*
X43803496Y4635764D01*
X43803497Y4635760D01*
X43859515Y4538736D01*
X43938736Y4459516D01*
X43938736Y4459515D01*
X44035760Y4403497D01*
X44035764Y4403496D01*
X44143978Y4374500D01*
X44143982Y4374500D01*
X44256021Y4374500D01*
X44364235Y4403496D01*
X44364239Y4403497D01*
X44461263Y4459515D01*
X44540484Y4538736D01*
X44596502Y4635760D01*
X44596503Y4635764D01*
X44601778Y4655448D01*
X44625499Y4743978D01*
X44625500Y4743979D01*
X44625500Y4856021D01*
X44774500Y4856021D01*
X44774500Y4743978D01*
X44803496Y4635764D01*
X44803497Y4635760D01*
X44859515Y4538736D01*
X44938736Y4459516D01*
X44938736Y4459515D01*
X45035760Y4403497D01*
X45035764Y4403496D01*
X45143978Y4374500D01*
X45143982Y4374500D01*
X45256021Y4374500D01*
X45364235Y4403496D01*
X45364239Y4403497D01*
X45461263Y4459515D01*
X45540484Y4538736D01*
X45596502Y4635760D01*
X45596503Y4635764D01*
X45601778Y4655448D01*
X45625499Y4743978D01*
X45625500Y4743979D01*
X45625500Y4856021D01*
X45608101Y4920949D01*
X45596503Y4964237D01*
X45540485Y5061263D01*
X45461263Y5140485D01*
X45364237Y5196503D01*
X45320949Y5208101D01*
X45256021Y5225500D01*
X45256018Y5225500D01*
X45143982Y5225500D01*
X45143979Y5225500D01*
X45062817Y5203752D01*
X45035763Y5196503D01*
X45035762Y5196502D01*
X45035760Y5196502D01*
X44974249Y5160988D01*
X44938737Y5140485D01*
X44938736Y5140484D01*
X44859515Y5061263D01*
X44803497Y4964239D01*
X44803496Y4964235D01*
X44774500Y4856021D01*
X44625500Y4856021D01*
X44608101Y4920949D01*
X44596503Y4964237D01*
X44540485Y5061263D01*
X44461263Y5140485D01*
X44364237Y5196503D01*
X44320949Y5208101D01*
X44256021Y5225500D01*
X44256018Y5225500D01*
X44143982Y5225500D01*
X44143979Y5225500D01*
X44062817Y5203752D01*
X44035763Y5196503D01*
X44035762Y5196502D01*
X44035760Y5196502D01*
X43974249Y5160988D01*
X43938737Y5140485D01*
X43938736Y5140484D01*
X43859515Y5061263D01*
X43803497Y4964239D01*
X43803496Y4964235D01*
X43774500Y4856021D01*
X43625500Y4856021D01*
X43608101Y4920949D01*
X43596503Y4964237D01*
X43540485Y5061263D01*
X43461263Y5140485D01*
X43364237Y5196503D01*
X43320949Y5208101D01*
X43256021Y5225500D01*
X43256018Y5225500D01*
X43143982Y5225500D01*
X43143979Y5225500D01*
X43062817Y5203752D01*
X43035763Y5196503D01*
X43035762Y5196502D01*
X43035760Y5196502D01*
X42974249Y5160988D01*
X42938737Y5140485D01*
X42938736Y5140484D01*
X42859515Y5061263D01*
X42803497Y4964239D01*
X42803496Y4964235D01*
X42774500Y4856021D01*
X37630992Y4856021D01*
X38440460Y5665489D01*
X38460096Y5699500D01*
X38480021Y5734011D01*
X38485050Y5752781D01*
X38489944Y5764595D01*
X38530019Y5834006D01*
X38530021Y5834010D01*
X38535051Y5852784D01*
X38539945Y5864597D01*
X38540458Y5865486D01*
X38540460Y5865488D01*
X38580021Y5934010D01*
X38585051Y5952786D01*
X38589945Y5964599D01*
X38590457Y5965486D01*
X38590460Y5965489D01*
X38630022Y6034012D01*
X38631596Y6039887D01*
X38635050Y6052776D01*
X38639944Y6064593D01*
X38653023Y6087248D01*
X38669617Y6115991D01*
X38680021Y6134011D01*
X38681509Y6139562D01*
X38681509Y6139563D01*
X38681510Y6139564D01*
X38684439Y6150500D01*
X38696957Y6197216D01*
X38700500Y6210436D01*
X38700500Y6219749D01*
X38707065Y6244249D01*
X38707090Y6244293D01*
X38730022Y6284012D01*
X38733560Y6297217D01*
X38735050Y6302776D01*
X38739944Y6314593D01*
X38756908Y6343978D01*
X38766411Y6360438D01*
X38780021Y6384011D01*
X38780239Y6384822D01*
X38781510Y6389565D01*
X38785049Y6402775D01*
X38789944Y6414593D01*
X38816413Y6460441D01*
X38830021Y6484011D01*
X38835050Y6502781D01*
X38839944Y6514595D01*
X38851956Y6535399D01*
X38880021Y6584010D01*
X38885051Y6602784D01*
X38889945Y6614597D01*
X38890458Y6615486D01*
X38890460Y6615488D01*
X38930021Y6684010D01*
X38937515Y6711981D01*
X38950500Y6760434D01*
X38950500Y6769748D01*
X38957064Y6794247D01*
X38958366Y6796502D01*
X38980021Y6834010D01*
X38985051Y6852786D01*
X38989945Y6864599D01*
X38990457Y6865486D01*
X38990460Y6865489D01*
X39030022Y6934012D01*
X39035052Y6952785D01*
X39039945Y6964597D01*
X39040458Y6965486D01*
X39040460Y6965488D01*
X39080021Y7034010D01*
X39085050Y7052780D01*
X39089943Y7064592D01*
X39101443Y7084511D01*
X39116409Y7110434D01*
X39130021Y7134011D01*
X39131509Y7139562D01*
X39135050Y7152779D01*
X39139946Y7164601D01*
X39140456Y7165485D01*
X39140460Y7165489D01*
X39180022Y7234012D01*
X39196172Y7294286D01*
X39200499Y7310434D01*
X39200500Y7310435D01*
X39200500Y7319748D01*
X39207064Y7344247D01*
X39227715Y7380017D01*
X39230021Y7384011D01*
X39231322Y7388866D01*
X39231509Y7389562D01*
X39235050Y7402779D01*
X39239946Y7414601D01*
X39240456Y7415485D01*
X39240460Y7415489D01*
X39280022Y7484012D01*
X39285052Y7502785D01*
X39289945Y7514598D01*
X39290457Y7515485D01*
X39290460Y7515488D01*
X39330022Y7584011D01*
X39335052Y7602787D01*
X39339946Y7614601D01*
X39340456Y7615485D01*
X39340460Y7615489D01*
X39380022Y7684012D01*
X39385052Y7702785D01*
X39389945Y7714597D01*
X39390458Y7715486D01*
X39390460Y7715488D01*
X39424819Y7775000D01*
X39454572Y7797830D01*
X39467254Y7799500D01*
X39478998Y7799500D01*
X39614318Y7826417D01*
X39614329Y7826420D01*
X39741807Y7879223D01*
X39741808Y7879223D01*
X39741811Y7879225D01*
X39788074Y7910137D01*
X39856539Y7955883D01*
X39954116Y8053460D01*
X40004258Y8128503D01*
X40035441Y8149338D01*
X40072223Y8142022D01*
X40085742Y8128503D01*
X40135883Y8053460D01*
X40233460Y7955883D01*
X40348192Y7879223D01*
X40475670Y7826420D01*
X40475681Y7826417D01*
X40611001Y7799500D01*
X40611007Y7799500D01*
X40748998Y7799500D01*
X40884318Y7826417D01*
X40884329Y7826420D01*
X41011807Y7879223D01*
X41011808Y7879223D01*
X41011811Y7879225D01*
X41058074Y7910137D01*
X41126539Y7955883D01*
X41224116Y8053460D01*
X41254613Y8099102D01*
X41300775Y8168189D01*
X41353580Y8295672D01*
X41354342Y8299500D01*
X41380499Y8431001D01*
X41380500Y8431007D01*
X41380500Y8568993D01*
X41380499Y8568998D01*
X41353582Y8704318D01*
X41353581Y8704318D01*
X41353580Y8704328D01*
X41300775Y8831811D01*
X41224114Y8946542D01*
X41126542Y9044114D01*
X41011811Y9120775D01*
X40884328Y9173580D01*
X40748993Y9200500D01*
X40611007Y9200500D01*
X40611001Y9200499D01*
X40475681Y9173582D01*
X40475678Y9173581D01*
X40475672Y9173580D01*
X40348189Y9120775D01*
X40279102Y9074613D01*
X40233460Y9044116D01*
X40135883Y8946539D01*
X40085742Y8871496D01*
X40054560Y8850661D01*
X40017777Y8857977D01*
X40004258Y8871496D01*
X39954116Y8946539D01*
X39954114Y8946542D01*
X39856542Y9044114D01*
X39741811Y9120775D01*
X39614328Y9173580D01*
X39478993Y9200500D01*
X39341007Y9200500D01*
X39341001Y9200499D01*
X39205681Y9173582D01*
X39205678Y9173581D01*
X39205672Y9173580D01*
X39078189Y9120775D01*
X39009102Y9074613D01*
X38963460Y9044116D01*
X38865883Y8946539D01*
X38815742Y8871496D01*
X38784560Y8850661D01*
X38747777Y8857977D01*
X38734258Y8871496D01*
X38684116Y8946539D01*
X38684114Y8946542D01*
X38586542Y9044114D01*
X38471811Y9120775D01*
X38344328Y9173580D01*
X38208993Y9200500D01*
X38071007Y9200500D01*
X38071001Y9200499D01*
X37935681Y9173582D01*
X37935678Y9173581D01*
X37935672Y9173580D01*
X37808189Y9120775D01*
X37739102Y9074613D01*
X37693460Y9044116D01*
X37595883Y8946539D01*
X37545742Y8871496D01*
X37514560Y8850661D01*
X37477777Y8857977D01*
X37464258Y8871496D01*
X37414116Y8946539D01*
X37414114Y8946542D01*
X37316542Y9044114D01*
X37201811Y9120775D01*
X37074328Y9173580D01*
X36938993Y9200500D01*
X36801007Y9200500D01*
X36801001Y9200499D01*
X36665681Y9173582D01*
X36665678Y9173581D01*
X36665672Y9173580D01*
X36538189Y9120775D01*
X36469102Y9074613D01*
X36423460Y9044116D01*
X36325883Y8946539D01*
X36280137Y8878074D01*
X36249225Y8831811D01*
X36249223Y8831808D01*
X36249223Y8831807D01*
X36196420Y8704329D01*
X36196417Y8704318D01*
X36169500Y8568998D01*
X36169500Y8431008D01*
X36187042Y8342808D01*
X36179724Y8306026D01*
X36173631Y8298602D01*
X35922034Y8047005D01*
X35900071Y8034324D01*
X35884011Y8030021D01*
X35884007Y8030019D01*
X35844248Y8007064D01*
X35819748Y8000499D01*
X35760435Y8000499D01*
X35703118Y7985140D01*
X35684012Y7980021D01*
X35644248Y7957063D01*
X35619750Y7950499D01*
X35460435Y7950499D01*
X35404083Y7935399D01*
X35384012Y7930021D01*
X35315489Y7890459D01*
X35315488Y7890458D01*
X35315487Y7890457D01*
X24889881Y-2535148D01*
X24855233Y-2549500D01*
X24760436Y-2549500D01*
X24684012Y-2569978D01*
X24684008Y-2569979D01*
X24648537Y-2590460D01*
X24640275Y-2595230D01*
X24615492Y-2609537D01*
X24615486Y-2609542D01*
X24309541Y-2915488D01*
X24309540Y-2915488D01*
X24269980Y-2984008D01*
X24269976Y-2984017D01*
X24265673Y-3000073D01*
X24252992Y-3022035D01*
X23209148Y-4065880D01*
X23174500Y-4080232D01*
X23139852Y-4065880D01*
X23125500Y-4031232D01*
X23125500Y-3943979D01*
X23125499Y-3943978D01*
X23103336Y-3861264D01*
X23096503Y-3835763D01*
X23096502Y-3835762D01*
X23096502Y-3835760D01*
X23060988Y-3774249D01*
X23040485Y-3738737D01*
X22961263Y-3659515D01*
X22864239Y-3603497D01*
X22864235Y-3603496D01*
X22756021Y-3574500D01*
X22756018Y-3574500D01*
X22643982Y-3574500D01*
X22643979Y-3574500D01*
X22535764Y-3603496D01*
X22535760Y-3603497D01*
X22438736Y-3659515D01*
X22438736Y-3659516D01*
X22359516Y-3738736D01*
X22359515Y-3738736D01*
X22303497Y-3835760D01*
X22303496Y-3835764D01*
X22274500Y-3943978D01*
X19455213Y-3943978D01*
X19461263Y-3940485D01*
X19540485Y-3861263D01*
X19596503Y-3764237D01*
X19625499Y-3656021D01*
X19625500Y-3656021D01*
X19625500Y-3543979D01*
X19625499Y-3543978D01*
X19619012Y-3519767D01*
X19596503Y-3435763D01*
X19596502Y-3435762D01*
X19596502Y-3435760D01*
X19541494Y-3340485D01*
X19540485Y-3338737D01*
X19461263Y-3259515D01*
X19364239Y-3203497D01*
X19364235Y-3203496D01*
X19256021Y-3174500D01*
X19256018Y-3174500D01*
X19143982Y-3174500D01*
X19143979Y-3174500D01*
X19035764Y-3203496D01*
X19035760Y-3203497D01*
X18938736Y-3259515D01*
X18938736Y-3259516D01*
X18859516Y-3338736D01*
X18859515Y-3338736D01*
X18803497Y-3435760D01*
X18803496Y-3435764D01*
X18774500Y-3543978D01*
X8855211Y-3543978D01*
X8861263Y-3540484D01*
X8940485Y-3461262D01*
X8996503Y-3364236D01*
X9025499Y-3256020D01*
X9025500Y-3256020D01*
X9025500Y-3143978D01*
X9025499Y-3143977D01*
X9002868Y-3059516D01*
X8996503Y-3035762D01*
X8993188Y-3030021D01*
X8970050Y-2989944D01*
X8943511Y-2943978D01*
X22274500Y-2943978D01*
X22274500Y-3056021D01*
X22303496Y-3164235D01*
X22303497Y-3164239D01*
X22356486Y-3256017D01*
X22359515Y-3261263D01*
X22438737Y-3340485D01*
X22474249Y-3360988D01*
X22535760Y-3396502D01*
X22535762Y-3396502D01*
X22535763Y-3396503D01*
X22621111Y-3419371D01*
X22643978Y-3425499D01*
X22643979Y-3425500D01*
X22643982Y-3425500D01*
X22756021Y-3425500D01*
X22756021Y-3425499D01*
X22864237Y-3396503D01*
X22961263Y-3340485D01*
X23040485Y-3261263D01*
X23090578Y-3174500D01*
X23096502Y-3164239D01*
X23096502Y-3164238D01*
X23096503Y-3164237D01*
X23125499Y-3056021D01*
X23125500Y-3056021D01*
X23125500Y-2943979D01*
X23125499Y-2943978D01*
X23108362Y-2880021D01*
X23096503Y-2835763D01*
X23096502Y-2835762D01*
X23096502Y-2835760D01*
X23052792Y-2760053D01*
X23040485Y-2738737D01*
X22961263Y-2659515D01*
X22928259Y-2640460D01*
X22864239Y-2603497D01*
X22864235Y-2603496D01*
X22756021Y-2574500D01*
X22756018Y-2574500D01*
X22643982Y-2574500D01*
X22643979Y-2574500D01*
X22535764Y-2603496D01*
X22535760Y-2603497D01*
X22438736Y-2659515D01*
X22438736Y-2659516D01*
X22359516Y-2738736D01*
X22359515Y-2738736D01*
X22303497Y-2835760D01*
X22303496Y-2835764D01*
X22274500Y-2943978D01*
X8943511Y-2943978D01*
X8940485Y-2938736D01*
X8861263Y-2859514D01*
X8857021Y-2857065D01*
X8764239Y-2803496D01*
X8764235Y-2803495D01*
X8656021Y-2774499D01*
X8656018Y-2774499D01*
X8543982Y-2774499D01*
X8543979Y-2774499D01*
X8435764Y-2803495D01*
X8435760Y-2803496D01*
X8338736Y-2859514D01*
X8338736Y-2859515D01*
X8259516Y-2938735D01*
X8259515Y-2938735D01*
X8203497Y-3035759D01*
X8203496Y-3035763D01*
X8174500Y-3143977D01*
X4253408Y-3143977D01*
X4254239Y-3138733D01*
X4255131Y-3133104D01*
X4260500Y-3099203D01*
X4260500Y-2900796D01*
X4250200Y-2835763D01*
X4229463Y-2704832D01*
X4168151Y-2516136D01*
X4078077Y-2339354D01*
X3961456Y-2178839D01*
X3961454Y-2178837D01*
X3961451Y-2178833D01*
X3821167Y-2038549D01*
X3821162Y-2038545D01*
X3795605Y-2019977D01*
X3660646Y-1921923D01*
X3660645Y-1921922D01*
X3660643Y-1921921D01*
X3483865Y-1831849D01*
X3295168Y-1770537D01*
X3295165Y-1770536D01*
X3144628Y-1746694D01*
X3099204Y-1739500D01*
X2900796Y-1739500D01*
X2872516Y-1743979D01*
X2704834Y-1770536D01*
X2704831Y-1770537D01*
X2516134Y-1831849D01*
X2339356Y-1921921D01*
X2178837Y-2038545D01*
X2038545Y-2178837D01*
X1921921Y-2339356D01*
X1831849Y-2516134D01*
X1770537Y-2704831D01*
X1770536Y-2704834D01*
X1739500Y-2900796D01*
X300000Y-2900796D01*
X300000Y-943978D01*
X19774500Y-943978D01*
X19774500Y-1056021D01*
X19803496Y-1164235D01*
X19803497Y-1164239D01*
X19854616Y-1252778D01*
X19859515Y-1261263D01*
X19938737Y-1340485D01*
X19971736Y-1359537D01*
X20035760Y-1396502D01*
X20035762Y-1396502D01*
X20035763Y-1396503D01*
X20087725Y-1410426D01*
X20143978Y-1425499D01*
X20143979Y-1425500D01*
X20143982Y-1425500D01*
X20256021Y-1425500D01*
X20256021Y-1425499D01*
X20364237Y-1396503D01*
X20461263Y-1340485D01*
X20540485Y-1261263D01*
X20596503Y-1164237D01*
X20625499Y-1056021D01*
X20625500Y-1056021D01*
X20625500Y-943979D01*
X20625499Y-943978D01*
X20619371Y-921111D01*
X20596503Y-835763D01*
X20596502Y-835762D01*
X20596502Y-835760D01*
X20541494Y-740485D01*
X20540485Y-738737D01*
X20461263Y-659515D01*
X20364239Y-603497D01*
X20364235Y-603496D01*
X20256021Y-574500D01*
X20256018Y-574500D01*
X20143982Y-574500D01*
X20143979Y-574500D01*
X20035764Y-603496D01*
X20035760Y-603497D01*
X19938736Y-659515D01*
X19938736Y-659516D01*
X19859516Y-738736D01*
X19859515Y-738736D01*
X19803497Y-835760D01*
X19803496Y-835764D01*
X19774500Y-943978D01*
X300000Y-943978D01*
X300000Y7219748D01*
X399500Y7219748D01*
X399500Y4780252D01*
X411133Y4721769D01*
X455447Y4655447D01*
X521769Y4611133D01*
X580252Y4599500D01*
X580255Y4599500D01*
X3019745Y4599500D01*
X3019748Y4599500D01*
X3078231Y4611133D01*
X3104795Y4628882D01*
X3144552Y4655447D01*
X3162301Y4682012D01*
X3188867Y4721769D01*
X3200500Y4780252D01*
X3200500Y6856020D01*
X27574500Y6856020D01*
X27574500Y6743977D01*
X27603496Y6635763D01*
X27603497Y6635759D01*
X27659515Y6538735D01*
X27738736Y6459515D01*
X27738736Y6459514D01*
X27835760Y6403496D01*
X27835764Y6403495D01*
X27943978Y6374499D01*
X27943982Y6374499D01*
X28056017Y6374499D01*
X28056018Y6374499D01*
X28091518Y6384011D01*
X28112818Y6389718D01*
X28150000Y6384822D01*
X28172831Y6355069D01*
X28173875Y6347135D01*
X28174081Y6347163D01*
X28174500Y6343978D01*
X28203496Y6235764D01*
X28203497Y6235760D01*
X28259515Y6138736D01*
X28338736Y6059516D01*
X28338736Y6059515D01*
X28435760Y6003497D01*
X28435764Y6003496D01*
X28543978Y5974500D01*
X28543982Y5974500D01*
X28656021Y5974500D01*
X28764235Y6003496D01*
X28764239Y6003497D01*
X28861263Y6059515D01*
X28940484Y6138736D01*
X28940962Y6139563D01*
X28974248Y6197216D01*
X28996502Y6235760D01*
X28996503Y6235764D01*
X29025499Y6343978D01*
X29025500Y6343979D01*
X29025500Y6456021D01*
X29004230Y6535399D01*
X28996503Y6564237D01*
X28995494Y6565984D01*
X28968494Y6612750D01*
X28940485Y6661263D01*
X28861263Y6740485D01*
X28764237Y6796503D01*
X28720949Y6808101D01*
X28656021Y6825500D01*
X28656018Y6825500D01*
X28543982Y6825500D01*
X28543979Y6825500D01*
X28487182Y6810281D01*
X28450000Y6815176D01*
X28427170Y6844929D01*
X28426125Y6852863D01*
X28425919Y6852836D01*
X28425500Y6856012D01*
X28425500Y6856017D01*
X28396503Y6964236D01*
X28340485Y7061262D01*
X28261263Y7140484D01*
X28164237Y7196502D01*
X28120949Y7208100D01*
X28056021Y7225499D01*
X28056018Y7225499D01*
X27943982Y7225499D01*
X27943979Y7225499D01*
X27862817Y7203751D01*
X27835763Y7196502D01*
X27835762Y7196501D01*
X27835760Y7196501D01*
X27782047Y7165489D01*
X27738737Y7140484D01*
X27738736Y7140483D01*
X27659515Y7061262D01*
X27603497Y6964238D01*
X27603496Y6964234D01*
X27574500Y6856020D01*
X3200500Y6856020D01*
X3200500Y7219748D01*
X3188867Y7278231D01*
X3144552Y7344552D01*
X3078231Y7388867D01*
X3019748Y7400500D01*
X580252Y7400500D01*
X521769Y7388867D01*
X493499Y7369977D01*
X455447Y7344552D01*
X438874Y7319748D01*
X411133Y7278231D01*
X399500Y7219748D01*
X300000Y7219748D01*
X300000Y9651000D01*
X314352Y9685648D01*
X349000Y9700000D01*
X28300000Y9700000D01*
X28300000Y14651000D01*
X28314352Y14685648D01*
X28349000Y14700000D01*
X31202311Y14700000D01*
X31236959Y14685648D01*
G37*
%TD.AperFunction*%
%TD*%
M02*
