%TF.GenerationSoftware,KiCad,Pcbnew,10.0.6*%
%TF.CreationDate,2026-09-14T01:04:56+08:00*%
%TF.ProjectId,Microduck_Power_Regen_R22,4d696372-6f64-4756-936b-5f506f776572,rev?*%
%TF.SameCoordinates,Original*%
%TF.FileFunction,Paste,Bot*%
%TF.FilePolarity,Positive*%
%FSLAX46Y46*%
G04 Gerber Fmt 4.6, Leading zero omitted, Abs format (unit mm)*
G04 Created by KiCad (PCBNEW 10.0.6) date 2026-09-14 01:04:56*
%MOMM*%
%LPD*%
G01*
G04 APERTURE LIST*
G04 Aperture macros list*
%AMRoundRect*
0 Rectangle with rounded corners*
0 $1 Rounding radius*
0 $2 $3 $4 $5 $6 $7 $8 $9 X,Y pos of 4 corners*
0 Add a 4 corners polygon primitive as box body*
4,1,4,$2,$3,$4,$5,$6,$7,$8,$9,$2,$3,0*
0 Add four circle primitives for the rounded corners*
1,1,$1+$1,$2,$3*
1,1,$1+$1,$4,$5*
1,1,$1+$1,$6,$7*
1,1,$1+$1,$8,$9*
0 Add four rect primitives between the rounded corners*
20,1,$1+$1,$2,$3,$4,$5,0*
20,1,$1+$1,$4,$5,$6,$7,0*
20,1,$1+$1,$6,$7,$8,$9,0*
20,1,$1+$1,$8,$9,$2,$3,0*%
G04 Aperture macros list end*
%ADD10RoundRect,0.150000X0.587500X0.150000X-0.587500X0.150000X-0.587500X-0.150000X0.587500X-0.150000X0*%
%ADD11RoundRect,0.200000X0.200000X0.275000X-0.200000X0.275000X-0.200000X-0.275000X0.200000X-0.275000X0*%
%ADD12RoundRect,0.200000X0.275000X-0.200000X0.275000X0.200000X-0.275000X0.200000X-0.275000X-0.200000X0*%
%ADD13RoundRect,0.250000X0.325000X1.100000X-0.325000X1.100000X-0.325000X-1.100000X0.325000X-1.100000X0*%
%ADD14RoundRect,0.150000X0.512500X0.150000X-0.512500X0.150000X-0.512500X-0.150000X0.512500X-0.150000X0*%
%ADD15RoundRect,0.225000X0.225000X0.250000X-0.225000X0.250000X-0.225000X-0.250000X0.225000X-0.250000X0*%
%ADD16RoundRect,0.075000X0.650000X0.075000X-0.650000X0.075000X-0.650000X-0.075000X0.650000X-0.075000X0*%
%ADD17RoundRect,0.225000X0.250000X-0.225000X0.250000X0.225000X-0.250000X0.225000X-0.250000X-0.225000X0*%
%ADD18RoundRect,0.150000X0.150000X0.355000X-0.150000X0.355000X-0.150000X-0.355000X0.150000X-0.355000X0*%
%ADD19RoundRect,0.062500X0.375000X0.062500X-0.375000X0.062500X-0.375000X-0.062500X0.375000X-0.062500X0*%
G04 APERTURE END LIST*
D10*
%TO.C,Q3*%
X6937500Y-27050000D03*
X6937500Y-28950000D03*
X5062500Y-28000000D03*
%TD*%
%TO.C,U102*%
X13937500Y-6050000D03*
X13937500Y-7950000D03*
X12062500Y-7000000D03*
%TD*%
D11*
%TO.C,R101*%
X13825000Y-13000000D03*
X12175000Y-13000000D03*
%TD*%
%TO.C,R110*%
X24825000Y-7000000D03*
X23175000Y-7000000D03*
%TD*%
D12*
%TO.C,R4*%
X42000000Y-29825000D03*
X42000000Y-28175000D03*
%TD*%
D13*
%TO.C,C13*%
X14475000Y-19000000D03*
X11525000Y-19000000D03*
%TD*%
D14*
%TO.C,U104*%
X40137500Y-1050000D03*
X40137500Y-2000000D03*
X40137500Y-2950000D03*
X37862500Y-2950000D03*
X37862500Y-2000000D03*
X37862500Y-1050000D03*
%TD*%
D11*
%TO.C,R105*%
X38825000Y5000000D03*
X37175000Y5000000D03*
%TD*%
D15*
%TO.C,C6*%
X41775000Y-36000000D03*
X40225000Y-36000000D03*
%TD*%
D12*
%TO.C,R5*%
X42000000Y-25825000D03*
X42000000Y-24175000D03*
%TD*%
D15*
%TO.C,C10*%
X33775000Y-48000000D03*
X32225000Y-48000000D03*
%TD*%
D13*
%TO.C,C17*%
X21475000Y-23000000D03*
X18525000Y-23000000D03*
%TD*%
D11*
%TO.C,R11*%
X30825000Y-48000000D03*
X29175000Y-48000000D03*
%TD*%
D16*
%TO.C,U4*%
X55100000Y-28000000D03*
X55100000Y-28500000D03*
X55100000Y-29000000D03*
X55100000Y-29500000D03*
X55100000Y-30000000D03*
X50900000Y-30000000D03*
X50900000Y-29500000D03*
X50900000Y-29000000D03*
X50900000Y-28500000D03*
X50900000Y-28000000D03*
%TD*%
D11*
%TO.C,R109*%
X22825000Y2500000D03*
X21175000Y2500000D03*
%TD*%
D17*
%TO.C,C106*%
X35700000Y-2775000D03*
X35700000Y-1225000D03*
%TD*%
D15*
%TO.C,C108*%
X18275000Y-4000000D03*
X16725000Y-4000000D03*
%TD*%
D11*
%TO.C,R104*%
X38825000Y1000000D03*
X37175000Y1000000D03*
%TD*%
%TO.C,R103*%
X23825000Y-15000000D03*
X22175000Y-15000000D03*
%TD*%
D10*
%TO.C,U101*%
X7937500Y-6050000D03*
X7937500Y-7950000D03*
X6062500Y-7000000D03*
%TD*%
D11*
%TO.C,R102*%
X17825000Y-14000000D03*
X16175000Y-14000000D03*
%TD*%
D16*
%TO.C,U3*%
X32100000Y-44000000D03*
X32100000Y-44500000D03*
X32100000Y-45000000D03*
X32100000Y-45500000D03*
X32100000Y-46000000D03*
X27900000Y-46000000D03*
X27900000Y-45500000D03*
X27900000Y-45000000D03*
X27900000Y-44500000D03*
X27900000Y-44000000D03*
%TD*%
D11*
%TO.C,R6*%
X32825000Y-41000000D03*
X31175000Y-41000000D03*
%TD*%
%TO.C,R108*%
X22825000Y0D03*
X21175000Y0D03*
%TD*%
D15*
%TO.C,C12*%
X9775000Y-20000000D03*
X8225000Y-20000000D03*
%TD*%
D12*
%TO.C,R1*%
X39000000Y-24825000D03*
X39000000Y-23175000D03*
%TD*%
D13*
%TO.C,C18*%
X14475000Y-27000000D03*
X11525000Y-27000000D03*
%TD*%
D18*
%TO.C,U2*%
X44375000Y-40625000D03*
X44375000Y-39375000D03*
X43625000Y-40625000D03*
X43625000Y-39375000D03*
D19*
X45437500Y-38750000D03*
X45437500Y-39250000D03*
X45437500Y-39750000D03*
X45437500Y-40250000D03*
X45437500Y-40750000D03*
X45437500Y-41250000D03*
X42562500Y-41250000D03*
X42562500Y-40750000D03*
X42562500Y-40250000D03*
X42562500Y-39750000D03*
X42562500Y-39250000D03*
X42562500Y-38750000D03*
%TD*%
D11*
%TO.C,R107*%
X24825000Y-11000000D03*
X23175000Y-11000000D03*
%TD*%
D13*
%TO.C,C14*%
X21475000Y-19000000D03*
X18525000Y-19000000D03*
%TD*%
D15*
%TO.C,C4*%
X27775000Y-35000000D03*
X26225000Y-35000000D03*
%TD*%
%TO.C,C9*%
X26775000Y-50000000D03*
X25225000Y-50000000D03*
%TD*%
%TO.C,C102*%
X8775000Y-4000000D03*
X7225000Y-4000000D03*
%TD*%
D16*
%TO.C,U105*%
X28100000Y-3000000D03*
X28100000Y-3500000D03*
X28100000Y-4000000D03*
X28100000Y-4500000D03*
X28100000Y-5000000D03*
X23900000Y-5000000D03*
X23900000Y-4500000D03*
X23900000Y-4000000D03*
X23900000Y-3500000D03*
X23900000Y-3000000D03*
%TD*%
D15*
%TO.C,C7*%
X46775000Y-44000000D03*
X45225000Y-44000000D03*
%TD*%
D11*
%TO.C,R106*%
X47825000Y2000000D03*
X46175000Y2000000D03*
%TD*%
D12*
%TO.C,R8*%
X29000000Y-38825000D03*
X29000000Y-37175000D03*
%TD*%
D15*
%TO.C,C104*%
X17275000Y-8000000D03*
X15725000Y-8000000D03*
%TD*%
D17*
%TO.C,C107*%
X35700000Y2725000D03*
X35700000Y4275000D03*
%TD*%
D13*
%TO.C,C16*%
X14475000Y-23000000D03*
X11525000Y-23000000D03*
%TD*%
D15*
%TO.C,C103*%
X7775000Y-10000000D03*
X6225000Y-10000000D03*
%TD*%
D12*
%TO.C,R7*%
X35000000Y-38825000D03*
X35000000Y-37175000D03*
%TD*%
D15*
%TO.C,C5*%
X41775000Y-34000000D03*
X40225000Y-34000000D03*
%TD*%
%TO.C,C109*%
X21775000Y-4000000D03*
X20225000Y-4000000D03*
%TD*%
D12*
%TO.C,R9*%
X61000000Y-29825000D03*
X61000000Y-28175000D03*
%TD*%
D17*
%TO.C,C105*%
X43000000Y-5775000D03*
X43000000Y-4225000D03*
%TD*%
D10*
%TO.C,Q102*%
X20937500Y-6050000D03*
X20937500Y-7950000D03*
X19062500Y-7000000D03*
%TD*%
D13*
%TO.C,C19*%
X21475000Y-27000000D03*
X18525000Y-27000000D03*
%TD*%
D15*
%TO.C,C11*%
X57775000Y-26500000D03*
X56225000Y-26500000D03*
%TD*%
D14*
%TO.C,U103*%
X21137500Y-10050000D03*
X21137500Y-11000000D03*
X21137500Y-11950000D03*
X18862500Y-11950000D03*
X18862500Y-10050000D03*
%TD*%
D15*
%TO.C,C8*%
X60775000Y-39000000D03*
X59225000Y-39000000D03*
%TD*%
%TO.C,C15*%
X36775000Y-14000000D03*
X35225000Y-14000000D03*
%TD*%
D11*
%TO.C,R3*%
X24825000Y-35000000D03*
X23175000Y-35000000D03*
%TD*%
%TO.C,R10*%
X26825000Y-48000000D03*
X25175000Y-48000000D03*
%TD*%
D12*
%TO.C,R2*%
X39000000Y-29825000D03*
X39000000Y-28175000D03*
%TD*%
M02*
